<?xml version="1.0" encoding="utf-8"?>
<!-- Generator: Adobe Illustrator 18.1.0, SVG Export Plug-In . SVG Version: 6.00 Build 0)  -->
<svg version="1.1" id="Layer_1" xmlns="http://www.w3.org/2000/svg" xmlns:xlink="http://www.w3.org/1999/xlink" x="0px" y="0px"
	 viewBox="0 0 236 144" enable-background="new 0 0 236 144" xml:space="preserve">
<g>
	<rect x="54" y="88" fill="#EDEDED" width="16" height="16"/>
</g>
<g>
	<g>
		<g>
			<rect y="40" fill="#DBDBDB" width="36" height="48"/>
		</g>
	</g>
	<g>
		<g>
			<rect x="12" y="32" fill="#404040" width="64" height="64"/>
		</g>
	</g>
	<g>
		<g>
			<rect x="44" y="32" fill="#404040" width="64" height="64"/>
		</g>
	</g>
	<g>
		<g>
			<polygon fill="#DBDBDB" points="228,8 108,40 108,88 228,120 			"/>
		</g>
	</g>
	<g>
		<g>
			<rect x="12" y="32" fill="#545454" width="96" height="32"/>
		</g>
	</g>
	<g>
		<g>
			<polygon fill="#DBDBDB" points="36,144 60,144 68,96 36,96 			"/>
		</g>
	</g>
	<g>
		<g>
			<rect x="28" y="40" fill="#EDEDED" width="64" height="8"/>
		</g>
	</g>
	<g>
		<g>
			<polygon fill="#EDEDED" points="228,8 108,40 108,64 228,64 			"/>
		</g>
	</g>
	<g>
		<g>
			<rect y="40" fill="#EDEDED" width="12" height="24"/>
		</g>
	</g>
	<g>
		<g>
			<rect x="228" fill="#404040" width="8" height="128"/>
		</g>
	</g>
	<g>
		<g>
			<rect x="228" fill="#545454" width="8" height="64"/>
		</g>
	</g>
</g>
<text transform="matrix(1 0 0 1 12.7598 248)" fill="#FFFFFF" font-family="'Roboto-Bold'" font-size="36">PROMOTION</text>
</svg>
