<svg id="Layer_1" data-name="Layer 1" xmlns="http://www.w3.org/2000/svg" viewBox="0 0 508.34 556.31"><defs><style>.cls-1{fill:#441211;}.cls-2{fill:#82151f;}.cls-3{fill:#6d121f;}.cls-4{fill:#be1e2d;}.cls-5{opacity:0.73;}.cls-6{fill:#ccc;}</style></defs><title>JEMFest_logo</title><polygon class="cls-1" points="407.23 320.21 271.72 320.21 142.44 435.48 275.67 435.48 407.23 320.21"/><polygon class="cls-1" points="142.44 435.48 142.25 552.38 142.44 552.21 142.44 435.48"/><rect class="cls-2" x="196.77" y="320.21" width="114.18" height="125.67"/><polygon class="cls-1" points="508.34 120.64 347.44 199.39 100.55 199.39 262.77 120.64 508.34 120.64"/><rect class="cls-2" x="196.77" y="120.64" width="114.18" height="78.74"/><rect class="cls-3" x="197.1" y="320.21" width="114.18" height="14.47"/><path class="cls-4" d="M151.95,316.82v16.27h9.57v9h-9.57v70.29h9.57v9h-9.57v16.27H458.56V316.82H151.95Zm37.57,104.56h-10v-9h10v9Zm0-79.29h-10v-9h10v9Zm28,79.29h-10v-9h10v9Zm0-79.29h-10v-9h10v9Zm28,79.29h-10v-9h10v9Zm0-79.29h-10v-9h10v9Zm28,79.29h-10v-9h10v9Zm0-79.29h-10v-9h10v9Zm28,79.29h-10v-9h10v9Zm0-79.29h-10v-9h10v9Zm28,79.29h-10v-9h10v9Zm0-79.29h-10v-9h10v9Zm28,79.29h-10v-9h10v9Zm0-79.29h-10v-9h10v9Zm28,79.29h-10v-9h10v9Zm0-79.29h-10v-9h10v9Zm28,79.29h-10v-9h10v9Zm0-79.29h-10v-9h10v9Zm28,79.29h-10v-9h10v9Zm0-79.29h-10v-9h10v9Z" transform="translate(-51.39 -117.43)"/><path class="cls-4" d="M396.58,571.05h20.14V552.91H193.79v16.27h9.81v9h-9.81v70.29h9.81v9h-9.81v16.27H416.72V655.6H396.58a5.53,5.53,0,0,1-5.52-5.52V576.57A5.53,5.53,0,0,1,396.58,571.05Zm-165,86.42h-10v-9h10v9Zm0-79.29h-10v-9h10v9Zm28,79.29h-10v-9h10v9Zm0-79.29h-10v-9h10v9Zm28,79.29h-10v-9h10v9Zm0-79.29h-10v-9h10v9Zm28,79.29h-10v-9h10v9Zm0-79.29h-10v-9h10v9Zm28,79.29h-10v-9h10v9Zm0-79.29h-10v-9h10v9Zm28,79.29h-10v-9h10v9Zm0-79.29h-10v-9h10v9Z" transform="translate(-51.39 -117.43)"/><polygon class="cls-5" points="461.81 151.93 462.39 151.93 462.39 151.78 462.1 151.78 461.81 151.93"/><polygon class="cls-6" points="462.39 151.63 462.39 151.78 462.11 151.78 462.39 151.63"/><path class="cls-4" d="M51.39,117.43v12.49H68.94a5.53,5.53,0,0,1,5.52,5.52v84.63a5.53,5.53,0,0,1-5.52,5.52H51.39v12.49H558.76l0.36-.18V117.43H51.39ZM97,221.68H87v-9H97v9Zm0-79.29H87v-9H97v9Zm28,79.29H115v-9h10v9Zm0-79.29H115v-9h10v9Zm28,79.29H143v-9h10v9Zm0-79.29H143v-9h10v9Zm28,79.29H171v-9h10v9Zm0-79.29H171v-9h10v9Zm28,79.29H199v-9h10v9Zm0-79.29H199v-9h10v9Zm28,79.29H227v-9h10v9Zm0-79.29H227v-9h10v9Zm28,79.29H255v-9h10v9Zm0-79.29H255v-9h10v9Zm28,79.29H283v-9h10v9Zm0-79.29H283v-9h10v9Zm28,79.29H311v-9h10v9Zm0-79.29H311v-9h10v9Zm28,79.29H339v-9h10v9Zm0-79.29H339v-9h10v9Zm28,79.29H367v-9h10v9Zm0-79.29H367v-9h10v9Zm28,79.29H395v-9h10v9Zm0-79.29H395v-9h10v9Zm28,79.29H423v-9h10v9Zm0-79.29H423v-9h10v9Zm28,79.29H451v-9h10v9Zm0-79.29H451v-9h10v9Zm28,79.29H479v-9h10v9Zm0-79.29H479v-9h10v9Zm28,79.29H507v-9h10v9Zm0-79.29H507v-9h10v9Zm28,79.29H535v-9h10v9Zm0-79.29H535v-9h10v9Z" transform="translate(-51.39 -117.43)"/><rect class="cls-3" x="196.7" y="120.74" width="114.18" height="14.47"/></svg>