<?xml version="1.0" encoding="utf-8"?>
<!-- Generator: Adobe Illustrator 18.1.0, SVG Export Plug-In . SVG Version: 6.00 Build 0)  -->
<svg version="1.1" id="Layer_1" xmlns="http://www.w3.org/2000/svg" xmlns:xlink="http://www.w3.org/1999/xlink" x="0px" y="0px"
	 viewBox="0 0 251.8 151.5" enable-background="new 0 0 251.8 151.5" xml:space="preserve">
<g>
	<path fill="#1A1919" d="M120.2,0c10.9,0,21.8,0,32.7,0c0.8,0,1,0.1,1,1c0,8,0,16,0,24c0,0.8-0.3,0.9-1,0.9c-2.6,0-5.2,0-7.7,0
		c-0.7,0-0.9,0.2-0.9,0.9c0,4.1,0,8.2,0,12.3c0,0.7-0.2,0.9-0.9,0.9c-3.7,0-7.4,0-11.1,0c-0.7,0-0.9,0.2-0.9,0.9c0,4.8,0,9.7,0,14.5
		c0,0.8,0.3,0.9,1,0.9c1.6,0,3.1,0,4.7,0c0.6,0,0.8,0.1,0.8,0.7c0,7.1,0,14.1,0,21.2c0,0.7-0.4,0.7-0.9,0.7c-6.1,0-12.2,0-18.3,0
		c-5,0-10.1,0-15.1,0c-0.7,0-0.9-0.2-0.9-0.9c0-7,0-13.9,0-20.9c0-0.7,0.1-0.9,0.9-0.9c1.6,0.1,3.2,0,4.9,0c0.5,0,0.6-0.1,0.6-0.6
		c0-5,0-10,0-15c0-0.6-0.2-0.6-0.7-0.6c-3.8,0-7.6,0-11.4,0c-0.7,0-0.9-0.1-0.9-0.9c0-4,0-8,0-12c0-0.9-0.1-1.2-1.2-1.2
		c-2.6,0.1-5.2,0-7.7,0c-0.6,0-0.7-0.1-0.7-0.7c0-8.1,0-16.2,0-24.3C86.6,0,86.9,0,87.5,0C98.4,0,109.3,0,120.2,0 M136.3,18.1
		c0,1.9,0,3.8,0.1,5.7c0.1,0.4,0.4,0.2,0.6,0.2c4.9,0,9.8,0,14.7,0c0.6,0,0.7-0.2,0.7-0.8c0-7,0-14,0-21c0-0.2,0.2-0.5-0.2-0.6
		c-0.4,0-0.8,0-1.1,0c-20.1,0-40.2,0-60.3,0c-0.6,0-1.3,0-1.9,0c-0.1-0.1-0.2,0-0.2,0.1c0,7.3,0,14.6,0,22c0.1,0.3,0.3,0.2,0.5,0.2
		c5,0,9.9,0,14.9,0c0.6,0,0.7-0.2,0.7-0.7c0-1.5,0-2.9,0-4.4c0-0.6,0.1-0.9,0.8-0.9c1.9,0.1,3.8,0,5.7,0c0,2.3,0,4.5,0,6.8
		c0,0.7-0.2,0.9-0.9,0.9c-3.9,0-7.8,0-11.7,0c-0.1,0-0.2,0-0.1,0.2c0,4,0,8,0,12c0,0.3,0.2,0.2,0.3,0.2c2.9,0,5.8,0,8.7,0
		c0.5,0,0.6-0.2,0.6-0.6c0-0.7,0-1.3,0-2c0-0.5,0.1-0.7,0.6-0.7c0.9,0,1.7,0,2.6,0.1c0,7.4,0,14.8,0,22.1c0,0.7-0.1,0.9-0.8,0.9
		c-1.6-0.1-3.2,0-4.9,0c-0.7,0-0.8,0.2-0.8,0.9c0,1.6,0,3.2,0,4.8c0,4.2,0,8.5,0,12.7c0,0.2-0.3,0.8,0.4,0.7c1.5,0.2,3,0.1,4.5,0.1
		c8.7,0,17.3,0,26,0c0.7,0,1-0.1,1-0.9c0-5.8,0-11.6,0-17.4c0-0.7-0.2-0.9-0.9-0.9c-1.5,0-3.1,0-4.6,0c-0.7,0-1-0.1-1-0.9
		c0-4.3,0-8.5,0-12.8c0-2.9,0-5.7,0-8.6c0-0.6,0.1-0.8,0.7-0.8c0.8,0.1,1.6,0,2.4,0.1c0,1,0,2,0,3c0.1,0.4,0.5,0.2,0.7,0.2
		c2.7,0,5.3,0,8,0c0.7,0,0.8-0.2,0.8-0.9c0-3.6,0-7.2,0-10.8c0-0.2,0.2-0.6-0.2-0.7c-4.1,0-8.3,0-12.4,0c0-2.3,0-4.6,0-7
		c0-0.6,0.2-0.7,0.7-0.7C132.5,18.1,134.4,18.1,136.3,18.1"/>
	<path d="M172.7,138.1c-1.5,4.1-3.1,8.2-4.7,12.3c-0.1,0.3-0.1,0.8-0.6,0.8c-0.6,0.1-0.8-0.2-1-0.7c-1.4-3.9-2.9-7.8-4.3-11.7
		c-0.1-0.2-0.2-0.4-0.4-0.6v0.9c0,3.3,0,6.6,0,9.9c0,0.7,0.1,1.2,1,1.3c0.3,0,0.8,0.1,0.7,0.7c-0.1,0.6-0.5,0.4-0.8,0.4
		c-1,0-2.1,0-3.1,0c-0.3,0-0.7,0.2-0.7-0.4c0-0.5,0.3-0.6,0.6-0.6c1,0,1.1-0.5,1-1.3c0-3.5,0-7,0-10.5c0-0.7,0-1.2-0.9-1.2
		c-0.3,0-0.9,0-0.8-0.7c0.1-0.6,0.6-0.3,0.9-0.3c1.2,0,2.7-0.4,3.6,0.1c0.8,0.5,0.9,2.1,1.3,3.2c1,2.7,2,5.4,3,8.2
		c0.7-1.7,1.3-3.2,1.8-4.8c0.7-2.2,1.8-4.2,2.3-6.5c0.1-0.3,0.3-0.3,0.5-0.3c1.3,0,2.6,0,3.9,0c0.3,0,0.5,0,0.5,0.4
		c0,0.4-0.1,0.5-0.5,0.5c-1.1,0-1.2,0.6-1.2,1.5c0,3.4,0,6.9,0,10.3c0,0.8,0.1,1.3,1,1.3c0.3,0,0.7,0,0.7,0.5c0,0.6-0.4,0.4-0.7,0.4
		c-1.3,0-2.7,0-4,0c-0.3,0-0.7,0.1-0.7-0.4c0-0.6,0.4-0.5,0.7-0.5c0.8-0.1,1-0.4,1-1.2c-0.1-3.7,0-7.3,0-11
		C172.9,138.1,172.8,138.1,172.7,138.1"/>
	<path d="M69.4,117.8c1.2-0.4,2.2-1.1,3.4-1.1c0.8,0,1.6,0.2,2.1,0.9c0.4,0.5,0.7,0.4,1.1,0.2c0.6-0.3,1.3-0.6,2-0.8
		c2.4-0.7,4,0.5,4.1,2.9c0,1.9,0,3.9,0,5.8c0,0.8,0.1,1.2,1,1.3c0.3,0,0.7,0,0.6,0.6c0,0.6-0.4,0.4-0.7,0.4c-1.2,0-2.3,0-3.5,0
		c-0.3,0-0.7,0.2-0.8-0.4c-0.1-0.5,0.2-0.6,0.6-0.6c0.8-0.1,0.9-0.5,0.9-1.2c-0.1-1.9,0-3.8-0.1-5.7c0-0.9-0.3-1.6-1.3-1.9
		c-1.1-0.3-2,0.2-2.9,0.7c-0.2,0.1-0.1,0.5-0.1,0.7c0,2.1,0,4.2,0,6.3c0,0.6,0.1,1,0.8,1.1c0.3,0,0.6,0.1,0.6,0.6
		c0,0.6-0.4,0.4-0.7,0.4c-1.2,0-2.3,0-3.5,0c-0.2,0-0.5,0.1-0.6-0.3c0-0.3,0-0.6,0.4-0.6c0.9-0.1,1-0.6,1-1.4c-0.1-1.8,0-3.6,0-5.4
		c0-0.9-0.2-1.7-1.2-2c-0.7-0.2-2.6,0.1-3,0.6c-0.2,0.3-0.2,0.6-0.2,0.9c0,2,0,4,0,6c0,0.7,0.2,1.2,0.9,1.2c0.4,0,0.6,0.1,0.6,0.6
		c-0.1,0.5-0.4,0.3-0.7,0.3c-1.2,0-2.5,0-3.7,0c-0.3,0-0.6,0.1-0.6-0.4c0-0.4,0.2-0.5,0.5-0.5c1,0,1.1-0.6,1.1-1.4
		c0-2.1,0-4.2,0-6.3c0-0.7-0.1-1.2-0.9-1c-0.2,0-0.6,0.2-0.7-0.3c0-0.4,0.3-0.5,0.6-0.6c0.5-0.2,0.9-0.3,1.4-0.5
		C68.7,116.6,69.5,116.3,69.4,117.8"/>
	<path d="M237.5,122.7c0,0.8,0,1.6,0,2.5c0,0.9-0.1,1.8,1.2,1.8c0.4,0,0.3,0.3,0.3,0.6c0,0.4-0.2,0.3-0.5,0.3c-1.3,0-2.6,0-3.9,0
		c-0.2,0-0.5,0.1-0.5-0.3c0-0.3,0-0.6,0.4-0.6c1,0,1.2-0.7,1.1-1.6c-0.1-2.1,0-4.2,0-6.3c0-0.7-0.1-1-0.8-0.9
		c-0.2,0-0.6,0.2-0.7-0.2c-0.1-0.5,0.3-0.5,0.6-0.7c0.6-0.2,1.3-0.5,1.9-0.6c0.4-0.1,1-0.2,1,0.6c0,0.7,0.4,0.3,0.7,0.2
		c1-0.4,2-0.9,3.1-0.8c0.7,0,1.3,0.2,1.7,0.7c0.4,0.6,0.8,0.5,1.4,0.2c0.6-0.3,1.4-0.6,2.1-0.8c2.1-0.6,3.7,0.6,3.8,2.8
		c0,2,0,4,0,5.9c0,0.8,0.1,1.3,1,1.4c0.3,0,0.6,0.1,0.6,0.6c0,0.5-0.4,0.4-0.6,0.4c-1.2,0-2.5,0-3.7,0c-0.3,0-0.6,0.1-0.6-0.4
		c0-0.4,0.2-0.5,0.5-0.5c0.9-0.1,1-0.6,1-1.4c-0.1-1.7,0-3.4,0-5c0-0.9,0-1.8-1.1-2.3c-1.1-0.5-2.1,0-3.1,0.5
		c-0.4,0.2-0.3,0.5-0.3,0.8c0,2.2,0,4.3,0,6.5c0,0.5,0.1,0.8,0.7,0.9c0.3,0,0.8,0.1,0.7,0.7c-0.1,0.6-0.6,0.3-0.9,0.3
		c-1,0-2.1,0-3.1,0c-0.3,0-0.7,0.2-0.8-0.4c-0.1-0.5,0.2-0.6,0.6-0.6c0.7-0.1,0.9-0.5,0.9-1.2c0-1.9,0-3.7,0-5.6
		c0-1-0.3-1.8-1.3-2.1c-0.7-0.2-2.6,0.3-2.9,0.7c-0.2,0.2-0.1,0.5-0.1,0.8C237.5,120.6,237.5,121.7,237.5,122.7"/>
	<path d="M39.8,143.2c1,1.3,1.9,2.6,2.9,3.9c0.3,0.4,0.4,0.3,0.7,0c0.5-0.7,1-1.4,1.4-2.2c0.3-0.5-0.1-0.7-0.5-0.7
		c-0.4-0.1-0.8-0.2-0.7-0.7c0.1-0.6,0.6-0.3,0.9-0.3c1,0,1.9,0,2.9,0c0.3,0,0.6-0.1,0.6,0.4c0,0.5-0.3,0.6-0.6,0.6
		c-0.9-0.1-1.3,0.6-1.6,1.2c-0.5,0.9-1,1.8-1.7,2.5c-0.5,0.4-0.3,0.7,0,1.1c0.7,0.8,1.6,1.3,2.7,1.4c0.3,0,0.5,0,0.5,0.4
		c0,0.4-0.1,0.5-0.5,0.5c-1.6,0.4-3,0.4-4-1.1c-0.4-0.6-0.7-0.5-1.2-0.1c-1.2,0.9-2.6,1.4-4.2,1.4c-1.5,0-2.7-0.6-3.4-1.9
		c-0.7-1.4-0.5-2.7,0.3-4c0.7-1,1.6-1.7,2.6-2.2c0.4-0.2,0.5-0.4,0.2-0.8c-1-1.4-1.5-2.9-0.5-4.5c1-1.7,2.6-2.3,4.6-2.3
		c2.6,0.1,3.9,2.5,2.6,4.8c-0.6,1-1.5,1.6-2.6,2.1C40.8,142.8,40.4,143,39.8,143.2 M35.6,147.1c0,1.1,0.4,1.9,1.2,2.5
		c1.1,0.8,3.7,0.4,4.7-0.6c0.3-0.3,0.1-0.5-0.1-0.6c-1-1.4-2-2.8-3-4.2c-0.2-0.2-0.3-0.5-0.7-0.3C36.6,144.4,35.6,145.8,35.6,147.1
		 M38.1,139.6c0,0.8,0.4,1.7,0.9,2.5c0.1,0.2,0.3,0.4,0.6,0.3c1.4-0.4,2.7-1.9,2.7-3.3c0-0.8-0.2-1.5-0.9-1.9
		c-0.7-0.5-1.5-0.3-2.2,0.1C38.5,137.8,38.1,138.5,38.1,139.6"/>
	<path d="M3.9,127.9c-1,0-2.1,0-3.1,0c-0.3,0-0.7,0.2-0.7-0.4c0-0.5,0.2-0.7,0.6-0.6c1,0,1.1-0.6,1.1-1.4c0-3.4,0-6.8,0-10.2
		c0-0.8-0.1-1.4-1.1-1.4c-0.3,0-0.6-0.2-0.6-0.6c0-0.4,0.3-0.4,0.5-0.4c2.5,0.1,4.9-0.2,7.4,0.2c4.5,0.8,6.3,4.2,5.9,8.2
		c-0.4,4.3-3.1,6.6-7.5,6.7C5.5,127.9,4.7,127.9,3.9,127.9 M3.8,120.3v4.4c0,2.2,0,2.2,2.2,2.1c2.8-0.1,4.7-1.6,5.2-4
		c0.2-1.1,0.3-2.1,0.2-3.2c-0.2-2.8-1.4-4.5-3.6-5.2C6.7,114,5.6,114,4.5,114c-0.6,0-0.8,0.2-0.7,0.8C3.8,116.6,3.8,118.5,3.8,120.3
		"/>
	<path d="M61.6,151.2c-1.6,0-3.3,0-4.9,0c-0.3,0-0.8,0.3-0.9-0.4c-0.1-0.5,0.3-0.7,0.7-0.7c0.9,0,1-0.5,1-1.3c0-3.5,0-6.9,0-10.4
		c0-0.7-0.1-1.2-1-1.3c-0.4,0-0.7-0.1-0.7-0.7c0.1-0.6,0.5-0.4,0.8-0.4c3.1,0,6.1,0,9.2,0c0.7,0,0.9,0.3,0.8,0.9c0,0.5,0,1,0,1.6
		c0,0.4,0.3,0.9-0.5,0.9c-0.6,0-0.9-0.2-0.9-0.8c0-1.4-0.8-1.6-1.9-1.5c-0.8,0.1-1.6,0.1-2.3,0c-1.1-0.2-1.4,0.3-1.3,1.3
		c0.1,1.1,0,2.2,0,3.4c0,0.5,0.1,0.8,0.7,0.7c0.5,0,1.1-0.1,1.6,0c1.1,0.2,1.8-0.2,1.8-1.4c0-0.6,0.3-0.6,0.8-0.6
		c0.6,0,0.4,0.4,0.4,0.7c0,1.3,0,2.5,0,3.8c0,0.3,0.1,0.7-0.5,0.7c-0.4,0-0.7-0.1-0.7-0.6c0.1-1.4-0.8-1.5-1.9-1.5c-2,0.1-2,0-2,2.1
		c0,1.1,0,2.2,0,3.4c0,0.6,0.1,0.8,0.8,0.8c1.5,0,3,0,4.5,0c0.7,0,1-0.2,1.1-0.9c0-0.4,0.2-0.9,0.2-1.3c0-0.5,0.4-0.4,0.7-0.4
		c0.4,0,0.5,0.1,0.5,0.5c0,0.9,0,1.9,0,2.8c0,0.6-0.4,0.5-0.7,0.5H61.6"/>
	<path d="M29.7,117.9c0.6-0.3,0.9-0.5,1.2-0.7c2.4-1.2,4.8-0.4,5.9,2c0.9,2.1,0.9,4.3-0.3,6.3c-1.2,2.2-3.3,2.8-5.6,2.5
		c-1-0.1-1.2,0.2-1.1,1c0,0.4,0.1,0.8,0,1.2c-0.1,0.9,0.2,1.5,1.2,1.5c0.4,0,0.7,0.1,0.6,0.6c0,0.5-0.4,0.4-0.7,0.4
		c-1.3,0-2.7,0-4,0c-0.3,0-0.6,0.1-0.6-0.4c0-0.4,0.2-0.5,0.5-0.5c1,0,1.1-0.6,1.1-1.4c0-3.7,0-7.5,0-11.2c0-0.7,0-1.2-0.9-1
		c-0.2,0-0.7,0.2-0.7-0.3c0-0.4,0.3-0.5,0.6-0.6c0.6-0.2,1.1-0.4,1.7-0.6C29.3,116.6,30,116.4,29.7,117.9 M29.8,122.7
		c0,1.1,0,2.2,0,3.4c0,0.4,0,0.7,0.4,0.9c1.4,0.6,3.1,0.2,4-1.1c1.4-1.9,1.4-4,0.6-6c-0.8-1.8-2.6-2.3-4.4-1.4
		c-0.4,0.2-0.7,0.5-0.6,1C29.8,120.6,29.8,121.7,29.8,122.7"/>
	<path d="M196.9,140.2c0-0.9-0.1-1.9,0-2.8c0.1-0.8-0.2-1.1-1-1c-0.3,0-0.7,0.2-0.8-0.3c-0.1-0.4,0.3-0.5,0.6-0.6
		c3.1-1.1,3.1-1.1,3.1,2.1c0,3.8,0,7.5,0,11.3c0,0.7,0,1.3,0.9,1.3c0.4,0,0.6,0.2,0.5,0.6c-0.1,0.5-0.4,0.3-0.7,0.3
		c-0.6,0-1.2,0-1.8,0c-0.7,0.1-1-0.1-0.9-1c-1.2,0.7-2.2,1.3-3.4,1.2c-1.1,0-2-0.3-2.7-1.1c-1.7-1.8-2-4-1.4-6.2
		c0.6-2.1,2-3.5,4.2-4C194.6,139.9,195.7,140,196.9,140.2 M196.9,145.4c0-1.2,0-2.3,0-3.5c0-0.4,0-0.6-0.5-0.8
		c-1.9-0.7-3.9,0.1-4.7,2c-0.6,1.4-0.7,3-0.2,4.5c0.6,2.2,2.4,3,4.5,2.1c0.6-0.3,0.9-0.6,0.9-1.3
		C196.8,147.4,196.9,146.4,196.9,145.4"/>
	<path d="M119.3,92.5c0.6,0,1.1,0,1.7,0c0.2,0,0.5,0,0.5,0.3c0,0.3,0,0.6-0.4,0.6c-0.8-0.1-0.7,0.5-0.7,1c0,2.1,0,4.2,0,6.3
		c0,0.6,0,1.1,0.8,1c0.3,0,0.3,0.2,0.3,0.5c0,0.3-0.1,0.4-0.4,0.4c-1.2,0-2.3,0-3.5,0c-0.2,0-0.4-0.1-0.4-0.4c0-0.3,0.1-0.5,0.4-0.5
		c0.7,0,0.7-0.5,0.7-1c0-0.9,0.3-2.1-0.2-2.7c-0.5-0.6-1.7-0.1-2.7-0.2c-1.2-0.2-1.6,0.3-1.4,1.5c0.1,0.5,0,1,0,1.5c0,0.5,0,1,0.7,1
		c0.4,0,0.4,0.2,0.4,0.5c0,0.4-0.3,0.4-0.6,0.4c-1,0-2.1,0-3.1,0c-0.3,0-0.6,0.1-0.6-0.4c0-0.3,0.1-0.5,0.5-0.5
		c0.7,0,0.7-0.4,0.7-0.9c0-2.2,0-4.3,0-6.5c0-0.5,0.1-1-0.7-0.9c-0.3,0-0.4-0.2-0.4-0.5c0-0.4,0.3-0.3,0.6-0.3c1.1,0,2.2,0,3.2,0
		c0.2,0,0.5-0.1,0.5,0.3c0,0.3,0,0.6-0.3,0.6c-0.9,0-0.8,0.6-0.8,1.1c0,2.3,0,2.3,2.2,2.3c2,0,2,0,2-2.1c0-0.6,0.3-1.4-0.8-1.4
		c-0.3,0-0.3-0.3-0.3-0.5c0-0.3,0.3-0.3,0.5-0.3C118.2,92.5,118.7,92.5,119.3,92.5"/>
	<path d="M133.8,146c0,1,0.1,1.9,0,2.7c-0.1,0.9,0.1,1.6,1.2,1.6c0.4,0,0.4,0.2,0.4,0.5c0,0.4-0.2,0.4-0.5,0.4c-1.3,0-2.6,0-3.9,0
		c-0.3,0-0.5,0-0.5-0.4c0-0.4,0.1-0.5,0.5-0.6c0.8-0.1,1-0.6,0.9-1.3c-0.1-1.8,0-3.7,0-5.5c0-1-0.4-1.8-1.5-2c-0.9-0.2-2.7,0.3-3,1
		c-0.1,0.2-0.1,0.6-0.1,0.9c0,1.9,0,3.8,0,5.7c0,0.8,0.2,1.2,1,1.3c0.3,0,0.5,0.2,0.5,0.6c0,0.5-0.4,0.4-0.6,0.4c-1.2,0-2.5,0-3.7,0
		c-0.3,0-0.6,0.1-0.6-0.4c0-0.4,0.2-0.5,0.5-0.5c0.9,0,1.1-0.6,1.1-1.4c-0.1-2.1,0-4.1,0-6.2c0-0.7-0.2-1-0.9-0.9
		c-0.2,0-0.6,0.2-0.7-0.3c0-0.4,0.3-0.5,0.6-0.6c0.6-0.2,1.3-0.5,1.9-0.6c0.4-0.1,1-0.3,1,0.5c0,0.6,0.4,0.2,0.6,0.1
		c1-0.4,1.9-0.9,3-0.9c1.5,0,2.4,0.7,2.8,2.2C134,143.5,133.7,144.9,133.8,146"/>
	<path d="M99,122.9c0,0.7,0,1.5,0,2.2c0,0.9-0.2,1.8,1.2,1.9c0.3,0,0.3,0.3,0.3,0.5c0,0.3-0.1,0.4-0.4,0.4c-1.4,0-2.8,0-4.1,0
		c-0.3,0-0.4-0.1-0.4-0.4c0-0.3,0-0.5,0.4-0.5c1.1,0,1.2-0.7,1.2-1.7c-0.1-2-0.1-4,0-5.9c0-0.7-0.2-1-0.9-0.9
		c-0.2,0-0.6,0.2-0.7-0.3c0-0.4,0.3-0.5,0.6-0.6c0.6-0.2,1.3-0.5,1.9-0.6c0.4-0.1,1-0.3,1,0.5c0,0.6,0.4,0.2,0.6,0.1
		c0.9-0.4,1.8-0.9,2.8-0.9c1.6,0,2.6,0.7,2.9,2.3c0.1,0.5,0.2,1,0.2,1.4c0,1.8,0.1,3.5,0,5.3c0,0.8,0.2,1.2,1,1.3
		c0.3,0,0.7,0,0.6,0.5c0,0.6-0.4,0.4-0.7,0.4c-1.2,0-2.3,0-3.5,0c-0.3,0-0.7,0.2-0.7-0.4c0-0.5,0.3-0.5,0.6-0.6
		c0.5-0.1,0.9-0.3,0.8-0.9c0-1.9,0-3.9,0-5.8c0-1-0.4-1.8-1.5-2c-0.9-0.2-2.7,0.3-3,1c-0.1,0.2-0.1,0.5-0.1,0.8
		C99,120.8,99,121.9,99,122.9"/>
	<path d="M192.2,122.9c0,0.8,0,1.6,0,2.5c0,0.8,0,1.6,1.1,1.6c0.4,0,0.4,0.3,0.4,0.6c0,0.3-0.2,0.4-0.4,0.4c-1.3,0-2.7,0-4,0
		c-0.3,0-0.5-0.1-0.4-0.5c0-0.3,0.1-0.5,0.4-0.5c1,0,1.2-0.7,1.2-1.6c-0.1-2-0.1-4,0-5.9c0-0.7-0.1-1.1-0.9-1
		c-0.2,0-0.6,0.2-0.6-0.2c-0.1-0.4,0.2-0.5,0.5-0.6c0.6-0.2,1.3-0.5,1.9-0.6c0.4-0.1,1-0.4,1.1,0.6c0,0.6,0.5,0.1,0.6,0
		c1-0.4,1.9-0.9,3-0.9c1.5,0,2.5,0.7,2.8,2.2c0.4,1.8,0.1,3.6,0.2,5.4c0,0.4,0,0.9,0,1.3c-0.1,0.8,0.1,1.3,1,1.4
		c0.3,0,0.6,0.1,0.6,0.6c0,0.5-0.4,0.4-0.6,0.4c-1.2,0-2.5,0-3.7,0c-0.3,0-0.6,0.1-0.6-0.4c0-0.4,0.2-0.5,0.5-0.5
		c0.8-0.1,0.9-0.5,0.9-1.2c0-1.9,0-3.8-0.1-5.7c0-1.1-0.6-1.7-1.6-2c-0.8-0.2-2.7,0.4-2.9,1c-0.3,0.8-0.1,1.6-0.1,2.4
		C192.2,122,192.2,122.4,192.2,122.9"/>
	<path d="M175.8,126.8c-1.3,0.7-2.4,1.3-3.7,1.3c-1.6-0.1-2.6-0.8-2.8-2.4c-0.3-2.1-0.1-4.3-0.1-6.5c0-0.7-0.1-1.1-0.9-1
		c-0.2,0-0.6,0.1-0.6-0.2c0-0.3,0.1-0.5,0.3-0.5c0.8-0.3,1.6-0.6,2.4-0.8c0.5-0.1,0.8,0,0.8,0.7c0,2.3,0,4.6,0,6.9
		c0,0.9,0.1,1.8,1.1,2.2c1.2,0.5,2.3,0.1,3.4-0.4c0.3-0.2,0.2-0.5,0.2-0.8c0-2.1,0-4.1,0-6.2c0-0.7-0.2-1-0.9-0.9
		c-0.2,0-0.6,0.2-0.7-0.3c0-0.4,0.3-0.5,0.5-0.6c0.6-0.2,1.3-0.5,1.9-0.7c0.7-0.2,1,0,1,0.9c-0.1,2.6,0,5.3,0,7.9
		c0,0.8,0.1,1.3,1,1.4c0.3,0,0.5,0.2,0.5,0.6c0,0.5-0.4,0.4-0.6,0.4c-0.6,0-1.1,0-1.7,0C176.1,127.9,175.5,128,175.8,126.8"/>
	<path d="M210,122.8c0,0.9,0,1.7,0,2.4c-0.1,1,0,1.7,1.2,1.7c0.4,0,0.4,0.2,0.4,0.5c0,0.4-0.3,0.4-0.5,0.4c-0.8,0-1.6,0-2.4,0
		c-0.1,0-0.4-0.1-0.4-0.1c-0.3-1.5-1-0.4-1.5-0.3c-0.8,0.3-1.5,0.6-2.3,0.6c-1.5,0-2.6-0.7-2.9-2c-0.4-1.5,0.1-2.7,1.5-3.4
		c1.2-0.6,2.5-1.1,3.8-1.3c1.1-0.2,1.3-0.8,1.2-1.7c-0.2-1.5-0.8-2.2-2.1-2.2c-1.3,0.1-1.5,0.3-1.5,1.6c0,0.4,0.3,0.9-0.3,1
		c-0.6,0.1-1.2,0.3-1.7-0.1c-0.4-0.3-0.2-0.9-0.1-1.4c0.2-0.6,0.7-1,1.2-1.3c1.3-0.8,2.8-0.9,4.3-0.6c1.1,0.2,1.8,1,2,2.1
		C210.2,120.3,210,121.7,210,122.8 M208.1,122.2c-1.2,0.3-2.4,0.6-3.5,1.3c-0.7,0.4-1.1,1.1-1,2c0.1,0.7,0.3,1.2,1,1.5
		c1.1,0.5,2.1-0.2,3-0.6c0.8-0.3,0.4-1,0.4-1.6C208.1,123.8,208.1,123,208.1,122.2"/>
	<path d="M216.5,146.1c0,0.9,0,1.7,0,2.4c-0.1,1,0,1.7,1.2,1.7c0.4,0,0.4,0.2,0.4,0.5c0,0.4-0.3,0.4-0.5,0.4c-0.8,0-1.6,0-2.4,0
		c-0.1,0-0.4-0.1-0.4-0.1c-0.3-1.5-1-0.5-1.5-0.3c-0.8,0.3-1.5,0.6-2.3,0.6c-1.5,0-2.6-0.7-2.9-2c-0.4-1.5,0.1-2.7,1.5-3.4
		c1.2-0.6,2.5-1.1,3.8-1.3c1.1-0.2,1.3-0.8,1.2-1.7c-0.2-1.7-1.1-2.4-2.6-2.1c-1,0.2-1.2,0.7-1.1,1.6c0,0.3,0.3,0.9-0.3,1
		c-0.6,0.1-1.2,0.3-1.7-0.1c-0.4-0.3-0.2-0.9-0.1-1.4c0.2-0.6,0.7-1,1.2-1.3c1.3-0.8,2.8-0.9,4.3-0.6c1.1,0.2,1.8,1,2,2.1
		C216.7,143.6,216.5,145,216.5,146.1 M214.6,145.5c-1.3,0.3-2.5,0.7-3.5,1.3c-0.8,0.5-1.1,1.3-0.9,2.2c0.2,0.8,0.7,1.3,1.5,1.3
		c1,0.1,1.9-0.3,2.7-0.9c0.6-0.4,0.2-1.1,0.3-1.6C214.6,147.1,214.6,146.3,214.6,145.5"/>
	<path d="M47.3,122.8c0,0.9,0,1.7,0,2.4c-0.1,0.9,0,1.7,1.2,1.7c0.4,0,0.4,0.2,0.4,0.5c0,0.4-0.2,0.4-0.5,0.4c-0.8,0-1.6,0-2.3,0
		c-0.2,0-0.4,0.1-0.5-0.2c-0.2-1.2-0.8-0.5-1.3-0.3c-0.9,0.4-1.8,0.8-2.8,0.7c-1.3-0.1-2.4-0.8-2.7-2c-0.4-1.4,0.1-2.5,1.3-3.3
		c1.3-0.8,2.7-1.2,4.1-1.4c1-0.2,1.2-0.7,1.1-1.6c-0.2-1.8-1.1-2.5-2.7-2.2c-1,0.2-1,0.7-1,1.5c0,0.4,0.3,0.9-0.2,1.1
		c-0.6,0.1-1.3,0.3-1.7-0.1c-0.4-0.4-0.3-1,0-1.5c0.3-0.6,0.8-1,1.4-1.4c1.3-0.7,2.6-0.8,4-0.5c1.1,0.2,1.8,1,2,2.1
		C47.4,120.3,47.2,121.6,47.3,122.8 M45.3,122.2c-1.3,0.3-2.5,0.6-3.5,1.3c-0.8,0.5-1.1,1.2-0.9,2.1c0.1,0.7,0.6,1.2,1.3,1.4
		c1.1,0.2,1.9-0.3,2.8-0.8c0.7-0.4,0.3-1.1,0.3-1.6C45.3,123.8,45.3,123,45.3,122.2"/>
	<path d="M152.8,99.3c0-1.7,0-3.4,0-5c0-0.5,0-0.9-0.7-0.9c-0.3,0-0.5-0.2-0.5-0.5c0-0.5,0.4-0.3,0.7-0.3c0.7,0,1.5,0,2.2,0
		c0.2,0,0.6-0.1,0.6,0.3c0,0.4-0.1,0.6-0.5,0.6c-0.8,0-0.6,0.6-0.6,1c0,2.4,0,4.7,0,7.1c0,0.4,0.4,1-0.4,1.1
		c-0.6,0.1-1.3,0.3-1.8-0.5c-1.3-2.2-2.7-4.3-4.1-6.4c-0.1-0.2-0.2-0.3-0.6-0.5c0,2,0,4,0,5.9c0,0.4,0.3,0.6,0.7,0.6
		c0.4,0,0.6,0.1,0.5,0.5c0,0.4-0.3,0.3-0.6,0.3c-0.8,0-1.6,0-2.5,0c-0.2,0-0.5,0-0.5-0.3c0-0.3,0-0.5,0.4-0.5c0.7,0,0.7-0.4,0.7-1
		c0-2.2,0-4.3,0-6.5c0-0.5,0-0.9-0.7-0.9c-0.4,0-0.5-0.2-0.5-0.6c0-0.4,0.4-0.3,0.6-0.3c0,0,0.1,0,0.1,0c1.8-0.3,3,0.2,3.9,2
		c0.8,1.7,2,3.2,3.1,4.9C152.7,99.3,152.8,99.3,152.8,99.3"/>
	<path d="M196,97.7c1.2,0.5,1.5,1.5,1.8,2.4c0.2,0.9,0.6,1.7,1.7,1.6c0.4,0,0.4,0.2,0.4,0.5c0,0.3-0.2,0.3-0.4,0.4
		c-1.8,0.5-3.1-0.3-3.7-2.1c-0.3-0.9-0.5-1.9-1.6-2.2c-0.6-0.2-1-0.1-1,0.7c0,0.6,0,1.2,0,1.8c0,0.5,0,1,0.7,1
		c0.4,0,0.4,0.2,0.4,0.5c0,0.3-0.2,0.3-0.5,0.3c-1.1,0-2.2,0-3.4,0c-0.3,0-0.5-0.1-0.5-0.4c0-0.3,0.2-0.5,0.5-0.5
		c0.6,0,0.6-0.3,0.6-0.8c0-2.2,0-4.5,0-6.7c0-0.4,0-0.8-0.6-0.8c-0.4,0-0.5-0.2-0.5-0.6c0-0.5,0.4-0.3,0.7-0.3c1.5,0,3,0,4.5,0
		c1.6,0,2.7,0.8,2.9,1.9C198.4,95.9,197.9,96.7,196,97.7 M193.2,95.2c0,0.3,0,0.7,0,1c-0.2,0.9,0.3,1.1,1.1,0.9
		c0.3-0.1,0.6-0.1,0.8-0.3c0.8-0.5,1-1.3,0.7-2.3c-0.3-0.8-1.3-1.5-2.2-1.2c-0.8,0.3-0.2,1.1-0.4,1.6
		C193.2,95.1,193.2,95.2,193.2,95.2"/>
	<path d="M166.1,122.4c0,4.1-3.4,6.8-7,5.4c-2.3-0.9-3.3-2.8-3.4-5.1c-0.3-4.1,3.3-7.1,7-5.8C164.8,117.7,166.1,119.8,166.1,122.4
		 M164,122.5c0-1.3-0.1-2.5-0.8-3.6c-1.1-1.8-3.4-1.8-4.4,0c-1.3,2.3-1.3,4.7,0,7c1,1.8,3.3,1.7,4.4-0.1
		C163.8,124.8,164,123.6,164,122.5"/>
	<path d="M122.2,145.7c0,4.1-3.4,6.8-7,5.4c-2.3-0.9-3.3-2.8-3.5-5.1c-0.3-4.1,3.2-7.1,7-5.8C120.9,141,122.2,143.1,122.2,145.7
		 M120,145.7c0-1.2-0.1-2.4-0.8-3.5c-1.1-1.8-3.4-1.9-4.4,0c-1.2,2.3-1.2,4.7,0,6.9c1.1,1.9,3.4,1.8,4.4-0.1
		C119.9,148.1,120.1,146.9,120,145.7"/>
	<path d="M187.3,148.8c0.3,0.9,0,1.4-0.8,1.8c-3.5,1.8-7,0.7-8.1-2.6c-0.7-2.3-0.4-4.5,1.2-6.4c1.2-1.5,3.6-2,5.3-1.3
		c1.5,0.6,2.4,2.2,2.5,4.2c0,0.6-0.2,0.8-0.8,0.8c-1.9,0-3.8,0-5.7,0c-0.6,0-0.7,0.2-0.7,0.8c0.1,3.4,2.8,5.1,5.8,3.6
		C186.5,149.3,186.9,149.1,187.3,148.8 M182.7,144.3c0.7,0,1.3,0,2,0c0.2,0,0.5,0.1,0.5-0.2c0.1-0.9,0-1.7-0.6-2.4
		c-0.6-0.6-1.3-0.9-2.1-0.6c-1.1,0.3-1.7,1.1-2,2.1c-0.4,1.2-0.4,1.2,0.9,1.2C181.8,144.3,182.3,144.3,182.7,144.3"/>
	<path d="M93.8,125.5c0.3,0.9-0.1,1.4-0.9,1.8c-3.5,1.8-7,0.7-8-2.7c-0.7-2.3-0.4-4.4,1.2-6.3c1.2-1.5,3.5-2,5.3-1.4
		c1.5,0.6,2.5,2.1,2.5,4.1c0,0.6-0.1,0.8-0.8,0.8c-1.9,0-3.7,0-5.6,0c-0.6,0-0.8,0.1-0.8,0.8c0.1,3.4,2.8,5.1,5.9,3.5
		C93,125.9,93.4,125.7,93.8,125.5 M89.3,120.9c0.6,0,1.2,0,1.8,0c0.5,0,0.7-0.1,0.7-0.7c0-1.4-0.7-2.5-1.9-2.7
		c-1.1-0.2-2.4,0.7-2.9,2c-0.5,1.3-0.4,1.3,0.9,1.3H89.3"/>
	<path d="M24.8,125.5c0.3,0.9-0.1,1.4-0.9,1.8c-3.5,1.8-7,0.7-8-2.7c-0.7-2.3-0.4-4.4,1.2-6.3c1.2-1.5,3.5-2,5.3-1.4
		c1.6,0.6,2.5,2.1,2.5,4.1c0,0.6-0.1,0.8-0.8,0.8c-1.9,0-3.7,0-5.6,0c-0.6,0-0.8,0.1-0.8,0.8c0.1,3.4,2.8,5.1,5.9,3.5
		C23.9,125.9,24.4,125.7,24.8,125.5 M17.7,120.9c1.5,0,3,0,4.5,0c0.2,0,0.5,0,0.5-0.3c0-0.9,0-1.8-0.7-2.5c-0.7-0.6-1.5-0.8-2.4-0.4
		C18.3,118.4,17.9,119.6,17.7,120.9"/>
	<path d="M84.2,148.8c0.3,0.9,0,1.4-0.8,1.8c-3.5,1.8-7,0.7-8.1-2.6c-0.7-2.3-0.4-4.5,1.2-6.4c1.2-1.5,3.6-2,5.3-1.3
		c1.5,0.6,2.5,2.2,2.5,4.2c0,0.6-0.2,0.8-0.8,0.8c-1.9,0-3.8,0-5.7,0c-0.6,0-0.7,0.2-0.7,0.8c0.1,3.4,2.8,5.1,5.8,3.6
		C83.3,149.3,83.7,149.1,84.2,148.8 M77.1,144.3c1.5,0,3,0,4.5,0c0.2,0,0.5,0.1,0.5-0.3c0.1-0.9,0-1.8-0.7-2.5
		c-0.6-0.6-1.4-0.8-2.3-0.4C77.7,141.7,77.3,142.8,77.1,144.3"/>
	<path d="M134.5,118.7c-0.2,0.1-0.4,0.1-0.5,0.1c-0.3,0-0.8,0.3-0.9-0.2c-0.1-0.6,0.4-0.6,0.7-0.6c0.7-0.2,1.1-0.6,1.2-1.3
		c0.3-1.5,0.9-2.9,2.1-4c0.8-0.8,1.8-1.2,2.9-1c0.7,0.1,1.3,0.4,1.3,1.3c0,0.5-0.2,0.7-0.6,1c-0.4,0.3-0.7,0-1-0.2
		c-1.7-1.3-1.8-1.3-2.5,0.9c-0.4,1.1-0.6,2.1-0.7,3.3c0.8,0,1.5,0,2.3,0c0.3,0,0.8-0.3,0.8,0.4c0,0.8-0.5,0.4-0.9,0.5
		c-0.1,0-0.3,0-0.4,0c-2.1,0-2,0-2.3,2.1c-0.3,2.3-0.5,4.7-1.1,6.9c-0.5,1.7-1.5,3.2-2.9,4.3c-0.6,0.5-1.3,0.8-2.1,0.6
		c-0.7-0.2-1-0.7-0.8-1.4c0.2-0.7,0.6-0.6,1.2-0.5c1.8,0.5,2.1,0.4,2.6-1.5c0.9-3.1,1.1-6.4,1.6-9.6
		C134.4,119.4,134.4,119.1,134.5,118.7"/>
	<path d="M25.5,102.6c-1.1,0-2.2,0-3.4,0c-0.3,0-0.7,0.1-0.7-0.4c0-0.4,0.3-0.5,0.6-0.5c0.5,0,0.6-0.3,0.6-0.7c0-2.3,0-4.6,0-6.8
		c0-0.5-0.1-0.8-0.7-0.8c-0.4,0-0.6-0.2-0.5-0.5c0-0.5,0.4-0.3,0.7-0.3c2.1,0,4.2,0,6.3,0c0.5,0,0.8,0.1,0.7,0.7c0,0.1,0,0.3,0,0.4
		c-0.1,0.4,0.3,1.1-0.4,1.3c-0.9,0.3-0.8-0.5-1-1.1c-0.1-0.4-0.3-0.4-0.6-0.5c-2.4-0.3-2.4-0.2-2.4,2.2c0,1.1,0.3,1.4,1.3,1.2
		c0.5-0.1,0.9-0.1,0.8-0.7c0-0.5,0.3-0.5,0.6-0.5c0.4,0,0.5,0.3,0.5,0.6c0,0.8,0,1.6,0,2.5c0,0.4-0.1,0.6-0.5,0.6
		c-0.3,0-0.6-0.1-0.6-0.5c0-1.4-1-0.8-1.6-0.8c-0.8,0-0.3,0.7-0.4,1.1c0,0,0,0.1,0,0.1c0,2.6,0,2.5,2.6,2.5c0.8,0,1.1-0.3,1.1-1
		c0-0.6,0.2-0.8,0.8-0.8c0.7,0,0.5,0.5,0.5,0.9c0,1.9,0,1.9-1.9,1.9H25.5"/>
	<path d="M88.3,97.5c0-1.1,0-2.2,0-3.3c0-0.5,0-0.9-0.7-0.9c-0.4,0-0.5-0.3-0.4-0.6c0-0.4,0.4-0.3,0.6-0.3c2.1,0,4.3,0,6.4,0
		c0.5,0,0.7,0.1,0.6,0.6c0,0.3,0,0.5,0,0.8c-0.1,0.4,0.3,0.9-0.4,1.1c-0.8,0.1-0.8-0.3-0.9-0.9c0-0.5-0.3-0.6-0.8-0.7
		c-2.3-0.1-2.3-0.1-2.3,2.1c0,1.4,0,1.4,1.4,1.3c0.5,0,0.7-0.2,0.7-0.7c0-0.4,0.2-0.6,0.6-0.6c0.5,0,0.5,0.3,0.5,0.7
		c0,0.7,0,1.5,0,2.2c0,0.3,0.1,0.7-0.4,0.7c-0.4,0-0.6-0.2-0.6-0.6c-0.1-1.3-1-0.6-1.6-0.7c-0.7-0.1-0.4,0.5-0.5,0.9
		c0,0.1,0,0.2,0,0.3c0,2.6,0,2.6,2.7,2.5c0.7,0,1-0.3,1-0.9c0-0.5,0.1-1,0.8-0.9c0.8,0.1,0.5,0.6,0.5,1c0,1.7,0,1.7-1.8,1.7
		c-1.9,0-3.7,0-5.6,0c-0.3,0-0.6,0.2-0.7-0.3c-0.1-0.5,0.2-0.6,0.6-0.6c0.5,0,0.5-0.4,0.5-0.8C88.3,99.8,88.3,98.6,88.3,97.5"/>
	<path d="M151.1,119.1c0-1.5,0-2.7,0-4c0-0.8-0.1-1.3-1.1-1.3c-0.2,0-0.4-0.1-0.5-0.1c-0.4,0-0.4-0.3-0.4-0.5c0-0.3,0.2-0.4,0.4-0.4
		c1.6,0,3.2,0,4.8,0c0.2,0,0.4,0,0.4,0.4c0,0.3,0,0.5-0.4,0.5c-1.5,0-1.3,1.1-1.3,2.1c0,2.5,0,4.9,0,7.4c-0.1,2.6-1.3,4.3-3.4,4.8
		c-1.3,0.3-2.6,0.2-3.9-0.3c-0.2-0.1-0.5-0.1-0.5-0.3c0-1.1-0.1-2.2,0-3.4c0-0.3,0.4-0.2,0.7-0.2c0.3,0,0.6-0.1,0.7,0.4
		c0.1,0.6,0.3,1.2,0.4,1.9c0.1,0.7,0.5,0.9,1.1,0.9c1.3,0,2.1-0.6,2.5-1.9C151.4,123.1,151,120.9,151.1,119.1"/>
	<path d="M37.1,98.6c-0.7,1-1.4,1.9-2,2.8c0.2,0.4,0.5,0.2,0.7,0.2c0.3,0.1,0.3,0.3,0.3,0.5c0,0.3-0.2,0.4-0.4,0.4
		c-0.9,0-1.8,0-2.7,0c-0.3,0-0.4-0.1-0.4-0.4c0-0.2-0.1-0.5,0.2-0.5c1.1,0,1.4-1,1.9-1.7c0.6-0.7,1.5-1.6,1.6-2.4
		c0-0.8-0.8-1.7-1.4-2.5c-0.5-0.7-0.6-1.8-1.8-1.9c-0.3,0-0.2-0.4-0.2-0.6c0-0.3,0.2-0.3,0.4-0.3c1.2,0,2.3,0,3.5,0
		c0.3,0,0.4,0.1,0.4,0.4c0,0.3-0.1,0.5-0.4,0.5c-0.6,0-0.5,0.2-0.3,0.6c0.4,0.7,0.8,1.4,1.3,2.2c0.6-0.8,1.1-1.5,1.6-2.2
		c0.2-0.2,0.3-0.5-0.2-0.5c-0.5,0-0.6-0.3-0.5-0.6c0.1-0.4,0.5-0.2,0.7-0.2c0.7,0,1.5,0,2.2,0c0.2,0,0.4,0,0.4,0.2
		c0,0.2,0.1,0.6-0.2,0.6c-1.1,0-1.4,1.1-1.9,1.7c-1.6,2.1-1.6,2.1-0.2,4.2c0.6,0.9,0.8,2.3,2.3,2.5c0.1,0,0.1,0.3,0.1,0.5
		c0,0.2-0.2,0.3-0.4,0.3c-1.2,0-2.4,0-3.6,0c-0.2,0-0.5,0-0.5-0.3c0-0.3,0-0.5,0.4-0.5c0.9,0,0.5-0.4,0.3-0.8
		C38.1,100.2,37.6,99.5,37.1,98.6"/>
	<path d="M121.5,124.2c0-3.5,1.8-6.1,4.4-6.9c2.6-0.8,4.6,0.4,5.1,3.1c0.5,2.6-0.8,5.6-3,7c-1.4,0.9-3,1.1-4.5,0.3
		C121.9,126.9,121.6,125.4,121.5,124.2 M123.5,123.7c0,0.3,0,0.5,0,0.8c0.1,1.4,0.7,2.4,1.6,2.7c0.9,0.3,2.1-0.3,2.8-1.4
		c1.2-1.8,1.4-3.7,1.1-5.8c-0.2-0.9-0.6-1.7-1.6-1.9c-0.9-0.2-1.7,0.2-2.3,0.9C123.9,120.3,123.6,122,123.5,123.7"/>
	<path d="M182.5,102.6c-1.1,0-2.2,0-3.4,0c-0.3,0-0.6,0.1-0.7-0.4c0-0.4,0.1-0.5,0.5-0.5c0.6,0,0.7-0.3,0.7-0.8c0-2.2,0-4.5,0-6.7
		c0-0.6-0.2-0.9-0.8-0.8c-0.4,0-0.4-0.2-0.4-0.5c0-0.4,0.2-0.4,0.5-0.4c2.2,0,4.3,0,6.5,0c0.5,0,0.7,0.2,0.6,0.6c0,0.4,0,0.8,0,1.2
		c0,0.4-0.1,0.6-0.6,0.6c-0.3,0-0.7,0-0.7-0.5c0-0.4,0-1-0.5-1c-0.8-0.1-1.7,0-2.6,0c-0.2,0-0.1,0.3-0.1,0.5c0,0.6,0.1,1.1,0,1.7
		c-0.2,1.1,0.4,1.3,1.3,1.2c0.5,0,0.8-0.1,0.8-0.7c0-0.4,0.2-0.6,0.6-0.6c0.5,0,0.5,0.4,0.5,0.7c0,0.7,0,1.5,0,2.2
		c0,0.3,0.1,0.6-0.4,0.7c-0.4,0-0.7-0.1-0.7-0.5c0-1.4-1.1-0.7-1.7-0.8c-0.8,0-0.3,0.7-0.4,1c0,0.1,0,0.1,0,0.2c0,2.5,0,2.5,2.6,2.5
		c0.7,0,1-0.2,1-0.9c0-0.4,0-0.9,0.7-0.9c0.8,0,0.5,0.6,0.6,0.9c0,1.8,0,1.8-1.8,1.8H182.5"/>
	<path d="M132.8,96.8v-2.4c0-0.5,0.2-1.2-0.8-1.1c-0.3,0-0.3-0.2-0.3-0.5c0-0.3,0.1-0.4,0.4-0.4c1.2,0,2.4,0,3.6,0
		c0.2,0,0.5,0,0.4,0.4c0,0.2-0.1,0.5-0.3,0.5c-1-0.1-0.8,0.6-0.8,1.2c0,1.6,0,3.1,0,4.7c0,1.4,0.7,2.1,2,2.2
		c1.4,0.1,2.2-0.4,2.4-1.8c0.3-1.9,0.1-3.8,0.1-5.7c0-0.5-0.3-0.5-0.7-0.5c-0.4,0-0.5-0.2-0.5-0.6c0-0.4,0.3-0.3,0.6-0.3
		c0.8,0,1.6,0,2.4,0c0.3,0,0.5,0,0.5,0.4c0,0.3-0.1,0.5-0.4,0.5c-0.7,0-0.7,0.5-0.7,1c0,1.6,0,3.3,0,4.9c0,2-0.9,3-2.8,3.4
		c-0.9,0.2-1.9,0.1-2.8-0.2c-1.4-0.4-2.1-1.4-2.2-3C132.8,98.6,132.8,97.7,132.8,96.8L132.8,96.8"/>
	<path d="M203,100.8c0.3-0.4-0.5-1.2,0.6-1.4c0.8-0.1,0.8,0.5,0.8,0.9c0,1,0.5,1.3,1.4,1.3c0.8,0,1.6-0.1,1.9-1
		c0.3-0.9-0.2-1.5-1-1.9c-0.6-0.4-1.3-0.7-2-1.1c-1-0.7-1.7-1.6-1.5-2.9c0.2-1.3,1.1-2,2.3-2.4c0.7-0.2,1.5-0.2,2.2-0.1
		c1.9,0.3,2,0.4,1.8,2.3c0,0.3,0,0.7-0.5,0.7c-0.5,0-0.8-0.1-0.8-0.7c0-0.7-0.1-1.3-1-1.3c-0.8,0-1.6,0-2,0.9
		c-0.4,0.9,0.3,1.5,1,1.9c0.7,0.4,1.4,0.7,2.1,1.1c1,0.6,1.6,1.4,1.5,2.7c-0.1,1.2-0.8,1.9-1.8,2.4c-1.5,0.7-3.1,0.5-4.7,0.1
		C202.6,102.1,203.2,101.3,203,100.8"/>
	<path d="M57.9,100.9c0-0.3,0-0.5,0-0.6c0-0.4-0.1-0.9,0.6-0.9c0.7,0,0.7,0.3,0.7,0.8c-0.1,0.9,0.4,1.4,1.3,1.4c0.8,0,1.7-0.1,2-0.9
		c0.4-0.8-0.1-1.5-0.9-1.9c-0.7-0.4-1.5-0.8-2.1-1.2c-1.1-0.7-1.6-1.6-1.4-2.9c0.2-1.2,1.1-1.9,2.2-2.2c1.3-0.4,2.5-0.1,3.7,0.2
		c0.5,0.1,0.5,0.4,0.4,0.8c-0.1,0.6,0.3,1.4-0.2,1.8c-0.3,0.3-1,0.3-1.1-0.5c-0.1-0.8-0.3-1.4-1.3-1.4c-0.8,0-1.4,0.2-1.7,1
		c-0.3,0.8,0.2,1.4,0.9,1.7c0.7,0.4,1.5,0.7,2.2,1.1c1,0.6,1.7,1.4,1.5,2.6c-0.1,1.3-0.9,2.1-2.1,2.5c-1.5,0.5-2.9,0.4-4.4,0
		C57.5,102.1,58.2,101.3,57.9,100.9"/>
	<path d="M52.6,102.6c-0.5,0-1,0-1.5,0c-0.3,0-0.5,0-0.5-0.4c0-0.3,0.1-0.5,0.5-0.5c0.9,0.1,0.6-0.4,0.4-0.8
		c-0.3-0.6-0.2-1.6-0.8-1.8c-0.9-0.3-1.8-0.1-2.8-0.1c-0.3,0-0.3,0.3-0.4,0.5c-0.2,0.5-0.4,1-0.5,1.5c-0.1,0.4-0.2,0.8,0.4,0.7
		c0.4,0,0.5,0.2,0.4,0.6c0,0.4-0.4,0.3-0.6,0.3c-0.7,0-1.4,0-2.1,0c-0.3,0-0.6,0-0.6-0.3c0-0.3,0-0.5,0.4-0.5c0.7,0,0.7-0.6,0.9-1
		c0.9-2.5,1.8-4.9,2.7-7.4c0.2-0.6,0.4-1,1.1-1c0.7,0,0.9,0.3,1.2,0.9c0.9,2.5,1.9,5,2.8,7.5c0.2,0.4,0.2,1,0.9,1
		c0.4,0,0.3,0.3,0.3,0.6c0,0.3-0.3,0.3-0.5,0.3C53.7,102.6,53.1,102.6,52.6,102.6 M50.4,98c-0.4-1.1-0.6-2.1-1.2-3.2
		C48.7,96,48.4,97,48,98H50.4z"/>
	<path d="M228.4,128.1c-0.1,0-0.3,0-0.4,0c-2.3,0-2.8-0.6-2.4-3c0.1-0.5,0.3-0.4,0.6-0.4c0.6-0.1,0.6,0.4,0.7,0.8
		c0.3,1.4,1.3,2,2.7,1.6c0.7-0.2,1.1-0.6,1.2-1.3c0.1-0.7,0.1-1.4-0.6-1.9c-0.8-0.5-1.6-0.9-2.4-1.4c-1.7-1-2.2-1.9-1.8-3.5
		c0.3-1.3,1.6-2.2,3.2-2.3c0.5,0,1,0,1.5,0c1.8,0.1,2,0.4,2,2.2c0,0.4,0.1,0.7-0.5,0.7c-0.5,0-0.8-0.1-0.8-0.7c0-1-0.7-1.3-1.4-1.4
		c-0.8-0.1-1.5,0.1-1.9,0.9c-0.3,0.8-0.3,1.6,0.4,2.3c0.6,0.6,1.4,0.8,2.1,1.2c2,0.9,2.6,1.9,2.3,3.5c-0.3,1.7-1.8,2.7-3.7,2.8
		C228.8,128.1,228.6,128.1,228.4,128.1"/>
	<path d="M107.3,93.9c0,0.4,0,0.5,0,0.7c0,0.3,0.2,0.8-0.5,0.8c-0.5,0-0.7-0.1-0.8-0.6c-0.4-1.4-1.1-1.8-2.5-1.3
		c-1.8,0.6-2.7,2.8-2.2,5.3c0.4,1.9,1.6,2.9,3.3,2.9c0.7,0,1.2-0.2,1.3-1.1c0-0.3,0.1-0.5,0.2-0.8c0.2-0.6,0.8-0.5,1-0.3
		c0.5,0.5,0.2,1.2,0.2,1.8c0,0.3,0.2,0.7-0.3,1c-2.8,1.5-6.9-0.1-7.8-3.1c-1.2-4,1.9-7.5,6-6.9c0.3,0,0.5,0.1,0.8,0.1
		C107,92.6,107.7,92.9,107.3,93.9"/>
	<path d="M151.3,149.3c0.3,0.9-0.1,1.3-0.8,1.6c-3.2,1.4-6.3,0.3-7.4-2.7c-1.3-3.5,0.3-7.1,3.5-8c1.1-0.3,2.3-0.3,3.4,0.2
		c0.9,0.3,1.4,0.9,1.3,2c-0.1,0.8-0.5,1.1-1.3,1.1c-0.8,0-1-0.3-1-1.1c0-1.3-0.5-1.6-1.8-1.2c-0.2,0.1-0.5,0.2-0.7,0.3
		c-1.7,1.1-2.4,4.6-1.3,6.8c1,1.9,3.1,2.4,5.3,1.4C150.9,149.5,151,149.4,151.3,149.3"/>
	<path d="M94.6,149.3c0.3,0.9-0.2,1.3-0.8,1.6c-3.2,1.4-6.3,0.3-7.3-2.7c-1.2-3.5,0.4-7.1,3.6-8c1.1-0.3,2.3-0.3,3.4,0.2
		c0.8,0.4,1.4,1,1.3,2c-0.1,0.8-0.5,1.1-1.3,1.1c-0.8,0-1-0.4-1-1.1c0-1.3-0.4-1.6-1.7-1.2c-0.3,0.1-0.7,0.2-0.9,0.4
		c-1.7,1.1-2.3,4.8-1.1,6.9c1,1.8,3.1,2.3,5.5,1.2C94.3,149.4,94.4,149.4,94.6,149.3"/>
	<path d="M72.1,142.4c0,2.2,0,4.3,0,6.5c0,0.8,0.1,1.4,1.1,1.4c0.3,0,0.7,0,0.6,0.5c0,0.6-0.4,0.4-0.7,0.4c-1.3,0-2.6,0-3.9,0
		c-0.3,0-0.6,0.1-0.7-0.4c0-0.5,0.2-0.5,0.6-0.6c0.9,0,1.1-0.5,1.1-1.4c-0.1-3.8,0-7.6,0-11.4c0-0.7,0-1.2-1-1.1
		c-0.2,0-0.6,0.2-0.7-0.2c-0.1-0.5,0.3-0.5,0.6-0.6c0.7-0.2,1.4-0.5,2.1-0.7c0.6-0.1,0.9,0,0.9,0.8
		C72.1,137.9,72.1,140.1,72.1,142.4"/>
	<path d="M216.3,119.1c0,2.2,0,4.3,0,6.5c0,0.9,0.2,1.4,1.1,1.4c0.4,0,0.6,0.1,0.6,0.6c0,0.5-0.4,0.4-0.6,0.4c-1.3,0-2.7,0-4,0
		c-0.3,0-0.6,0.1-0.6-0.4c0-0.4,0.2-0.5,0.5-0.5c1.1,0,1.2-0.7,1.2-1.5c0-3.8,0-7.5,0-11.3c0-0.8-0.2-1.2-1-1
		c-0.2,0-0.6,0.2-0.7-0.3c-0.1-0.4,0.3-0.5,0.6-0.6c3-1.2,3.1-1.2,3.1,2V119.1"/>
	<path d="M171.2,100.1c0.8-2.1,1.4-4,2.1-6c0.2-0.4,0.2-0.8-0.5-0.8c-0.4,0-0.4-0.3-0.4-0.6c0-0.4,0.3-0.3,0.6-0.3
		c0.7,0,1.5,0,2.2,0c0.2,0,0.6-0.1,0.6,0.3c0,0.3,0,0.5-0.4,0.5c-0.7,0-0.7,0.5-0.9,1c-0.9,2.5-1.8,4.9-2.7,7.4
		c-0.2,0.6-0.4,0.8-1.1,0.8c-0.6,0-0.9-0.2-1.1-0.8c-0.9-2.5-1.8-5-2.8-7.5c-0.2-0.4-0.2-1-0.9-0.9c-0.3,0-0.4-0.3-0.4-0.5
		c0-0.4,0.3-0.3,0.6-0.3c1,0,2.1,0,3.1,0c0.3,0,0.5,0,0.5,0.4c0,0.3-0.1,0.5-0.4,0.5c-0.4,0-0.6,0.1-0.5,0.5
		C169.7,95.9,170.4,97.9,171.2,100.1"/>
	<path d="M235.9,93.5c0.7,1.2,1.3,2.4,2,3.7c0.5-0.9,1-1.7,1.4-2.5c0.2-0.4,1.2-1.1-0.2-1.3c-0.2,0-0.2-0.4-0.2-0.6
		c0.1-0.3,0.3-0.2,0.4-0.2c0.8,0,1.6,0,2.5,0c0.2,0,0.5,0,0.4,0.3c0,0.2,0,0.5-0.3,0.5c-0.8,0-0.9,0.7-1.2,1.1
		c-0.4,0.6-0.7,1.3-1.1,1.8c-1.1,1.3-1.2,2.9-1.1,4.5c0,0.5,0.1,0.9,0.7,0.8c0.4,0,0.5,0.2,0.5,0.5c0,0.4-0.3,0.3-0.6,0.3
		c-1.2,0-2.3,0-3.5,0c-0.3,0-0.5,0-0.5-0.4c0-0.3,0.1-0.5,0.4-0.5c0.7,0.1,0.7-0.4,0.8-0.9c0.1-1.5-0.1-2.9-1-4.1
		c-0.9-1.1-0.8-2.9-2.6-3.4c-0.1,0-0.1-0.3-0.1-0.5c0-0.2,0.2-0.3,0.4-0.3c1.1,0,2.2,0,3.4,0c0.3,0,0.4,0.1,0.4,0.4
		C236.9,93.6,236.3,93.3,235.9,93.5"/>
	<path d="M15.1,97.5c0,1,0,2.1,0,3.1c0,0.6-0.1,1.2,0.8,1.1c0.4,0,0.4,0.2,0.4,0.5c0,0.3-0.2,0.4-0.4,0.4c-1.2,0-2.5,0-3.7,0
		c-0.3,0-0.4-0.1-0.4-0.4c0-0.3,0-0.5,0.4-0.5c0.8,0.1,0.8-0.4,0.8-1c0-2.2,0-4.3,0-6.5c0-0.4,0.2-0.9-0.5-0.8
		c-0.5,0.1-1.3-0.3-1.4,0.7c0,0.3-0.1,0.6-0.2,0.9c-0.1,0.4-0.5,0.2-0.7,0.3c-0.3,0.1-0.4-0.2-0.4-0.5c-0.3-2.1-0.2-2.2,1.9-2.2
		c1.9,0,3.9,0,5.8,0c0.7,0,1,0.1,0.9,0.9c-0.1,0.4,0,0.8,0,1.2c0,0.4-0.1,0.6-0.5,0.6c-0.4,0-0.6-0.1-0.7-0.5c-0.1-0.6,0-1.3-1-1.3
		c-0.9,0-1.2,0.2-1.1,1.1C15.1,95.5,15.1,96.5,15.1,97.5"/>
	<path d="M225.8,92.5c1.2,0,2.4,0,3.6,0c0.7,0,0.9,0.2,0.8,0.8c0,0.4,0,0.7,0,1.1c0,0.3,0.2,0.8-0.4,0.8c-0.5,0-0.7-0.2-0.7-0.7
		c0-0.9-0.5-1.3-1.4-1.2c-0.5,0.1-0.6,0.3-0.6,0.7c0,2.3,0,4.6,0,6.8c0,0.5,0.1,0.9,0.7,0.8c0.3,0,0.4,0.2,0.4,0.5
		c0,0.4-0.3,0.4-0.5,0.4c-1.2,0-2.3,0-3.5,0c-0.3,0-0.5,0-0.5-0.4c0-0.3,0.1-0.5,0.4-0.5c0.8,0.1,0.8-0.4,0.8-1c0-2.2,0-4.3,0-6.5
		c0-0.4,0.2-0.9-0.5-0.8c-0.5,0.1-1.3-0.3-1.4,0.6c0,0.2-0.1,0.4-0.1,0.7c0,0.5-0.3,0.5-0.7,0.5c-0.4,0-0.6,0-0.6-0.5
		c-0.2-2.1-0.2-2.2,1.9-2.2H225.8z"/>
	<path d="M79.7,92.5c1.2,0,2.4,0,3.6,0c0.6,0,0.9,0.2,0.8,0.8c0,0.4,0,0.8,0,1.2c0,0.4,0,0.7-0.6,0.7c-0.5,0-0.7-0.1-0.7-0.6
		c0-0.6,0-1.2-0.9-1.2c-0.9,0-1.2,0.2-1.2,1.1c0.1,2,0,4.1,0,6.2c0,0.5,0,1.1,0.8,1c0.3,0,0.4,0.2,0.4,0.5c0,0.4-0.2,0.4-0.5,0.4
		c-1.2,0-2.3,0-3.5,0c-0.3,0-0.5,0-0.5-0.4c0-0.4,0.2-0.5,0.5-0.5c0.6,0,0.7-0.3,0.7-0.9c0-2.2,0-4.5,0-6.7c0-0.4,0.1-0.8-0.5-0.7
		c-0.5,0.1-1.3-0.4-1.5,0.5c-0.1,0.3-0.1,0.7-0.2,1c-0.1,0.5-0.5,0.2-0.7,0.3c-0.3,0.1-0.4-0.1-0.4-0.4c0-0.1,0-0.2,0-0.2
		c-0.1-2.1-0.1-2.1,2-2.1H79.7"/>
	<path d="M183.8,118.5c0.6-0.5,1.1-0.9,1.5-1.3c0.5-0.4,1-0.6,1.6-0.5c0.9,0.1,1.5,1,1,1.8c-0.2,0.5-0.6,0.2-1,0.1
		c-1.5-0.6-3.3,0.7-3.3,2.3c0,1.5,0.1,3.1,0,4.6c-0.1,0.9,0.2,1.5,1.2,1.5c0.3,0,0.8-0.1,0.8,0.5c0,0.7-0.5,0.4-0.8,0.4
		c-1.3,0-2.6,0-3.9,0c-0.2,0-0.6,0.2-0.7-0.3c0-0.4,0.1-0.6,0.5-0.6c1,0,1.1-0.6,1-1.4c0-2.1,0-4.2,0-6.3c0-0.7-0.1-1.1-0.9-1
		c-0.2,0-0.5,0.2-0.6-0.2c-0.1-0.4,0.1-0.5,0.5-0.6c0.3-0.1,0.6-0.2,1-0.3C183.6,116.4,183.6,116.4,183.8,118.5"/>
	<path d="M106.8,141.7c0.5-0.4,1-0.8,1.5-1.2c0.4-0.4,0.9-0.5,1.4-0.5c1.1,0,1.6,0.8,1.2,1.8c-0.2,0.5-0.6,0.3-0.9,0.1
		c-1.6-0.6-3.4,0.6-3.4,2.3c0,1.5,0.1,3,0,4.5c-0.1,1,0.2,1.6,1.3,1.6c0.4,0,0.8,0,0.7,0.6c-0.1,0.6-0.5,0.3-0.8,0.3
		c-1.3,0-2.7,0-4,0c-0.3,0-0.6,0.1-0.6-0.4c0-0.4,0.2-0.5,0.5-0.5c0.9,0,1.1-0.6,1.1-1.4c-0.1-2.1,0-4.3,0-6.4c0-0.7-0.2-1-0.9-0.9
		c-0.2,0-0.6,0.2-0.7-0.3c0-0.4,0.3-0.5,0.5-0.6c0.6-0.2,1.2-0.5,1.8-0.6c0.7-0.2,1.3-0.1,1.1,0.9
		C106.6,141.2,106.5,141.4,106.8,141.7"/>
	<path d="M53.6,118.4c0.5-0.4,1.1-0.8,1.6-1.3c0.4-0.4,0.9-0.5,1.4-0.5c1.1,0.1,1.6,0.7,1.2,1.7c-0.2,0.5-0.6,0.3-0.9,0.2
		c-1.6-0.6-3.4,0.6-3.4,2.3c0,1.5,0.1,3,0,4.5c-0.1,1,0.2,1.6,1.3,1.6c0.4,0,0.8,0,0.7,0.6c-0.1,0.6-0.5,0.3-0.8,0.4
		c-1.3,0-2.7,0-4,0c-0.3,0-0.6,0.1-0.6-0.4c0-0.4,0.1-0.5,0.5-0.5c1,0,1.1-0.7,1.1-1.5c-0.1-2.1-0.1-4.1,0-6.2c0-0.8-0.1-1.2-1-1
		c-0.2,0-0.6,0.2-0.6-0.3c0-0.3,0.2-0.5,0.4-0.6c0.3-0.1,0.6-0.2,0.8-0.3C53.2,116.4,53.2,116.4,53.6,118.4"/>
	<path d="M109.6,122.6c0-1.1,0-2.2,0-3.2c0-0.6-0.1-1-0.8-0.9c-0.2,0-0.5,0.2-0.6-0.2c-0.1-0.3,0.1-0.6,0.4-0.6
		c1.1-0.2,1.4-1.1,1.8-1.9c0.2-0.4,0.3-0.7,0.8-0.6c0.6,0.1,0.3,0.6,0.3,0.9c0.1,1.6,0,1.6,1.7,1.6c0.4,0,0.8,0,1.2,0
		c0.4,0,0.5,0.1,0.5,0.5c0,0.4-0.2,0.4-0.5,0.4c-0.7,0-1.5,0-2.2,0c-0.6,0-0.7,0.2-0.7,0.7c0,1.8,0,3.7,0,5.5c0,2.1,0.7,2.6,2.7,2.2
		c0.2,0,0.5-0.3,0.6,0.1c0.1,0.3,0,0.7-0.4,0.8c-1.2,0.3-2.3,0.5-3.5,0.2c-0.8-0.2-1.2-0.7-1.2-1.5
		C109.6,125.2,109.6,123.9,109.6,122.6L109.6,122.6"/>
	<path d="M59.8,122.6c0-1.1,0-2.2,0-3.2c0-0.6-0.1-1-0.8-0.9c-0.2,0-0.6,0.1-0.6-0.2c-0.1-0.3,0.1-0.5,0.4-0.6
		c1.1-0.2,1.4-1.1,1.8-1.9c0.2-0.4,0.3-0.7,0.8-0.6c0.6,0.1,0.3,0.6,0.3,0.9c0.1,1.6,0,1.6,1.7,1.6c0.4,0,0.8,0,1.2,0
		c0.3,0,0.5,0,0.5,0.4c0,0.4-0.1,0.5-0.5,0.5c-0.7,0-1.4,0-2.1,0c-0.5,0-0.8,0.1-0.8,0.7c0.1,1.8,0,3.7,0,5.5c0,2,0.7,2.5,2.7,2.2
		c0.2,0,0.5-0.3,0.6,0.1c0.1,0.4,0,0.7-0.4,0.8c-1.1,0.3-2.3,0.5-3.4,0.3c-0.8-0.1-1.3-0.7-1.3-1.5
		C59.8,125.2,59.9,123.9,59.8,122.6L59.8,122.6"/>
	<path d="M97,145.9c0-1.1,0-2.2,0-3.2c0-0.6,0-1-0.8-0.9c-0.2,0-0.6,0.2-0.6-0.2c-0.1-0.4,0.2-0.6,0.5-0.6c1-0.2,1.3-1.1,1.7-1.9
		c0.2-0.4,0.3-0.7,0.8-0.6c0.6,0.1,0.3,0.6,0.3,0.9c0.1,1.6,0,1.6,1.7,1.6c0.4,0,0.8,0,1.2,0c0.4,0,0.5,0.1,0.5,0.5
		c0,0.4-0.2,0.4-0.5,0.4c-0.1,0-0.2,0-0.3,0c-0.8,0.1-2-0.4-2.4,0.2c-0.4,0.5-0.1,1.6-0.1,2.5c0,1.2,0,2.5,0,3.7
		c0.1,1.8,0.8,2.4,2.6,2.1c0.2,0,0.7-0.5,0.8,0.2c0.1,0.5-0.2,0.6-0.6,0.7c-0.9,0.2-1.9,0.3-2.9,0.3c-1-0.1-1.7-0.6-1.7-1.7
		C97.1,148.5,97.1,147.2,97,145.9L97,145.9"/>
	<path d="M222.6,121.6c0,1.3,0.1,2.7,0,4c0,0.8,0.2,1.2,1,1.3c0.3,0,0.7,0,0.6,0.6c0,0.6-0.4,0.4-0.7,0.4c-1.2,0-2.5,0-3.7,0
		c-0.3,0-0.6,0.2-0.7-0.3c-0.1-0.5,0.2-0.6,0.6-0.6c0.8-0.1,1-0.5,1-1.3c-0.1-2.2,0-4.3,0-6.5c0-0.7-0.1-1-0.9-0.9
		c-0.2,0-0.7,0.2-0.7-0.3c-0.1-0.4,0.3-0.5,0.6-0.6c0.7-0.2,1.4-0.5,2.1-0.7c0.5-0.1,0.8,0,0.8,0.7
		C222.6,118.8,222.6,120.2,222.6,121.6"/>
	<path d="M139.9,145c0,1.3,0.1,2.6,0,3.9c-0.1,0.8,0.2,1.3,1,1.3c0.4,0,0.6,0.2,0.6,0.6c-0.1,0.5-0.4,0.3-0.7,0.3
		c-1.3,0-2.5,0-3.8,0c-0.3,0-0.6,0.1-0.6-0.4c0-0.4,0.2-0.5,0.5-0.5c0.9,0,1.1-0.6,1.1-1.4c-0.1-2.1,0-4.2,0-6.3c0-0.7,0-1.2-0.9-1
		c-0.2,0-0.6,0.2-0.6-0.2c-0.1-0.4,0.1-0.6,0.5-0.6c0.1,0,0.2,0,0.2,0c2.8-1.1,2.8-1.1,2.8,1.9V145"/>
	<path d="M205.2,145.1c0,1.3,0,2.6,0,3.9c0,0.8,0.2,1.2,1,1.3c0.3,0,0.7,0,0.6,0.5c0,0.6-0.4,0.4-0.7,0.4c-1.2,0-2.5,0-3.7,0
		c-0.3,0-0.6,0.2-0.7-0.3c-0.1-0.4,0.2-0.6,0.6-0.6c1,0,1-0.6,1-1.4c0-2.1,0-4.3,0-6.4c0-0.7-0.1-1-0.8-0.9c-0.2,0-0.7,0.2-0.7-0.3
		c-0.1-0.4,0.2-0.5,0.6-0.6c0.7-0.2,1.3-0.5,2-0.7c0.6-0.1,1,0,0.9,0.8C205.1,142.2,205.2,143.6,205.2,145.1"/>
	<path d="M214.9,97.5c0-1.1,0-2.2,0-3.2c0-0.5,0-0.9-0.7-0.9c-0.4,0-0.5-0.2-0.5-0.6c0-0.4,0.4-0.3,0.6-0.3c1.1,0,2.2,0,3.4,0
		c0.3,0,0.6-0.1,0.6,0.4c0,0.3-0.1,0.5-0.5,0.5c-0.7-0.1-0.8,0.4-0.7,0.9c0,2.2,0,4.3,0,6.5c0,0.5,0,1,0.7,0.9
		c0.3,0,0.5,0.1,0.5,0.4c0,0.5-0.3,0.4-0.6,0.4c-1.1,0-2.2,0-3.4,0c-0.2,0-0.6,0.1-0.6-0.3c0-0.4,0.1-0.6,0.5-0.6
		c0.7,0.1,0.7-0.4,0.7-0.9C214.9,99.7,214.9,98.6,214.9,97.5"/>
	<path d="M160.7,92.5c0.6,0,1.2,0,1.8,0c0.2,0,0.6-0.1,0.5,0.4c0,0.3-0.1,0.5-0.4,0.5c-0.8-0.1-0.9,0.4-0.9,1c0,2.1,0,4.2,0,6.3
		c0,0.6,0,1.1,0.8,1c0.4,0,0.6,0.1,0.5,0.5c0,0.4-0.3,0.3-0.6,0.3c-1.2,0-2.3,0-3.5,0c-0.3,0-0.5,0-0.5-0.4c0-0.3,0.1-0.5,0.5-0.5
		c0.9,0.1,0.8-0.5,0.8-1.1c0-2.1,0-4.2,0-6.3c0-0.6,0-1.1-0.8-1c-0.4,0-0.5-0.2-0.5-0.6c0-0.4,0.4-0.3,0.6-0.3
		C159.6,92.5,160.1,92.5,160.7,92.5"/>
	<path fill="#211F1F" d="M146.2,73.9c-1,0-1.8-0.7-1.8-1.7c0-0.9,0.8-1.7,1.7-1.7c1,0,1.7,0.7,1.7,1.7
		C147.9,73.2,147.2,73.9,146.2,73.9 M145.4,71.1c-0.6,0.8-0.7,1.5,0,2.2V71.1z M147,71.3c0,0.2,0,0.4-0.1,0.4
		c-0.1,0.2-0.2,0.3-0.2,0.5c-0.2,0.4,0,0.9,0.5,0.6c0.3-0.2,0.3-0.8,0.1-1.2C147.2,71.6,147.2,71.5,147,71.3"/>
	<path d="M205.6,136.3c-0.1,0.8-0.5,1.3-1.3,1.3c-0.9,0-1.3-0.6-1.3-1.4c0-0.8,0.5-1.3,1.3-1.3C205.2,134.9,205.6,135.4,205.6,136.3
		"/>
	<path d="M139.1,134.8c0.8,0.1,1.3,0.5,1.3,1.3c0,0.9-0.4,1.3-1.3,1.4c-0.9,0-1.3-0.5-1.3-1.3C137.7,135.4,138.2,134.9,139.1,134.8"
		/>
	<path d="M223.1,112.9c-0.1,0.8-0.5,1.3-1.4,1.3c-0.9,0-1.3-0.6-1.2-1.4c0-0.8,0.5-1.3,1.4-1.3C222.7,111.6,223.1,112.1,223.1,112.9
		"/>
	<path fill="#B0B1B2" d="M133.1,34.9c-0.8,0-1.6,0-2.4-0.1c-0.6,0-0.7,0.2-0.7,0.8c0,2.9,0,5.7,0,8.6c0,4.3,0,8.5,0,12.8
		c0,0.8,0.2,0.9,1,0.9c1.5-0.1,3.1,0,4.6,0c0.7,0,0.9,0.2,0.9,0.9c0,5.8,0,11.6,0,17.4c0,0.8-0.3,0.9-1,0.9c-8.7,0-17.3,0-26,0
		c-1.5,0-3,0.1-4.5-0.1c0.2-0.6,0.7-1,1.2-1.3c5.2,0,10.4,0,15.5,0c4.1,0,8.2,0,12.3,0c0.5,0,0.8,0,0.8-0.7c0-5.1,0-10.2-0.1-15.3
		c-0.2-0.3-0.6-0.2-0.9-0.2c-1.8,0-3.6,0-5.5,0c0-7.4,0-14.8,0-22.2c0-2.3,0-2.2-2.3-2.3c-0.7,0-1,0.2-1,0.9c0,8.6,0,17.2,0,25.8
		c0,0.3-0.2,0.6,0.2,0.9c1.2,0,2.4,0.1,3.6,0c0.7,0,1.2,0.1,1,1c0,0.1,0,0.2,0,0.4c0,2.4,0,4.9,0,7.3c0,0.8-0.1,1-1,1
		c-5.8,0-11.5,0-17.3,0c-0.2,0-0.5,0.2-0.6-0.1c1-0.7,1.7-1.5,1.5-2.9c-0.1-1-0.1-2.1,0-3.1c0-0.6-0.2-1.3,0.2-1.8l0.1,0.1
		c-0.1,2.1-0.1,4.1,0,6.2c0.1,0.3,0.4,0.2,0.6,0.2c4.8,0,9.5,0,14.3,0c0.6,0,0.7-0.3,0.7-0.8c0-1.8,0-3.7,0-5.5
		c0.3-0.6,1-0.8,1.2-1.5c-1.2,0-2.4,0.1-3.6,0c-1-0.1-1.5,0.6-2.2,1.3c1.5,0.2,2.9-0.1,4.2,0.2c-1.5,0-3,0-4.4,0c0-0.8,0-1.5,0-2.3
		c0-9.2,0-18.3,0-27.5c0-0.6,0-1,0.8-1c3.4,0.1,6.8,0,10.2,0c0.1,1-0.1,2,0.1,3c2,0.3,4,0.1,5.9,0.1c0.4,0,0.4-0.3,0.4-0.5
		c0-2.9,0-5.8-0.1-8.7c0,0,0-0.1,0-0.1c0.4-0.5,1-0.9,1.4-1.5c0.4,0.1,0.2,0.5,0.2,0.7c0,3.6,0,7.2,0,10.8c0,0.6-0.1,0.9-0.8,0.9
		c-2.7,0-5.3,0-8,0c-0.2,0-0.6,0.2-0.7-0.2c1.3-0.7,1.8-2.1,1.3-4.3C133.9,34.1,133.5,34.5,133.1,34.9"/>
	<path fill="#FEFEFE" d="M88.5,23.9c0-7.3,0-14.6,0-22c0.1,0,0.1-0.1,0.2-0.1c0.6,0,1.3,0,1.9,0c20.1,0,40.2,0,60.3,0
		c0.4,0,0.8,0,1.1,0c-0.2,0.8-1,1.1-1.3,1.7c-19.8,0-39.6,0-59.4,0c-0.9,0-1.1,0.3-1.1,1.1c0,5.9,0,11.8,0,17.7
		C89.7,22.9,89.1,23.4,88.5,23.9"/>
	<path fill="#FEFEFE" d="M142.4,25.8c-0.3,0.6-0.9,1-1.4,1.5c-13.7,0-27.4,0-41.1,0c0,0-0.1,0.1-0.1,0.1c0,3,0,5.9,0,8.9
		c-0.3,0.7-0.9,1.2-1.5,1.6c0-4,0-8,0-12c0-0.1,0.1-0.1,0.1-0.2c3.9,0,7.8,0,11.7,0c0.7,0,0.9-0.2,0.9-0.9c-0.1-2.3,0-4.5,0-6.8
		c0.5-0.5,1-0.9,1.5-1.4c0,2.8,0,5.5,0,8.3c0,0.5,0.1,0.7,0.7,0.7c2.4,0,4.9,0,7.3,0c2.6,0,5.2,0,7.8,0c0.5,0,1.1,0,1.6,0
		C134.1,25.8,138.2,25.8,142.4,25.8"/>
	<path fill="#FEFEFE" d="M106.1,75.6c-0.5,0.3-1,0.7-1.2,1.3c-0.7,0.1-0.4-0.5-0.4-0.7c0-4.2,0-8.5,0-12.7c0-1.6,0-3.2,0-4.8
		c0-0.6,0.1-0.9,0.8-0.9c1.6,0.1,3.2,0,4.9,0c0.7,0,0.8-0.2,0.8-0.9c0-7.4,0-14.8,0-22.1c0.5,0,1,0,1.5,0c0,7.9,0,15.9,0,23.8
		c0,0.6-0.3,0.6-0.7,0.6c-1.9,0-3.9,0-5.8,0c-0.3,0.2-0.2,0.4-0.2,0.7c0,4.8,0,9.6,0,14.4c0,0.2,0,0.5,0.1,0.7c0,0.1,0,0.1,0.1,0.2
		C106.1,75.5,106.1,75.6,106.1,75.6"/>
	<path fill="#B0B1B2" d="M150.7,3.5c0.4-0.6,1.1-0.9,1.3-1.7c0.4,0.1,0.2,0.4,0.2,0.6c0,7,0,14,0,21c0,0.6-0.1,0.8-0.7,0.8
		c-4.9,0-9.8,0-14.7,0c-0.2,0-0.5,0.2-0.6-0.2c0.6-0.4,1-1,1.5-1.5c0,0,0.1,0,0.1,0c3.9,0,7.9,0,11.8,0.1c0.8,0,1.1-0.1,1.1-1
		c0-5.5,0-10.9,0-16.4c0-0.5,0-0.9-0.1-1.4C150.7,3.5,150.7,3.5,150.7,3.5"/>
	<path fill="#B0B1B2" d="M112.6,16.8c-0.5,0.5-1,0.9-1.5,1.4c-1.9,0-3.8,0-5.7,0c-0.7,0-0.8,0.2-0.8,0.9c0,1.5,0,2.9,0,4.4
		c0,0.5-0.1,0.7-0.7,0.7c-5,0-9.9,0-14.9,0c-0.2,0-0.4,0.1-0.5-0.2c0.6-0.5,1.2-1,1.8-1.6l0.1,0l0.1,0c0.1,0,0.1,0.1,0.2,0.1
		c3.9,0,7.9,0,11.8,0c0.6,0,0.6-0.3,0.6-0.7c0-1.4,0-2.7,0-4.1c0-0.8,0.1-1,1-1c2.9,0.1,5.8,0,8.7,0
		C112.6,16.6,112.6,16.7,112.6,16.8"/>
	<path fill="#B0B1B2" d="M112.6,34.9c-0.5,0-1,0-1.5,0c-0.9,0-1.7,0-2.6-0.1c-0.5,0-0.7,0.2-0.6,0.7c0,0.7,0,1.3,0,2
		c0,0.4-0.1,0.6-0.6,0.6c-2.9,0-5.8,0-8.7,0c-0.1,0-0.3,0-0.3-0.2c0.6-0.4,1.2-0.9,1.5-1.6c0.1,0,0.1,0.1,0.2,0.1
		c1.3,0.3,2.6,0.1,3.9,0.1c0.8,0,1.7,0.3,2.2-0.1c0.5-0.5,0.2-1.4,0.1-2.2c0-0.7,0.2-0.9,0.9-0.9c3.4,0,6.8,0,10.2,0
		c0,10,0,20.1,0,30.1c0,0.5-0.2,0.6-0.7,0.6c-1.3,0-2.6,0-3.9,0l0-0.1c1.2-0.3,2.3-0.1,3.5-0.1c0.8,0,1-0.2,1-1c0-9.6,0-19.1,0-28.7
		c0-0.2,0.1-0.4-0.1-0.6c-0.9,0.5-1.2,1.3-1.2,2.4c0,8.5,0,17,0,25.6c0,0.7-0.1,1-0.9,1c-1.3-0.1-2.5,0-3.8,0
		c1.1-0.3,2.2-0.1,3.3-0.1c1.5-0.1,1.3,0.2,1.3-1.2c0-8.4,0-16.8,0-25.3c0-0.2,0-0.4,0-0.7c0-0.3-0.1-0.5-0.4-0.5
		C114.3,34.9,113.5,34.7,112.6,34.9"/>
	<path fill="#B0B1B2" d="M130,25.8c-0.5,0-1.1,0-1.6,0c0-2.8,0-5.6,0-8.5c0-0.3-0.1-0.7,0.4-0.7c2.9,0.1,5.7-0.1,8.6,0.1
		c-0.1,0.7-0.7,1.1-1.1,1.5c-1.9,0-3.8,0-5.6,0c-0.5,0-0.7,0.1-0.7,0.7C130,21.1,130,23.4,130,25.8"/>
	<path fill="#FEFEFE" d="M136.3,18.1c0.5-0.4,1-0.8,1.1-1.5c0.1,0,0.2-0.1,0.3-0.1c0,1.9,0,3.8,0,5.8c-0.4,0.6-0.8,1.2-1.5,1.5
		C136.3,21.9,136.3,20,136.3,18.1"/>
	<path fill="#FEFEFE" d="M133.1,34.9c0.4-0.4,0.9-0.8,1.3-1.2c0.5,2.2,0,3.6-1.3,4.3C133.1,37,133.1,35.9,133.1,34.9"/>
	<path fill="#B0B1B2" d="M98.4,25.8c0,0.1-0.1,0.1-0.1,0.2C98.3,25.8,98.3,25.8,98.4,25.8"/>
	<path fill="#B0B1B2" d="M88.7,1.8c-0.1,0-0.1,0.1-0.2,0.1C88.5,1.7,88.6,1.7,88.7,1.8"/>
	<path fill="#FEFEFE" d="M145.4,71.1v2.2C144.7,72.5,144.8,71.9,145.4,71.1"/>
	<path fill="#FEFEFE" d="M147,71.3c0.1,0.2,0.2,0.2,0.2,0.3c0.2,0.4,0.3,1-0.1,1.2c-0.5,0.3-0.6-0.1-0.5-0.6
		c0.1-0.2,0.2-0.3,0.2-0.5C147,71.7,147,71.6,147,71.3"/>
	<path fill="#CB252B" d="M100,36.5c-0.1,0-0.1-0.1-0.2-0.1c0-3,0-5.9,0-8.9c0.1,0,0.1-0.1,0.1-0.1c13.7,0,27.4,0,41.1,0
		c0,0,0,0.1,0,0.1c-0.5,0.4-0.9,0.9-1.4,1.3c-1.3,1-2,2.3-1.7,4c0.1,0.5,0,0.8-0.4,1.2c-0.9,0.8-1.9,1.7-2.8,2.6c-0.2-1,0-2-0.1-3
		c1-1,2.1-1.9,3.1-2.9c-0.2-0.3-0.3-0.2-0.5-0.2c-5.4,0-10.7,0-16.1,0c-0.7,0-0.8,0.3-0.8,0.8c0,4.7,0,9.4,0,14.1c0,7,0,14.1,0,21.1
		c0,0.7-0.2,0.9-0.8,0.8c-1-0.1-2,0-3.1,0c-0.6,0-1,0.2-1.4,0.6c-0.8,0.8-1.6,1.7-2.4,2.5c-0.1-2.1-0.1-4.1,0-6.2c1.3,0,2.6,0,3.9,0
		c0.5,0,0.7-0.1,0.7-0.6c0-10,0-20.1,0-30.1c1-1,1.9-1.9,3-3c-5.6,0-10.9,0-16.2,0c-0.9,0-1.2,0.2-1,1.1c0,0.3,0,0.6,0,0.9
		c0.1,0.8-0.2,1.4-0.8,1.9C101.5,34.9,100.8,35.7,100,36.5"/>
	<path fill="#131211" d="M112.8,70.3c0.8-0.8,1.6-1.6,2.4-2.5c0.4-0.4,0.8-0.7,1.4-0.6c1,0.1,2,0,3.1,0c0.7,0,0.8-0.2,0.8-0.8
		c0-7,0-14.1,0-21.1c0-4.7,0-9.4,0-14.1c0-0.6,0.1-0.8,0.8-0.8c5.4,0,10.7,0,16.1,0c0.1,0,0.3-0.1,0.5,0.2c-1,0.9-2.1,1.9-3.1,2.9
		c-3.4,0-6.8,0-10.2,0c-0.8,0-0.8,0.4-0.8,1c0,9.2,0,18.3,0,27.5c0,0.8,0,1.5,0,2.3c-1,1-2,2-3,3c4.1,0.5,4.4,0.4,7.1-2.5
		c0.2-0.2,0.3-0.3,0.4-0.5l0.1,0l0.1,0c0,1.8,0,3.7,0,5.5c0,0.5-0.1,0.8-0.7,0.8c-4.8,0-9.5,0-14.3,0
		C113.2,70.5,112.9,70.6,112.8,70.3"/>
	<path fill="#131211" d="M106.1,75.6c0-0.1,0-0.1,0-0.2c1.6-1.6,3.3-3.3,4.9-4.9c0,0.5,0,1,0.1,1.5c0.1,0.4,0.4,0.1,0.6,0.1
		c5.8,0,11.6,0,17.3,0c0.8,0,1-0.3,1-1c0-2.4,0-4.9,0-7.3c0.2-0.2,0.4-0.3,0.6-0.5c1.4-1.3,2.7-2.5,4.1-3.8c0,5.1,0,10.2,0.1,15.3
		c0,0.7-0.4,0.7-0.8,0.7c-4.1,0-8.2,0-12.3,0C116.5,75.6,111.3,75.6,106.1,75.6"/>
	<path fill="#131211" d="M125.4,62.4c-0.4-0.2-0.2-0.6-0.2-0.9c0-8.6,0-17.2,0-25.8c0-0.8,0.2-0.9,1-0.9c2.3,0,2.3,0,2.3,2.3
		c0,7.4,0,14.8,0,22.2C127.4,60.4,126.4,61.4,125.4,62.4"/>
	<path fill="#FEFEFE" d="M111.1,72c0-0.5,0-1-0.1-1.5c0-2.6,0.1-5.2,0.1-7.9c1.3,0,2.5,0,3.8,0c0.8,0,0.9-0.3,0.9-1
		c0-8.5,0-17,0-25.6c0-1.1,0.3-1.8,1.2-2.4c0.3,0.1,0.1,0.4,0.1,0.6c0,9.6,0,19.1,0,28.7c0,0.8-0.2,1-1,1c-1.2,0-2.3-0.2-3.5,0.1
		c-0.3,0.6-0.1,1.2-0.2,1.8c0,1-0.1,2.1,0,3.1C112.7,70.5,112.1,71.3,111.1,72"/>
	<path fill="#131211" d="M134.8,36.5c0.9-0.9,1.8-1.7,2.8-2.6c0.4-0.3,0.5-0.7,0.4-1.2c-0.3-1.7,0.3-3,1.7-4
		c0.5-0.4,0.9-0.9,1.4-1.3c0,2.9,0,5.8,0.1,8.7c0,0.3,0,0.5-0.4,0.5C138.7,36.5,136.7,36.8,134.8,36.5"/>
	<path fill="#CB252B" d="M125.4,62.4c1-1,2-2,3-3.1c1.8,0,3.6,0,5.5,0c0.3,0,0.6-0.2,0.9,0.2c-1.4,1.3-2.7,2.5-4.1,3.8
		c-0.2,0.2-0.4,0.3-0.6,0.5c0-0.1-0.1-0.3,0-0.4c0.1-0.8-0.3-1-1-1C127.8,62.5,126.6,62.4,125.4,62.4"/>
	<path fill="#CB252B" d="M128.2,64.2c-0.1,0.2-0.3,0.3-0.4,0.5c-2.7,2.8-3.1,3-7.1,2.5c1-1,2-2,3-3c1.5,0,3,0,4.4,0
		C128.1,64.1,128.2,64.1,128.2,64.2"/>
	<path fill="#FEFEFE" d="M128.2,64.2c0,0-0.1-0.1-0.2-0.1c-1.3-0.3-2.7,0-4.2-0.2c0.7-0.6,1.1-1.3,2.2-1.3c1.2,0.1,2.3,0,3.6,0
		c-0.3,0.7-1,0.9-1.2,1.5L128.2,64.2L128.2,64.2z"/>
	<path fill="#CB252B" d="M137.8,22.3c0-1.9,0-3.8,0-5.8c2.1-2.2,4.2-4.4,6.4-6.7c-0.3-0.1-0.4-0.1-0.4-0.1c-7.5,0-14.9,0-22.4,0
		c-0.7,0-0.7,0.3-0.7,0.9c0,5.1,0,10.1,0,15.2c-2.4,0-4.9,0-7.3,0c-0.6,0-0.7-0.2-0.7-0.7c0-2.8,0-5.5,0-8.3c0-0.1,0-0.1,0-0.2
		c2.6-2.2,5.2-4.4,7.8-6.7c-0.2-0.1-0.2-0.1-0.2-0.1c-7.7,0-15.5,0-23.2,0c-0.5,0-0.6,0.2-0.6,0.7c0,1.7,0,3.4,0,5.2
		c0,0.6-0.2,0.9-0.6,1.3c-1.8,1.8-3.6,3.6-5.4,5.4l-0.1,0l-0.1,0c0-5.9,0-11.8,0-17.7c0-0.8,0.1-1.1,1.1-1.1c19.8,0,39.6,0,59.4,0
		c0,0,0,0.1,0,0.1c-2,1.9-4.1,3.9-6.1,5.8c-0.3,0.3-0.3,0.6-0.3,1c0,1.6-0.1,3.2,0,4.8c0,0.8-0.3,1.4-0.8,1.9
		c-1.9,1.8-3.7,3.6-5.6,5.3C137.9,22.3,137.8,22.3,137.8,22.3"/>
	<path fill="#131211" d="M120.6,25.7c0-5.1,0-10.1,0-15.2c0-0.5,0-0.9,0.7-0.9c7.5,0,14.9,0,22.4,0c0.1,0,0.2,0,0.4,0.1
		c-2.2,2.3-4.3,4.5-6.4,6.7c-0.1,0-0.2,0.1-0.3,0.1c-2.9-0.2-5.7,0-8.6-0.1c-0.6,0-0.4,0.4-0.4,0.7c0,2.8,0,5.6,0,8.5
		C125.8,25.7,123.2,25.7,120.6,25.7"/>
	<path fill="#B0B1B2" d="M99.9,27.3c0,0.1,0,0.1-0.1,0.1C99.8,27.4,99.9,27.3,99.9,27.3"/>
	<path fill="#CB252B" d="M111.1,62.6c0,2.6-0.1,5.2-0.1,7.9c-1.6,1.6-3.3,3.3-4.9,4.9c-0.1,0-0.1-0.1-0.1-0.2c0-0.3,0.1-0.7,0.1-1
		c0-4.9,0-9.9,0-14.8c1.9,0,3.9,0,5.8,0c0.5,0,0.7,0,0.7-0.6c0-7.9,0-15.9,0-23.8c0.9-0.2,1.8-0.1,2.7-0.1c0.3,0,0.5,0.2,0.4,0.5
		c0,0.2,0,0.4,0,0.7c0,8.4,0,16.8,0,25.3c0,1.4,0.2,1.2-1.3,1.2C113.3,62.5,112.2,62.3,111.1,62.6"/>
	<path fill="#B0B1B2" d="M106.1,59.4c0,4.9,0,9.9,0,14.8c0,0.3,0,0.7-0.1,1c-0.2-0.2-0.1-0.5-0.1-0.7c0-4.8,0-9.6,0-14.4
		C105.9,59.9,105.8,59.6,106.1,59.4"/>
	<path fill="#131211" d="M137.9,22.3c1.8-1.8,3.7-3.6,5.6-5.3c0.6-0.5,0.9-1.1,0.8-1.9c-0.1-1.6,0-3.2,0-4.8c0-0.3,0-0.7,0.3-1
		c2.1-1.9,4.1-3.9,6.1-5.8c0,0.5,0.1,0.9,0.1,1.4c0,5.5,0,10.9,0,16.4c0,0.9-0.3,1-1.1,1C145.8,22.3,141.9,22.3,137.9,22.3"/>
	<path fill="#131211" d="M90.4,22.3c1.8-1.8,3.6-3.6,5.4-5.4c0.4-0.4,0.6-0.8,0.6-1.3c0-1.7,0-3.4,0-5.2c0-0.5,0.1-0.7,0.6-0.7
		c7.7,0,15.5,0,23.2,0c0,0,0.1,0,0.2,0.1c-2.6,2.3-5.2,4.5-7.8,6.7c-2.9,0-5.8,0.1-8.7,0c-0.8,0-1,0.2-1,1c0.1,1.4,0,2.7,0,4.1
		c0,0.4,0,0.7-0.6,0.7c-3.9,0-7.9,0-11.8,0C90.5,22.4,90.5,22.3,90.4,22.3"/>
	<path fill="#131211" d="M100,36.5c0.8-0.8,1.6-1.6,2.4-2.3c0.6-0.5,0.9-1.1,0.8-1.9c0-0.3,0-0.6,0-0.9c-0.1-0.8,0.2-1.1,1-1.1
		c5.3,0,10.6,0,16.2,0c-1.1,1.1-2.1,2.1-3,3c-3.4,0-6.8,0-10.2,0c-0.7,0-0.9,0.2-0.9,0.9c0,0.7,0.4,1.7-0.1,2.2
		c-0.5,0.5-1.5,0.2-2.2,0.1C102.6,36.5,101.3,36.8,100,36.5"/>
</g>
</svg>
