<?xml version="1.0" encoding="utf-8"?>
<!-- Generator: Adobe Illustrator 18.1.0, SVG Export Plug-In . SVG Version: 6.00 Build 0)  -->
<svg version="1.1" id="Layer_1" xmlns="http://www.w3.org/2000/svg" xmlns:xlink="http://www.w3.org/1999/xlink" x="0px" y="0px"
	 viewBox="0 0 245 172.2" enable-background="new 0 0 245 172.2" xml:space="preserve">
<g>
	<g>
		<g>
			<path fill="#FFFFFF" d="M162.2,19.9c-7.3,0-13.2-5.9-13.2-13.2c0,7.3-5.9,13.2-13.2,13.2c7.3,0,13.2,5.9,13.2,13.2
				C149,25.8,154.9,19.9,162.2,19.9z"/>
		</g>
	</g>
	<g>
		<g>
			<path fill="#FFFFFF" d="M168.9,6.6c-3.7,0-6.6-3-6.6-6.6c0,3.7-3,6.6-6.6,6.6c3.7,0,6.6,3,6.6,6.6C162.2,9.6,165.2,6.6,168.9,6.6
				z"/>
		</g>
	</g>
	<g>
		<g>
			<path fill="#FFFFFF" d="M208.6,165.5c-3.7,0-6.6-3-6.6-6.6c0,3.7-3,6.6-6.6,6.6c3.7,0,6.6,3,6.6,6.6
				C202,168.5,204.9,165.5,208.6,165.5z"/>
		</g>
	</g>
	<g>
		<g>
			<path fill="#FFFFFF" d="M6.6,46.4c-1.8,0-3.3-1.5-3.3-3.3c0,1.8-1.5,3.3-3.3,3.3c1.8,0,3.3,1.5,3.3,3.3
				C3.3,47.8,4.8,46.4,6.6,46.4z"/>
		</g>
	</g>
	<g>
		<g>
			<path fill="#FFFFFF" d="M213.5,155c-1.8,0-3.3-1.5-3.3-3.3c0,1.8-1.5,3.3-3.3,3.3c1.8,0,3.3,1.5,3.3,3.3
				C210.2,156.5,211.7,155,213.5,155z"/>
		</g>
	</g>
	<g>
		<g>
			<path fill="#FFFFFF" d="M245,46.4c-1.8,0-3.3-1.5-3.3-3.3c0,1.8-1.5,3.3-3.3,3.3c1.8,0,3.3,1.5,3.3,3.3
				C241.7,47.8,243.2,46.4,245,46.4z"/>
		</g>
	</g>
	<g>
		<g>
			<g>
				<rect x="168.8" y="36.4" fill="#545454" width="26.5" height="6.6"/>
			</g>
			<g>
				<rect x="36.4" y="39.7" fill="#404040" width="172.2" height="105.9"/>
			</g>
			<g>
				<rect x="36.4" y="53" fill="#545454" width="172.2" height="79.5"/>
			</g>
			<g>
				<circle fill="#939393" cx="122.5" cy="92.7" r="29.8"/>
			</g>
			<g>
				<g>
					<path fill="#545454" d="M122.5,71.6c11.7,0,21.2,9.5,21.2,21.2c0,11.7-9.5,21.2-21.2,21.2s-21.2-9.5-21.2-21.2
						C101.3,81,110.8,71.6,122.5,71.6L122.5,71.6z M122.5,59.6c-18.3,0-33.1,14.8-33.1,33.1c0,18.3,14.8,33.1,33.1,33.1
						c18.3,0,33.1-14.8,33.1-33.1C155.6,74.4,140.8,59.6,122.5,59.6L122.5,59.6z"/>
				</g>
			</g>
			<g>
				<path fill="#404040" d="M122.5,67.6c13.9,0,25.1,11.3,25.1,25.1c0,13.9-11.3,25.1-25.1,25.1c-13.9,0-25.1-11.3-25.1-25.1
					C97.4,78.8,108.6,67.6,122.5,67.6L122.5,67.6z M122.5,59.6c-18.3,0-33.1,14.8-33.1,33.1c0,18.3,14.8,33.1,33.1,33.1
					c18.3,0,33.1-14.8,33.1-33.1C155.6,74.4,140.8,59.6,122.5,59.6L122.5,59.6z"/>
			</g>
			<g>
				<polygon fill="#545454" points="142.4,26.5 102.6,26.5 96,39.7 149,39.7 				"/>
			</g>
			<g>
				<path fill="#FFFFFF" d="M116.9,78c2.4,0.2,4.3,2.3,4.1,4.7c-0.2,2.4-2.3,4.3-4.7,4.1c-2.4-0.2-4.3-2.3-4.1-4.7
					C112.3,79.6,114.4,77.8,116.9,78z"/>
			</g>
			<g>
				<path fill="#FFFFFF" d="M108.3,87c1,0.1,1.7,0.9,1.7,1.9c-0.1,1-0.9,1.7-1.9,1.7c-1-0.1-1.7-0.9-1.7-1.9
					C106.5,87.6,107.3,86.9,108.3,87z"/>
			</g>
			<g>
				<rect x="168.8" y="66.2" fill="#404040" width="26.5" height="13.2"/>
			</g>
			<g>
				<circle fill="#404040" cx="69.5" cy="72.8" r="6.6"/>
			</g>
			<g>
				<path fill="#404040" d="M59.6,70.5c0,1.8-1.5,3.3-3.3,3.3S53,72.4,53,70.5c0-1.8,1.5-3.3,3.3-3.3S59.6,68.7,59.6,70.5z"/>
			</g>
			<g>
				<path fill="#545454" d="M74.5,72.8c0,2.7-2.2,5-5,5s-5-2.2-5-5c0-2.7,2.2-5,5-5S74.5,70.1,74.5,72.8z"/>
			</g>
		</g>
		<g>
			<rect x="42" y="53" fill="#404040" width="2" height="79.5"/>
		</g>
		<g>
			<rect x="81.8" y="53" fill="#404040" width="2" height="79.5"/>
		</g>
		<g>
			<rect x="201" y="53" fill="#404040" width="2" height="79.5"/>
		</g>
		<g>
			<rect x="160.2" y="53" fill="#404040" width="2" height="79.5"/>
		</g>
	</g>
</g>
</svg>
