<?xml version="1.0" encoding="utf-8"?>
<!-- Generator: Adobe Illustrator 18.1.0, SVG Export Plug-In . SVG Version: 6.00 Build 0)  -->
<svg version="1.1" id="Layer_1" xmlns="http://www.w3.org/2000/svg" xmlns:xlink="http://www.w3.org/1999/xlink" x="0px" y="0px"
	 viewBox="0 0 200 151.8" enable-background="new 0 0 200 151.8" xml:space="preserve">
<g>
	<g>
		<g>
			<rect x="6.1" y="54.8" fill="#404040" width="193.9" height="97"/>
		</g>
	</g>
	<g>
		<g>
			<g>
				<polygon fill="#FFFFFF" points="175.8,30.6 6.1,30.6 6.1,54.8 200,54.8 				"/>
			</g>
		</g>
		<g>
			<g>
				<polygon fill="#404040" points="30.3,54.8 54.5,54.8 30.3,30.6 6.1,30.6 				"/>
			</g>
		</g>
		<g>
			<g>
				<polygon fill="#404040" points="78.8,54.8 103,54.8 78.8,30.6 54.5,30.6 				"/>
			</g>
		</g>
		<g>
			<g>
				<polygon fill="#404040" points="127.3,54.8 151.5,54.8 127.3,30.6 103,30.6 				"/>
			</g>
		</g>
		<g>
			<g>
				<polygon fill="#404040" points="175.8,54.8 200,54.8 175.8,30.6 151.5,30.6 				"/>
			</g>
		</g>
		<g>
			<g>
				<polygon fill="#FFFFFF" points="200,30.6 175.8,30.6 200,54.8 				"/>
			</g>
		</g>
	</g>
	<g>
		<g>
			<g>
				<polygon fill="#FFFFFF" points="175.7,25 6.1,30.6 5.3,6.3 199.1,0 				"/>
			</g>
		</g>
		<g>
			<g>
				<polygon fill="#404040" points="29.5,5.5 53.7,4.8 30.3,29.8 6.1,30.6 				"/>
			</g>
		</g>
		<g>
			<g>
				<polygon fill="#404040" points="78,4 102.2,3.2 78.8,28.2 54.5,29 				"/>
			</g>
		</g>
		<g>
			<g>
				<polygon fill="#404040" points="126.4,2.4 150.6,1.6 127.2,26.6 103,27.4 				"/>
			</g>
		</g>
		<g>
			<g>
				<polygon fill="#404040" points="174.9,0.8 199.1,0 175.7,25 151.4,25.8 				"/>
			</g>
		</g>
		<g>
			<g>
				<polygon fill="#FFFFFF" points="199.9,24.2 175.7,25 199.1,0 				"/>
			</g>
		</g>
	</g>
	<g>
		<g>
			<path fill="#FFFFFF" d="M173.8,81v44.5H32.3V81H173.8L173.8,81z M175.8,79H30.3v48.5h145.5V79L175.8,79z"/>
		</g>
	</g>
	<g>
		<g>
			<rect x="30.3" y="96.2" fill="#FFFFFF" width="145.5" height="2"/>
		</g>
	</g>
	<g>
		<g>
			<rect x="102" y="97.2" fill="#FFFFFF" width="2" height="30.3"/>
		</g>
	</g>
	<g>
		<g>
			<rect x="6.1" y="148.7" fill="#545454" width="193.9" height="3"/>
		</g>
	</g>
	<g>
		<g>
			<rect y="15.4" fill="#545454" width="12.1" height="30.3"/>
		</g>
	</g>
	<g>
		<g>
			<path fill="#404040" d="M9.1,30.6c0,1.7-1.4,3-3,3c-1.7,0-3-1.4-3-3c0-1.7,1.4-3,3-3C7.7,27.5,9.1,28.9,9.1,30.6z"/>
		</g>
	</g>
	<g>
		<g>
			<rect x="30.3" y="66.9" fill="#FFFFFF" width="72.7" height="6.1"/>
		</g>
	</g>
</g>
</svg>
