<?xml version="1.0" encoding="utf-8"?>
<!-- Generator: Adobe Illustrator 18.1.0, SVG Export Plug-In . SVG Version: 6.00 Build 0)  -->
<svg version="1.1" id="Layer_1" xmlns="http://www.w3.org/2000/svg" xmlns:xlink="http://www.w3.org/1999/xlink" x="0px" y="0px"
	 viewBox="0 0 208 184" enable-background="new 0 0 208 184" xml:space="preserve">
<g>
	<g>
		<g>
			<g>
				<g>
					<path fill="#FBCA61" d="M0,120v24c0,4.4,3.6,8,8,8h192c4.4,0,8-3.6,8-8v-24H0z"/>
				</g>
			</g>
			<g>
				<g>
					<polygon fill="#EDEDED" points="136,184 72,184 80,136 128,136 					"/>
				</g>
			</g>
			<g>
				<g>
					<rect x="64" y="180" fill="#DBDBDB" width="80" height="4"/>
				</g>
			</g>
			<g>
				<g>
					<g>
						<path fill="#404040" d="M200,0H8C3.6,0,0,3.6,0,8v112h208V8C208,3.6,204.4,0,200,0L200,0z"/>
					</g>
				</g>
				<g>
					<g>
						<polygon fill="#FFFFFF" points="200,8 200,112 8,112 8,8 200,8 						"/>
					</g>
				</g>
				<g>
					<g>
						<path fill="#DBDBDB" d="M0,120v24c0,4.4,3.6,8,8,8h192c4.4,0,8-3.6,8-8v-24H0z"/>
					</g>
				</g>
			</g>
			<g>
				<g>
					<circle fill="#404040" cx="104" cy="136" r="4"/>
				</g>
			</g>
		</g>
		<g>
			<g>
				<g>
					<polygon fill="#939393" points="200,8 200,112 8,112 8,8 200,8 					"/>
				</g>
			</g>
		</g>
	</g>
	<g>
		<circle fill="#FFFFFF" cx="103.8" cy="61" r="32"/>
	</g>
	<g>
		<g>
			<path fill="#404040" d="M103.8,70c-5,0-9-4-9-9s4-9,9-9s9,4,9,9S108.8,70,103.8,70z M103.8,54c-3.9,0-7,3.1-7,7s3.1,7,7,7
				c3.9,0,7-3.1,7-7S107.7,54,103.8,54z"/>
		</g>
		<g>
			<path fill="#404040" d="M120.8,61h-2c0-8.3-6.7-15-15-15s-15,6.7-15,15h-2c0-9.4,7.6-17,17-17S120.8,51.6,120.8,61z"/>
		</g>
		<g>
			<path fill="#404040" d="M115.8,70c-2.8,0-5-2.2-5-5h2c0,1.7,1.3,3,3,3c1.7,0,3-1.3,3-3h2C120.8,67.8,118.6,70,115.8,70z"/>
		</g>
		<g>
			<rect x="118.8" y="61" fill="#404040" width="2" height="4"/>
		</g>
		<g>
			<rect x="110.8" y="61" fill="#404040" width="2" height="4"/>
		</g>
		<g>
			<path fill="#404040" d="M103.8,78c-9.4,0-17-7.6-17-17h2c0,8.3,6.7,15,15,15V78z"/>
		</g>
		<g>
			<rect x="100.8" y="74" fill="#404040" width="6" height="6"/>
		</g>
		<g>
			<rect x="103.8" y="76" fill="#404040" width="48" height="2"/>
		</g>
		<g>
			<rect x="55.8" y="76" fill="#404040" width="48" height="2"/>
		</g>
		<g>
			<path fill="#404040" d="M149.8,77c0-1.1,0.9-2,2-2c1.1,0,2,0.9,2,2s-0.9,2-2,2C150.7,79,149.8,78.1,149.8,77z"/>
		</g>
		<g>
			<path fill="#404040" d="M53.8,77c0-1.1,0.9-2,2-2c1.1,0,2,0.9,2,2s-0.9,2-2,2C54.7,79,53.8,78.1,53.8,77z"/>
		</g>
	</g>
</g>
</svg>
