<svg id="Layer_1" data-name="Layer 1" xmlns="http://www.w3.org/2000/svg" viewBox="0 0 992.73 519.37"><defs><style>.cls-1,.cls-2{fill:#fff;}.cls-2{stroke:#fff;stroke-miterlimit:10;stroke-width:0.56px;}</style></defs><title>Artboard 1</title><path class="cls-1" d="M103.76,387.23a25.69,25.69,0,0,1-.21,3.54,7.43,7.43,0,0,1-.7,2.41,3.34,3.34,0,0,1-1.18,1.34,2.88,2.88,0,0,1-1.55.43h-39V515.22a2.64,2.64,0,0,1-.43,1.5,2.84,2.84,0,0,1-1.5,1,15.9,15.9,0,0,1-2.84.64,30.64,30.64,0,0,1-4.45.27,30.84,30.84,0,0,1-4.4-.27,15.91,15.91,0,0,1-2.9-.64,2.84,2.84,0,0,1-1.5-1,2.64,2.64,0,0,1-.43-1.5V394.94h-39a2.89,2.89,0,0,1-1.56-.43A3,3,0,0,1,1,393.18a9.66,9.66,0,0,1-.7-2.41A20.4,20.4,0,0,1,0,387.23a21.39,21.39,0,0,1,.27-3.59,10.78,10.78,0,0,1,.7-2.52,3,3,0,0,1,1.12-1.39,2.91,2.91,0,0,1,1.56-.43h96.47a2.91,2.91,0,0,1,1.55.43,3.33,3.33,0,0,1,1.18,1.39,8.23,8.23,0,0,1,.7,2.52A27,27,0,0,1,103.76,387.23Z"/><path class="cls-1" d="M223.71,515.22a2.64,2.64,0,0,1-.43,1.5,2.84,2.84,0,0,1-1.5,1,15.94,15.94,0,0,1-2.84.64,29.64,29.64,0,0,1-4.34.27,30.34,30.34,0,0,1-4.5-.27,15.88,15.88,0,0,1-2.79-.64,2.84,2.84,0,0,1-1.5-1,2.62,2.62,0,0,1-.43-1.5V453.69H142.25v61.53a2.64,2.64,0,0,1-.43,1.5,2.87,2.87,0,0,1-1.5,1,15.83,15.83,0,0,1-2.84.64,36.87,36.87,0,0,1-8.84,0,15.86,15.86,0,0,1-2.89-.64,2.84,2.84,0,0,1-1.5-1,2.64,2.64,0,0,1-.43-1.5V382.08a2.65,2.65,0,0,1,.43-1.5,2.86,2.86,0,0,1,1.5-1,16.41,16.41,0,0,1,2.89-.64,36.87,36.87,0,0,1,8.84,0,16.4,16.4,0,0,1,2.84.64,2.88,2.88,0,0,1,1.5,1,2.65,2.65,0,0,1,.43,1.5v55.52h63.14V382.08a2.63,2.63,0,0,1,.43-1.5,2.86,2.86,0,0,1,1.5-1,16.46,16.46,0,0,1,2.79-.64,30.78,30.78,0,0,1,4.5-.27,30.08,30.08,0,0,1,4.34.27,16.51,16.51,0,0,1,2.84.64,2.86,2.86,0,0,1,1.5,1,2.65,2.65,0,0,1,.43,1.5Z"/><path class="cls-1" d="M402.86,510.39a8.37,8.37,0,0,1-.72,3.64,7.17,7.17,0,0,1-1.88,2.47,7.31,7.31,0,0,1-2.6,1.39,10.1,10.1,0,0,1-2.88.43h-6.1a19.2,19.2,0,0,1-5-.59,11.26,11.26,0,0,1-4.1-2.14,21.66,21.66,0,0,1-3.88-4.24,56,56,0,0,1-4.12-6.86L329.21,425.6q-3.32-6.11-6.69-12.81t-6.27-13H316q.21,7.72.32,15.76t.11,16v83.72a2.62,2.62,0,0,1-.45,1.45,2.83,2.83,0,0,1-1.53,1.07,15.92,15.92,0,0,1-2.83.64,37.66,37.66,0,0,1-8.94,0,14.49,14.49,0,0,1-2.77-.64,2.81,2.81,0,0,1-1.47-1.07,2.6,2.6,0,0,1-.45-1.45v-128q0-4.29,2.44-6.11a8.69,8.69,0,0,1,5.31-1.82h9.07a22.71,22.71,0,0,1,5.37.54,11.21,11.21,0,0,1,3.87,1.77A15.35,15.35,0,0,1,327.4,385a46.6,46.6,0,0,1,3.37,5.52l32.53,60.88q3,5.57,5.8,10.88t5.38,10.45q2.59,5.14,5.13,10.13t5,10h.11q-.22-8.47-.27-17.63t-.05-17.63V382.4a2.38,2.38,0,0,1,.45-1.39,3.62,3.62,0,0,1,1.53-1.12,10,10,0,0,1,2.83-.7,39.82,39.82,0,0,1,4.58-.21,37.62,37.62,0,0,1,4.3.21,9.36,9.36,0,0,1,2.83.7,3.65,3.65,0,0,1,1.47,1.12,2.38,2.38,0,0,1,.45,1.39Z"/><path class="cls-1" d="M521.42,515a3.22,3.22,0,0,1-.38,1.56,2.68,2.68,0,0,1-1.45,1.12,13.12,13.12,0,0,1-2.9.7,33.66,33.66,0,0,1-4.71.27,47.25,47.25,0,0,1-6.11-.32,7.88,7.88,0,0,1-3.54-1.18,8.17,8.17,0,0,1-1.93-1.93l-51-69.36v69.36a2.58,2.58,0,0,1-1.93,2.52,15.83,15.83,0,0,1-2.84.64,36.87,36.87,0,0,1-8.84,0,15.86,15.86,0,0,1-2.89-.64,2.58,2.58,0,0,1-1.93-2.52V382.08a2.65,2.65,0,0,1,.43-1.5,2.86,2.86,0,0,1,1.5-1,16.41,16.41,0,0,1,2.89-.64,36.87,36.87,0,0,1,8.84,0,16.4,16.4,0,0,1,2.84.64,2.88,2.88,0,0,1,1.5,1,2.65,2.65,0,0,1,.43,1.5v61.64l49.09-61.64a6.43,6.43,0,0,1,1.5-1.61,6.68,6.68,0,0,1,2.09-1,17.87,17.87,0,0,1,3-.59,39.8,39.8,0,0,1,4.56-.21,30.87,30.87,0,0,1,4.5.27,12.28,12.28,0,0,1,2.73.7,2.81,2.81,0,0,1,1.39,1.07,2.72,2.72,0,0,1,.38,1.4,6.21,6.21,0,0,1-.7,2.79,25.43,25.43,0,0,1-2.63,3.86l-46,55,49.52,65.82a24.61,24.61,0,0,1,2.2,3.81A5.05,5.05,0,0,1,521.42,515Z"/><path class="cls-1" d="M639.42,388a25.69,25.69,0,0,1-.21,3.54,7.43,7.43,0,0,1-.7,2.41,3.34,3.34,0,0,1-1.18,1.34,2.88,2.88,0,0,1-1.55.43h-39V515.94a2.64,2.64,0,0,1-.43,1.5,2.84,2.84,0,0,1-1.5,1,15.9,15.9,0,0,1-2.84.64,36.87,36.87,0,0,1-8.84,0,15.91,15.91,0,0,1-2.9-.64,2.84,2.84,0,0,1-1.5-1,2.64,2.64,0,0,1-.43-1.5V395.67h-39a2.89,2.89,0,0,1-1.56-.43,3,3,0,0,1-1.12-1.34,9.66,9.66,0,0,1-.7-2.41,20.4,20.4,0,0,1-.27-3.54,21.39,21.39,0,0,1,.27-3.59,10.78,10.78,0,0,1,.7-2.52,3,3,0,0,1,1.12-1.39,2.91,2.91,0,0,1,1.56-.43h96.47a2.91,2.91,0,0,1,1.55.43,3.33,3.33,0,0,1,1.18,1.39,8.23,8.23,0,0,1,.7,2.52A27,27,0,0,1,639.42,388Z"/><path class="cls-1" d="M746.18,512.19a13.42,13.42,0,0,1,.91,3.81,2.63,2.63,0,0,1-.8,2.2,5.18,5.18,0,0,1-2.84,1,52.5,52.5,0,0,1-5.31.21q-3.32,0-5.31-.16a11.93,11.93,0,0,1-3-.54,3.19,3.19,0,0,1-1.5-1,8.27,8.27,0,0,1-.91-1.61l-11.9-33.77H657.85l-11.36,33.34a5.67,5.67,0,0,1-.86,1.66,4.17,4.17,0,0,1-1.56,1.18,9.51,9.51,0,0,1-2.89.7,45.27,45.27,0,0,1-4.88.21,39.49,39.49,0,0,1-5.09-.27,5.11,5.11,0,0,1-2.79-1,2.71,2.71,0,0,1-.75-2.2,13.16,13.16,0,0,1,.91-3.81l46.52-128.84a5.64,5.64,0,0,1,1.12-1.93,4.65,4.65,0,0,1,2-1.18,15.35,15.35,0,0,1,3.43-.59q2.09-.16,5.3-.16,3.43,0,5.68.16a16.8,16.8,0,0,1,3.64.59,4.79,4.79,0,0,1,2.14,1.23,5.8,5.8,0,0,1,1.18,2ZM686.47,398.46h-.11L662.46,467.6H710.7Z"/><path class="cls-1" d="M874.17,511.12a8.37,8.37,0,0,1-.72,3.64,7.17,7.17,0,0,1-1.88,2.47,7.31,7.31,0,0,1-2.6,1.39,10.1,10.1,0,0,1-2.88.43H860a19.2,19.2,0,0,1-5-.59,11.26,11.26,0,0,1-4.1-2.14,21.66,21.66,0,0,1-3.88-4.24,56,56,0,0,1-4.12-6.86l-42.31-78.89q-3.32-6.11-6.69-12.81t-6.27-13h-.21q.21,7.72.32,15.76t.11,16v83.72a2.62,2.62,0,0,1-.45,1.45,2.83,2.83,0,0,1-1.53,1.07,15.92,15.92,0,0,1-2.83.64,37.66,37.66,0,0,1-8.94,0,14.49,14.49,0,0,1-2.77-.64,2.81,2.81,0,0,1-1.47-1.07,2.6,2.6,0,0,1-.45-1.45V388q0-4.29,2.44-6.11a8.69,8.69,0,0,1,5.31-1.82h9.07a22.71,22.71,0,0,1,5.37.54,11.21,11.21,0,0,1,3.87,1.77,15.35,15.35,0,0,1,3.32,3.43,46.6,46.6,0,0,1,3.37,5.52l32.53,60.88q3,5.57,5.8,10.88t5.38,10.45q2.59,5.14,5.13,10.13t5,10h.11q-.22-8.47-.27-17.63t-.05-17.63V383.13a2.38,2.38,0,0,1,.45-1.39,3.62,3.62,0,0,1,1.53-1.12,10,10,0,0,1,2.83-.7,39.82,39.82,0,0,1,4.58-.21,37.62,37.62,0,0,1,4.3.21,9.36,9.36,0,0,1,2.83.7,3.65,3.65,0,0,1,1.47,1.12,2.38,2.38,0,0,1,.45,1.39Z"/><path class="cls-1" d="M992.73,515.73a3.22,3.22,0,0,1-.38,1.56,2.68,2.68,0,0,1-1.45,1.12,13.12,13.12,0,0,1-2.9.7,33.66,33.66,0,0,1-4.71.27,47.25,47.25,0,0,1-6.11-.32,7.88,7.88,0,0,1-3.54-1.18,8.17,8.17,0,0,1-1.93-1.93l-51-69.36v69.36a2.58,2.58,0,0,1-1.93,2.52,15.83,15.83,0,0,1-2.84.64,36.87,36.87,0,0,1-8.84,0,15.86,15.86,0,0,1-2.89-.64,2.58,2.58,0,0,1-1.93-2.52V382.81a2.65,2.65,0,0,1,.43-1.5,2.86,2.86,0,0,1,1.5-1,16.41,16.41,0,0,1,2.89-.64,36.87,36.87,0,0,1,8.84,0,16.4,16.4,0,0,1,2.84.64,2.88,2.88,0,0,1,1.5,1,2.65,2.65,0,0,1,.43,1.5v61.64l49.09-61.64a6.43,6.43,0,0,1,1.5-1.61,6.68,6.68,0,0,1,2.09-1,17.87,17.87,0,0,1,3-.59,39.8,39.8,0,0,1,4.56-.21,30.87,30.87,0,0,1,4.5.27,12.28,12.28,0,0,1,2.73.7,2.81,2.81,0,0,1,1.39,1.07,2.72,2.72,0,0,1,.38,1.4,6.21,6.21,0,0,1-.7,2.79,25.43,25.43,0,0,1-2.63,3.86l-46,55,49.52,65.82a24.61,24.61,0,0,1,2.2,3.81A5.05,5.05,0,0,1,992.73,515.73Z"/><circle class="cls-2" cx="260.85" cy="506.56" r="11.1"/><path class="cls-1" d="M259,29.42c-23.48,0-45.58-.94-62.24-2.64C173.18,24.37,166,21.55,166,14.71S173.18,5,196.74,2.64C213.4.94,235.51,0,259,0s45.59.94,62.24,2.64C344.8,5,352,7.86,352,14.71s-7.19,9.66-30.76,12.07C304.57,28.48,282.47,29.42,259,29.42Zm-65.7-14.71c14.49,1.7,37.18,3.09,65.7,3.09s51.21-1.39,65.7-3.09C310.2,13,287.51,11.61,259,11.61S207.77,13,193.29,14.71Z"/><path class="cls-1" d="M365.44,205.83c-21.41.47-40.28-13.79-51.33-30.37-11,16.58-29.91,30.37-51.33,30.37S222.51,192,211.46,175.46c-11.05,16.58-29.91,30.37-51.33,30.37a61.58,61.58,0,0,1-51.89-28.38A152.92,152.92,0,0,0,261.16,329.6c82.62,0,151.3-71,154.19-152.92C404.24,191.37,387.39,205.35,365.44,205.83Z"/><path class="cls-1" d="M267.18,486.83H254.52V344.76h6.33c91.89,0,166.64-74.76,166.64-166.64,0-61.77-32.58-116-87.16-144.94L337,31.38V17.45h12.66v6.36c56.76,31.64,90.52,89,90.52,154.3,0,96.75-77,175.85-173,179.2Z"/><path class="cls-1" d="M94.21,178.11H81.55a179.72,179.72,0,0,1,88-154.32V18.72h12.66V31.13L179,33A167,167,0,0,0,94.21,178.11Z"/></svg>