<svg id="Layer_1" data-name="Layer 1" xmlns="http://www.w3.org/2000/svg" viewBox="0 0 500 267.28"><defs><style>.cls-1{fill:#9abb3c;}.cls-2{fill:none;stroke:#9abb3c;stroke-miterlimit:10;stroke-width:6px;}</style></defs><title>Artboard 1</title><path class="cls-1" d="M54.2,192.34a12.52,12.52,0,0,1-.1,1.74,3.67,3.67,0,0,1-.34,1.18,1.65,1.65,0,0,1-.58.66,1.43,1.43,0,0,1-.76.21H33.26v59.05a1.3,1.3,0,0,1-.21.74,1.4,1.4,0,0,1-.74.5,7.88,7.88,0,0,1-1.39.32,15.13,15.13,0,0,1-2.18.13,15.24,15.24,0,0,1-2.16-.13,7.86,7.86,0,0,1-1.42-.32,1.4,1.4,0,0,1-.74-.5,1.29,1.29,0,0,1-.21-.74V196.13H5a1.42,1.42,0,0,1-.76-.21,1.47,1.47,0,0,1-.55-.66,4.79,4.79,0,0,1-.34-1.18,10,10,0,0,1-.13-1.74,10.48,10.48,0,0,1,.13-1.76,5.31,5.31,0,0,1,.34-1.24,1.47,1.47,0,0,1,.55-.68,1.43,1.43,0,0,1,.76-.21H52.41a1.43,1.43,0,0,1,.76.21,1.63,1.63,0,0,1,.58.68,4,4,0,0,1,.34,1.24A13.13,13.13,0,0,1,54.2,192.34Z"/><path class="cls-1" d="M113.1,255.19a1.3,1.3,0,0,1-.21.74,1.4,1.4,0,0,1-.74.5,7.88,7.88,0,0,1-1.39.32,14.68,14.68,0,0,1-2.13.13,15,15,0,0,1-2.21-.13,7.87,7.87,0,0,1-1.37-.32,1.4,1.4,0,0,1-.74-.5,1.29,1.29,0,0,1-.21-.74V225h-31v30.21a1.29,1.29,0,0,1-.21.74,1.4,1.4,0,0,1-.74.5,7.88,7.88,0,0,1-1.39.32,18.08,18.08,0,0,1-4.34,0,7.86,7.86,0,0,1-1.42-.32,1.4,1.4,0,0,1-.74-.5,1.29,1.29,0,0,1-.21-.74V189.82a1.3,1.3,0,0,1,.21-.74,1.41,1.41,0,0,1,.74-.5,8,8,0,0,1,1.42-.32,17.94,17.94,0,0,1,4.34,0,8.07,8.07,0,0,1,1.39.32,1.42,1.42,0,0,1,.74.5,1.3,1.3,0,0,1,.21.74v27.26h31V189.82a1.3,1.3,0,0,1,.21-.74,1.41,1.41,0,0,1,.74-.5,8.06,8.06,0,0,1,1.37-.32,15,15,0,0,1,2.21-.13,14.66,14.66,0,0,1,2.13.13,8.07,8.07,0,0,1,1.39.32,1.42,1.42,0,0,1,.74.5,1.31,1.31,0,0,1,.21.74Z"/><path class="cls-1" d="M201.06,252.82a4.11,4.11,0,0,1-.35,1.79,3.53,3.53,0,0,1-.92,1.21,3.58,3.58,0,0,1-1.28.68,5,5,0,0,1-1.42.21h-3a9.48,9.48,0,0,1-2.48-.29,5.52,5.52,0,0,1-2-1.05,10.59,10.59,0,0,1-1.91-2.08,27.25,27.25,0,0,1-2-3.37L164.9,211.19q-1.63-3-3.28-6.29t-3.08-6.39h-.11q.1,3.79.16,7.74t.05,7.84v41.11a1.28,1.28,0,0,1-.22.71,1.4,1.4,0,0,1-.75.53,7.92,7.92,0,0,1-1.39.32,18.46,18.46,0,0,1-4.39,0,7.15,7.15,0,0,1-1.36-.32,1.39,1.39,0,0,1-.72-.53,1.28,1.28,0,0,1-.22-.71V192.34a3.51,3.51,0,0,1,1.19-3,4.26,4.26,0,0,1,2.61-.89h4.46a11.17,11.17,0,0,1,2.63.26,5.51,5.51,0,0,1,1.9.87,7.52,7.52,0,0,1,1.63,1.68,22.8,22.8,0,0,1,1.65,2.71l16,29.9q1.48,2.74,2.85,5.34t2.64,5.13l2.52,5q1.25,2.45,2.47,4.92h.05q-.11-4.16-.13-8.66t0-8.66V190a1.17,1.17,0,0,1,.22-.68,1.78,1.78,0,0,1,.75-.55,4.9,4.9,0,0,1,1.39-.34,19.25,19.25,0,0,1,2.25-.11,18.2,18.2,0,0,1,2.11.11,4.6,4.6,0,0,1,1.39.34,1.8,1.8,0,0,1,.72.55,1.17,1.17,0,0,1,.22.68Z"/><path class="cls-1" d="M263.59,255.08a1.6,1.6,0,0,1-.18.76,1.32,1.32,0,0,1-.71.55,6.51,6.51,0,0,1-1.42.34,16.64,16.64,0,0,1-2.32.13,23.18,23.18,0,0,1-3-.16,3.86,3.86,0,0,1-1.74-.58,4,4,0,0,1-.95-.95l-25.05-34.05v34.05a1.27,1.27,0,0,1-.95,1.24,7.88,7.88,0,0,1-1.39.32,18.08,18.08,0,0,1-4.34,0,7.86,7.86,0,0,1-1.42-.32,1.27,1.27,0,0,1-.95-1.24V189.82a1.3,1.3,0,0,1,.21-.74,1.41,1.41,0,0,1,.74-.5,8,8,0,0,1,1.42-.32,17.94,17.94,0,0,1,4.34,0,8.07,8.07,0,0,1,1.39.32,1.42,1.42,0,0,1,.74.5,1.3,1.3,0,0,1,.21.74v30.26l24.11-30.26a3.17,3.17,0,0,1,.74-.79,3.32,3.32,0,0,1,1-.5,8.83,8.83,0,0,1,1.47-.29,19.25,19.25,0,0,1,2.24-.11,15,15,0,0,1,2.21.13,6,6,0,0,1,1.34.34,1.38,1.38,0,0,1,.68.53,1.34,1.34,0,0,1,.18.68,3,3,0,0,1-.34,1.37,12.53,12.53,0,0,1-1.29,1.89l-22.58,27,24.32,32.32a12.35,12.35,0,0,1,1.08,1.87A2.52,2.52,0,0,1,263.59,255.08Z"/><path class="cls-1" d="M317.21,192.7a12.44,12.44,0,0,1-.11,1.74,3.7,3.7,0,0,1-.34,1.18,1.65,1.65,0,0,1-.58.66,1.43,1.43,0,0,1-.76.21H296.27v59.05a1.3,1.3,0,0,1-.21.74,1.4,1.4,0,0,1-.74.5,7.88,7.88,0,0,1-1.39.32,18.08,18.08,0,0,1-4.34,0,7.86,7.86,0,0,1-1.42-.32,1.4,1.4,0,0,1-.74-.5,1.29,1.29,0,0,1-.21-.74V196.49H268.05a1.43,1.43,0,0,1-.76-.21,1.47,1.47,0,0,1-.55-.66,4.73,4.73,0,0,1-.34-1.18,10,10,0,0,1-.13-1.74,10.48,10.48,0,0,1,.13-1.76,5.24,5.24,0,0,1,.34-1.24,1.47,1.47,0,0,1,.55-.68,1.43,1.43,0,0,1,.76-.21h47.37a1.44,1.44,0,0,1,.76.21,1.64,1.64,0,0,1,.58.68,4.08,4.08,0,0,1,.34,1.24A13,13,0,0,1,317.21,192.7Z"/><path class="cls-1" d="M369.64,253.7a6.53,6.53,0,0,1,.45,1.87,1.29,1.29,0,0,1-.39,1.08,2.56,2.56,0,0,1-1.39.47,25.72,25.72,0,0,1-2.61.1q-1.63,0-2.61-.08a5.87,5.87,0,0,1-1.47-.26,1.55,1.55,0,0,1-.74-.5,4.1,4.1,0,0,1-.45-.79L354.58,239H326.27l-5.58,16.37a2.77,2.77,0,0,1-.42.82,2,2,0,0,1-.76.58,4.7,4.7,0,0,1-1.42.34,22.18,22.18,0,0,1-2.39.1,19.47,19.47,0,0,1-2.5-.13,2.51,2.51,0,0,1-1.37-.5,1.33,1.33,0,0,1-.37-1.08,6.5,6.5,0,0,1,.45-1.87l22.84-63.26a2.75,2.75,0,0,1,.55-.95,2.28,2.28,0,0,1,1-.58,7.54,7.54,0,0,1,1.68-.29q1-.08,2.61-.08t2.79.08a8.26,8.26,0,0,1,1.79.29,2.37,2.37,0,0,1,1.05.6,2.83,2.83,0,0,1,.58,1Zm-29.32-55.84h-.05l-11.74,33.95h23.68Z"/><path class="cls-1" d="M432.48,253.18a4.11,4.11,0,0,1-.35,1.79,3.52,3.52,0,0,1-.92,1.21,3.57,3.57,0,0,1-1.28.68,5,5,0,0,1-1.42.21h-3a9.49,9.49,0,0,1-2.48-.29,5.52,5.52,0,0,1-2-1.05,10.59,10.59,0,0,1-1.91-2.08,27.31,27.31,0,0,1-2-3.37l-20.78-38.74q-1.63-3-3.28-6.29T390,198.86h-.1q.1,3.79.16,7.74t.05,7.84v41.11a1.29,1.29,0,0,1-.22.71,1.4,1.4,0,0,1-.75.53,7.92,7.92,0,0,1-1.39.32,18.46,18.46,0,0,1-4.39,0,7.15,7.15,0,0,1-1.36-.32,1.39,1.39,0,0,1-.72-.53,1.29,1.29,0,0,1-.22-.71V192.7a3.51,3.51,0,0,1,1.2-3,4.26,4.26,0,0,1,2.61-.89h4.46a11.17,11.17,0,0,1,2.63.26,5.5,5.5,0,0,1,1.9.87,7.5,7.5,0,0,1,1.63,1.68,22.66,22.66,0,0,1,1.65,2.71l16,29.9q1.48,2.74,2.85,5.34t2.64,5.13q1.27,2.53,2.52,5t2.47,4.92h.05q-.11-4.16-.13-8.66t0-8.66V190.33a1.17,1.17,0,0,1,.22-.68,1.77,1.77,0,0,1,.75-.55,4.9,4.9,0,0,1,1.39-.34,19.24,19.24,0,0,1,2.25-.11,18.2,18.2,0,0,1,2.11.11,4.6,4.6,0,0,1,1.39.34,1.8,1.8,0,0,1,.72.55,1.17,1.17,0,0,1,.22.68Z"/><path class="cls-1" d="M495,255.44a1.59,1.59,0,0,1-.18.76,1.31,1.31,0,0,1-.71.55,6.5,6.5,0,0,1-1.42.34,16.65,16.65,0,0,1-2.32.13,23.18,23.18,0,0,1-3-.16,3.86,3.86,0,0,1-1.74-.58,4,4,0,0,1-.95-.95l-25.05-34.05v34.05a1.26,1.26,0,0,1-.95,1.24,7.88,7.88,0,0,1-1.39.32,18.08,18.08,0,0,1-4.34,0,7.86,7.86,0,0,1-1.42-.32,1.27,1.27,0,0,1-.95-1.24V190.17a1.3,1.3,0,0,1,.21-.74,1.41,1.41,0,0,1,.74-.5,8,8,0,0,1,1.42-.32,17.95,17.95,0,0,1,4.34,0,8.07,8.07,0,0,1,1.39.32,1.42,1.42,0,0,1,.74.5,1.31,1.31,0,0,1,.21.74v30.26l24.11-30.26a3.15,3.15,0,0,1,.74-.79,3.31,3.31,0,0,1,1-.5,8.84,8.84,0,0,1,1.47-.29,19.23,19.23,0,0,1,2.24-.11,15,15,0,0,1,2.21.13,6,6,0,0,1,1.34.34,1.37,1.37,0,0,1,.68.53,1.34,1.34,0,0,1,.18.68,3,3,0,0,1-.34,1.37,12.48,12.48,0,0,1-1.29,1.89l-22.58,27,24.32,32.32a12.22,12.22,0,0,1,1.08,1.87A2.5,2.5,0,0,1,495,255.44Z"/><circle class="cls-1" cx="131.34" cy="250.72" r="5.41"/><ellipse class="cls-2" cx="130.43" cy="11.19" rx="42.46" ry="4.33"/><path class="cls-1" d="M182.27,104.26c-10.43.23-19.61-6.72-25-14.79-5.38,8.07-14.57,14.79-25,14.79s-19.61-6.72-25-14.79c-5.38,8.07-14.57,14.79-25,14.79A30,30,0,0,1,57,90.44a74.47,74.47,0,0,0,74.47,74.1c40.24,0,73.68-34.58,75.09-74.47C201.17,97.22,193,104,182.27,104.26Z"/><path class="cls-2" d="M131.34,241.11V175a84.24,84.24,0,0,0,84.24-84.24c0-32.26-17.44-59.16-44.08-73.31V12.52"/><path class="cls-2" d="M47.1,90.76A84.21,84.21,0,0,1,89.94,17.39V13.14"/></svg>