<?xml version="1.0" encoding="utf-8"?>
<!-- Generator: Adobe Illustrator 18.1.0, SVG Export Plug-In . SVG Version: 6.00 Build 0)  -->
<svg version="1.1" id="TTU_x5F_DblT_x5F_fl4Crvs" xmlns="http://www.w3.org/2000/svg" xmlns:xlink="http://www.w3.org/1999/xlink"
	 x="0px" y="0px" viewBox="0 0 619.4 85.8" enable-background="new 0 0 619.4 85.8" xml:space="preserve">
<g>
	<g id="TTU_x5F_DblT_x5F_fl4Crvs_1_">
		<g id="Double_T_x5F_4Crvs">
			<path id="Black" d="M73.3,28H62.8l0,15.3H48.9v17.8h6.9v24.5H17.6V61.2h6.9l0-17.8H10.5V28H0V0h73.3V28z"/>
			<path id="Gray_1_" fill="#B3B4B6" d="M28.3,37.9h-1.7h-3.4v3.6H12.8l1.6-1.7h7.1v-3.5h11.9l-1.6,1.6H28.3z M17.8,18v6.4H4l-2,1.8
				h17.5v-6.5h7.1l1.7-1.7L17.8,18z M69.9,24.3H55.7l-1.6,1.8h17.4V1.8l-1.7,1.8V24.3z M45.5,17.9V28h1.7v-8.3h6.9l1.6-1.7H45.5z
				 M45.5,76.8H28.3l-1.7,1.7h20.6V68.1h0l-1.8,1.6h0v0V76.8z M40.3,36.3v33.4h0l1.7-1.6h0V37.9h3.5v26.7h7v0v17.6H21.2l-1.6,1.6
				h34.6V63.1h-7V37.9h3.4l1.7-1.6H40.3z M59.4,39.8h-7.1l-1.7,1.7H61V28l-1.6,1.6V39.8z"/>
			<path id="Red_1_" fill="#CC0000" d="M18,36.3l-3.6,3.5V29.6h45L56,33H36.8H18V36.3z M45.5,69.7L45.5,69.7l-5.1,0l-3.5,3.5h5.4
				L45.5,69.7z M56,33l-3.7,3.3v3.5l3.7-3.5V33z M10.6,10.5H37h0h25.8l7.1-6.8H4v20.7l6.7-6.6V10.5z M62.9,10.5l-7.1,7.5v6.4
				l7.1-6.8V10.5z M28.3,18v10H37V10.5L28.3,18z M42.1,68.1h5.2l0,0h0v1.5l5.2-4.9v0h-7L42.1,68.1L42.1,68.1L42.1,68.1z M28.3,69.8
				v7l3.3-3.6h5.1V33l-3.4,3.3v33.4H28.3z M26.7,68.1h5.1V37.9h-3.4v26.7h-7.1v17.6l5.5-5.7V68.1z"/>
			<path id="White_1_" fill="#FFFFFF" d="M55.7,24.3l-1.6,1.8v-6.5l1.6-1.7V24.3z M2,26.2l2-1.8V3.7h65.9l1.7-1.8H2V26.2z M37,28
				h-8.7V18l-1.7,1.7V28H12.8v13.5l1.6-1.7V29.6h45L61,28H47.2h-1.7H37z M21.2,64.6h7.1V37.9h-1.7V63h-7.1v20.8l1.6-1.6V64.6z
				 M52.3,36.3l-1.7,1.6v3.6l1.7-1.7V36.3z M45.5,69.7L45.5,69.7l1.8-1.6l0,0l0,0h-5.2l0,0l0,0l-1.7,1.6l0,0H45.5z M26.7,68.1v8.5
				v1.9l1.7-1.7v-7h5V36.3l-1.6,1.6v30.2H26.7z"/>
			<path id="_xAE_" fill="#FFFFFF" d="M57.4,84.3c0-0.7,0.5-1.3,1.2-1.3c0.7,0,1.2,0.5,1.2,1.3c0,0.7-0.5,1.3-1.2,1.3
				C58,85.6,57.4,85,57.4,84.3z M58.7,85.8c0.8,0,1.5-0.6,1.5-1.5c0-0.9-0.7-1.5-1.5-1.5c-0.8,0-1.6,0.6-1.6,1.5
				C57.1,85.2,57.8,85.8,58.7,85.8z M58.4,84.4h0.3l0.5,0.8h0.3l-0.5-0.8c0.3,0,0.5-0.2,0.5-0.5c0-0.3-0.2-0.5-0.6-0.5h-0.7v1.8h0.3
				V84.4z M58.4,84.2v-0.5h0.4c0.2,0,0.4,0,0.4,0.3c0,0.3-0.2,0.3-0.4,0.3H58.4z"/>
		</g>
	</g>
	<g>
		<path fill="#FFFFFF" d="M94.4,23.5V26h-1l-0.2-1.5l-0.2-0.2h-1.7v7.6l0.2,0.2l0.9,0.1v0.7h-4.2v-0.7l0.9-0.1l0.2-0.2v-7.6h-1.7
			l-0.2,0.2L87.2,26h-1v-2.5H94.4z"/>
		<path fill="#FFFFFF" d="M97.4,32.2l0.9-0.1l0.2-0.2v-7.5l-0.2-0.2l-0.9-0.1v-0.7h7.1v2.2h-1l-0.2-1.2l-0.2-0.2h-2.8v3.3h1.8
			l0.2-0.2l0.1-1h0.8v3.2h-0.8l-0.1-1l-0.2-0.2h-1.8v3.6h3.2l0.2-0.2l0.2-1.5h1v2.5h-7.5V32.2z"/>
		<path fill="#FFFFFF" d="M112,23.5v0.7l-0.8,0.1l-0.1,0.2l1.6,2.6l1.8-2.6l-0.1-0.2l-0.8-0.1v-0.7h3.1v0.7l-0.9,0.1l-2.6,3.5
			L116,32l0.9,0.2v0.7h-4.1v-0.7l0.9-0.1l0.1-0.2l-1.7-2.8l-2,2.8l0.1,0.2l0.9,0.1v0.7h-3.2v-0.7l0.9-0.1l2.7-3.7l-2.5-4l-0.9-0.1
			v-0.7H112z"/>
		<path fill="#FFFFFF" d="M124.6,23.4l3.2,8.7l0.8,0.1v0.7h-3.8v-0.7l0.9-0.1l0.1-0.2l-0.8-2.4H122l-0.8,2.4l0.1,0.2l0.9,0.1v0.7h-3
			v-0.7l0.8-0.1l3.2-8.7H124.6z M122.3,28.8h2.5l-1.2-3.5L122.3,28.8z"/>
		<path fill="#FFFFFF" d="M131.8,30h1.1l0.2,1.7l0.2,0.2c0.4,0.1,0.8,0.2,1.2,0.2c1.1,0,1.8-0.6,1.8-1.3c0-0.8-0.5-1.3-1.5-1.8
			c-0.6-0.3-1.2-0.5-1.8-1c-0.6-0.5-1-1.2-1-1.9c0-1.6,1.3-2.8,3.3-2.8c0.9,0,1.8,0.2,2.6,0.5v2.3h-1l-0.2-1.5l-0.2-0.2
			c-0.3-0.1-0.6-0.2-1-0.2c-1,0-1.7,0.6-1.7,1.3c0,0.6,0.4,1.1,1.1,1.5c0.4,0.3,1.2,0.5,2,1c0.8,0.5,1.3,1.3,1.3,2.1
			c0,1.7-1.4,2.9-3.7,2.9c-0.9,0-1.8-0.2-2.7-0.5V30z"/>
		<path fill="#FFFFFF" d="M156.3,23.5V26h-1l-0.2-1.5l-0.2-0.2h-1.7v7.6l0.2,0.2l0.9,0.1v0.7h-4.2v-0.7l0.9-0.1l0.2-0.2v-7.6h-1.7
			l-0.2,0.2l-0.2,1.5h-1v-2.5H156.3z"/>
		<path fill="#FFFFFF" d="M159.4,32.2l0.9-0.1l0.2-0.2v-7.5l-0.2-0.2l-0.9-0.1v-0.7h7.1v2.2h-1l-0.2-1.2l-0.2-0.2h-2.8v3.3h1.8
			l0.2-0.2l0.1-1h0.8v3.2h-0.8l-0.1-1l-0.2-0.2h-1.8v3.6h3.2l0.2-0.2l0.2-1.5h1v2.5h-7.5V32.2z"/>
		<path fill="#FFFFFF" d="M175.3,33.1c-1,0-1.9-0.2-2.6-0.6c-1.5-0.9-2.3-2.4-2.3-4.2c0-1.4,0.5-2.7,1.5-3.6
			c0.9-0.9,2.1-1.3,3.5-1.3c1,0,1.9,0.2,2.9,0.5v2.3h-1l-0.3-1.5l-0.2-0.2c-0.4-0.1-0.7-0.2-1.1-0.2c-1.9,0-3.2,1.5-3.2,4
			c0,2.5,1.3,4,3.4,4c0.2,0,0.5,0,0.9-0.1l0.2-0.2l0.4-1.7h1v2.4C177.3,32.9,176.3,33.1,175.3,33.1z"/>
		<path fill="#FFFFFF" d="M185.7,23.5v0.7l-0.8,0.1l-0.2,0.2v3.1h4v-3.1l-0.2-0.2l-0.8-0.1v-0.7h4v0.7l-0.8,0.1l-0.2,0.2v7.4
			l0.2,0.2l0.8,0.1v0.7h-4v-0.7l0.8-0.1l0.2-0.2v-3.5h-4v3.5l0.2,0.2l0.8,0.1v0.7h-4v-0.7l0.8-0.1l0.2-0.2v-7.4l-0.2-0.2l-0.8-0.1
			v-0.7H185.7z"/>
		<path fill="#FFFFFF" d="M205.3,23.5v0.7l-0.9,0.1l-0.2,0.2v4.9c0,1.8,0.6,2.6,2.3,2.6c1.6,0,2.1-0.9,2.1-2.7v-4.7l-0.2-0.2
			l-0.9-0.1v-0.7h3.2v0.7l-0.9,0.1l-0.2,0.2v4.9c0,2.6-1.1,3.7-3.7,3.7c-1.4,0-2.4-0.4-3-1.1c-0.5-0.7-0.6-1.5-0.6-2.6v-4.8
			l-0.2-0.2l-0.9-0.1v-0.7H205.3z"/>
		<path fill="#FFFFFF" d="M213.8,32.2l0.8-0.1l0.3-0.3v-7.4l-0.2-0.2l-0.9-0.1v-0.7h3.2v0.4l4.3,6.7v-6l-0.3-0.3l-0.9-0.1v-0.7h3.2
			v0.7l-0.8,0.1l-0.2,0.3v8.4h-1.6l-4.8-7.5v6.5l0.2,0.3l0.9,0.1v0.7h-3.2V32.2z"/>
		<path fill="#FFFFFF" d="M226.5,32.2l0.9-0.1l0.2-0.2v-7.5l-0.2-0.2l-0.9-0.1v-0.7h4.2v0.7l-0.9,0.1l-0.2,0.2v7.5l0.2,0.2l0.9,0.1
			v0.7h-4.2V32.2z"/>
		<path fill="#FFFFFF" d="M237.2,23.5v0.7l-0.8,0.1l-0.2,0.2l2.3,6.4l2.3-6.4l-0.2-0.2l-0.8-0.1v-0.7h3.1v0.7l-0.9,0.2l-3.1,8.6
			h-1.4l-3.2-8.6l-0.9-0.2v-0.7H237.2z"/>
		<path fill="#FFFFFF" d="M245.4,32.2l0.9-0.1l0.2-0.2v-7.5l-0.2-0.2l-0.9-0.1v-0.7h7.1v2.2h-1l-0.2-1.2l-0.2-0.2h-2.8v3.3h1.8
			l0.2-0.2l0.1-1h0.8v3.2h-0.8l-0.1-1l-0.2-0.2h-1.8v3.6h3.2l0.2-0.2l0.2-1.5h1v2.5h-7.5V32.2z"/>
		<path fill="#FFFFFF" d="M260.6,23.5c2.2,0,3.3,0.8,3.3,2.4c0,1.3-0.8,2.1-2.4,2.4c0.7,0.2,1.1,0.4,1.5,0.9
			c0.4,0.6,0.5,1.4,0.8,2.1c0.3,0.8,0.7,1,1.7,1h0.2v0.7c-0.5,0.1-1,0.1-1.4,0.1c-0.6,0-1.1-0.2-1.5-0.4c-0.7-0.6-0.9-1.2-1.1-1.9
			c-0.4-1.3-0.8-1.9-2.2-1.9h-0.2v3.2l0.2,0.2l0.9,0.1v0.7h-4v-0.7l0.8-0.1l0.2-0.2v-7.5l-0.2-0.2l-0.8-0.1v-0.7H260.6z M259.2,27.9
			c0.2,0,0.4,0,0.5,0c1.5,0,2.2-0.6,2.2-1.9c0-1.1-0.7-1.8-2.1-1.8h-0.6V27.9z"/>
		<path fill="#FFFFFF" d="M268.6,30h1.1l0.2,1.7l0.2,0.2c0.4,0.1,0.8,0.2,1.2,0.2c1.1,0,1.8-0.6,1.8-1.3c0-0.8-0.5-1.3-1.5-1.8
			c-0.6-0.3-1.2-0.5-1.8-1c-0.6-0.5-1-1.2-1-1.9c0-1.6,1.3-2.8,3.3-2.8c0.9,0,1.8,0.2,2.6,0.5v2.3h-1l-0.2-1.5l-0.2-0.2
			c-0.3-0.1-0.6-0.2-1-0.2c-1,0-1.7,0.6-1.7,1.3c0,0.6,0.4,1.1,1.1,1.5c0.4,0.3,1.2,0.5,2,1c0.8,0.5,1.3,1.3,1.3,2.1
			c0,1.7-1.4,2.9-3.7,2.9c-0.9,0-1.8-0.2-2.7-0.5V30z"/>
		<path fill="#FFFFFF" d="M278.7,32.2l0.9-0.1l0.2-0.2v-7.5l-0.2-0.2l-0.9-0.1v-0.7h4.2v0.7l-0.9,0.1l-0.2,0.2v7.5l0.2,0.2l0.9,0.1
			v0.7h-4.2V32.2z"/>
		<path fill="#FFFFFF" d="M294,23.5V26h-1l-0.2-1.5l-0.2-0.2H291v7.6l0.2,0.2l0.9,0.1v0.7h-4.2v-0.7l0.9-0.1l0.2-0.2v-7.6h-1.7
			l-0.2,0.2l-0.2,1.5h-1v-2.5H294z"/>
		<path fill="#FFFFFF" d="M300.4,23.5v0.7l-0.8,0.1l-0.1,0.2l1.9,3.6l2-3.4l-0.1-0.2l-0.8-0.2v-0.7h3.1v0.7l-0.8,0.2l-2.7,4.5v3.1
			l0.2,0.2l1,0.1v0.7H299v-0.7l0.9-0.1l0.2-0.2v-2.7l-2.7-4.9l-0.9-0.1v-0.7H300.4z"/>
		<path fill="#FFFFFF" d="M99.2,65.3c-2.2,0-4.2-0.5-5.8-1.4c-3.6-2.1-5.9-6-5.9-10.5c0-7.1,4.7-11.8,11.8-11.8c2,0,4.2,0.4,6.7,1.2
			v5.2h-1.9l-0.5-3.1l-0.4-0.6c-1.3-0.6-2.5-0.9-3.8-0.9c-5.1,0-8.4,3.7-8.4,9.8c0,6.5,3.4,10.3,8.9,10.3c1,0,1.9-0.1,3-0.4l0.5-0.5
			l0.7-3.8h1.9v5.4C103.8,64.9,101.4,65.3,99.2,65.3z"/>
		<path fill="#FFFFFF" d="M124.6,56.7c0,5-3.4,8.5-7.9,8.5c-4.6,0-7.9-3.5-7.9-8.5c0-5.1,3.3-8.5,7.9-8.5
			C121.3,48.2,124.6,51.7,124.6,56.7z M112,56.7c0,4.4,2,7,4.7,7c2.8,0,4.7-2.6,4.7-7c0-4.4-2-7-4.7-7C113.9,49.7,112,52.3,112,56.7
			z"/>
		<path fill="#FFFFFF" d="M126.8,63.7l2-0.2l0.6-0.5V42.1h-2.6v-1.1l4.1-1.2h1.3v23.1l0.6,0.5l1.9,0.2v1.2h-8V63.7z"/>
		<path fill="#FFFFFF" d="M136.4,63.7l2-0.2l0.6-0.5V42.1h-2.6v-1.1l4.1-1.2h1.3v23.1l0.6,0.5l1.9,0.2v1.2h-8V63.7z"/>
		<path fill="#FFFFFF" d="M160.3,63.2c-2,1.4-4.2,2-6.4,2c-4.5,0-7.6-3.4-7.6-8.4c0-5.1,3.3-8.6,7.9-8.6c3.7,0,6.1,2.5,6.1,6.7
			c0,0.3,0,0.7,0,1.1h-11v0.4c0,4.4,2.3,6.9,5.7,6.9c1.7,0,3.4-0.7,5.3-2V63.2z M157.2,54c0-2.8-1.3-4.2-3.5-4.2
			c-2.2,0-4.1,1.9-4.3,4.8h7.9V54z"/>
		<path fill="#FFFFFF" d="M179.1,49.1v1.6h-3.7c0.6,1,1,2,1,3.2c0,3-2.5,5.3-6.5,5.3h-0.6c-0.2,0.5-0.4,1-0.4,1.5
			c0,0.2,0,0.4,0.1,0.8l3.3,0.5c4,0.6,5.8,1.7,5.8,4.2c0,1.3-0.7,2.7-2,3.8c-1.8,1.5-4.1,2.2-6.7,2.2c-3.9,0-6.2-1.7-6.2-4.4
			c0-2.2,1.4-3.8,3.7-4.2c-0.2-0.5-0.3-1-0.3-1.5c0-0.9,0.5-1.9,1.6-3.2c-2.6-0.6-4.2-2.6-4.2-5.1c0-3.3,2.6-5.6,6.6-5.6
			c1.3,0,2.5,0.3,3.8,1H179.1z M165.8,67.2c0,2,1.8,3.5,4.6,3.5c3,0,5.1-1.7,5.1-3.6c0-1.8-1.1-2.2-3.5-2.7l-3.3-0.6
			C166.9,64.4,165.8,65.7,165.8,67.2z M166.8,53.7c0,2.5,1.4,4.2,3.3,4.2c2,0,3.3-1.6,3.3-4.2c0-2.6-1.4-4.2-3.3-4.2
			C168.1,49.5,166.8,51.1,166.8,53.7z"/>
		<path fill="#FFFFFF" d="M194.7,63.2c-2,1.4-4.2,2-6.4,2c-4.5,0-7.6-3.4-7.6-8.4c0-5.1,3.3-8.6,7.9-8.6c3.7,0,6.1,2.5,6.1,6.7
			c0,0.3,0,0.7,0,1.1h-11v0.4c0,4.4,2.3,6.9,5.7,6.9c1.7,0,3.4-0.7,5.3-2V63.2z M191.7,54c0-2.8-1.3-4.2-3.5-4.2
			c-2.2,0-4.1,1.9-4.3,4.8h7.9V54z"/>
		<path fill="#FFFFFF" d="M220.9,55.1c0,2.7-1,5.3-2.8,7.3c-1.6,1.8-3.6,2.8-6,2.8c-3.5,0-5.8-2.5-5.8-6.5c0-2.8,1-5.5,2.7-7.4
			c1.6-1.8,3.7-2.8,6-2.8C218.7,48.5,220.9,51,220.9,55.1z M209.3,58.8c0,3.3,1.3,5,3.3,5c2.9,0,5.4-3.7,5.4-8.9
			c0-3.4-1.3-5.1-3.3-5.1C211.8,49.8,209.3,53.5,209.3,58.8z"/>
		<path fill="#FFFFFF" d="M232,41.5c-1.3,0.9-2.3,3.5-3.1,7.9h4.8v1.5h-5.1l-1.4,9.7c-0.4,3.1-1.1,5.7-2.5,7.8
			c-1.8,2.5-3.7,3.8-5.3,3.8c-1.1,0-1.8-0.7-1.8-1.8c0-0.5,0.3-1,0.7-1.4l3.5,0.9c1.6-1.7,2.2-4.8,2.8-9.3l1.4-9.8l-2.3,0.2l0-1.1
			l2.6-1.1c1.1-5.8,4-9,7.1-9c1.6,0,2.8,1,2.8,2c0,0.9-0.6,1.6-1.7,1.8L232,41.5z"/>
		<path fill="#FFFFFF" d="M243.2,63.5l2-0.3l0.6-0.6V44.1l-0.4-0.5l-2.2-0.2v-1.4h7.2V43l6.4,17.1l6.5-16.9v-1.1h7.3v1.4l-2.1,0.2
			l-0.4,0.5v18.7l0.4,0.5l2.1,0.2v1.4h-8.1v-1.4l2.2-0.2l0.3-0.5V43.7l-8.1,21.2h-1.5L247.6,44v18.6l0.6,0.6l2.1,0.3v1.4h-7.2V63.5z
			"/>
		<path fill="#FFFFFF" d="M286.8,63.2c-2,1.4-4.2,2-6.4,2c-4.5,0-7.6-3.4-7.6-8.4c0-5.1,3.3-8.6,7.9-8.6c3.7,0,6.1,2.5,6.1,6.7
			c0,0.3,0,0.7,0,1.1h-11v0.4c0,4.4,2.3,6.9,5.7,6.9c1.7,0,3.4-0.7,5.3-2V63.2z M283.8,54c0-2.8-1.3-4.2-3.5-4.2
			c-2.2,0-4.1,1.9-4.3,4.8h7.9V54z"/>
		<path fill="#FFFFFF" d="M298.6,42.1v-1.1l4.1-1.2h1.3v23.1l0.6,0.5l1.6,0.2v1.2h-5v-1.8c-1.7,1.4-3.4,2.1-5.2,2.1
			c-3.7,0-6.6-3.2-6.6-8c0-5.4,3.6-9.1,8.8-9.1c1,0,2,0.1,3,0.4v-6.4H298.6z M301.3,50.2c-1.2-0.3-2.2-0.5-3-0.5
			c-3.4,0-5.8,2.8-5.8,7c0,4,2,6.4,5.1,6.4c1.2,0,2.4-0.4,3.7-1.2V50.2z"/>
		<path fill="#FFFFFF" d="M313.8,48.4v14.6l0.6,0.5l1.8,0.2v1.2h-7.6v-1.2l1.8-0.2l0.6-0.5V50.6h-2.4v-1.1l3.9-1.2H313.8z
			 M314.7,42.8c0,1.1-0.9,1.9-2,1.9s-2-0.8-2-1.9c0-1.1,0.9-2,2-2S314.7,41.7,314.7,42.8z"/>
		<path fill="#FFFFFF" d="M322.8,65.1c-2.7,0-4.4-1.8-4.4-4.4c0-3.5,3.1-4.6,9.9-6.2v-1.1c0-2.7-0.7-3.8-3.1-3.8
			c-0.9,0-1.7,0.2-2.6,0.5v2.9h-2.3c-0.8,0-1.1-0.2-1.1-1.1c0-2.1,2.6-3.8,6.9-3.8c3.6,0,5.1,1.5,5.1,4.9v9.9l0.6,0.5l1.8,0.2v1.2
			h-4.8l-0.4-2C326.2,64.4,324.4,65.1,322.8,65.1z M328.3,55.8c-4.8,1.3-6.9,2.2-6.9,4.7c0,1.7,1,2.8,2.7,2.8c1.1,0,2.5-0.5,4.2-1.5
			V55.8z"/>
		<path fill="#FFFFFF" d="M360.1,59.1c1-1.5,1.7-2.8,1.9-4l-0.6-0.6l-1.9-0.3v-1.4h6.9v1.4l-2.4,0.3c-0.6,2.1-1.5,4-2.8,5.8l2.7,3.1
			l3.1,0.2v1.4h-6v-0.8l-1.5-1.7c-2.2,1.9-4.4,2.9-6.7,2.9c-4.2,0-7.2-2.9-7.2-6.7c0-2.7,1.5-4.7,4.5-6.1c-1.8-1.8-2.8-3.4-2.8-5.2
			c0-3.1,2.6-5.6,6.2-5.6c3.6,0,5.8,2.3,5.8,5.1c0,2.7-1.5,4.4-5,6L360.1,59.1z M348.6,57.9c0,3.1,2.1,5.4,5,5.4
			c1.7,0,3.3-0.6,4.7-2l-7.1-7.7C349.4,54.7,348.6,56,348.6,57.9z M356.4,46.9c0-2.2-1.3-3.7-3.3-3.7c-1.8,0-3.2,1.4-3.2,3.3
			c0,1.8,1.1,3.2,3.2,5.1C355.3,50.6,356.4,49.1,356.4,46.9z"/>
		<path fill="#FFFFFF" d="M390.2,65.3c-2.2,0-4.2-0.5-5.8-1.4c-3.6-2.1-5.9-6-5.9-10.5c0-7.1,4.7-11.8,11.8-11.8
			c2,0,4.2,0.4,6.7,1.2v5.2h-1.9l-0.5-3.1l-0.4-0.6c-1.3-0.6-2.5-0.9-3.8-0.9c-5.1,0-8.4,3.7-8.4,9.8c0,6.5,3.4,10.3,8.9,10.3
			c1,0,1.9-0.1,3-0.4l0.5-0.5l0.7-3.8h1.9v5.4C394.8,64.9,392.4,65.3,390.2,65.3z"/>
		<path fill="#FFFFFF" d="M415.6,56.7c0,5-3.4,8.5-7.9,8.5c-4.6,0-7.9-3.5-7.9-8.5c0-5.1,3.3-8.5,7.9-8.5
			C412.3,48.2,415.6,51.7,415.6,56.7z M403,56.7c0,4.4,2,7,4.7,7c2.8,0,4.7-2.6,4.7-7c0-4.4-2-7-4.7-7S403,52.3,403,56.7z"/>
		<path fill="#FFFFFF" d="M438.1,48.2c2.7,0,4.4,1.8,4.4,5.2v9.6l0.6,0.5l1.8,0.2v1.2h-7.4v-1.2l1.6-0.2l0.6-0.5v-9
			c0-2.4-1-3.5-3.1-3.5c-1.1,0-2.4,0.4-3.8,1.1v11.4l0.6,0.5l1.6,0.2v1.2h-7.2v-1.2l1.6-0.2l0.6-0.5v-9c0-2.4-1-3.5-3-3.5
			c-1.1,0-2.4,0.4-3.9,1.1v11.4l0.6,0.5l1.6,0.2v1.2h-7.4v-1.2l1.8-0.2l0.6-0.5V50.6h-2.4v-1.1l3.9-1.2h1.3v1.9c2.2-1.3,4-2,5.4-2
			c1.7,0,3,0.8,3.7,2.3C434.8,49,436.8,48.2,438.1,48.2z"/>
		<path fill="#FFFFFF" d="M466.8,48.2c2.7,0,4.4,1.8,4.4,5.2v9.6l0.6,0.5l1.8,0.2v1.2h-7.4v-1.2l1.6-0.2l0.6-0.5v-9
			c0-2.4-1-3.5-3.1-3.5c-1.1,0-2.4,0.4-3.8,1.1v11.4l0.6,0.5l1.6,0.2v1.2h-7.2v-1.2l1.6-0.2l0.6-0.5v-9c0-2.4-1-3.5-3-3.5
			c-1.1,0-2.4,0.4-3.9,1.1v11.4l0.6,0.5l1.6,0.2v1.2h-7.4v-1.2l1.8-0.2l0.6-0.5V50.6h-2.4v-1.1l3.9-1.2h1.3v1.9c2.2-1.3,4-2,5.4-2
			c1.7,0,3,0.8,3.7,2.3C463.5,49,465.4,48.2,466.8,48.2z"/>
		<path fill="#FFFFFF" d="M480.3,48.2v11.3c0,2.4,1,3.6,3.3,3.6c1.3,0,2.6-0.3,3.9-1V50.5h-2.4v-1.1l3.9-1.3h1.3v14.8l0.6,0.5
			l1.6,0.2v1.2h-5V63c-2,1.5-3.8,2.2-5.5,2.2c-2.9,0-4.6-1.8-4.6-5.2v-9.5h-2.4v-1.1l3.9-1.3H480.3z"/>
		<path fill="#FFFFFF" d="M494.5,63.7l1.8-0.2l0.6-0.5V50.6h-2.4v-1.1l3.9-1.2h1.3v1.9c2.3-1.3,4-2,5.5-2c3,0,4.6,1.8,4.6,5.2v9.6
			l0.6,0.5l1.8,0.2v1.2h-7.4v-1.2l1.6-0.2l0.6-0.5v-9c0-2.5-0.9-3.5-3.4-3.5c-1.1,0-2.3,0.4-3.8,1.1v11.4l0.6,0.5l1.6,0.2v1.2h-7.4
			V63.7z"/>
		<path fill="#FFFFFF" d="M519.2,48.4v14.6l0.6,0.5l1.8,0.2v1.2H514v-1.2l1.8-0.2l0.6-0.5V50.6H514v-1.1l3.9-1.2H519.2z M520,42.8
			c0,1.1-0.9,1.9-2,1.9c-1.1,0-2-0.8-2-1.9c0-1.1,0.9-2,2-2C519.2,40.8,520,41.7,520,42.8z"/>
		<path fill="#FFFFFF" d="M531.3,65.1c-4.6,0-7.6-3.4-7.6-8.4c0-5.1,3.3-8.5,8.1-8.5c3.3,0,5.1,1.4,5.1,3.3c0,1.1-0.7,1.8-1.9,1.8
			c-0.5,0-1-0.2-1.5-0.5V50c-0.5-0.3-1.1-0.5-1.6-0.5c-2.9,0-5,2.6-5,6.9c0,4.2,2.2,6.7,5.8,6.7c1.5,0,2.9-0.5,4.3-1.4v1.8
			C534.9,64.5,533.1,65.1,531.3,65.1z"/>
		<path fill="#FFFFFF" d="M543.3,65.1c-2.7,0-4.4-1.8-4.4-4.4c0-3.5,3.1-4.6,9.9-6.2v-1.1c0-2.7-0.7-3.8-3.1-3.8
			c-0.9,0-1.7,0.2-2.6,0.5v2.9h-2.3c-0.8,0-1.1-0.2-1.1-1.1c0-2.1,2.6-3.8,6.9-3.8c3.6,0,5.1,1.5,5.1,4.9v9.9l0.6,0.5l1.8,0.2v1.2
			h-4.8l-0.4-2C546.7,64.4,544.9,65.1,543.3,65.1z M548.9,55.8c-4.8,1.3-6.9,2.2-6.9,4.7c0,1.7,1,2.8,2.7,2.8c1.1,0,2.5-0.5,4.2-1.5
			V55.8z"/>
		<path fill="#FFFFFF" d="M555.6,50.6v-1.1l2.2-1l1.5-3.2h1.3V49h5.2v1.6h-5.2v9c0,2.6,0.4,3.7,2.8,3.7c0.8,0,1.6-0.1,2.3-0.3v1.3
			c-1.6,0.5-3.1,0.7-4.5,0.7c-2.8,0-3.5-1-3.5-3.4v-11H555.6z"/>
		<path fill="#FFFFFF" d="M572.5,48.4v14.6l0.6,0.5l1.8,0.2v1.2h-7.6v-1.2l1.8-0.2l0.6-0.5V50.6h-2.4v-1.1l3.9-1.2H572.5z
			 M573.3,42.8c0,1.1-0.9,1.9-2,1.9s-2-0.8-2-1.9c0-1.1,0.9-2,2-2S573.3,41.7,573.3,42.8z"/>
		<path fill="#FFFFFF" d="M592.7,56.7c0,5-3.4,8.5-7.9,8.5s-7.9-3.5-7.9-8.5c0-5.1,3.3-8.5,7.9-8.5
			C589.4,48.2,592.7,51.7,592.7,56.7z M580.1,56.7c0,4.4,2,7,4.7,7c2.8,0,4.7-2.6,4.7-7c0-4.4-2-7-4.7-7S580.1,52.3,580.1,56.7z"/>
		<path fill="#FFFFFF" d="M595,63.7l1.8-0.2l0.6-0.5V50.6H595v-1.1l3.9-1.2h1.3v1.9c2.3-1.3,4-2,5.5-2c3,0,4.6,1.8,4.6,5.2v9.6
			l0.6,0.5l1.8,0.2v1.2h-7.4v-1.2l1.6-0.2l0.6-0.5v-9c0-2.5-0.9-3.5-3.4-3.5c-1.1,0-2.3,0.4-3.8,1.1v11.4l0.6,0.5l1.6,0.2v1.2H595
			V63.7z"/>
		<path fill="#FFFFFF" d="M614.9,50.7v-2.3H614v-0.5h2.3v0.5h-0.8v2.3H614.9z M616.6,50.7v-2.8h0.9l0.5,1.9l0.5-1.9h0.9v2.8h-0.5
			v-2.2l-0.6,2.2h-0.5l-0.6-2.2v2.2H616.6z"/>
	</g>
</g>
</svg>
