<?xml version="1.0" encoding="utf-8"?>
<!-- Generator: Adobe Illustrator 18.0.0, SVG Export Plug-In . SVG Version: 6.00 Build 0)  -->
<!DOCTYPE svg PUBLIC "-//W3C//DTD SVG 1.1//EN" "http://www.w3.org/Graphics/SVG/1.1/DTD/svg11.dtd">
<svg version="1.1" id="TTU_x5F_DblT_x5F_c1CBWrvs" xmlns="http://www.w3.org/2000/svg" xmlns:xlink="http://www.w3.org/1999/xlink"
	 x="0px" y="0px" viewBox="0 0 531.9 151.1" enable-background="new 0 0 531.9 151.1" xml:space="preserve">
<g>
	<g id="TTU_x5F_DblT_x5F_c1CBWrvs_1_">
		<g id="Double_T_x5F_BW_x5F_1Crvs">
			<g>
				<polygon fill="#2D2C2D" points="246.2,31.4 265.1,31.4 284.4,31.4 286.7,29.1 243.6,29.1 243.6,37.2 246.2,34.8 				"/>
				<polygon fill="#2D2C2D" points="281.9,37.2 284.4,34.8 284.4,31.4 281.9,33.8 				"/>
				<path fill="#2D2C2D" d="M262.8,69.6h-5.1c0,0,0,2.4,0,4.7l2.2-2.4h5.2V31.4l-2.3,2.2V69.6z"/>
				<polygon fill="#2D2C2D" points="272.8,69.5 267.5,69.5 265.1,71.9 270.5,71.9 				"/>
				<polygon fill="#2D2C2D" points="285.3,21.6 291.4,15.9 291.4,8.7 285.3,15 				"/>
				<path fill="#2D2C2D" d="M300.1,24.5V0H230v24.5h17.6V18h7.2v8.4h-14V40h10.5v-3.6h3.4v25.3h-7.1v21h34.9v-21h-7V36.3h3.5V40
					h10.4V26.4h-13.9V18h7v6.5H300.1z M280.9,63.3V81h-31.6V63.2h7.2V36.3h1.1v28h-7.2c0,0,0,8.2,0,15.5l4.4-4.6v1.9h20.8l0-9
					l4.1-3.8h-7l-2.3,2.4V36.3h3.5v26.9H280.9z M287.8,28v10.3h-7.1v-3.5h-12.1v33.6h0h0h5.2l0,0l0,0v7.1h-17.3v-7.1h5.1V34.8h-12
					v3.5h-7.1V28H287.8z M273.9,16.2v10.1h-8.6V8.7l-7.6,6.6v11.1h-1.1V16.3l-10.6,0v6.4h-14V1.9h66.5v20.8h-14.3v-6.4H273.9z"/>
				<path fill="#2D2C2D" d="M297.3,3c-4.4,0-62.1,0-64.1,0c0,1.5,0,15,0,18.5l5.6-5.5V8.7h26.6h26.1L297.3,3z"/>
			</g>
			<path fill="#2D2C2D" d="M288.6,84.6c-1,0-1.9-0.8-1.9-1.9c0-1,0.8-1.9,1.9-1.9c1,0,1.9,0.8,1.9,1.9
				C290.4,83.8,289.6,84.6,288.6,84.6z M288.6,81.1c-0.9,0-1.6,0.7-1.6,1.6c0,0.9,0.7,1.6,1.6,1.6c0.9,0,1.6-0.7,1.6-1.6
				C290.1,81.8,289.4,81.1,288.6,81.1z M289.6,83.7H289l-0.6-0.8h-0.2v0.8h-0.5v-2.1h0.8c0.1,0,0.2,0,0.3,0c0.1,0,0.2,0,0.2,0.1
				c0.1,0,0.1,0.1,0.2,0.2c0,0.1,0.1,0.2,0.1,0.3c0,0.2,0,0.3-0.1,0.4c-0.1,0.1-0.2,0.2-0.3,0.2L289.6,83.7z M288.8,82.3
				c0-0.1,0-0.1,0-0.1c0,0-0.1-0.1-0.1-0.1c0,0-0.1,0-0.1,0c0,0-0.1,0-0.1,0h-0.2v0.6h0.1c0.1,0,0.1,0,0.2,0c0.1,0,0.1,0,0.1-0.1
				c0,0,0.1-0.1,0.1-0.1C288.8,82.4,288.8,82.3,288.8,82.3z"/>
		</g>
	</g>
	<g>
		<path fill="#2D2C2D" d="M164.4,102.3v2.5h-1l-0.2-1.5l-0.2-0.2h-1.7v7.6l0.2,0.2l0.9,0.1v0.7h-4.2V111l0.9-0.1l0.2-0.2v-7.6h-1.7
			l-0.2,0.2l-0.2,1.5h-1v-2.5H164.4z"/>
		<path fill="#2D2C2D" d="M167.4,111l0.9-0.1l0.2-0.2v-7.5l-0.2-0.2l-0.9-0.1v-0.7h7.1v2.2h-1l-0.2-1.2l-0.2-0.2h-2.8v3.3h1.8
			l0.2-0.2l0.1-1h0.8v3.2h-0.8l-0.1-1l-0.2-0.2h-1.8v3.6h3.2l0.2-0.2l0.2-1.5h1v2.5h-7.5V111z"/>
		<path fill="#2D2C2D" d="M182,102.3v0.7l-0.8,0.1l-0.1,0.2l1.6,2.6l1.8-2.6l-0.1-0.2l-0.8-0.1v-0.7h3.1v0.7l-0.9,0.1l-2.6,3.5
			l2.7,4.2l0.9,0.2v0.7h-4.1V111l0.9-0.1l0.1-0.2l-1.7-2.8l-2,2.8l0.1,0.2l0.9,0.1v0.7h-3.2V111l0.9-0.1l2.7-3.7l-2.5-4l-0.9-0.1
			v-0.7H182z"/>
		<path fill="#2D2C2D" d="M194.6,102.2l3.2,8.7l0.8,0.1v0.7h-3.8V111l0.9-0.1l0.1-0.2l-0.8-2.4H192l-0.8,2.4l0.1,0.2l0.9,0.1v0.7h-3
			V111l0.8-0.1l3.2-8.7H194.6z M192.3,107.6h2.5l-1.2-3.5L192.3,107.6z"/>
		<path fill="#2D2C2D" d="M201.8,108.8h1.1l0.2,1.7l0.2,0.2c0.4,0.1,0.8,0.2,1.2,0.2c1.1,0,1.8-0.6,1.8-1.3c0-0.8-0.5-1.3-1.5-1.8
			c-0.6-0.3-1.2-0.5-1.8-1c-0.6-0.5-1-1.2-1-1.9c0-1.6,1.3-2.8,3.3-2.8c0.9,0,1.8,0.2,2.6,0.5v2.3h-1l-0.2-1.5l-0.2-0.2
			c-0.3-0.1-0.6-0.2-1-0.2c-1,0-1.7,0.6-1.7,1.3c0,0.6,0.4,1.1,1.1,1.5c0.4,0.3,1.2,0.5,2,1c0.8,0.5,1.3,1.3,1.3,2.1
			c0,1.7-1.4,2.9-3.7,2.9c-0.9,0-1.8-0.2-2.7-0.5V108.8z"/>
		<path fill="#2D2C2D" d="M226.3,102.3v2.5h-1l-0.2-1.5l-0.2-0.2h-1.7v7.6l0.2,0.2l0.9,0.1v0.7h-4.2V111l0.9-0.1l0.2-0.2v-7.6h-1.7
			l-0.2,0.2l-0.2,1.5h-1v-2.5H226.3z"/>
		<path fill="#2D2C2D" d="M229.4,111l0.9-0.1l0.2-0.2v-7.5l-0.2-0.2l-0.9-0.1v-0.7h7.1v2.2h-1l-0.2-1.2l-0.2-0.2h-2.8v3.3h1.8
			l0.2-0.2l0.1-1h0.8v3.2h-0.8l-0.1-1l-0.2-0.2h-1.8v3.6h3.2l0.2-0.2l0.2-1.5h1v2.5h-7.5V111z"/>
		<path fill="#2D2C2D" d="M245.3,111.8c-1,0-1.9-0.2-2.6-0.6c-1.5-0.9-2.3-2.4-2.3-4.2c0-1.4,0.5-2.7,1.5-3.6
			c0.9-0.9,2.1-1.3,3.5-1.3c1,0,1.9,0.2,2.9,0.5v2.3h-1l-0.3-1.5l-0.2-0.2c-0.4-0.1-0.7-0.2-1.1-0.2c-1.9,0-3.2,1.5-3.2,4
			c0,2.5,1.3,4,3.4,4c0.2,0,0.5,0,0.9-0.1l0.2-0.2l0.4-1.7h1v2.4C247.3,111.7,246.3,111.8,245.3,111.8z"/>
		<path fill="#2D2C2D" d="M255.7,102.3v0.7l-0.8,0.1l-0.2,0.2v3.1h4v-3.1l-0.2-0.2l-0.8-0.1v-0.7h4v0.7l-0.8,0.1l-0.2,0.2v7.4
			l0.2,0.2l0.8,0.1v0.7h-4V111l0.8-0.1l0.2-0.2v-3.5h-4v3.5l0.2,0.2l0.8,0.1v0.7h-4V111l0.8-0.1l0.2-0.2v-7.4l-0.2-0.2l-0.8-0.1
			v-0.7H255.7z"/>
		<path fill="#2D2C2D" d="M275.4,102.3v0.7l-0.9,0.1l-0.2,0.2v4.9c0,1.8,0.6,2.6,2.3,2.6c1.6,0,2.1-0.9,2.1-2.7v-4.7l-0.2-0.2
			l-0.9-0.1v-0.7h3.2v0.7l-0.9,0.1l-0.2,0.2v4.9c0,2.6-1.1,3.7-3.7,3.7c-1.4,0-2.4-0.4-3-1.1c-0.5-0.7-0.6-1.5-0.6-2.6v-4.8
			l-0.2-0.2l-0.9-0.1v-0.7H275.4z"/>
		<path fill="#2D2C2D" d="M283.8,111l0.8-0.1l0.3-0.3v-7.4l-0.2-0.2l-0.9-0.1v-0.7h3.2v0.4l4.3,6.7v-6L291,103l-0.9-0.1v-0.7h3.2
			v0.7l-0.8,0.1l-0.2,0.3v8.4h-1.6l-4.8-7.5v6.5l0.2,0.3l0.9,0.1v0.7h-3.2V111z"/>
		<path fill="#2D2C2D" d="M296.6,111l0.9-0.1l0.2-0.2v-7.5l-0.2-0.2l-0.9-0.1v-0.7h4.2v0.7l-0.9,0.1l-0.2,0.2v7.5l0.2,0.2l0.9,0.1
			v0.7h-4.2V111z"/>
		<path fill="#2D2C2D" d="M307.2,102.3v0.7l-0.8,0.1l-0.2,0.2l2.3,6.4l2.3-6.4l-0.2-0.2l-0.8-0.1v-0.7h3.1v0.7l-0.9,0.2l-3.1,8.6
			h-1.4l-3.2-8.6l-0.9-0.2v-0.7H307.2z"/>
		<path fill="#2D2C2D" d="M315.4,111l0.9-0.1l0.2-0.2v-7.5l-0.2-0.2l-0.9-0.1v-0.7h7.1v2.2h-1l-0.2-1.2l-0.2-0.2h-2.8v3.3h1.8
			l0.2-0.2l0.1-1h0.8v3.2h-0.8l-0.1-1l-0.2-0.2h-1.8v3.6h3.2l0.2-0.2l0.2-1.5h1v2.5h-7.5V111z"/>
		<path fill="#2D2C2D" d="M330.6,102.3c2.2,0,3.3,0.8,3.3,2.4c0,1.3-0.8,2.1-2.4,2.4c0.7,0.2,1.1,0.4,1.5,0.9
			c0.4,0.6,0.5,1.4,0.8,2.1c0.3,0.8,0.7,1,1.7,1h0.2v0.7c-0.5,0.1-1,0.1-1.4,0.1c-0.6,0-1.1-0.2-1.5-0.4c-0.7-0.6-0.9-1.2-1.1-1.9
			c-0.4-1.3-0.8-1.9-2.2-1.9h-0.2v3.2l0.2,0.2l0.9,0.1v0.7h-4V111l0.8-0.1l0.2-0.2v-7.5l-0.2-0.2l-0.8-0.1v-0.7H330.6z M329.2,106.7
			c0.2,0,0.3,0,0.5,0c1.5,0,2.2-0.6,2.2-1.9c0-1.1-0.7-1.8-2.1-1.8h-0.6V106.7z"/>
		<path fill="#2D2C2D" d="M338.6,108.8h1.1l0.2,1.7l0.2,0.2c0.4,0.1,0.8,0.2,1.2,0.2c1.1,0,1.8-0.6,1.8-1.3c0-0.8-0.5-1.3-1.5-1.8
			c-0.6-0.3-1.2-0.5-1.8-1c-0.6-0.5-1-1.2-1-1.9c0-1.6,1.3-2.8,3.3-2.8c0.9,0,1.8,0.2,2.6,0.5v2.3h-1l-0.2-1.5l-0.2-0.2
			c-0.3-0.1-0.6-0.2-1-0.2c-1,0-1.7,0.6-1.7,1.3c0,0.6,0.4,1.1,1.1,1.5c0.4,0.3,1.2,0.5,2,1c0.8,0.5,1.3,1.3,1.3,2.1
			c0,1.7-1.4,2.9-3.7,2.9c-0.9,0-1.8-0.2-2.7-0.5V108.8z"/>
		<path fill="#2D2C2D" d="M348.7,111l0.9-0.1l0.2-0.2v-7.5l-0.2-0.2l-0.9-0.1v-0.7h4.2v0.7l-0.9,0.1l-0.2,0.2v7.5l0.2,0.2l0.9,0.1
			v0.7h-4.2V111z"/>
		<path fill="#2D2C2D" d="M364.1,102.3v2.5h-1l-0.2-1.5l-0.2-0.2H361v7.6l0.2,0.2l0.9,0.1v0.7h-4.2V111l0.9-0.1l0.2-0.2v-7.6h-1.7
			l-0.2,0.2l-0.2,1.5h-1v-2.5H364.1z"/>
		<path fill="#2D2C2D" d="M370.4,102.3v0.7l-0.8,0.1l-0.1,0.2l1.9,3.6l2-3.4l-0.1-0.2l-0.8-0.2v-0.7h3.1v0.7l-0.8,0.2l-2.7,4.5v3.1
			l0.2,0.2l1,0.1v0.7H369V111l0.9-0.1l0.2-0.2V108l-2.7-4.9l-0.9-0.1v-0.7H370.4z"/>
		<path fill="#2D2C2D" d="M11.7,144.1c-2.2,0-4.2-0.5-5.8-1.4c-3.6-2.1-5.9-6-5.9-10.5c0-7.1,4.7-11.8,11.8-11.8
			c2,0,4.2,0.4,6.7,1.2v5.2h-1.9l-0.5-3.1l-0.4-0.6c-1.3-0.6-2.5-0.9-3.8-0.9c-5.1,0-8.4,3.7-8.4,9.8c0,6.5,3.4,10.3,8.9,10.3
			c1,0,1.9-0.1,3-0.4l0.5-0.5l0.7-3.8h1.9v5.4C16.3,143.7,13.9,144.1,11.7,144.1z"/>
		<path fill="#2D2C2D" d="M37.1,135.5c0,5-3.4,8.5-7.9,8.5c-4.6,0-7.9-3.5-7.9-8.5c0-5.1,3.3-8.5,7.9-8.5
			C33.8,127,37.1,130.4,37.1,135.5z M24.5,135.5c0,4.4,2,7,4.7,7c2.8,0,4.7-2.6,4.7-7c0-4.4-2-7-4.7-7
			C26.4,128.4,24.5,131.1,24.5,135.5z"/>
		<path fill="#2D2C2D" d="M39.3,142.4l2-0.2l0.6-0.5v-20.8h-2.6v-1.1l4.1-1.2h1.3v23.1l0.6,0.5l1.9,0.2v1.2h-8V142.4z"/>
		<path fill="#2D2C2D" d="M48.9,142.4l2-0.2l0.6-0.5v-20.8h-2.6v-1.1l4.1-1.2h1.3v23.1l0.6,0.5l1.9,0.2v1.2h-8V142.4z"/>
		<path fill="#2D2C2D" d="M72.8,141.9c-2,1.4-4.2,2-6.4,2c-4.5,0-7.6-3.4-7.6-8.4c0-5.1,3.3-8.6,7.9-8.6c3.7,0,6.1,2.5,6.1,6.7
			c0,0.3,0,0.7,0,1.1h-11v0.4c0,4.4,2.3,6.9,5.7,6.9c1.7,0,3.4-0.7,5.3-2V141.9z M69.7,132.8c0-2.8-1.3-4.2-3.5-4.2
			c-2.2,0-4.1,1.9-4.3,4.8h7.9V132.8z"/>
		<path fill="#2D2C2D" d="M91.6,127.9v1.6h-3.7c0.6,1,1,2,1,3.2c0,3-2.5,5.3-6.5,5.3h-0.6c-0.2,0.5-0.4,1-0.4,1.5
			c0,0.2,0,0.4,0.1,0.8l3.3,0.5c4,0.6,5.8,1.7,5.8,4.2c0,1.3-0.7,2.7-2,3.8c-1.8,1.5-4.1,2.2-6.7,2.2c-3.9,0-6.2-1.7-6.2-4.4
			c0-2.2,1.4-3.8,3.7-4.2c-0.2-0.5-0.3-1-0.3-1.5c0-0.9,0.5-1.9,1.6-3.2c-2.6-0.6-4.2-2.6-4.2-5.1c0-3.3,2.6-5.6,6.6-5.6
			c1.3,0,2.5,0.3,3.8,1H91.6z M78.3,146c0,2,1.8,3.5,4.6,3.5c3,0,5.1-1.7,5.1-3.6c0-1.8-1.1-2.2-3.5-2.7l-3.3-0.6
			C79.4,143.2,78.3,144.5,78.3,146z M79.3,132.5c0,2.5,1.4,4.2,3.3,4.2c2,0,3.3-1.6,3.3-4.2c0-2.6-1.4-4.2-3.3-4.2
			C80.6,128.3,79.3,129.9,79.3,132.5z"/>
		<path fill="#2D2C2D" d="M107.2,141.9c-2,1.4-4.2,2-6.4,2c-4.5,0-7.6-3.4-7.6-8.4c0-5.1,3.3-8.6,7.9-8.6c3.7,0,6.1,2.5,6.1,6.7
			c0,0.3,0,0.7,0,1.1h-11v0.4c0,4.4,2.3,6.9,5.7,6.9c1.7,0,3.4-0.7,5.3-2V141.9z M104.2,132.8c0-2.8-1.3-4.2-3.5-4.2
			c-2.2,0-4.1,1.9-4.3,4.8h7.9V132.8z"/>
		<path fill="#2D2C2D" d="M133.4,133.9c0,2.7-1,5.3-2.8,7.3c-1.6,1.8-3.6,2.8-6,2.8c-3.5,0-5.8-2.5-5.8-6.5c0-2.8,1-5.5,2.7-7.4
			c1.6-1.8,3.7-2.8,6-2.8C131.2,127.3,133.4,129.8,133.4,133.9z M121.8,137.6c0,3.3,1.3,5,3.3,5c2.9,0,5.4-3.7,5.4-8.9
			c0-3.4-1.3-5.1-3.3-5.1C124.3,128.6,121.8,132.3,121.8,137.6z"/>
		<path fill="#2D2C2D" d="M144.5,120.3c-1.3,0.8-2.3,3.5-3.1,7.9h4.8v1.5h-5.1l-1.4,9.7c-0.4,3.1-1.1,5.7-2.5,7.8
			c-1.8,2.5-3.7,3.8-5.3,3.8c-1.1,0-1.8-0.7-1.8-1.8c0-0.5,0.3-1,0.7-1.4l3.5,0.9c1.6-1.7,2.2-4.8,2.8-9.3l1.4-9.8l-2.3,0.2l0-1.1
			l2.6-1.1c1.1-5.8,4-9,7.1-9c1.6,0,2.8,1,2.8,2c0,0.9-0.6,1.6-1.7,1.8L144.5,120.3z"/>
		<path fill="#2D2C2D" d="M155.6,142.3l2-0.3l0.6-0.6v-18.5l-0.4-0.5l-2.2-0.2v-1.4h7.2v0.9l6.4,17.1l6.5-16.9v-1.1h7.3v1.4
			l-2.1,0.2l-0.4,0.5v18.7l0.4,0.5l2.1,0.2v1.4h-8.1v-1.4l2.2-0.2l0.3-0.5v-19.2l-8.1,21.2h-1.5l-7.8-20.9v18.6l0.6,0.6l2.1,0.3v1.4
			h-7.2V142.3z"/>
		<path fill="#2D2C2D" d="M199.3,141.9c-2,1.4-4.2,2-6.4,2c-4.5,0-7.6-3.4-7.6-8.4c0-5.1,3.3-8.6,7.9-8.6c3.7,0,6.1,2.5,6.1,6.7
			c0,0.3,0,0.7,0,1.1h-11v0.4c0,4.4,2.3,6.9,5.7,6.9c1.7,0,3.4-0.7,5.3-2V141.9z M196.2,132.8c0-2.8-1.3-4.2-3.5-4.2
			c-2.2,0-4.1,1.9-4.3,4.8h7.9V132.8z"/>
		<path fill="#2D2C2D" d="M211.1,120.9v-1.1l4.1-1.2h1.3v23.1l0.6,0.5l1.6,0.2v1.2h-5v-1.8c-1.7,1.4-3.4,2.1-5.2,2.1
			c-3.7,0-6.6-3.2-6.6-8c0-5.4,3.6-9.1,8.8-9.1c1,0,2,0.1,3,0.4v-6.4H211.1z M213.8,129c-1.2-0.3-2.2-0.5-3-0.5
			c-3.4,0-5.8,2.8-5.8,7c0,4,2,6.4,5.1,6.4c1.2,0,2.4-0.4,3.7-1.2V129z"/>
		<path fill="#2D2C2D" d="M226.3,127.1v14.6l0.6,0.5l1.8,0.2v1.2h-7.6v-1.2l1.8-0.2l0.6-0.5v-12.3h-2.4v-1.1l3.9-1.2H226.3z
			 M227.1,121.6c0,1.1-0.9,1.9-2,1.9c-1.1,0-2-0.8-2-1.9c0-1.1,0.9-2,2-2C226.3,119.6,227.1,120.5,227.1,121.6z"/>
		<path fill="#2D2C2D" d="M235.2,143.9c-2.7,0-4.4-1.8-4.4-4.4c0-3.5,3.1-4.6,9.9-6.2v-1.1c0-2.7-0.7-3.8-3.1-3.8
			c-0.9,0-1.7,0.2-2.6,0.5v2.9h-2.3c-0.8,0-1.1-0.2-1.1-1.1c0-2.1,2.6-3.8,6.9-3.8c3.6,0,5.1,1.5,5.1,4.9v9.9l0.6,0.5l1.8,0.2v1.2
			h-4.8l-0.4-2C238.7,143.2,236.9,143.9,235.2,143.9z M240.8,134.6c-4.8,1.3-6.9,2.2-6.9,4.7c0,1.7,1,2.8,2.7,2.8
			c1.1,0,2.5-0.5,4.2-1.5V134.6z"/>
		<path fill="#2D2C2D" d="M272.6,137.9c1-1.5,1.7-2.8,1.9-4l-0.6-0.6l-1.9-0.3v-1.4h6.9v1.4l-2.4,0.3c-0.6,2.1-1.5,4-2.8,5.8
			l2.7,3.1l3.1,0.2v1.4h-6v-0.8l-1.5-1.7c-2.2,1.9-4.4,2.9-6.7,2.9c-4.2,0-7.2-2.9-7.2-6.7c0-2.7,1.5-4.7,4.5-6.1
			c-1.8-1.8-2.8-3.4-2.8-5.2c0-3.1,2.6-5.6,6.2-5.6c3.6,0,5.8,2.3,5.8,5.1c0,2.7-1.5,4.4-5,6L272.6,137.9z M261.1,136.7
			c0,3.1,2.1,5.4,5,5.4c1.7,0,3.3-0.6,4.7-2l-7.1-7.7C261.9,133.5,261.1,134.8,261.1,136.7z M268.9,125.7c0-2.2-1.3-3.7-3.3-3.7
			c-1.8,0-3.2,1.4-3.2,3.3c0,1.8,1.1,3.2,3.2,5.1C267.8,129.4,268.9,127.9,268.9,125.7z"/>
		<path fill="#2D2C2D" d="M302.7,144.1c-2.2,0-4.2-0.5-5.8-1.4c-3.6-2.1-5.9-6-5.9-10.5c0-7.1,4.7-11.8,11.8-11.8
			c2,0,4.2,0.4,6.7,1.2v5.2h-1.9l-0.5-3.1l-0.4-0.6c-1.3-0.6-2.5-0.9-3.8-0.9c-5.1,0-8.4,3.7-8.4,9.8c0,6.5,3.4,10.3,8.9,10.3
			c1,0,1.9-0.1,3-0.4l0.5-0.5l0.7-3.8h1.9v5.4C307.3,143.7,304.9,144.1,302.7,144.1z"/>
		<path fill="#2D2C2D" d="M328.1,135.5c0,5-3.4,8.5-7.9,8.5c-4.6,0-7.9-3.5-7.9-8.5c0-5.1,3.3-8.5,7.9-8.5
			C324.8,127,328.1,130.4,328.1,135.5z M315.5,135.5c0,4.4,2,7,4.7,7c2.8,0,4.7-2.6,4.7-7c0-4.4-2-7-4.7-7S315.5,131.1,315.5,135.5z
			"/>
		<path fill="#2D2C2D" d="M350.6,127c2.7,0,4.4,1.8,4.4,5.2v9.6l0.6,0.5l1.8,0.2v1.2H350v-1.2l1.6-0.2l0.6-0.5v-9
			c0-2.4-1-3.5-3.1-3.5c-1.1,0-2.4,0.4-3.8,1.1v11.4l0.6,0.5l1.6,0.2v1.2h-7.2v-1.2l1.6-0.2l0.6-0.5v-9c0-2.4-1-3.5-3-3.5
			c-1.1,0-2.4,0.4-3.9,1.1v11.4l0.6,0.5l1.6,0.2v1.2h-7.4v-1.2l1.8-0.2l0.6-0.5v-12.3h-2.4v-1.1l3.9-1.2h1.3v1.9c2.2-1.3,4-2,5.4-2
			c1.7,0,3,0.8,3.7,2.3C347.3,127.8,349.3,127,350.6,127z"/>
		<path fill="#2D2C2D" d="M379.3,127c2.7,0,4.4,1.8,4.4,5.2v9.6l0.6,0.5l1.8,0.2v1.2h-7.4v-1.2l1.6-0.2l0.6-0.5v-9
			c0-2.4-1-3.5-3.1-3.5c-1.1,0-2.4,0.4-3.8,1.1v11.4l0.6,0.5l1.6,0.2v1.2h-7.2v-1.2l1.6-0.2l0.6-0.5v-9c0-2.4-1-3.5-3-3.5
			c-1.1,0-2.4,0.4-3.9,1.1v11.4l0.6,0.5l1.6,0.2v1.2H359v-1.2l1.8-0.2l0.6-0.5v-12.3H359v-1.1l3.9-1.2h1.3v1.9c2.2-1.3,4-2,5.4-2
			c1.7,0,3,0.8,3.7,2.3C376,127.8,377.9,127,379.3,127z"/>
		<path fill="#2D2C2D" d="M392.8,127v11.3c0,2.4,1,3.6,3.3,3.6c1.3,0,2.5-0.3,3.9-1v-11.5h-2.4v-1.1l3.9-1.3h1.3v14.8l0.6,0.5
			l1.6,0.2v1.2h-5v-1.9c-2,1.5-3.8,2.2-5.5,2.2c-2.9,0-4.6-1.8-4.6-5.2v-9.5h-2.4v-1.1l3.9-1.3H392.8z"/>
		<path fill="#2D2C2D" d="M407,142.4l1.8-0.2l0.6-0.5v-12.3H407v-1.1l3.9-1.2h1.3v1.9c2.3-1.3,4-2,5.5-2c3,0,4.6,1.8,4.6,5.2v9.6
			l0.6,0.5l1.8,0.2v1.2h-7.4v-1.2l1.6-0.2l0.6-0.5v-9c0-2.5-0.9-3.5-3.4-3.5c-1.1,0-2.3,0.4-3.8,1.1v11.4l0.6,0.5l1.6,0.2v1.2H407
			V142.4z"/>
		<path fill="#2D2C2D" d="M431.7,127.1v14.6l0.6,0.5l1.8,0.2v1.2h-7.6v-1.2l1.8-0.2l0.6-0.5v-12.3h-2.4v-1.1l3.9-1.2H431.7z
			 M432.5,121.6c0,1.1-0.9,1.9-2,1.9c-1.1,0-2-0.8-2-1.9c0-1.1,0.9-2,2-2C431.7,119.6,432.5,120.5,432.5,121.6z"/>
		<path fill="#2D2C2D" d="M443.8,143.9c-4.6,0-7.6-3.4-7.6-8.4c0-5.1,3.3-8.5,8.1-8.5c3.3,0,5.1,1.4,5.1,3.3c0,1.1-0.7,1.8-1.9,1.8
			c-0.5,0-1-0.2-1.5-0.5v-2.8c-0.5-0.3-1.1-0.5-1.6-0.5c-2.9,0-5,2.6-5,6.9c0,4.2,2.2,6.7,5.8,6.7c1.5,0,2.9-0.5,4.3-1.4v1.8
			C447.4,143.3,445.6,143.9,443.8,143.9z"/>
		<path fill="#2D2C2D" d="M455.8,143.9c-2.7,0-4.4-1.8-4.4-4.4c0-3.5,3.1-4.6,9.9-6.2v-1.1c0-2.7-0.7-3.8-3.1-3.8
			c-0.9,0-1.7,0.2-2.6,0.5v2.9h-2.3c-0.8,0-1.1-0.2-1.1-1.1c0-2.1,2.6-3.8,6.9-3.8c3.6,0,5.1,1.5,5.1,4.9v9.9l0.6,0.5l1.8,0.2v1.2
			h-4.8l-0.4-2C459.2,143.2,457.4,143.9,455.8,143.9z M461.4,134.6c-4.8,1.3-6.9,2.2-6.9,4.7c0,1.7,1,2.8,2.7,2.8
			c1.1,0,2.5-0.5,4.2-1.5V134.6z"/>
		<path fill="#2D2C2D" d="M468.1,129.4v-1.1l2.2-1l1.5-3.2h1.3v3.6h5.2v1.6h-5.2v9c0,2.6,0.4,3.7,2.8,3.7c0.8,0,1.6-0.1,2.3-0.3v1.3
			c-1.6,0.5-3.1,0.7-4.5,0.7c-2.8,0-3.5-1-3.5-3.4v-11H468.1z"/>
		<path fill="#2D2C2D" d="M485,127.1v14.6l0.6,0.5l1.8,0.2v1.2h-7.6v-1.2l1.8-0.2l0.6-0.5v-12.3h-2.4v-1.1l3.9-1.2H485z
			 M485.8,121.6c0,1.1-0.9,1.9-2,1.9c-1.1,0-2-0.8-2-1.9c0-1.1,0.9-2,2-2C484.9,119.6,485.8,120.5,485.8,121.6z"/>
		<path fill="#2D2C2D" d="M505.2,135.5c0,5-3.4,8.5-7.9,8.5c-4.6,0-7.9-3.5-7.9-8.5c0-5.1,3.3-8.5,7.9-8.5
			C501.9,127,505.2,130.4,505.2,135.5z M492.6,135.5c0,4.4,2,7,4.7,7c2.8,0,4.7-2.6,4.7-7c0-4.4-2-7-4.7-7
			C494.5,128.4,492.6,131.1,492.6,135.5z"/>
		<path fill="#2D2C2D" d="M507.5,142.4l1.8-0.2l0.6-0.5v-12.3h-2.4v-1.1l3.9-1.2h1.3v1.9c2.3-1.3,4-2,5.5-2c3,0,4.6,1.8,4.6,5.2v9.6
			l0.6,0.5l1.8,0.2v1.2h-7.4v-1.2l1.6-0.2l0.6-0.5v-9c0-2.5-0.9-3.5-3.4-3.5c-1.1,0-2.3,0.4-3.8,1.1v11.4l0.6,0.5l1.6,0.2v1.2h-7.4
			V142.4z"/>
		<path fill="#2D2C2D" d="M527.4,129.5v-2.3h-0.9v-0.5h2.3v0.5h-0.8v2.3H527.4z M529.1,129.5v-2.8h0.9l0.5,1.9l0.5-1.9h0.9v2.8h-0.5
			v-2.2l-0.6,2.2h-0.5l-0.6-2.2v2.2H529.1z"/>
	</g>
</g>
</svg>
