<?xml version="1.0" encoding="utf-8"?>
<!-- Generator: Adobe Illustrator 18.1.0, SVG Export Plug-In . SVG Version: 6.00 Build 0)  -->
<svg version="1.1" xmlns="http://www.w3.org/2000/svg" xmlns:xlink="http://www.w3.org/1999/xlink" x="0px" y="0px"
	 viewBox="0 0 63.3 52.4" enable-background="new 0 0 63.3 52.4" xml:space="preserve">
<g id="Title_Page">
	<g id="TTU_Logo">
	</g>
	<g>
		<path fill="#9A281E" d="M22.3,27.5c-1.4,6.8-4.2,12.3-8.3,16.4C10,48,5.3,50.8,0,52.4l1.9-8.6c2.2-1.2,4.3-2.9,6.5-5.1
			c2.2-2.2,3.7-5.6,4.7-10.2l1.6-7.9H6.7L11.2,0h17L22.3,27.5z M57.5,27.5c-1.4,6.8-4.2,12.3-8.3,16.4c-4.1,4.1-8.8,6.9-14.1,8.5
			l1.9-8.6c2.2-1.2,4.3-2.9,6.5-5.1c2.2-2.2,3.7-5.6,4.7-10.2l1.6-7.9h-7.9L46.3,0h17L57.5,27.5z"/>
	</g>
</g>
<g id="Layer_1">
</g>
<g id="Layer_5">
</g>
<g id="Layer_2">
</g>
<g id="Layer_6">
</g>
<g id="Layer_7">
</g>
<g id="Layer_8">
</g>
<g id="Layer_3">
	<g id="Text">
	</g>
</g>
</svg>
