<?xml version="1.0" encoding="utf-8"?>
<!-- Generator: Adobe Illustrator 18.1.0, SVG Export Plug-In . SVG Version: 6.00 Build 0)  -->
<svg version="1.1" xmlns="http://www.w3.org/2000/svg" xmlns:xlink="http://www.w3.org/1999/xlink" x="0px" y="0px"
	 viewBox="0 0 63.5 52.6" enable-background="new 0 0 63.5 52.6" xml:space="preserve">
<g id="Title_Page">
	<g id="TTU_Logo">
	</g>
	<g>
		<path fill="#9A281E" d="M5.8,25c1.6-6.9,4.4-12.3,8.4-16.5c4-4.1,8.7-7,14-8.5l-1.9,8.6c-2.2,1.2-4.3,3-6.4,5.1
			c-2.1,2.2-3.7,5.6-4.8,10.3L13.6,32h7.9l-4.4,20.6H0L5.8,25z M41.1,25c1.6-6.9,4.4-12.3,8.4-16.5c4-4.1,8.7-7,14-8.5l-1.9,8.6
			c-2.2,1.2-4.3,3-6.4,5.1c-2.1,2.2-3.7,5.6-4.8,10.3L48.8,32h7.9l-4.4,20.6H35.3L41.1,25z"/>
	</g>
</g>
<g id="Layer_1">
</g>
<g id="Layer_5">
</g>
<g id="Layer_2">
</g>
<g id="Layer_6">
</g>
<g id="Layer_7">
</g>
<g id="Layer_8">
</g>
<g id="Layer_3">
	<g id="Text">
	</g>
</g>
</svg>
