<?xml version="1.0" encoding="utf-8"?>
<!-- Generator: Adobe Illustrator 18.1.0, SVG Export Plug-In . SVG Version: 6.00 Build 0)  -->
<svg version="1.1" id="Layer_1" xmlns="http://www.w3.org/2000/svg" xmlns:xlink="http://www.w3.org/1999/xlink" x="0px" y="0px"
	 viewBox="0 0 68.3 80" enable-background="new 0 0 68.3 80" xml:space="preserve">
<g id="TTU_x5F_DblT_x5F_c2C_1_">
	<g id="Double_T_x5F_2C_1_">
		<path id="Black" d="M68.3,26.1h-9.7l0,14.3h-13v16.6H52v22.8H16.4V57h6.5l0-16.6H9.8V26.1H0V0h68.3V26.1z M53.5,78.6
			c0-0.7,0.5-1.2,1.2-1.2c0.6,0,1.2,0.5,1.2,1.2c0,0.7-0.5,1.2-1.2,1.2C54,79.8,53.5,79.3,53.5,78.6z M54.7,80
			c0.8,0,1.4-0.6,1.4-1.4c0-0.8-0.7-1.4-1.4-1.4c-0.8,0-1.4,0.6-1.4,1.4C53.3,79.4,53.9,80,54.7,80z M54.4,78.7h0.3l0.4,0.7h0.3
			l-0.5-0.7c0.2,0,0.4-0.2,0.4-0.5c0-0.3-0.2-0.5-0.6-0.5h-0.6v1.6h0.2V78.7z M54.4,78.5V78h0.3c0.2,0,0.4,0,0.4,0.2
			c0,0.3-0.2,0.3-0.4,0.3H54.4z"/>
		<path id="Gray_1_" fill="#8A8A8D" d="M26.4,35.3h-1.6h-3.2v3.3h-9.7l1.5-1.6H20v-3.2h11.1l-1.5,1.5H26.4z M16.6,16.8v5.9H3.7
			l-1.8,1.7h16.3v-6.1h6.7l1.6-1.6L16.6,16.8z M65.2,22.7H51.9l-1.5,1.7h16.2V1.7l-1.6,1.7V22.7z M42.4,16.7v9.4H44v-7.8h6.5
			l1.5-1.6H42.4z M42.4,71.6h-16l-1.6,1.6h19.2v-9.7h0L42.4,65h0v0V71.6z M37.6,33.9V65h0l1.6-1.5h0V35.3h3.2v24.9h6.5v0v16.4H19.7
			l-1.5,1.5h32.3V58.8H44V35.3h3.2l1.5-1.5H37.6z M55.3,37.1h-6.6l-1.5,1.6h9.6V26.1l-1.5,1.5V37.1z"/>
		<path id="Red_1_" fill="#E2231A" d="M16.8,33.9l-3.4,3.2v-9.5h41.9l-3.1,3.2H34.3H16.8V33.9z M42.4,65L42.4,65l-4.8,0l-3.3,3.2h5
			L42.4,65z M52.2,30.8l-3.4,3.1v3.2l3.4-3.2V30.8z M9.9,9.8h24.6h0h24.1l6.6-6.3H3.7v19.3l6.2-6.2V9.8z M58.6,9.8l-6.6,6.9v6
			l6.6-6.3V9.8z M26.4,16.8v9.3h8.1V9.8L26.4,16.8z M39.2,63.5h4.8v0h0v1.4l4.9-4.5v0h-6.5L39.2,63.5L39.2,63.5L39.2,63.5z M26.4,65
			v6.5l3.1-3.3h4.8V30.8l-3.2,3.1V65H26.4z M24.8,63.5h4.8V35.3h-3.2v24.9h-6.7v16.4l5.1-5.3V63.5z"/>
		<path id="White_1_" fill="#FFFFFF" d="M51.9,22.7l-1.5,1.7v-6.1l1.5-1.6V22.7z M1.8,24.4l1.8-1.7V3.4h61.5l1.6-1.7H1.8V24.4z
			 M34.5,26.1h-8.1v-9.3l-1.6,1.6v7.8H11.9v12.6l1.5-1.6v-9.5h41.9l1.5-1.5H44h-1.6H34.5z M19.7,60.2h6.7V35.3h-1.6v23.4h-6.6v19.4
			l1.5-1.5V60.2z M48.8,33.9l-1.5,1.5v3.3l1.5-1.6V33.9z M42.4,65L42.4,65l1.6-1.5l0,0v0h-4.8l0,0l0,0L37.6,65l0,0H42.4z M24.8,63.5
			v7.9v1.8l1.6-1.6V65h4.7V33.9l-1.5,1.5v28.1H24.8z"/>
	</g>
</g>
</svg>
