<?xml version="1.0" encoding="utf-8"?>
<!-- Generator: Adobe Illustrator 18.0.0, SVG Export Plug-In . SVG Version: 6.00 Build 0)  -->
<!DOCTYPE svg PUBLIC "-//W3C//DTD SVG 1.1//EN" "http://www.w3.org/Graphics/SVG/1.1/DTD/svg11.dtd">
<svg version="1.1" id="Layer_1" xmlns="http://www.w3.org/2000/svg" xmlns:xlink="http://www.w3.org/1999/xlink" x="0px" y="0px"
	 viewBox="0 0 100 100" enable-background="new 0 0 100 100" xml:space="preserve">
<g id="aAeF9w_1_">
	<g>
		<path d="M-9.1-22.4c3.3,5.9,6.6,11.7,9.8,17.6c14.7,26,27.3,52.6,42.1,78.6c1.4,2.4,2.8,4.8,4.3,7.3c1.2,1.9,2.2,1.6,4.3,0.7
			c3.3-1.3,6.6-2.9,9.8-4.5c4.6-2.3,9.2-4.8,14.2-6.2c0.6-0.2,1.2-0.3,1.8-0.4c2.5-0.4,3.8,0.1,5.1,2.4c2.5,4.5,3.7,11.1,1.4,15.8
			c-2,4-6.2,4.6-10.2,5.4c-5,1.1-10.1,1.6-15.2,1.4c-2-0.1-4.1-0.5-6-1.1c-3.9-1.1-6.6-2.7-8.5-6.3c-4.7-9-9.6-17.9-14.3-27
			C15.8,34.4,2,7.5-11.9-19.4C-12.4-20.5-10.3-21.7-9.1-22.4z"/>
	</g>
</g>
<g id="kMiWhV_1_">
	<g>
		<path d="M71.9,54.9c0.4,0.9,0,1.6-0.4,2.3c-0.5,1-0.8,2.1-0.9,3.2c-0.2,1.8-0.3,3.7-0.4,5.6c-0.8,0-1.6,0-2.4,0
			c0-0.3-0.1-0.7-0.1-1c0-1,0-2.1,0-3.1c0-1.8-0.4-3.4-1.3-4.8c-0.4-0.5-0.4-1.3-0.6-2.2c-0.2-0.1-0.7-0.2-1.2-0.4
			c-4.9-1.7-8.1-5-9.3-10.1c-2-8.5,4.2-16,12.1-16.8c7.2-0.8,13.7,3.7,15.4,10.4c1.7,6.9-2.1,14-8.9,16.3
			C73.3,54.5,72.7,54.7,71.9,54.9z M79.9,37c-1.4-4.4-7-8.5-13.4-7.1c-6.1,1.3-10,6.7-9.3,12.7C58,49,64,52.7,68,52.5
			c0.2-1,0.7-1.7,1.8-1.8c1.1-0.1,1.5,0.7,1.7,1.9c0.5-0.4,0.9-0.6,1.1-0.9c0.5-0.7,1.2-1.1,2.1-0.9c0.6,0.1,1.1-0.1,1.3-0.6
			c0.3-0.9,0.9-1.3,1.8-1.6c0.6-0.2,1.1-0.8,0.9-1.6c-0.1-0.9,0.2-1.6,1-2c0.6-0.3,0.8-0.7,0.4-1.4c-0.6-0.8-0.3-1.6,0.3-2.3
			c0.3-0.3,0.6-0.5,0.3-1c-1.4-0.2-1.7-0.3-1.9-0.9C78.3,38.3,79.1,37.6,79.9,37z"/>
		<path d="M76.4,40.5c0.7,0,1.3,0.6,1.3,1.2c0,0.9-1,1.8-1.9,1.8c-0.7,0-1.2-0.6-1.2-1.3C74.6,41.4,75.5,40.5,76.4,40.5z"/>
		<path d="M69.9,47c0.8,0,1.4,0.5,1.5,1.2c0.1,0.8-0.8,1.7-1.8,1.7c-0.8,0-1.4-0.6-1.5-1.3C68.2,47.8,69.1,47.1,69.9,47z"/>
		<path d="M76.9,44.2c0.8,0,1.3,0.5,1.3,1.2c0,0.9-0.8,1.7-1.7,1.7c-0.8,0-1.4-0.5-1.4-1.2C75.1,45,75.9,44.2,76.9,44.2z"/>
		<path d="M72.5,46.6c-0.9,0-1.4-0.5-1.4-1.3c0-0.8,0.9-1.7,1.8-1.6c0.7,0,1.3,0.6,1.3,1.2C74.3,45.7,73.4,46.6,72.5,46.6z"/>
		<path d="M75.7,48.4c0,0.8-0.8,1.7-1.8,1.7c-0.8,0-1.4-0.6-1.4-1.3c0-0.8,0.8-1.6,1.7-1.6C75.1,47.1,75.7,47.6,75.7,48.4z"/>
	</g>
</g>
</svg>
