<?xml version="1.0" encoding="utf-8"?>
<!-- Generator: Adobe Illustrator 18.1.0, SVG Export Plug-In . SVG Version: 6.00 Build 0)  -->
<svg version="1.1" id="Layer_1" xmlns="http://www.w3.org/2000/svg" xmlns:xlink="http://www.w3.org/1999/xlink" x="0px" y="0px"
	 viewBox="244.8 22.4 129.4 123.2" enable-background="new 244.8 22.4 129.4 123.2" xml:space="preserve">
<path fill="none" stroke="#000000" stroke-width="3" stroke-linejoin="round" stroke-miterlimit="10" d="M274.2,144.1l5.9-26.9
	c0,0-10.1,4.5-16.5-2.5c-5.9-6.4,0.8-15.1,0.8-15.1s-18,2.2-18.1-11.8c-0.3-13.9,13.1-18.1,13.1-18.1s-11.9-12.3,0-25.2
	c12.3-13.4,27.7,2.7,25.2,0c0,0,4.2-22.3,28.2-20.5c24,1.8,26.4,21.3,26.4,21.3s21.3-8.7,30.7,7.9s-8.4,29.1-8.4,29.1
	s11.4,10.4,1.2,24.4c-7.6,10.1-23.2,2.9-23.2,2.9s0.5,11.4-11.3,17.1c-11.8,5.7-24.9-5.9-24.9-5
	C303.4,122.5,274.2,144.1,274.2,144.1z"/>
<path d="M299.1,57.3c10.1-1.5,19.3-2.9,29.9-4.4c0,11.4-0.2,22.3,0.2,32.4c-0.2,11.1-13.6,13.9-15.5,8.4
	c-2.9-9.1,7.7-12.3,12.3-11.9c0-6.7,0-13.8,0-22.3c-7.9,1.5-15.1,2.9-24,4.5c0,8.9,0.2,17.3-0.2,25.5c-0.5,10.2-11.9,15.1-16,8.6
	c-3-4.9,4.7-13.6,13.3-11.8C299.1,77.1,299.1,67.7,299.1,57.3z"/>
</svg>
