<?xml version="1.0" encoding="utf-8"?>
<!-- Generator: Adobe Illustrator 18.1.0, SVG Export Plug-In . SVG Version: 6.00 Build 0)  -->
<svg version="1.1" id="Layer_1" xmlns="http://www.w3.org/2000/svg" xmlns:xlink="http://www.w3.org/1999/xlink" x="0px" y="0px"
	 viewBox="254.2 25.8 123.3 128.5" enable-background="new 254.2 25.8 123.3 128.5" xml:space="preserve">
<g id="Q39IZE_1_">
	<g>
		<path d="M308.8,151c2,1.3,5.9,1.3,5.4,2.9c-7.1,1.2-16-0.3-21.3-5.2c-1.7-1.2-5.2-4.2-5.2-4.2s-6-0.8-8.1-1.2
			c-6.4-0.8-8.6-3.5-10.1-9.6c-0.8-3-2.2-5.9-3.7-8.6c-1.2-2.4-1.2-4.2,1.8-6.2c-2.7-1.7-4.9-3.7-7.4-4.5c-3.5-1.3-5.2-3.2-5.7-6.9
			c-1.5-12.9,1.8-24.4,10.6-33.9c6-6.7,12.9-12.8,22-14.8c5.5-1.2,13.1-3.4,15.6-3.7c2.4-0.3,10.2-2.4,9.4-8.1
			c-0.7-5,0.3-9.9,2.7-14.4c4-8.1,16.8-8.9,22.3-2.9c1.2,1.3,2.5,2.9,3,4.5c1,2.9,2.9,4.2,5.7,5c9.2,3,17,7.4,24.7,13.3
			c2,1.5,5.9,4.7,6.4,5.4c0.7,0.7,0.7,1-0.3,0.8c-1-0.2-18.6-12.1-34.3-14.1c-2.2-0.3-3,1.8-3.9,3.9c-1.7,3.5-3.7,3.9-3.2,7.6
			c1.7,10.1-1,19-6.4,27.4c-10.6,16.3-23.5,30.1-40.2,40.3c-3.4,2-4.2,7.9-1.8,11.1c0.5,0.7,1.8,2.7,2.5,3.4
			c4.7,5.9,6.7,8.1,13.9,8.4c1.5,0,4.7,0.7,6.6,0.2c0.7-0.2,3.5,0,4,0.7c0.2,0.3-3.5,0.5-3.2,0.7c2.2,0.8,6.4,1.8,6.6,2.9
			C317.2,151,312.2,151.2,308.8,151z M283.3,138.6c-4.5-4-6.6-8.9-4.2-15.5c-2.7,0.8-4.7,1.3-6.6,2c1,3.9,1.8,7.4,2.9,10.8
			c0.2,0.8,1,1.7,1.8,1.8C279.1,138.3,281.3,138.4,283.3,138.6z"/>
	</g>
</g>
</svg>
