<?xml version="1.0" encoding="utf-8"?>
<!-- Generator: Adobe Illustrator 18.1.0, SVG Export Plug-In . SVG Version: 6.00 Build 0)  -->
<svg version="1.1" id="Layer_1" xmlns="http://www.w3.org/2000/svg" xmlns:xlink="http://www.w3.org/1999/xlink" x="0px" y="0px"
	 viewBox="260.9 29.1 110.5 109.1" enable-background="new 260.9 29.1 110.5 109.1" xml:space="preserve">
<path fill="none" stroke="#000000" stroke-width="3" stroke-miterlimit="10" d="M286,31.2c-7.1,2.5-3,8.4-1.7,12.8
	s14.4,51.1,10.2,66.5c-2.7,0.7-5.7,2.9-6.7,6.4c-1,3.4,2,14.1,9.6,8.9c8.4-5.9,17.1-10.2,35.3-11.6c7.4-0.5,15,0.8,21.8,3.4
	c4.9,1.7,11.3,4.9,14.6-1.2c3.2-6-3.2-12.6-10.4-11.8c-1.3-7.9-6.9-16-10.8-22.7c-5-8.6-10.6-17.6-17.5-24.9
	C320.2,46.7,297.9,26.9,286,31.2z"/>
<path fill="none" stroke="#000000" stroke-miterlimit="10" d="M291.2,71.1c0.3-0.3,2.7,0.5,2.7,0.5l6.2-8.9l2.5,10.9l9.2,3.7
	l-7.6,3.7l0.5,9.7l-7.2-7.2l-3.4,2.4L291.2,71.1z"/>
<polygon fill="none" stroke="#000000" stroke-miterlimit="10" points="291.2,31.6 293.2,38.3 287.1,45 296,45.5 299.2,52.6 
	303.9,44.4 313,44 306.5,39.5 305.6,35.8 301.4,33.9 298.9,34.9 "/>
<path fill="none" stroke="#000000" stroke-miterlimit="10" d="M325.9,62.3c-7.1-3-20.5,17.3-6.9,27.7c14.3,10.9,30.2-3.5,30.2-3.5
	s-0.3-2.2-0.7-2.4c-0.3-0.2-14.8,3-21.2-3.4C321.7,74.8,323.3,66.2,325.9,62.3z"/>
<path fill="none" stroke="#000000" stroke-linecap="round" stroke-miterlimit="10" d="M299.1,109.9c8.2-4.4,15.8-6.2,24.9-7.7
	c9.1-1.5,20-1.2,28.7,1.5"/>
<path stroke="#000000" stroke-linecap="round" stroke-miterlimit="10" d="M362.4,121c-20,8.1-41.7,10.1-62.3,5.9
	c-0.5-1.2-0.3-2.4,0.5-3.2c0.8-1,2-1.5,3.2-2c5.9-2.7,11.9-5.4,18.3-6.7c4.4-1,8.7-1.3,13.3-1.5c1.8,0,3.7-0.2,5.5,0
	C348.1,113.9,355.7,117.6,362.4,121z"/>
<g>
	<path d="M268.7,35.4c0,0-0.2,0.2-0.3,0.3s-0.5,0.5-0.7,0.8c-0.5,0.7-1.3,1.8-1.7,3.7c-0.5,1.7-0.5,3.9,0.3,6.2
		c0.7,2.4,2.4,4.5,4.7,6.4c2.4,1.8,5.4,3,8.7,3.7c3.4,0.7,7.1,0.7,10.8,0.8c7.6,0.2,15.8,0.2,23.9,0.3c4,0.2,8.1,0.2,12.1,0.3
		c4,0.2,7.9,0.3,11.8,0.8c3.9,0.5,7.6,1.5,10.8,2.9c3.2,1.3,6,3.4,8.2,5.7c2,2.4,3.4,5,3.7,7.6c0.3,2.5-0.2,4.7-0.8,6.4
		c-0.7,1.7-1.7,2.7-2.4,3.4c-0.3,0.3-0.7,0.5-0.8,0.7c-0.2,0.2-0.3,0.2-0.3,0.2s0.2,0,0.3-0.2c0.2-0.2,0.5-0.3,0.8-0.7
		c0.7-0.7,1.5-1.7,2.2-3.4c0.7-1.7,1-3.9,0.5-6.2c-0.3-2.4-1.7-4.9-3.7-7.1s-4.7-4-7.9-5.2c-3.2-1.3-6.7-2.2-10.4-2.5
		c-3.7-0.5-7.6-0.7-11.6-0.7c-4,0-8.1-0.2-12.1-0.2c-8.1-0.2-16.3-0.3-23.9-0.5c-3.9,0-7.6-0.3-11.1-1c-3.5-0.8-6.7-2.2-9.1-4.2
		c-2.5-2-4.2-4.4-4.9-6.9s-0.5-4.7,0-6.4s1.3-2.9,2-3.7c0.3-0.3,0.7-0.7,0.8-0.7C268.7,35.6,268.7,35.4,268.7,35.4z"/>
</g>
<g>
	<path d="M290.2,94.2c0,0-0.3,0-0.8,0c-0.7,0.2-1.3,0.3-2.4,0.8c-2,1-4.9,2.5-8.1,4.5c-3.2,2-6.7,4.9-9.2,8.7
		c-2.4,3.9-3.5,9.1-2.7,13.9c0.3,2.4,1.2,4.7,2.5,6.7c1.3,2,3.2,3.4,5.4,4.4c4.2,2,8.6,3.2,12.3,3.7c3.7,0.5,6.9,0.5,9.2,0.3
		c2.2-0.2,3.5-0.3,3.5-0.3s-0.3,0-0.8,0.2c-0.5,0.2-1.5,0.3-2.5,0.5c-2.2,0.3-5.4,0.7-9.4,0.3c-3.9-0.3-8.4-1.3-12.8-3.4
		c-2.2-1-4.5-2.7-6-4.9c-1.5-2.2-2.5-4.7-2.9-7.4c-0.8-5.2,0.3-10.8,3-15c1.3-2,3-3.9,4.7-5.2c1.7-1.5,3.5-2.5,5.2-3.5
		c3.4-1.8,6.4-3.2,8.4-4c1-0.5,1.8-0.7,2.5-0.7C289.8,94.1,290.2,94.2,290.2,94.2z"/>
</g>
<g>
	<path d="M263.6,129.2c0,0-0.5-0.7-1-2c-0.5-1.3-1.3-3.2-1.5-5.7c-0.2-1.2-0.2-2.5-0.2-4c0-0.7,0.2-1.5,0.2-2.2
		c0.2-0.8,0.3-1.5,0.5-2.2c0.8-3,2.2-6,4.2-8.7c2-2.7,4.4-5,6.7-6.9c2.5-1.8,5-3.2,7.2-4.2c2.2-1,4.2-1.7,5.5-2.2s2.2-0.7,2.2-0.7
		s-0.7,0.3-2,1c-1.3,0.5-3,1.5-5.2,2.7c-2,1.2-4.4,2.7-6.7,4.5c-2.4,1.8-4.5,4-6.4,6.7c-1.8,2.5-3.2,5.4-4,8.2
		c-0.2,0.7-0.3,1.3-0.5,2c-0.2,0.7-0.3,1.3-0.3,2c-0.2,1.3-0.2,2.7-0.2,3.9c0.2,2.4,0.5,4.4,0.8,5.7S263.6,129.2,263.6,129.2z"/>
</g>
<g>
	<path d="M279.9,132.2c0,0-0.2,0-0.5,0s-0.7-0.2-1.3-0.2c-1-0.3-2.7-1-4-2.2c-1.5-1.3-2.9-3.2-3.7-5.7c0-0.3-0.2-0.7-0.3-1
		c0-0.3-0.2-0.5-0.2-0.8c-0.2-0.7-0.2-1.3-0.2-2c0-1.3,0.2-2.7,0.5-3.9c0.7-2.5,1.8-5,3.4-6.9c1.5-2,3.2-3.4,4.9-4.5
		c1.5-1.2,3-1.8,4-2.4c1-0.5,1.7-0.7,1.7-0.7s-0.5,0.3-1.5,1c-0.8,0.7-2.2,1.5-3.5,2.9c-1.3,1.2-2.9,2.9-4.2,4.7
		c-1.5,1.5-2.5,3.7-3.2,6c-0.3,1.2-0.5,2.4-0.5,3.5c0,0.5,0,1.2,0.2,1.7c0,0.3,0,0.5,0.2,0.8c0,0.3,0.2,0.5,0.2,0.8
		c0.5,2.2,1.7,4,2.9,5.4c1.2,1.3,2.5,2.2,3.5,2.7C279.2,132,279.9,132.2,279.9,132.2z"/>
</g>
<g>
	<path d="M343.2,64.5c0,0,0.5,0,1.2,0c0.8,0.2,1.8,0.2,3.2,0.7c1.3,0.3,2.9,0.8,4.4,1.7c0.8,0.3,1.5,0.8,2.2,1.3s1.3,1.2,2,1.8
		c1.2,1.3,2,3.2,2.5,4.9c0.3,1.7,0.2,3.5-0.5,4.7c-0.7,1.3-1.5,2-2.2,2.5c-0.3,0.2-0.7,0.3-0.8,0.3s-0.3,0-0.3,0s0.5,0,1-0.5
		s1.2-1.3,1.7-2.5c0.2-0.5,0.3-1.3,0.3-2c0-0.7-0.2-1.5-0.3-2.2c-0.3-1.5-1.2-3-2.4-4.4c-0.5-0.7-1.2-1.3-1.8-1.8
		c-0.7-0.5-1.3-1-2-1.3c-1.3-0.8-2.9-1.5-4-2c-1.2-0.5-2.4-0.8-3-1C343.6,64.7,343.2,64.5,343.2,64.5z"/>
</g>
<g>
	<path d="M268.5,38.1c0,0,0,0.3-0.2,0.8c-0.2,0.5-0.2,1.3-0.2,2.2c0,1,0.2,2,0.3,3c0.3,1.2,0.7,2.2,1.3,3.2c0.7,1,1.5,1.8,2.4,2.7
		c0.8,0.7,1.8,1.3,2.7,1.7c0.8,0.3,1.5,0.7,2.2,0.7c0.5,0.2,0.8,0.2,0.8,0.2s-0.3,0-0.8,0s-1.3-0.2-2.2-0.5c-0.8-0.3-2-0.8-2.9-1.5
		c-0.5-0.3-1-0.8-1.3-1.2c-0.5-0.5-0.8-1-1.2-1.5c-0.7-1.2-1.2-2.4-1.3-3.5S268,42,268,41c0.2-1,0.3-1.7,0.5-2.2
		C268.3,38.5,268.5,38.1,268.5,38.1z"/>
</g>
<g>
	<path d="M268.7,56.6l-0.3,0.8l-0.8-0.5l0.3,0.8L267,58l0.8,0.5l-0.7,0.7L268,59v0.8l0.5-0.7l0.5,0.7V59l0.8,0.2l-0.7-0.7L270,58
		l-0.8-0.2l0.3-0.8l-0.8,0.5V56.6L268.7,56.6z M269.7,57L269.7,57L269.7,57z"/>
</g>
<g>
	<path d="M280.6,53.1v0.3l-0.2-0.2l0.2,0.2h-0.3l0.2,0.2l-0.3,0.2h0.3v0.3l0.2-0.2l0.2,0.2v-0.3h0.3l-0.2-0.2l0.2-0.2h-0.3l0.2-0.2
		l-0.2,0.2L280.6,53.1L280.6,53.1z M280.8,53.1L280.8,53.1L280.8,53.1z"/>
</g>
<g>
	<polygon points="272.9,43 272.9,43.7 272.5,44 273,44.2 273.2,44.7 273.5,44.2 274,44.2 273.7,43.7 273.9,43.2 273.4,43.3 	"/>
</g>
<g>
	<polygon points="288,97.1 288,98.1 287.1,98.8 288.1,99.1 288.5,100 289,99.3 290,99.3 289.5,98.4 289.8,97.4 288.8,97.8 	"/>
</g>
<g>
	<polygon points="264.1,131.5 264.1,132.6 263.3,133.2 264.3,133.6 264.6,134.6 265.3,133.7 266.3,133.7 265.6,132.9 266,131.9 
		265,132.2 	"/>
</g>
<g>
	<polygon points="294.7,133.1 294.7,134.1 293.9,134.7 294.9,135.1 295,136.1 295.7,135.2 296.7,135.2 296,134.4 296.4,133.4 
		295.5,133.7 	"/>
</g>
<g>
	<polygon points="352.5,71.2 352.5,71.9 352.2,72.2 352.7,72.4 352.8,72.9 353.2,72.4 353.7,72.4 353.3,71.9 353.5,71.4 353,71.6 	
		"/>
</g>
<g>
	<polygon points="281.4,53.8 281.4,54.4 280.9,54.8 281.6,54.9 281.8,55.4 282.1,54.9 282.6,54.9 282.3,54.6 282.4,53.9 281.9,54.3 
			"/>
</g>
<g>
	<polygon points="270.2,55.4 270.2,56.1 269.7,56.4 270.3,56.6 270.5,57.1 270.8,56.6 271.3,56.6 271,56.3 271.2,55.6 270.7,55.9 	
		"/>
</g>
<g>
	<polygon points="271.7,58.3 271.3,59 270.7,59.1 271.2,59.6 271.2,60.3 271.7,60 272.4,60.3 272.2,59.5 272.7,59 272,59 	"/>
</g>
<g>
	<polygon points="277.7,119.4 277.1,120.6 276,119.8 276.4,121.1 275,121.1 276,122 275,122.8 276.4,122.8 276,124.2 277.1,123.1 
		277.7,124.3 277.9,123 279.2,123.5 278.6,122.3 279.9,122 278.6,121.5 279.2,120.3 277.9,120.8 	"/>
</g>
<g>
	<polygon points="282.1,121 281.4,121.6 280.6,121.5 280.9,122.1 280.4,123 281.3,122.8 281.8,123.5 282.1,122.6 282.9,122.3 
		282.1,122 	"/>
</g>
<g>
	<polygon points="278.2,125 278.2,126.2 277.4,126.8 278.4,127.2 278.7,128.2 279.4,127.3 280.6,127.3 279.9,126.5 280.2,125.3 
		279.2,125.7 	"/>
</g>
<g>
	<path d="M354.5,76.6v0.8l-1-0.2L354,78l-0.8,0.3l0.8,0.2l-0.5,0.8l0.8-0.3l0.2,0.8l0.3-0.8l0.7,0.5l-0.2-0.8h0.8l-0.5-0.3l0.7-0.7
		l-0.8,0.2l0.2-0.8l-0.7,0.7L354.5,76.6L354.5,76.6z M355.7,76.8L355.7,76.8L355.7,76.8z"/>
</g>
<g>
	<path d="M354,80.1v0.5l-0.5,0.3l0.5,0.2l0.2,0.5l0.3-0.5h0.5l-0.3-0.5l0.2-0.5l-0.3,0.5L354,80.1L354,80.1z M355,80.5L355,80.5
		L355,80.5z"/>
</g>
<g>
	<polygon points="351.6,78 351.3,78.6 350.6,78.6 351.1,79.1 351.1,80 351.8,79.6 352.5,80 352.3,79.1 352.8,78.6 352,78.6 	"/>
</g>
</svg>
