<?xml version="1.0" encoding="utf-8"?>
<!-- Generator: Adobe Illustrator 18.1.0, SVG Export Plug-In . SVG Version: 6.00 Build 0)  -->
<svg version="1.1" id="Layer_1" xmlns="http://www.w3.org/2000/svg" xmlns:xlink="http://www.w3.org/1999/xlink" x="0px" y="0px"
	 viewBox="264.8 40.7 90 90.1" enable-background="new 264.8 40.7 90 90.1" xml:space="preserve">
<path fill="none" stroke="#000000" stroke-width="3" stroke-miterlimit="10" d="M285.1,110.4c-5.2-0.3-11.6-2.5-15-6.4
	c-8.1-9.4-2.7-22.5,9.7-25.7c12.3-3,24.4-1.2,36.6,0.8c2.4,12.4,4.4,24.7,1,36.8c-3.4,12.4-16.6,17.5-25.9,9.4
	C287.8,122.3,285.5,115.8,285.1,110.4z"/>
<g id="yB4wz9_1_">
	<g>
		<g>
			<path d="M329.3,46.7c0.2,0,0.3,0,0.5,0.3c0,0,0.2,0.2,0.2,0.3c0,0.2,0,0.2,0,0.3c0,0.3,0,0.7,0,1v1.8c0,1.5-0.2,3.2-0.2,4.7
				c0,2.7-0.8,4.7-1.5,5.7c-2.2,3.2-4.4,4.9-7.2,5.7c-1,0.3-2.2,0.5-3.2,0.5c-1.2,0-2.4-0.2-3.4-0.8c-2-1-3.2-2.4-3.9-4.5
				c-0.7-2.4-0.3-4.5,0.8-7.1c1.3-2.7,3.5-4.7,6.6-6c1-0.5,2.2-0.7,3.5-0.8l0.8-0.2c1.2-0.2,2.4-0.5,3.5-0.7c1-0.2,2-0.3,3.2-0.5
				C329.1,46.7,329.3,46.7,329.3,46.7 M329.3,41.7c-0.3,0-0.7,0-1.2,0.2c-2.2,0.3-4.4,0.8-6.6,1.2c-1.8,0.3-3.9,0.5-5.5,1.3
				c-3.9,1.7-6.9,4.5-8.9,8.4c-1.7,3.4-2.4,6.9-1.3,10.6c1,3.5,3.2,6.2,6.6,7.7c1.8,0.8,3.7,1.2,5.5,1.2c1.5,0,3-0.3,4.5-0.7
				c3.9-1.2,7.1-3.5,9.9-7.7c1.3-2,2.4-5,2.5-8.4c0-2.2,0.2-4.4,0.2-6.6c0-0.8,0.2-1.5,0-2.2c-0.2-1.2-0.8-2.4-1.8-3.4
				C332.2,42.2,330.8,41.7,329.3,41.7L329.3,41.7z"/>
		</g>
		<g>
			<path d="M297.2,45.7c0.3,0,0.5,0.3,0.5,0.5s0,0.5,0,0.8c0,0.5-0.2,1.2,0,1.8c0,1.5,0.2,2.9,0.2,4.2c0.2,1.5,0,2.7-0.3,3.7
				c-0.2,0.7-0.5,1.2-0.7,1.8c0,0.2,0,0.2-0.2,0.3c-1.8,2.9-4,4.7-6.9,5.7c-1.2,0.3-2.4,0.7-3.5,0.7c-1,0-1.8-0.2-2.7-0.5
				c-2-0.7-3.4-1.8-4.2-3.9c-0.8-1.8-0.8-3.9,0-6c1-2.7,2.7-4.7,5.4-6.4c1.5-0.8,3.2-1.3,5.7-1.7c1.8-0.2,3.5-0.5,5-0.8
				c0.3,0,0.5-0.2,0.8-0.2C296.9,45.9,297,45.9,297.2,45.7 M297.2,40.7c-1,0-1.8,0.3-2.7,0.5c-1.5,0.3-2.9,0.7-4.4,0.7
				c-2.7,0.3-5.4,0.8-7.7,2.4c-3.5,2.2-6,5-7.6,8.9c-1.2,3.2-1.3,6.4,0,9.6c1.3,3.4,3.9,5.5,7.2,6.7c1.5,0.5,2.9,0.7,4.4,0.7
				c1.7,0,3.4-0.3,5-0.8c4-1.5,7.2-4,9.6-8.1c0.3-0.7,0.7-1.7,1.2-2.7c0.7-1.8,0.8-3.9,0.7-5.7c-0.2-1.3-0.2-2.7-0.2-4
				c0-1,0.2-2,0.2-2.9c-0.2-2.9-2.5-4.9-5.4-5.2C297.4,40.7,297.4,40.7,297.2,40.7L297.2,40.7z"/>
		</g>
		<g>
			<path d="M348,99.6c0.2,0,0.3,0.2,0.5,0.3s0.2,0.7,0.2,0.8c-0.7,1.3-0.8,2.5-1.2,3.7c-0.2,0.3-0.2,0.7-0.3,1
				c-0.2,0.7-0.3,1.3-0.5,2.2c-0.3,1.3-0.7,2.7-1.2,4c-0.2,0.5-0.5,1.2-0.8,1.8l-0.3,0.7c-0.7,1-1.3,1.8-2.2,2.5
				c-1,0.8-1.8,1.3-2.7,1.7c-0.2,0-0.7,0.2-1,0.3c-0.3,0-0.7,0.2-1,0.3c-0.5,0.2-1.2,0.2-1.7,0.2c-0.8,0-1.7-0.2-2.5-0.5
				c-1.3-0.5-2.4-1.3-3-2.7c-1.3-2.5-1.3-5,0-8.1c0.8-2,2.2-3.7,4.2-4.9c0.8-0.5,1.8-1,3-1.3c1.3-0.3,2.9-0.7,4.4-0.8
				c1-0.2,2.2-0.3,3.2-0.5c0.7-0.2,1.3-0.3,1.8-0.5c0.3-0.2,0.7-0.2,1-0.3C348,99.6,348,99.6,348,99.6 M348,94.6
				c-0.3,0-0.8,0-1.2,0.2c-1,0.2-1.8,0.5-2.9,0.7c-2.7,0.5-5.5,0.7-8.2,1.5c-1.5,0.5-3,1.2-4.4,2c-2.7,1.8-4.7,4.2-5.9,7.1
				c-1.8,4.2-2,8.2,0,12.4c1.2,2.4,3.2,4,5.7,5c1.5,0.5,2.9,0.8,4.4,0.8c1,0,2-0.2,3-0.3c1-0.3,2-0.5,3-0.8c1.2-0.7,2.4-1.3,3.4-2.2
				c1.3-1,2.5-2.4,3.4-3.9h0.2c0.5-1.2,1.2-2.5,1.7-3.7c0.7-2,1.2-4.2,1.8-6.4c0.3-1.3,0.7-2.9,1.2-4.2c1-2,0.2-5.2-1.3-6.6
				C350.6,95.1,349.5,94.6,348,94.6L348,94.6z"/>
		</g>
		<g>
			<path d="M349.5,68.5c0.2,0,0.2,0,0.3,0.2c0.3,0.3,0.3,0.3,0.2,1.3c-0.5,1.7-0.7,3.5-0.7,5.7c0,2-0.3,3.5-0.8,4.9
				c-0.3,0.5-0.5,1-0.8,1.5v0.2c-1.8,2.5-3.7,3.9-6,4.7c-1.2,0.3-2.2,0.5-3.2,0.5s-2.2-0.2-3.2-0.7c-1.7-0.8-2.7-2-3.4-3.7
				c-0.7-2.2-0.5-4.4,0.5-6.7c1-2.2,2.7-4,5-5.4c1.5-0.8,3.4-1.3,5.7-1.3c1.8-0.2,3.7-0.5,5.2-0.8l0.5-0.2
				C349.1,68.5,349.3,68.5,349.5,68.5 M349.5,63.5c-0.7,0-1.3,0.2-2,0.3c-1.5,0.3-3,0.8-4.7,0.8c-2.9,0.2-5.5,0.7-7.9,2
				c-3.2,1.8-5.5,4.2-7.2,7.6c-1.5,3.4-2,6.9-0.8,10.4c1,3,3,5.4,6,6.7c1.7,0.8,3.4,1.2,5.2,1.2c1.5,0,3.2-0.3,4.7-0.8
				c3.5-1.2,6.4-3.4,8.7-6.9c0.2-0.5,0.7-1.2,1-2c1.2-2.2,1.5-4.5,1.5-7.1c0-1.5,0.2-3,0.5-4.4c0.7-2.5,0.5-4.5-1.5-6.4
				C352.2,64,350.8,63.5,349.5,63.5L349.5,63.5z"/>
		</g>
	</g>
</g>
</svg>
