<?xml version="1.0" encoding="utf-8"?>
<!-- Generator: Adobe Illustrator 18.1.0, SVG Export Plug-In . SVG Version: 6.00 Build 0)  -->
<svg version="1.1" id="Layer_1" xmlns="http://www.w3.org/2000/svg" xmlns:xlink="http://www.w3.org/1999/xlink" x="0px" y="0px"
	 viewBox="260.9 30.1 106.5 112" enable-background="new 260.9 30.1 106.5 112" xml:space="preserve">
<g id="BH4lYE_1_">
	<g>
		<path d="M288.1,129c-5.9-6-12.1-12.1-18.1-18.1c21-21,42.2-42.2,63.3-63.3c0.7,0.8,1.5,1.7,2.4,2.7c-20,19.7-40,39.6-60,59.8
			c1,0.8,1.8,1.7,2.7,2.5c19.8-19.8,39.8-39.8,59.8-59.8c4.5,4.5,8.9,8.9,13.1,13.1C330.3,86.9,309.3,108,288.1,129z"/>
		<path d="M307,67.9c-4.2,4.2-8.2,8.2-12.6,12.6c-1.3-1.3-2.7-2.9-4-4.4c-7.6-8.2-15.3-16.6-22.8-24.9c-3-3.4-4.5-7.2-4.4-11.8
			c0.2-6.7,6.2-10.8,12.9-8.9c3.7,1,6.7,3.2,9.1,6.4c7.2,10.2,14.4,20.5,21.5,30.6C306.8,67.5,307,67.7,307,67.9z M272.7,32.9
			c2.9,2,5.9,4.2,7.4,7.6c1-0.8,2-1.8,3.2-2.7C280.6,34.1,276.9,32.8,272.7,32.9z"/>
		<path d="M355,63c-6.4-6.4-12.4-12.4-18.8-18.8c2.5-2.4,5-5,7.7-7.2c2.9-2.2,7.2-2.4,10.2,1c2.2,2.5,4.5,4.9,7.1,7.1
			c3.2,2.9,3,7.2,1,10.2c-1.3,1.8-3,3.4-4.5,4.9C356.9,61,355.8,62,355,63z"/>
		<path d="M367.4,140.3c-0.8,0.3-1.7,0.7-2.5,0.8c-8.7,1.8-17.3,1.3-25.7-3.4c-1-0.7-2.2-1.5-3-2.5c-1.8-2.2-3.2-5-2.4-8.2
			c1.7-6.6,9.6-10.9,14.3-9.6c3,0.8,4,2.5,5,6.6c0.7,2.7,1.3,5.5,2,8.2c1.3,4.7,3.9,6.7,7.2,7.1c1.3,0.2,2.7,0.2,4,0.3
			c0.3,0,0.7,0.2,1,0.3C367.4,139.9,367.4,140.1,367.4,140.3z"/>
		<path d="M285.1,132.2c-7.9,2-16,4-24.2,6c2-8.2,4-16.3,6-24.2C273,120,279.1,126,285.1,132.2z"/>
		<path d="M317.7,105.7c3-3,6-6.2,9.2-9.4c1.2,1.7,2.4,3.4,3.7,5c2.9,3.9,5.7,7.9,8.6,11.8c1.3,1.8,1.3,2.5-0.5,3.9
			c-1.5,1.3-3.2,2.7-4.9,4c-1.2,1-1.8,0.8-2.9-0.3C326.6,115.8,322.1,110.5,317.7,105.7z"/>
	</g>
</g>
</svg>
