<?xml version="1.0" encoding="utf-8"?>
<!-- Generator: Adobe Illustrator 18.0.0, SVG Export Plug-In . SVG Version: 6.00 Build 0)  -->
<!DOCTYPE svg PUBLIC "-//W3C//DTD SVG 1.1//EN" "http://www.w3.org/Graphics/SVG/1.1/DTD/svg11.dtd">
<svg version="1.1" id="Layer_1" xmlns="http://www.w3.org/2000/svg" xmlns:xlink="http://www.w3.org/1999/xlink" x="0px" y="0px"
	 viewBox="0 0 100 100" enable-background="new 0 0 100 100" xml:space="preserve">
<g id="_x31_oSSUt_1_">
	<g>
		<path d="M78.3,44.3c0.8,0.3,1,1.7,1,3c0.2,5.5-1.6,9.3-4.7,14.3c-0.8,1.3-1.9,2.2-2.3,3.7c-1.3,6.4-3.7,15.2-5.5,21.4
			c-2.2,6.5-8.9,7.9-17.2,8c-8.4,0.1-16.6-1.2-18.1-6.4c-0.8-2.6-2.3-8.3-4.3-14.3c-0.5-1.5-1.8-6.3-2.3-7.9c-1-3.3-1.1-2.6-3.2-5.9
			c-2.6-4.2-4-8-3.8-13c0-0.5,0-2.6,0.7-3.3c1-1,1.9,0.9,1.9,0.1c0-1.7-0.2-5.4-0.3-7.1c-0.3-8.5,2.2-16,8.7-21.9
			c8.8-7.9,19.2-9.8,30.4-5.6c10.6,4,17.5,14,17.5,24.8c0,2.8-0.1,7.4-0.1,10.2C77,44.4,77.6,43.9,78.3,44.3z M50.7,48.4
			c1.8,3.9,2.4,4.1,7,3.8c1.9-0.2,5.1-1.2,7.6-1.5c3.2-0.4,6,0.9,6.2,2.7c0.7-0.3,0.9-0.2,0.9-0.7c0.4-5.9,1.1-12.6,1.2-18.5
			c0.1-12.4-9.9-22.5-23.1-23.8c-12-1.2-24.3,7.1-26.3,18.7c-1.1,6.7,0,13.8,0.2,20.7c0,1.2,0.4,2.4,0.6,3.6c0.2,0.3,1.3,0.2,1.4,0
			c1.2-2.9,3.8-2.8,6.5-2.6c2.9,0.2,5.8,0.9,8.6,1.5c2,0.4,4-0.9,5.3-3.5c0.2,1.4,0.3,2.3,0.5,3.4c1.1-0.1,2-0.1,2.9-0.1
			C50.3,51,50.4,50.2,50.7,48.4z M70.7,61.7c-1.6,2-7.7,2.3-11.1,2.4c-5.8,0.1-7.8-1.7-8.1-7.2c-0.1-1.6-0.9-2-2.4-2.1
			c-2.4-0.1-3.2,0.4-3.3,3c-0.2,3.4-2.4,5.7-5.3,5.8c-4.6,0.2-11.5,1-14.2-2c1.5,5.5,3.4,12.1,4.9,17.5c0.3,1.1,1.4,4.6,1.7,4.5
			c0.3-3.5-0.6-9.1-0.9-11.3c-0.1-0.8,0.6-0.2,0.6,0c0.4,2.4,0.8,6.8,1.2,9.2c1.4-2.3,1.6-6.7,3.3-8.2c1.6-1.5,4.3-0.6,6.5-1.3
			c-0.8-0.7-1.9-1.5-2.9-2.3c0.1-0.5,0.2-0.9,0.3-1.4c5.1,3.5,10.3,2.7,15.5,0.4c0.1,0.3,0.1,0.7,0.2,1c-1,0.8-2,1.6-3,2.5
			c7.1-1.4,7.9,4.4,9.8,8.7c0.3-3.5,1.2-6.9,2-9.3c0.1-0.3,0.8-0.4,0.6,0.1c-1.2,3.5-2.2,10.2-2.2,11.8c0.8,0.6,3-6.4,3.3-7.9
			C68.7,70.7,69.6,66,70.7,61.7z M40.1,61.8c2.6-0.4,3-2.3,3.4-3.7c0.3-1,0.4-1.9,0.3-3.1c-0.2-0.4-4.4-0.6-8.4-0.7
			c-3.4-0.1-6.5-0.4-7.1,1c-1.2,2.9,0.3,6.6,3.7,6.7C33,62.1,38.4,62.1,40.1,61.8z M60.8,62.2c1.3,0,3.5-0.1,4.7-0.2
			c2.6-0.2,3.7-1.8,4-3c0.4-1.7-0.4-3.9-1-4.2c-1.6-0.5-7.1-0.3-7.1-0.3s-6.5-0.4-7.3,0.7c-1.6,2.3,0,6.7,2.9,6.9
			C58.2,62.2,59.5,62.1,60.8,62.2z M42.4,86.6c1.3-2.9,1.5-6.3,6.8-6.3c5.2,0,5.5,3.3,6.8,6.4c0.5,1,2.7,0.4,3.1,0.1
			c1.3-1,1.8-2.3,1-4.6c-0.7-2.1-1.7-3.6-4.5-3.4c-4.6,0.2-9.2,0-13.8,0.1c-1,0-2.4,0.8-2.9,1.6c-0.8,1.2-1.3,2.9-1.2,4.2
			C38,86.5,41.7,87.8,42.4,86.6z"/>
		<path fill="none" stroke="#000000" stroke-linecap="round" stroke-miterlimit="10" d="M27.1,47.6c0.2-0.2,0.4-0.3,0.6-0.5
			c1.8-1.3,4.5-1.1,6.7-0.3c2.2,0.7,4.3,1.8,6.6,1.9"/>
		<path fill="none" stroke="#000000" stroke-linecap="round" stroke-miterlimit="10" d="M54.7,48.7c0.2,0,0.3,0.1,0.5,0.1
			c1.8,0.4,3.6-0.2,5.3-1c1.7-0.7,3.3-1.6,5.1-1.9c1.7-0.2,3.4,0.1,4.9,0.9"/>
		<path fill="none" stroke="#000000" stroke-linecap="round" stroke-miterlimit="10" d="M28.2,44.1c4.5-2.7,9.2-2.5,14.1-0.5
			c2.8,1.1,5.6,3,8.5,2.5c1.3-0.2,2.5-0.9,3.8-1.5c4.3-1.9,10.3-2.8,15-1.2"/>
		<ellipse cx="60.1" cy="54" rx="2.1" ry="2.1"/>
		<ellipse cx="38.3" cy="54" rx="2.1" ry="2.1"/>
	</g>
</g>
</svg>
