<?xml version="1.0" encoding="utf-8"?>
<!-- Generator: Adobe Illustrator 18.1.0, SVG Export Plug-In . SVG Version: 6.00 Build 0)  -->
<svg version="1.1" id="Layer_1" xmlns="http://www.w3.org/2000/svg" xmlns:xlink="http://www.w3.org/1999/xlink" x="0px" y="0px"
	 viewBox="248 20.5 126.1 126.7" enable-background="new 248 20.5 126.1 126.7" xml:space="preserve">
<g>
	<path d="M253.2,70.7c4.7,0,9.4,0,14.1,0h7.9h1.3c-6.4,16.3-0.2,33.3,10.6,42.2c6.7,5.5,15.1,8.7,23.9,8.7c8.1,0,15.8-2.5,22.3-7.4
		c3.9-2.9,7.1-6.4,9.6-10.6c2.5-4,4-8.6,4.9-13.4c0.7-4.7,0.5-9.4-0.5-14.1c-0.5-1.8-1-3.5-1.7-5.4h2.4h6.2c5,0,9.9,0,15,0
		c0,9.6,0,19.3,0,28.9c0,7.7,0,15.3,0,23c0,9.9-7.7,18.5-17.6,19.5c-1,0.2-2,0.2-3,0.2c-16.1,0-32.3,0-48.2,0h-27.4
		c-9.9,0-18.6-7.7-19.5-17.8c-0.2-1.2-0.2-2.4-0.2-3.4c0-5.9,0-11.8,0-17.6C253.2,92.6,253.2,81.6,253.2,70.7 M249.8,65.5
		c-1.5,0-1.8,0.5-1.8,1.8c0,17.8,0,35.8,0,53.6c0,1.3,0,2.5,0.2,3.9c1.2,12.6,11.9,22.3,24.5,22.3c9.1,0,18.3,0,27.4,0
		c16.1,0,32.3,0,48.2,0c1.2,0,2.4,0,3.5-0.2c12.4-1.3,22-12.1,22.2-24.5c0-18.3,0-36.8,0-55.1c0-1.3-0.3-1.8-1.7-1.8l0,0
		c-6,0-12.1,0-18.3,0c-4.2,0-8.2,0-12.4,0c-1,0-1.8,0-2.9,0c-0.5,0-1,0-1.7,0.2c2.5,3.7,4.2,7.4,5.2,11.4s1.2,8.1,0.5,12.3
		c-0.7,4.2-2,8.1-4.2,11.6c-2.2,3.5-4.9,6.7-8.2,9.2c-5.9,4.4-12.6,6.4-19.3,6.4c-7.4,0-14.8-2.5-20.7-7.6
		c-11.1-9.2-16.1-27.6-5.5-43.3h-1.7c-5.4,0-10.6,0-16,0C261.4,65.7,255.7,65.7,249.8,65.5L249.8,65.5L249.8,65.5z"/>
</g>
<path d="M248.2,61.8c0-4.4,0-8.6,0-12.8c0-2.9,0-5.9,0.7-8.7c1.2-6.2,4.5-11.3,9.9-15.3v26.7h5v-1.7c0-8.6,0-17,0-25.5
	c0-2.5,0-2.5,2.4-3.2c0.3-0.2,0.8-0.2,1.3-0.2v30.4h5V20.5h3.5v31.1h5V20.5h1.8c22.2,0,44.5,0,66.7,0c12.3,0,23.4,9.9,24.2,22.2
	c0.5,6.2,0,12.6,0,19.2c-0.3,0-0.8,0-1.3,0c-12.4,0-24.9,0-37.3,0c-0.7,0-1.5-0.3-2-0.7C320.6,49.4,301.6,49.4,289,61
	c-0.5,0.5-1.2,0.8-1.8,0.8c-12.8,0-25.5,0-38.3,0C248.8,61.8,248.5,61.8,248.2,61.8z M341.4,41.7c0,2.4,0,4.5,0,6.9c0,2.4,1.7,4,4,4
	c4.5,0,8.9,0,13.4,0c2.4,0,3.9-1.7,3.9-4c0-4.5,0-9.1,0-13.4c0-2.4-1.5-4-3.9-4c-4.5,0-9.1,0-13.4,0c-2.4,0-3.9,1.7-3.9,3.9
	C341.4,37.3,341.4,39.5,341.4,41.7"/>
<path d="M311.2,109.2c-13.8,0-24.9-11.1-25-24.9c0-13.8,11.3-25,25-25c13.6,0,24.9,11.3,24.9,24.9C336,98.3,324.9,109.2,311.2,109.2
	"/>
<path d="M311.2,66.2c-10.1,0-18.3,8.2-18.3,18.3s8.2,18.3,18.3,18.3s18.3-8.2,18.3-18.3C329.5,74.3,321.2,66.2,311.2,66.2"/>
</svg>
