<?xml version="1.0" encoding="utf-8"?>
<!-- Generator: Adobe Illustrator 18.1.0, SVG Export Plug-In . SVG Version: 6.00 Build 0)  -->
<svg version="1.1" id="Layer_1" xmlns="http://www.w3.org/2000/svg" xmlns:xlink="http://www.w3.org/1999/xlink" x="0px" y="0px"
	 viewBox="268.3 32.1 87.9 102.7" enable-background="new 268.3 32.1 87.9 102.7" xml:space="preserve">
<g id="jxpGcg_1_">
	<g>
		<path d="M312.3,108c-8.2-7.6-16.5-14.8-22.3-24.4c-4.7-7.7-7.2-16-5.9-25.4c2.7-18.1,17.6-29.2,34.3-25.5
			c15.8,3.5,25.5,20.8,21.3,38c-2.2,8.9-6.9,16.3-12.8,22.7C322.4,98.4,317.4,103,312.3,108z M331.7,62.8
			c0.2-10.9-8.6-19.8-19.5-19.8c-10.6-0.2-19.8,9.1-19.7,19.8c0,10.6,8.6,19.2,19.2,19.3C322.9,82.2,331.7,73.8,331.7,62.8z"/>
		<path d="M288.3,91.1c1,1.2,1.3,1.8,2.4,3.2c0.3,0.5,0,1.3-0.2,2.2c-0.8,3.2-1.3,6.4-2,10.6c2.9-0.8,4.7-1.5,7.2-2.4
			c5.2,3.2,10.8,6.4,16.6,9.9c6.2-3.9,12.3-7.6,18.6-11.4c4.4,2.2,15.1,7.4,15.1,7.4l-4.4-17.6l-4.9-2.9l2.4-3.4l6.2,4l10.8,43.2
			c0,0-16.6-7.4-25.4-10.8c-5.9,2.9-12.1,6.2-18.6,9.7c-5.9-3.2-12.1-6.6-18.5-9.9c-7.9,3.7-25.4,11.8-25.4,11.8s8.6-37.1,10.4-44.5
			c1.8-1.2,4-2.5,6.6-4.2c1.2,1.8,1.3,2.2,2.4,3.7c-1.7,1-3.4,2-4.9,2.9c-0.3,1-3.2,13.4-4.7,19.3c2.5-1.2,4-1.8,6-3
			C284.3,108,287.1,96.3,288.3,91.1z M295.5,109.2c-3.4,1.3-7.2,3.2-7.2,3.2l-1.2,7.6c0,0,4.7-1.5,6.9-2.2
			c6.2,3.2,12.3,6.6,18.3,9.7c2.9-1.7,5.2-3.2,7.9-4.9c-0.2-2.4-0.3-4.7-0.5-7.6c-3.2,1.7-5.5,3-7.9,4.2
			C306.1,115.8,300.6,112.4,295.5,109.2z M346.6,115.4c-5.4-2.9-10.4-5.4-15.6-8.1c-2.4,1.7-5.2,3.9-7.2,5.2c0,2.7,0.5,8.1,0.5,8.1
			l6.9-3.5c0,0,13.8,7.2,18.1,9.2C348.3,121.8,347.6,118.8,346.6,115.4z M275,125.8l5.7-2.9l1.5-6.6l-5.5,2.4L275,125.8z"/>
	</g>
</g>
</svg>
