<?xml version="1.0" encoding="utf-8"?>
<!-- Generator: Adobe Illustrator 18.1.0, SVG Export Plug-In . SVG Version: 6.00 Build 0)  -->
<svg version="1.1" id="Layer_1" xmlns="http://www.w3.org/2000/svg" xmlns:xlink="http://www.w3.org/1999/xlink" x="0px" y="0px"
	 viewBox="233.5 6.3 155.5 155.6" enable-background="new 233.5 6.3 155.5 155.6" xml:space="preserve">
<g id="EHTONW_1_">
	<g>
		<path d="M272.7,129.9c2,3.7,1.8,5.2-1.3,8.2c-7.4,7.4-14.8,14.6-22,22c-1.7,1.7-3.4,2.2-5.5,1.5c-5.2-1.5-8.6-4.9-10.1-10.1
			c-0.5-2,0-3.7,1.5-5.4c7.4-7.4,14.8-14.8,22.2-22.2c3-3,4.5-3.4,8.2-1.3c5.5-4,8.1-9.9,9.2-16.5c1.3-7.2,1.7-14.4,1.3-21.8
			c-0.2-3-0.2-6.2-0.3-9.2c0-0.8,0.2-1.8,0.3-2.5c3.9,0.5,7.7,1,11.6,1.5c0,1.7,0,3.5,0,5.2c0.3,13.4,11.6,26,25,27.9
			c6.9,1,13.3-0.3,19.5-3c9.6-4,17.5-10.4,24.7-17.8c6.2-6.2,11.8-13.1,15.5-21.2c3.4-7.2,5.4-14.6,3.9-22.7
			c-1.5-8.6-6.2-15.1-13.3-19.7c-8.7-5.7-18-5.7-27.6-2.2c-3.4,1.2-6.6,3-9.7,4.5c-0.5,0.3-1,0.7-1.5,0.8c-1.7-3.7-3.2-7.4-4.9-11.4
			c3.5-1.7,7.2-3.5,11.1-5c6.2-2.4,12.6-3.7,19.3-3.2c10.8,0.5,20,4.9,27.4,12.4c9.2,9.6,13.1,21.2,11.4,34.3
			c-0.8,7.4-3.4,14.4-7.1,20.8c-9.1,16-21.7,28.6-37.6,38c-8.1,4.9-17,7.7-26.5,7.9c-4,0-8.1-0.7-11.9-0.7c-8.1,0-16.1,0.5-23.7,3.5
			C278.2,124.2,275.2,126.5,272.7,129.9z M290.7,110.5c-2-1.8-3.9-3.7-5.7-5.5c-0.5,2.2-1,4.5-1.5,7.1
			C286,111.4,288.5,110.9,290.7,110.5z"/>
		<path d="M258.4,30.2c0.8-9.4,9.7-21.3,23.4-23.5c3.5,19.2,14.8,30.4,33.9,34.1c-1.2,10.1-10.1,21.3-23.4,23.4
			C288.8,45.2,277.6,33.8,258.4,30.2z"/>
		<path d="M288.1,6.4C302.4,6.2,316,18.8,316,34.1C303.8,34.4,288.5,20.2,288.1,6.4z"/>
		<path d="M257.9,36.8c13.1,0,27.9,14.8,27.9,27.7C272.2,64.8,258.1,52.8,257.9,36.8z"/>
	</g>
</g>
<line fill="none" stroke="#000000" stroke-width="3" stroke-linecap="round" stroke-miterlimit="10" x1="292.5" y1="74.3" x2="334.7" y2="113.4"/>
<line fill="none" stroke="#000000" stroke-width="3" stroke-linecap="round" stroke-miterlimit="10" x1="314.4" y1="110" x2="353.3" y2="70.9"/>
<line fill="none" stroke="#000000" stroke-width="3" stroke-linecap="round" stroke-miterlimit="10" x1="299.6" y1="105" x2="341.2" y2="63.3"/>
<line fill="none" stroke="#000000" stroke-width="3" stroke-linecap="round" stroke-miterlimit="10" x1="288.3" y1="97.4" x2="327.3" y2="58.3"/>
<line fill="none" stroke="#000000" stroke-width="3" stroke-linecap="round" stroke-miterlimit="10" x1="309.6" y1="68.7" x2="343.4" y2="100"/>
<line fill="none" stroke="#000000" stroke-width="3" stroke-linecap="round" stroke-miterlimit="10" x1="329" y1="65.5" x2="356.5" y2="91.1"/>
</svg>
