<?xml version="1.0" encoding="utf-8"?>
<!-- Generator: Adobe Illustrator 18.0.0, SVG Export Plug-In . SVG Version: 6.00 Build 0)  -->
<!DOCTYPE svg PUBLIC "-//W3C//DTD SVG 1.1//EN" "http://www.w3.org/Graphics/SVG/1.1/DTD/svg11.dtd">
<svg version="1.1" id="Layer_1" xmlns="http://www.w3.org/2000/svg" xmlns:xlink="http://www.w3.org/1999/xlink" x="0px" y="0px"
	 viewBox="0 0 100 100" enable-background="new 0 0 100 100" xml:space="preserve">
<g id="pAckvw_1_">
	<g>
		<path fill="none" stroke="#000000" stroke-width="3" stroke-miterlimit="10" d="M72.5,85.3c0-1.6-0.1-7.3,0-8.9
			c-0.1-6.4-1.2-10-6.1-12.8c3.7-5.3,13.3-5,18.6-3.2c4.7,1.7,7.9,6,7.8,11.7c-0.1,3,0,10,0,13.1C85.6,85.3,79.9,85.3,72.5,85.3z"/>
		<path fill="none" stroke="#000000" stroke-width="3" stroke-miterlimit="10" d="M9.3,85.3c0-3.9-0.1-11.5,0-15.1
			c0.2-5,2-9,6.4-11.3c3.8-1.7,9.1-2,13.3-1.9c-1.2,3.8-1.3,6.8,1.4,9.8c-5.3,2.7-4.3,13-4.4,18.6C19.8,85.3,15.4,85.3,9.3,85.3z"/>
		<path fill="none" stroke="#000000" stroke-width="3" stroke-miterlimit="10" d="M28.5,53.4c-4.6-0.1-7.8-4.1-9-9.1
			C18,38.5,22.1,33.1,28,33.1c5.9,0,10,5.4,8.8,10.9C35.5,49.2,33.2,53.4,28.5,53.4z"/>
		<path fill="none" stroke="#000000" stroke-width="3" stroke-miterlimit="10" d="M77.7,38.2c4.8,0,8.5,3.6,7.6,8.3
			c-1,4.5-2.8,9.3-7.5,9.3c-4.6,0-6.9-5.2-7.7-9.2S73,38.3,77.7,38.2z"/>
		<path fill="none" stroke="#000000" stroke-width="3" stroke-miterlimit="10" d="M68.2,85.4c-5.7,0-9.8,0-15.3,0
			c0-5,1.2-14.5-3.8-18c2.5-2.1,4-2.1,6.9-2.1c2.2,0,4.6,0.4,6.7,1.1c3.8,1.3,5.4,4,5.5,8.1C68.2,76.7,68.2,83,68.2,85.4z"/>
		<path fill="none" stroke="#000000" stroke-width="3" stroke-miterlimit="10" d="M48.7,85.4c-6.2,0-12.2,0-18.3,0
			c0-2.5-0.2-9,0-11.4c0.2-2.1,1.6-3.5,3.4-4.4c3.7-1.8,7.6-1.8,11.3,0c2.3,1.1,3.6,3,3.6,5.8C48.6,77.3,48.7,83.3,48.7,85.4z"/>
		<path fill="none" stroke="#000000" stroke-width="3" stroke-miterlimit="10" d="M51.1,27.1c1.3-1.1,3.2-2.1,4.8-2
			c3.9,0.3,5.7,4.5,3.6,8c-2.1,3.5-5.3,5.8-8.5,8.1c-3.4-2.3-6.6-4.6-8.6-8.2c-2.1-3.6-0.2-7.8,3.7-8C47.8,25,49.8,25.9,51.1,27.1z"
			/>
		<path fill="none" stroke="#000000" stroke-width="3" stroke-miterlimit="10" d="M49.8,54.4c0-3.8,3-6.9,6.8-6.9
			c3.7,0,6.8,3.1,6.8,6.8c0,3.8-3,7.8-6.8,7.7C52.8,62,49.9,58.2,49.8,54.4z"/>
		<path fill="none" stroke="#000000" stroke-width="3" stroke-miterlimit="10" d="M45.5,59c0,3.2-2.7,6-5.9,6c-3.2,0-6-2.7-6-5.9
			c0-3.2,2.7-6,5.9-6C42.7,53,45.5,55.8,45.5,59z"/>
	</g>
</g>
</svg>
