<?xml version="1.0" encoding="utf-8"?>
<!-- Generator: Adobe Illustrator 18.1.0, SVG Export Plug-In . SVG Version: 6.00 Build 0)  -->
<svg version="1.1" id="Layer_1" xmlns="http://www.w3.org/2000/svg" xmlns:xlink="http://www.w3.org/1999/xlink" x="0px" y="0px"
	 viewBox="253.7 29.9 109 109" enable-background="new 253.7 29.9 109 109" xml:space="preserve">
<g id="_x37_31nbU_2_">
	<g>
		<path d="M362.7,138.9c-8.4-3.2-16.3-6.2-24.4-9.2c-21-8.1-42.2-16.1-63.2-24.2c-4.4-1.7-5.2-3.4-3.4-7.6
			c10.2-23.2,26.9-39.8,50.2-49.9c3.9-1.7,5.7-1,7.1,2.7c11.1,28.9,22.2,58,33.3,87C362.4,137.9,362.6,138.1,362.7,138.9z M297,97.1
			c3.2-3.4,3.2-8.6-0.2-11.9c-3.4-3.4-8.6-3.2-11.9,0c-3.2,3.4-3.2,8.6,0.2,11.9C288.5,100.3,293.9,100.3,297,97.1z M327,79
			c3.4-3.4,3.2-8.6-0.2-11.8c-3.4-3.2-8.6-3.2-11.9,0.2c-3.2,3.4-3.2,8.6,0.2,11.9C318.4,82.5,323.6,82.3,327,79z M324.6,100.8
			c-3.4,3.4-3.4,8.4,0.2,11.8c3.4,3.2,8.4,3.2,11.6,0c3.4-3.4,3.4-8.6,0.2-11.9C333.2,97.4,327.8,97.4,324.6,100.8z"/>
		<path d="M279.1,55.1c10.4-10.4,22.3-18.5,35.8-24.2c4.2-1.8,5.7-1.2,7.4,2.5c2.7,6.2,2.4,7.4-2.2,9.4
			c-24.9,10.8-42.7,28.6-53.4,53.3c-1.7,4-3.5,4.7-7.6,2.9c-6-2.5-6.4-3.4-3.9-9.4C260.9,76.6,269,65.2,279.1,55.1z"/>
	</g>
</g>
</svg>
