<?xml version="1.0" encoding="utf-8"?>
<!-- Generator: Adobe Illustrator 18.1.0, SVG Export Plug-In . SVG Version: 6.00 Build 0)  -->
<svg version="1.1" id="Layer_1" xmlns="http://www.w3.org/2000/svg" xmlns:xlink="http://www.w3.org/1999/xlink" x="0px" y="0px"
	 viewBox="250 35.6 126.4 103.6" enable-background="new 250 35.6 126.4 103.6" xml:space="preserve">
<path fill="none" stroke="#000000" stroke-width="3" stroke-linecap="round" stroke-linejoin="round" stroke-miterlimit="10" d="
	M288.8,112.2c-0.3,2.7-2.9,6.9-3.2,8.1c-0.5,1.7-2.5,5.4-3.2,6.9c-1.3,3-4,4.5-6.2,6.9c-4.5,4.9-8.4-2.2-9.4-6.2
	c-1.7-6.6-3.9-13.1-7.2-19c-2.2-3.7-4.7-7.1-6.4-11.1c-6.7-16,8.1-33.4,16.8-45.4c1.2-1.5,2.4-3.2,3.9-4.4c1.5-1.2,3.5-1.8,5.4-1.5
	c1.7,0.3,3.2,1.3,4.9,1.8c3.4,0.8,9.2-4.2,12.1-5.7c6.9-4,15.1-7.1,22.8-4.9c4.2,1.2,10.9,3,13.9,6.2c1,1,2.4,3.4,3.9,3.9
	c1.7,0.7,3-0.3,4.7-0.8c3.5-0.8,7.4-0.2,10.4,1.8c4.5,3,4.7,8.7,7.7,12.9c1.5,2,3.4,3.9,5,5.9c5.4,6.2,8.9,14.1,9.9,22.3
	c0.2,1.8,0.3,3.5,0,5.4c-0.7,4.4-3.4,8.1-6.4,11.1c-3,3-6.4,6-8.6,9.7c-2.4,3.7-3.9,10.2-2.2,14.3c0.5,1,1,2,0.5,3
	c-1.3,2.7-5-2.5-6.7-3.4c-1.2-0.7-2.7-0.7-3.7-1.7c-1-1.2-4.2-2.9-5.4-3.9"/>
<path fill="none" stroke="#000000" stroke-width="3" stroke-linejoin="round" stroke-miterlimit="10" d="M319.9,125.5
	c0.7,0.2,1.2,0.2,1.5,0.3c2,0.2,2.9-1.8,3.4-3.5c0.3-1.3,0.5-2.9,1.2-4c0.3-0.7,0.8-1.2,1.2-1.8c0.8-2-0.7-4.9-2.5-5.9
	c-1.8-1.2-4.4-1.5-6.6-1.7c-3.5-0.2-7.4,0.7-10.4,2.9c-0.7,0.5-1.3,1.5-1.7,2.4c-0.7,1-0.7,2.5,0.2,3.5c0.7,0.8,1.8,1.2,2.2,2.4
	c0.8,3.4,3,6.9,7.1,5.9c1-0.3,1.8-1.2,2.2-2.2C317.2,124.5,318.7,125.2,319.9,125.5z"/>
<path fill="none" stroke="#000000" stroke-miterlimit="10" d="M334.7,72.9C334.7,72.9,334.8,72.9,334.7,72.9c1.2,0.3,2.2,1,3,1.8
	c0.3,0.3,2,1.8,1.2,2.2c-0.2,0-0.3,0-0.5,0.2c-0.5,0-1,0-1.5,0.2c-0.5,0-1,0.2-1.2,0.5c-0.2,0.2-0.2,0.3-0.2,0.5
	c-0.3,0.8-1.2,2-2.2,2.2c-0.5,0-1,0-1.3-0.2c-1.7-0.5-2.7-2.2-4.4-0.5c-0.3,0.3-0.7,0.7-1,1c-0.2,0.2-0.3,0.3-0.5,0.2
	c-0.3-1,0.7-2.7,1-3.5c0.3-0.5,0.7-1,0.8-1.7c0.3-0.7,0.5-1.2,1-1.7s1.2-0.8,1.8-0.7h0.2c0.2,0,0,0.2,0,0.3c-0.3,1-1.2,2.7,0,3.4
	c0.7,0.5,1.7,0.5,2.4,0.2c0.7-0.5,1-1.5,0.5-2.2c-0.3-0.5-1.5-1-1-1.8C333.2,72.6,334.2,72.7,334.7,72.9z"/>
<path fill="none" stroke="#000000" stroke-linecap="round" stroke-linejoin="round" stroke-miterlimit="10" d="M344.4,64.5
	c-0.5-2.9,1.3-6,4-7.2c-1,1-1.8,2.4-2.4,3.7c2.2-2.4,5.9-3,8.9-1.8c-1.2,1-3.4,0.5-4.2,1.7c3.4,1.7,5.2,5.5,5.9,9.2
	c-1-2.4-3.4-4-5.9-4.2c1.2,1.3,1.8,3.2,2,5"/>
<path fill="none" stroke="#000000" stroke-width="2" stroke-linecap="round" stroke-miterlimit="10" d="M290,111.2
	c-0.5,4-0.5,8.2,1,12.1c1,2.9,3,5.4,5.5,6.9c3.4,2,8.7,4.2,12.6,2.2c1.5-0.8,2.9-1.7,4.2-2.7c1.7-1,3.4-3.9,5.4-2.4
	c3.9,2.9,9.7,6.7,14.8,4.4c7.2-3.2,10.4-10.2,6-17.1"/>
<path fill="none" stroke="#000000" stroke-linecap="round" stroke-miterlimit="10" d="M347.6,74.6c1,0.7,1.7,1.8,2.2,3
	c1.8,4.4,2.7,9.1,2.4,13.6c-0.3,4.9-1.7,8.7-5.2,12.1c-1.2,1.2-2.5,2-3.5,3.4c-1,1.2-1.7,2.9-1.2,4.4c0.8-2,3.2-3.5,5.5-3.5
	c-1.5,1.7-2.5,3.7-3,5.9s0.3,4,1.5,6c0.3-2.5,1.3-4.4,3.7-5.5c-0.2,1.5-0.5,2.9-0.5,4.4c0,2.7,1.8,3.5,3.4,5.5"/>
<path fill="none" stroke="#000000" stroke-linecap="round" stroke-linejoin="round" stroke-miterlimit="10" d="M282.6,58.6
	c-0.2-2-2-3.9-4-4c1.3,0.5,2.4,1.5,2.7,2.9c-1.5-0.5-3,0.3-4,1.3c-1,1.2-1.5,2.5-2.2,4c0.7-1.7,2.7-2.7,4.4-2
	c-3,2.7-4.4,7.2-3.2,11.1c0.2-2,1.2-4,2.9-5.4c0.2-0.2,0.3-0.2,0.5-0.2s0.2,0.3,0,0.3"/>
<path fill="none" stroke="#000000" stroke-linecap="round" stroke-linejoin="round" stroke-miterlimit="10" d="M274.4,75.9
	c-3.4,3.4-4.2,8.4-3.5,13.1c0.8,4.5,3,8.7,5.5,12.8c0.7,1.2,1.5,2.4,1.3,3.5c-0.3-1-1.5-2-2.4-2.7c2.4,3,4,7.1,3,10.8
	c-0.3-1.2-0.7-2.5-1.5-3.5c-0.8-1-2.2-1.7-3.4-1.5c2.4,4.5,2.7,10.2,0.8,15.1"/>
<path fill="none" stroke="#000000" stroke-linecap="round" stroke-linejoin="round" stroke-miterlimit="10" d="M316.7,123
	C316.9,123.1,316.7,123.1,316.7,123C316.7,123.1,316.7,123,316.7,123c0,0.2,0,0.2,0,0.3"/>
<path fill="none" stroke="#000000" stroke-miterlimit="10" d="M298.1,80.5c0.2-0.2,0.3-0.3,0.5-0.3c0.3,0.2,0.5,0.3,0.7,0.5
	c0.3,0.3,0.8,0.8,1.2,1.2c0,0,0.2,0.2,0.3,0.2s0.5-0.2,0.5-0.3s0-0.5,0-0.7c-0.7-2.2-2.4-4.2-4-5.5c-0.3-0.2-0.5-0.3-0.8-0.5
	s-0.7,0.2-0.7,0.5c0,0.3,0.2,0.5,0.5,0.7c0.7,0.7,0.5,1.8-0.2,2.5c-0.7,0.7-1.8,0.7-2.5,0c-0.7-0.7-0.8-1.8-0.2-2.5
	c0.3-0.5,1-0.8,0.7-1.3c-0.2-0.3-0.7-0.3-1-0.2c-2.4,0.5-4.7,1.5-6.6,2.9c-0.3,0.2,0.7,0.7,0.8,0.7c0.3,0.2,1.2-0.2,1.7-0.2
	c0.2,0,0.5,0,0.7,0.2s0.2,0.3,0.2,0.5c0.5,2.5,4.4,4,6.7,3.2C296.9,82,297.4,81,298.1,80.5z"/>
<path fill="none" stroke="#000000" stroke-linecap="round" stroke-linejoin="round" stroke-miterlimit="10" d="M304.4,88.7
	c-1.8,4.7-4.7,8.7-7.7,12.9c1.5-1.3,3-2.7,4.5-4c0,0.7-0.5,1.3-1,1.8c-1.2,1.7-2,3.7-2.2,5.7"/>
<path fill="none" stroke="#000000" stroke-linecap="round" stroke-linejoin="round" stroke-miterlimit="10" d="M323.6,84.5
	c2,3.7,3,8.4,6.6,11.1c-1.5-0.7-2.7-1.8-4-2.5c0.2,2.4,3,4.2,4.4,5.9c1,1.2,1.3,2.7,1.7,4.4c0.2-0.2,0-0.2,0-0.3"/>
<path fill="none" stroke="#000000" stroke-width="2" stroke-linecap="round" stroke-linejoin="round" stroke-miterlimit="10" d="
	M302.3,132.9c3.9,2.4,5.9,4.4,10.4,5c5.5,0.8,13.9-0.5,17.5-4.7"/>
<path fill="none" stroke="#000000" stroke-linecap="round" stroke-linejoin="round" stroke-miterlimit="10" d="M307.3,117.3
	c0.3,0.5,1.2,0.7,1.7,0.7c0.7-0.2,1.2-0.5,1.7-1c0.2-0.2,0.5-0.5,0.8-0.7s0.7-0.2,1,0c0.2,0.2,0.3,0.3,0.5,0.5
	c0.2,0.3,0.3,0.7,0.2,1c-0.2,0.3-0.7,0.5-0.8,0.2"/>
<path fill="none" stroke="#000000" stroke-linecap="round" stroke-linejoin="round" stroke-miterlimit="10" d="M324.8,117.1
	c-1,0.3-2.2,0.2-3.2-0.3c-0.2-0.2-0.3-0.2-0.5-0.3c-0.5-0.2-1,0.2-1,0.7c-0.3,0.3-0.2,1.2,0.3,1.3c0.5,0.2,1.2-0.3,1-0.8"/>
</svg>
