<?xml version="1.0" encoding="utf-8"?>
<!-- Generator: Adobe Illustrator 18.1.0, SVG Export Plug-In . SVG Version: 6.00 Build 0)  -->
<svg version="1.1" id="Layer_1" xmlns="http://www.w3.org/2000/svg" xmlns:xlink="http://www.w3.org/1999/xlink" x="0px" y="0px"
	 viewBox="259.2 31.4 105.3 105.2" enable-background="new 259.2 31.4 105.3 105.2" xml:space="preserve">
<g>
	<path d="M314.9,136.6c-1.8,0-3.9,0-5.7,0c-1.2-0.2-2.2-0.2-3.4-0.5c-2.9-0.5-5.7-1-8.7-1.7c2.5-4,4.5-8.1,5.7-12.4
		c1.2-4.4,2.2-8.7,3.4-13.1c3.9,5,9.1,6.7,15.1,6.2s11.4-2.9,15.6-7.4c8.7-9.2,11.6-20.5,10.1-32.6c-1.3-10.8-7.7-18.3-17.5-22.8
		c-8.4-4-17.3-4.2-26.4-2c-11.8,2.9-20.3,9.7-24.7,21.2c-2.9,7.6-2.9,15.1,0.5,22.5c1.7,3.7,4.4,6.4,8.1,8.1
		c1.5,0.7,2.5,0.2,2.9-1.3c0.3-1.2,0.5-2.5,1-3.7c0.5-1.3,0.2-2.4-0.7-3.5c-1.5-1.7-2.7-3.9-3-6c-1.5-9.9,1.5-18.3,9.6-24.2
		c7.7-5.7,16.5-6.4,25.4-3.4c7.1,2.5,11.1,7.9,11.9,15.3c0.8,6.4-0.2,12.6-2.4,18.6c-1,2.7-2.4,5.2-4.2,7.4c-1.7,2-3.9,3.7-6.4,4.5
		c-3.4,1-6.7,0.7-9.4-1.7c-2.7-2.5-3-5.5-2-8.9c1-3.5,2.2-7.2,3.2-10.8c0.7-2.7,1.3-5.4,1.2-8.1c-0.3-3.9-2.9-6.4-6.7-6.7
		c-2.2-0.2-4,0.5-5.7,1.8s-3,3.2-3.7,5.4c-1.7,4.7-1.5,9.2,0.2,13.9c0.2,0.5,0.3,1.2,0.2,1.7c-1.7,7.1-3.4,13.9-4.9,21
		c-1,4.2-2.4,8.4-2.5,12.9c0,2,0,3.9,0,5.9c-0.3-0.2-0.7-0.2-0.8-0.3c-16.8-8.2-26.9-21.7-30.1-40.2c-0.3-1.5-0.3-3.2-0.7-4.7
		c0-1.8,0-3.9,0-5.7c0-0.3,0.2-0.5,0.2-0.8c0.3-2.2,0.5-4.4,0.8-6.4c4-21.7,22.2-39,44-42c1.5-0.2,3-0.3,4.7-0.7c1.8,0,3.9,0,5.7,0
		c0.3,0,0.5,0.2,0.8,0.2c8.2,0.5,15.8,2.9,22.8,7.1c16.1,9.7,24.7,24.4,26,43c0.3,4.2-0.2,8.2-1,12.4c-4,21.7-22.2,39-44,42
		C318,136.2,316.4,136.4,314.9,136.6z"/>
</g>
</svg>
