<?xml version="1.0" encoding="utf-8"?>
<!-- Generator: Adobe Illustrator 18.1.0, SVG Export Plug-In . SVG Version: 6.00 Build 0)  -->
<svg version="1.1" id="Layer_1" xmlns="http://www.w3.org/2000/svg" xmlns:xlink="http://www.w3.org/1999/xlink" x="0px" y="0px"
	 viewBox="244 16.8 134.4 134.4" enable-background="new 244 16.8 134.4 134.4" xml:space="preserve">
<g id="la9Ubi_1_">
	<g>
		<path fill="#FFFFFF" d="M378.4,151.3c-44.8,0-89.6,0-134.4,0c0-44.8,0-89.6,0-134.4c44.8,0,89.6,0,134.4,0
			C378.4,61.7,378.4,106.5,378.4,151.3z M320.4,125.3c0-6.1,0-12.2,0-18.4c4.4,4.4,8.7,8.7,12.9,12.9c4.3-4.3,8.6-8.6,13-13
			c-4.3-4.3-8.6-8.6-12.9-12.9c6,0,12.1,0,18.2,0c0-6.1,0-12.1,0-18.2c-6.3,0-12.6,0-18.9,0c0,0,0-0.1,0-0.1c4.5-4.5,9-9,13.5-13.5
			c-4.3-4.3-8.5-8.5-12.9-12.9c-4.3,4.3-8.6,8.6-12.9,12.9c0-5.8,0-11.7,0-17.5c-6.1,0-12.1,0-18.2,0c0,6.1,0,12.2,0,18.4
			c-4.4-4.4-8.7-8.7-13-13c-4.3,4.3-8.5,8.5-12.8,12.8c4.3,4.3,8.6,8.6,13,12.9c-6.2,0-12.3,0-18.5,0c0,6.1,0,12.1,0,18.2
			c5.9,0,11.8,0,17.8,0c-4.2,4.2-8.3,8.3-12.4,12.3c4.3,4.3,8.6,8.6,12.9,12.9c4.3-4.3,8.6-8.6,12.9-12.9c0,6.3,0,12.6,0,19
			C308.2,125.3,314.3,125.3,320.4,125.3z M258.3,75.7c0.1-0.4,0.2-0.7,0.3-1c0.3-0.8,1-1.1,1.8-1.4c2.1-0.6,4.2-1.3,6.2-1.9
			c0.2-0.1,0.3-0.2,0.3-0.4c0.3-1.3,0.5-2.7,0.8-4c0.1-0.5,0.2-1,0.3-1.5c0.1,0.1,0.2,0.1,0.4,0.2c2.8-4.4,5.6-8.7,8.5-13.1
			c-1.2-0.8-2.3-1.5-3.5-2.3c-1.8,2.8-3.6,5.5-5.4,8.3c-1-0.7-2-1.3-3.1-2c1.6-2.5,3.2-5,4.8-7.5c-1.1-0.7-2.1-1.4-3.2-2
			c-1.6,2.5-3.2,5-4.9,7.5c-0.8-0.5-1.6-1.1-2.5-1.6c1.7-2.7,3.5-5.4,5.2-8.1c-1.1-0.7-2.2-1.4-3.3-2.1c-2.8,4.3-5.5,8.6-8.3,12.9
			c4.9,3.2,9.8,6.3,14.7,9.5c-0.2,0.1-0.3,0.1-0.4,0.1c-0.9,0.3-1.8,0.5-2.7,0.8c-1.2,0.4-2.5,0.6-3.6,1.3c-0.7,0.4-1.3,0.9-1.7,1.6
			c-0.1,0.1-0.1,0.2-0.2,0.3c0-0.1,0-0.1,0-0.1c0-0.1,0-0.2,0-0.4c-0.1-1.6-0.7-2.9-1.9-3.9c-0.9-0.7-1.9-1-3-1.1
			c-1.8-0.2-3.7,0.7-4.5,2.3c-0.4,0.9-0.8,1.9-1,2.9c-0.7,2.9-1.2,5.8-1.8,8.7c-0.1,0.5-0.2,1-0.3,1.6c6.1,1.3,12.1,2.5,18.1,3.8
			c0.4-1.9,0.8-3.7,1.2-5.6C263.2,76.7,260.8,76.2,258.3,75.7z M266.9,100.3c-0.1,0.1-0.1,0.1-0.1,0.2c-0.8,1.4-1.6,2.8-2.4,4.1
			c-0.3,0.6-0.7,1.2-0.9,1.8c-0.3,0.8-0.6,1.6-0.4,2.5c0.1,0.2,0.1,0.5,0.1,0.8c-0.2-0.1-0.2-0.2-0.3-0.3c-0.5-0.3-0.9-0.7-1.4-1
			c-2.1-1-4.4-0.6-6.1,1.2c-1.3,1.4-1.7,2.9-1.1,4.7c0.3,0.8,0.7,1.6,1.1,2.4c1.6,2.5,3.2,5.1,4.8,7.6c0.3,0.4,0.6,0.9,0.9,1.4
			c5.2-3.3,10.4-6.6,15.7-9.9c-1-1.6-2-3.2-3.1-4.8c-2.1,1.3-4.2,2.7-6.3,4c-0.4-0.5-0.7-1-0.7-1.6c0-0.6,0.3-1.1,0.5-1.6
			c1-1.9,2.1-3.7,3.1-5.6c0.1-0.2,0.1-0.3,0-0.4c-0.4-0.6-0.7-1.2-1.1-1.7C268.4,102.7,267.7,101.5,266.9,100.3z M295.8,32.9
			c2.1-0.5,4.1-1,6.1-1.5c0.6,2.5,1.2,4.9,1.7,7.3c1.9-0.4,3.7-0.9,5.6-1.3c-1.4-6-2.9-12-4.3-18c-1.9,0.4-3.7,0.9-5.6,1.3
			c0.5,2.1,1,4.2,1.5,6.3c-2,0.5-4.1,1-6.1,1.5c-0.5-2.1-1-4.2-1.5-6.3c-1.9,0.4-3.7,0.9-5.6,1.3c1.4,6,2.9,12,4.3,18
			c1.9-0.4,3.7-0.9,5.6-1.3C296.9,37.8,296.3,35.4,295.8,32.9z M370.8,57.8c-6,1.7-11.9,3.4-17.8,5.1c0.5,1.9,1.1,3.7,1.6,5.5
			c2.4-0.7,4.8-1.4,7.2-2.1c0.6,2,1.2,4,1.7,6c-2.4,0.7-4.8,1.4-7.2,2.1c0.5,1.9,1.1,3.7,1.6,5.5c6-1.7,11.9-3.4,17.8-5.1
			c-0.5-1.9-1.1-3.7-1.6-5.5c-2.1,0.6-4.1,1.2-6.2,1.8c-0.6-2-1.2-4-1.7-6c2.1-0.6,4.2-1.2,6.2-1.8
			C371.9,61.5,371.4,59.7,370.8,57.8z M277.6,51.9c0.1-0.1,0.2-0.1,0.3-0.2c1.9-1.4,3.8-2.8,5.7-4.2c1.1-0.8,2.1-1.6,2.9-2.6
			c1.9-2.1,2.3-4.6,1.3-7.1c-1-2.7-2.7-4.9-5-6.6c-1.4-1-3-1.5-4.7-1.3c-1.4,0.1-2.6,0.7-3.7,1.4c-2.1,1.4-4.1,2.9-6.1,4.4
			c-0.5,0.4-1,0.8-1.6,1.1C270.3,41.9,273.9,46.9,277.6,51.9z M320.1,20.1c-0.4,0-0.8,0-1.2,0.1c-2.6,0.3-4.7,1.5-6,3.8
			c-1.5,2.4-2,5.1-1.6,7.9c0.3,2.7,1.7,4.8,4.1,6.1c2.2,1.2,4.6,1.7,7.1,1.5c3.1-0.2,5.4-1.7,6.7-4.5c1.1-2.2,1.5-4.6,1.3-7
			c-0.3-2.6-1.5-4.7-3.8-6.1C324.6,20.6,322.4,20.2,320.1,20.1z M274.8,119.7c2.7,2,5.3,3.9,7.9,5.9c-0.7,1-1.5,2-2.2,2.9
			c-2.4-1.8-4.8-3.6-7.2-5.3c-0.8,1-1.5,2-2.3,3c2.4,1.8,4.8,3.6,7.2,5.3c-0.6,0.8-1.2,1.6-1.8,2.4c-2.6-1.9-5.1-3.8-7.7-5.7
			c-0.8,1.1-1.6,2.1-2.4,3.2c4.1,3.1,8.2,6.1,12.3,9.2c3.7-5,7.4-9.9,11.1-14.9c-4.2-3.1-8.4-6.2-12.5-9.3
			C276.4,117.5,275.6,118.6,274.8,119.7z M326.7,136.4c0.5,1.2,1,2.3,1.5,3.4c2.7-1.2,5.4-2.4,8.2-3.7c0.4,0.9,0.8,1.8,1.2,2.7
			c-2.9,1.3-5.8,2.6-8.8,3.9c0.6,1.2,1.1,2.4,1.6,3.6c4.7-2.1,9.3-4.2,14-6.3c-2.5-5.7-5.1-11.3-7.6-16.9c-4.8,2.1-9.5,4.3-14.3,6.4
			c0.6,1.3,1.1,2.5,1.7,3.8c3-1.4,6-2.7,9-4.1c0.5,1.1,1,2.2,1.5,3.3C332.2,134,329.5,135.2,326.7,136.4z M261.7,102.8
			c0.5-0.2,1-0.4,1.5-0.6c1.7-0.9,2.9-2.1,3.4-4.1c0.2-1.1,0.2-2.2,0.1-3.2c-0.2-1.7-0.6-3.4-1.3-5c-1.2-2.5-3.6-3.9-6.3-3.6
			c-1.9,0.2-3.3,1.1-4.1,2.8c-0.4,0.8-0.6,1.7-0.7,2.6c-0.1,1.4-0.2,2.7-0.3,4.1c0,0.6-0.1,1.3-0.2,1.9c-0.2,0.8-1.1,1.1-1.8,0.6
			c-0.2-0.1-0.4-0.3-0.5-0.5c-0.4-0.8-0.5-1.6-0.4-2.4c0.2-0.8,0.8-1.3,1.5-1.6c0.3-0.1,0.3-0.2,0.2-0.5c-0.3-1.2-0.6-2.3-0.9-3.5
			c-0.1-0.4-0.2-0.9-0.4-1.3c-2.4,0.6-4,2.5-4.2,5c-0.1,1.9,0.2,3.8,0.8,5.6c0.4,1.2,1,2.3,1.9,3.2c2.2,2.2,5.8,1.9,7.5-0.7
			c0.4-0.5,0.6-1.2,0.8-1.8c0.4-1.4,0.5-2.9,0.6-4.4c0-0.8,0.1-1.5,0.3-2.3c0.2-0.7,0.6-1.2,1.4-1.4c0.8-0.1,1.3,0.2,1.8,0.8
			c1.2,1.7,0.7,3.9-1.1,4.8c-0.2,0.1-0.5,0.2-0.8,0.3C260.8,99.3,261.3,101,261.7,102.8z M355.7,54c-0.5,0.2-1,0.4-1.5,0.5
			c-0.7,0.2-1.4,0.3-2.1,0c-2.3-0.8-3.1-3.6-1.6-5.5c0.9-1.2,2.1-2.2,3.4-2.9c0.9-0.5,1.8-0.8,2.8-0.7c1.9,0.3,3.8,2.7,2.5,5
			c-0.1,0.2-0.2,0.3-0.3,0.5c1.4,1.1,2.7,2.2,4,3.3c0.2-0.4,0.5-0.8,0.7-1.2c1-2.1,1.2-4.2,0.2-6.3c-1-2.2-2.5-4.1-4.6-5.4
			c-2-1.3-4.2-1.6-6.5-0.9c-2.9,0.9-5.2,2.7-6.7,5.3c-1.5,2.4-1.8,5-0.6,7.6c0.8,1.7,1.9,3.2,3.3,4.4c2,1.8,4.2,2.4,6.8,1.7
			c0.7-0.2,1.3-0.4,2-0.7C357,57.2,356.3,55.6,355.7,54z M323.1,148.2c-0.4-6.2-0.8-12.3-1.2-18.5c-1.9,0.1-3.8,0.3-5.7,0.4
			c0.2,2.3,0.3,4.6,0.5,6.9c-0.5,0-0.9,0.1-1.4,0.1c-1.3,0.1-2.7,0.1-4,0.5c-2,0.6-3.4,1.7-4,3.8c-0.3,1.4-0.3,2.7,0.2,4.1
			c0.5,1.7,1.6,2.7,3.3,3.2c0.9,0.3,1.9,0.3,2.8,0.2c1.9-0.1,3.8-0.2,5.6-0.4C320.5,148.4,321.7,148.3,323.1,148.2z M349.5,120.9
			c-0.3,0.3-0.5,0.5-0.8,0.8c-1,1-2,1.9-2.8,3c-1.2,1.7-1.6,3.5-0.7,5.4c0.7,1.6,1.9,2.7,3.5,3.5c1.2,0.6,2.4,0.6,3.6,0.1
			c1-0.4,1.8-1,2.6-1.7c2.3-2.2,4.5-4.4,6.8-6.7c0,0,0.1-0.1,0.1-0.2c-4.3-4.4-8.6-8.8-13-13.2c-1.4,1.3-2.7,2.7-4.1,4
			C346.4,117.6,347.9,119.3,349.5,120.9z M298,135.6c-0.7-0.2-1.4-0.4-2.1-0.6c-1.2-0.3-2.3-0.7-3.6-0.7c-2.3-0.1-4,0.9-5,2.9
			c-0.4,0.7-0.6,1.6-0.8,2.4c-0.3,1.9,0.2,3.6,1.8,4.8c0.7,0.6,1.6,0.9,2.5,1.2c2,0.6,3.9,1.2,5.9,1.7c1.1,0.3,2.3,0.7,3.5,1
			c1.7-5.9,3.5-11.9,5.2-17.8c-1.8-0.5-3.7-1.1-5.5-1.6C299.3,131.2,298.7,133.4,298,135.6z M332.5,43.3c1.6,1,3.3,2,4.9,3
			c2.4-4,4.8-8,7.2-12c1.7,1,3.3,2,5,3c0.8-1.3,1.6-2.6,2.3-3.9c-5-3-10-6-14.9-9c-0.8,1.3-1.6,2.6-2.3,3.9c1.7,1,3.3,2,5,3
			C337.3,35.4,334.9,39.4,332.5,43.3z M357.9,105.5c0.8-2.9,1.6-5.7,2.4-8.6c4.5,1.2,9,2.5,13.5,3.7c0.5-1.9,1-3.7,1.5-5.5
			c-6-1.6-11.9-3.3-17.9-4.9c-1.3,4.7-2.6,9.4-3.9,14.1C355,104.7,356.4,105.1,357.9,105.5z M357.3,87.7c6.1,0.1,12.3,0.2,18.5,0.2
			c0-1.9,0-3.8,0-5.7c-6.1-0.1-12.3-0.2-18.5-0.2C357.3,83.9,357.3,85.8,357.3,87.7z M349.7,109.8c5.4,3.1,10.7,6.2,16,9.3
			c1-1.7,1.9-3.3,2.9-5c-5.4-3.1-10.7-6.2-16-9.3C351.6,106.5,350.7,108.2,349.7,109.8z"/>
		<path d="M320.4,125.3c-6.1,0-12.2,0-18.3,0c0-6.3,0-12.7,0-19c-4.3,4.3-8.6,8.6-12.9,12.9c-4.3-4.3-8.6-8.6-12.9-12.9
			c4.1-4.1,8.2-8.2,12.4-12.3c-6,0-11.9,0-17.8,0c0-6.1,0-12.1,0-18.2c6.1,0,12.3,0,18.5,0c-4.4-4.3-8.7-8.7-13-12.9
			c4.3-4.3,8.5-8.5,12.8-12.8c4.3,4.3,8.6,8.6,13,13c0-6.2,0-12.3,0-18.4c6.1,0,12.1,0,18.2,0c0,5.8,0,11.7,0,17.5
			c4.3-4.3,8.6-8.6,12.9-12.9c4.3,4.3,8.6,8.6,12.9,12.9c-4.5,4.5-9,9-13.5,13.5c0,0,0,0.1,0,0.1c6.3,0,12.6,0,18.9,0
			c0,6.1,0,12.1,0,18.2c-6.1,0-12.1,0-18.2,0c4.3,4.3,8.6,8.6,12.9,12.9c-4.4,4.4-8.7,8.7-13,13c-4.3-4.3-8.6-8.6-12.9-12.9
			C320.4,113,320.4,119.1,320.4,125.3z"/>
		<path d="M258.3,75.7c2.5,0.5,4.9,1,7.4,1.5c-0.4,1.9-0.8,3.7-1.2,5.6c-6-1.3-12.1-2.5-18.1-3.8c0.1-0.5,0.2-1.1,0.3-1.6
			c0.6-2.9,1.2-5.8,1.8-8.7c0.2-1,0.6-2,1-2.9c0.8-1.7,2.7-2.6,4.5-2.3c1.1,0.1,2.2,0.4,3,1.1c1.2,1,1.8,2.3,1.9,3.9
			c0,0.1,0,0.2,0,0.4c0,0,0,0,0,0.1c0.1-0.1,0.1-0.2,0.2-0.3c0.4-0.7,1-1.2,1.7-1.6c1.1-0.6,2.4-0.9,3.6-1.3
			c0.9-0.3,1.8-0.5,2.7-0.8c0.1,0,0.2-0.1,0.4-0.1c-4.9-3.2-9.8-6.3-14.7-9.5c2.8-4.3,5.5-8.6,8.3-12.9c1.1,0.7,2.2,1.4,3.3,2.1
			c-1.7,2.7-3.5,5.4-5.2,8.1c0.8,0.5,1.6,1.1,2.5,1.6c1.6-2.5,3.2-5,4.9-7.5c1.1,0.7,2.1,1.4,3.2,2c-1.6,2.5-3.2,5-4.8,7.5
			c1,0.7,2,1.3,3.1,2c1.8-2.8,3.6-5.5,5.4-8.3c1.2,0.8,2.3,1.5,3.5,2.3c-2.8,4.4-5.6,8.7-8.5,13.1c-0.1-0.1-0.2-0.1-0.4-0.2
			c-0.1,0.5-0.2,1-0.3,1.5c-0.3,1.3-0.6,2.7-0.8,4c0,0.2-0.1,0.3-0.3,0.4c-2.1,0.6-4.2,1.2-6.2,1.9c-0.8,0.2-1.5,0.6-1.8,1.4
			C258.5,74.9,258.4,75.3,258.3,75.7z M254.9,75c0.1-0.4,0.1-0.7,0.2-1c0.2-0.9,0.4-1.9,0.4-2.9c0-0.8-0.5-1.5-1.3-1.7
			c-1-0.2-1.8,0.1-2.1,1.1c-0.4,1.2-0.6,2.4-0.9,3.7C252.5,74.5,253.7,74.7,254.9,75z"/>
		<path d="M266.9,100.3c0.7,1.2,1.5,2.3,2.2,3.5c0.4,0.6,0.7,1.2,1.1,1.7c0.1,0.2,0.1,0.3,0,0.4c-1,1.9-2.1,3.7-3.1,5.6
			c-0.3,0.5-0.6,1-0.5,1.6c0,0.6,0.3,1.1,0.7,1.6c2.1-1.3,4.2-2.7,6.3-4c1,1.6,2,3.2,3.1,4.8c-5.2,3.3-10.4,6.6-15.7,9.9
			c-0.3-0.5-0.6-0.9-0.9-1.4c-1.6-2.5-3.2-5-4.8-7.6c-0.5-0.7-0.8-1.5-1.1-2.4c-0.6-1.8-0.2-3.4,1.1-4.7c1.7-1.8,4.1-2.2,6.1-1.2
			c0.5,0.3,1,0.7,1.4,1c0.1,0.1,0.2,0.2,0.3,0.3c-0.1-0.3-0.1-0.5-0.1-0.8c-0.2-0.9,0.1-1.7,0.4-2.5c0.2-0.6,0.6-1.2,0.9-1.8
			c0.8-1.4,1.6-2.8,2.4-4.1C266.8,100.5,266.9,100.4,266.9,100.3z M264.3,116.8c-0.4-0.6-0.7-1.2-1.1-1.7c-0.4-0.5-0.8-1.1-1.3-1.6
			c-0.5-0.5-1.4-0.6-2-0.2c-0.8,0.5-1.1,1.2-0.8,1.9c0.1,0.4,0.3,0.8,0.5,1.2c0.4,0.7,0.9,1.4,1.3,2.1c0,0.1,0.1,0.1,0.2,0.2
			C262.2,118.1,263.2,117.5,264.3,116.8z"/>
		<path d="M295.8,32.9c0.6,2.5,1.2,4.9,1.7,7.3c-1.9,0.4-3.7,0.9-5.6,1.3c-1.4-6-2.9-12-4.3-18c1.9-0.4,3.7-0.9,5.6-1.3
			c0.5,2.1,1,4.2,1.5,6.3c2-0.5,4.1-1,6.1-1.5c-0.5-2.1-1-4.2-1.5-6.3c1.9-0.4,3.7-0.9,5.6-1.3c1.4,6,2.9,12,4.3,18
			c-1.9,0.4-3.7,0.9-5.6,1.3c-0.6-2.4-1.2-4.8-1.7-7.3C299.8,32,297.8,32.5,295.8,32.9z"/>
		<path d="M370.8,57.8c0.5,1.9,1.1,3.7,1.6,5.5c-2.1,0.6-4.1,1.2-6.2,1.8c0.6,2,1.2,4,1.7,6c2.1-0.6,4.1-1.2,6.2-1.8
			c0.5,1.8,1.1,3.6,1.6,5.5c-5.9,1.7-11.8,3.4-17.8,5.1c-0.5-1.8-1.1-3.6-1.6-5.5c2.4-0.7,4.8-1.4,7.2-2.1c-0.6-2-1.2-4-1.7-6
			c-2.4,0.7-4.8,1.4-7.2,2.1c-0.5-1.8-1.1-3.6-1.6-5.5C359,61.3,364.9,59.5,370.8,57.8z"/>
		<path d="M277.6,51.9c-3.7-5-7.3-10-10.9-15c0.5-0.4,1-0.8,1.6-1.1c2-1.5,4.1-3,6.1-4.4c1.1-0.8,2.3-1.3,3.7-1.4
			c1.7-0.2,3.3,0.3,4.7,1.3c2.3,1.7,4.1,3.9,5,6.6c0.9,2.6,0.5,5-1.3,7.1c-0.9,1-1.9,1.8-2.9,2.6c-1.9,1.4-3.8,2.8-5.7,4.2
			C277.8,51.7,277.7,51.8,277.6,51.9z M279.8,45.2c0.8-0.7,1.7-1.4,2.5-2.1c0.6-0.5,0.8-1.2,0.7-2c-0.1-0.4-0.1-0.8-0.3-1.2
			c-0.4-0.7-0.8-1.5-1.3-2.2c-0.6-0.9-1.4-1.8-2.3-2.3c-0.6-0.4-1.3-0.5-2-0.3c-1.3,0.3-2.2,1.1-3.2,1.8
			C275.8,39.6,277.8,42.4,279.8,45.2z"/>
		<path d="M320.1,20.1c2.3,0.1,4.5,0.5,6.5,1.7c2.3,1.4,3.6,3.4,3.8,6.1c0.3,2.5-0.2,4.8-1.3,7c-1.3,2.8-3.6,4.3-6.7,4.5
			c-2.5,0.2-4.9-0.3-7.1-1.5c-2.4-1.3-3.8-3.4-4.1-6.1c-0.4-2.8,0.1-5.5,1.6-7.9c1.4-2.3,3.4-3.5,6-3.8
			C319.3,20.2,319.7,20.2,320.1,20.1z M324.8,28.7c0-0.9-0.1-1.7-0.6-2.5c-1.1-1.9-4.9-2.7-6.4,0.2c-0.8,1.6-1.1,3.2-1,5
			c0,0.6,0.1,1.3,0.5,1.8c0.8,1.4,2.1,1.9,3.6,1.8c1.5,0,2.5-0.9,3.1-2.3C324.5,31.5,324.8,30.1,324.8,28.7z"/>
		<path d="M274.8,119.7c0.8-1.1,1.7-2.2,2.5-3.4c4.2,3.1,8.3,6.2,12.5,9.3c-3.7,5-7.4,9.9-11.1,14.9c-4.1-3.1-8.2-6.1-12.3-9.2
			c0.8-1.1,1.6-2.1,2.4-3.2c2.6,1.9,5.1,3.8,7.7,5.7c0.6-0.8,1.2-1.6,1.8-2.4c-2.4-1.8-4.8-3.5-7.2-5.3c0.8-1,1.5-2,2.3-3
			c2.4,1.8,4.8,3.5,7.2,5.3c0.7-1,1.4-1.9,2.2-2.9C280.1,123.7,277.4,121.7,274.8,119.7z"/>
		<path d="M326.7,136.4c2.7-1.2,5.4-2.4,8.2-3.7c-0.5-1.1-1-2.2-1.5-3.3c-3,1.4-6,2.7-9,4.1c-0.6-1.3-1.1-2.5-1.7-3.8
			c4.8-2.1,9.5-4.3,14.3-6.4c2.5,5.6,5.1,11.3,7.6,16.9c-4.7,2.1-9.3,4.2-14,6.3c-0.5-1.2-1.1-2.4-1.6-3.6c2.9-1.3,5.8-2.6,8.8-3.9
			c-0.4-0.9-0.8-1.8-1.2-2.7c-2.7,1.2-5.4,2.4-8.2,3.7C327.8,138.7,327.3,137.6,326.7,136.4z"/>
		<path d="M261.7,102.8c-0.5-1.8-0.9-3.5-1.4-5.3c0.3-0.1,0.5-0.2,0.8-0.3c1.8-0.9,2.4-3.2,1.1-4.8c-0.4-0.6-1-0.9-1.8-0.8
			c-0.8,0.1-1.2,0.7-1.4,1.4c-0.2,0.7-0.2,1.5-0.3,2.3c-0.1,1.5-0.1,3-0.6,4.4c-0.2,0.6-0.4,1.3-0.8,1.8c-1.7,2.6-5.3,2.9-7.5,0.7
			c-0.9-0.9-1.5-2-1.9-3.2c-0.6-1.8-0.9-3.7-0.8-5.6c0.2-2.4,1.8-4.4,4.2-5c0.1,0.4,0.2,0.9,0.4,1.3c0.3,1.2,0.6,2.3,0.9,3.5
			c0.1,0.3,0,0.4-0.2,0.5c-0.7,0.3-1.3,0.8-1.5,1.6c-0.2,0.8-0.1,1.7,0.4,2.4c0.1,0.2,0.3,0.4,0.5,0.5c0.7,0.5,1.6,0.2,1.8-0.6
			c0.2-0.6,0.2-1.2,0.2-1.9c0.1-1.4,0.2-2.7,0.3-4.1c0.1-0.9,0.3-1.8,0.7-2.6c0.8-1.7,2.3-2.6,4.1-2.8c2.7-0.3,5.1,1.1,6.3,3.6
			c0.8,1.6,1.1,3.3,1.3,5c0.1,1.1,0.1,2.2-0.1,3.2c-0.4,1.9-1.7,3.2-3.4,4.1C262.8,102.4,262.3,102.6,261.7,102.8z"/>
		<path d="M355.7,54c0.6,1.6,1.3,3.2,2,4.8c-0.7,0.2-1.4,0.5-2,0.7c-2.6,0.6-4.9,0.1-6.8-1.7c-1.4-1.3-2.5-2.7-3.3-4.4
			c-1.3-2.6-0.9-5.2,0.6-7.6c1.6-2.6,3.9-4.3,6.7-5.3c2.3-0.8,4.5-0.4,6.5,0.9c2.1,1.3,3.6,3.2,4.6,5.4c1,2.1,0.8,4.2-0.2,6.3
			c-0.2,0.4-0.4,0.8-0.7,1.2c-1.4-1.1-2.7-2.2-4-3.3c0.1-0.2,0.2-0.3,0.3-0.5c1.3-2.3-0.7-4.8-2.5-5c-1-0.1-2,0.1-2.8,0.7
			c-1.3,0.8-2.5,1.7-3.4,2.9c-1.5,1.9-0.7,4.6,1.6,5.5c0.7,0.3,1.4,0.2,2.1,0C354.7,54.4,355.2,54.2,355.7,54z"/>
		<path d="M323.1,148.2c-1.3,0.1-2.6,0.2-3.9,0.3c-1.9,0.1-3.8,0.2-5.6,0.4c-1,0.1-1.9,0-2.8-0.2c-1.7-0.5-2.8-1.5-3.3-3.2
			c-0.4-1.3-0.5-2.7-0.2-4.1c0.5-2.1,2-3.3,4-3.8c1.3-0.4,2.7-0.4,4-0.5c0.5,0,0.9-0.1,1.4-0.1c-0.2-2.3-0.3-4.6-0.5-6.9
			c1.9-0.1,3.8-0.3,5.7-0.4C322.3,135.9,322.7,142.1,323.1,148.2z M317.1,145c-0.1-1.5-0.2-2.8-0.3-4.2c-0.6,0-1.1,0.1-1.7,0.1
			c-0.1,0-0.2,0-0.3,0c-0.4,0.1-0.7,0.1-1.1,0.3c-0.8,0.3-1.3,1.1-1.2,2c0.1,1,0.7,1.7,1.7,1.8C315.2,145,316.1,145,317.1,145z"/>
		<path d="M349.5,120.9c-1.6-1.6-3.2-3.2-4.8-4.9c1.4-1.3,2.7-2.7,4.1-4c4.3,4.4,8.6,8.8,13,13.2c-0.1,0.1-0.1,0.1-0.1,0.2
			c-2.3,2.2-4.5,4.5-6.8,6.7c-0.8,0.7-1.6,1.3-2.6,1.7c-1.2,0.5-2.4,0.4-3.6-0.1c-1.6-0.7-2.7-1.9-3.5-3.5c-0.9-1.9-0.5-3.8,0.7-5.4
			c0.8-1.1,1.9-2.1,2.8-3C349,121.4,349.3,121.2,349.5,120.9z M352.1,123.7c-0.4,0.4-1,0.9-1.5,1.5c-0.2,0.2-0.4,0.5-0.5,0.8
			c-0.4,0.8-0.2,1.6,0.4,2.2c0.7,0.6,1.5,0.8,2.3,0.4c0.9-0.5,1.5-1.3,2.3-2C354.1,125.5,353.1,124.6,352.1,123.7z"/>
		<path d="M298,135.6c0.6-2.2,1.3-4.4,1.9-6.6c1.8,0.5,3.7,1.1,5.5,1.6c-1.7,5.9-3.5,11.8-5.2,17.8c-1.2-0.3-2.3-0.7-3.5-1
			c-2-0.6-3.9-1.2-5.9-1.7c-0.9-0.3-1.7-0.6-2.5-1.2c-1.6-1.2-2.2-2.9-1.8-4.8c0.1-0.8,0.4-1.6,0.8-2.4c1-2.1,2.7-3,5-2.9
			c1.2,0,2.4,0.4,3.6,0.7C296.6,135.2,297.3,135.4,298,135.6z M297,139.2c-1-0.3-1.9-0.6-2.8-0.7c-0.9,0-1.6,0.4-1.9,1.2
			c-0.4,1.1-0.1,2.1,1,2.6c0.8,0.4,1.7,0.6,2.5,0.8c0,0,0,0,0.1,0C296.2,141.8,296.6,140.5,297,139.2z"/>
		<path d="M332.5,43.3c2.4-4,4.8-8,7.2-12c-1.7-1-3.3-2-5-3c0.8-1.3,1.6-2.6,2.3-3.9c5,3,9.9,6,14.9,9c-0.8,1.3-1.6,2.6-2.3,3.9
			c-1.7-1-3.3-2-5-3c-2.4,4-4.8,8-7.2,12C335.8,45.3,334.2,44.3,332.5,43.3z"/>
		<path d="M357.9,105.5c-1.5-0.4-2.9-0.8-4.4-1.2c1.3-4.7,2.6-9.4,3.9-14.1c6,1.6,11.9,3.3,17.9,4.9c-0.5,1.8-1,3.7-1.5,5.5
			c-4.5-1.2-9-2.5-13.5-3.7C359.5,99.7,358.7,102.6,357.9,105.5z"/>
		<path d="M357.3,87.7c0-1.9,0-3.8,0-5.7c6.2,0.1,12.4,0.2,18.5,0.2c0,1.9,0,3.8,0,5.7C369.6,87.9,363.5,87.8,357.3,87.7z"/>
		<path d="M349.7,109.8c1-1.7,1.9-3.3,2.9-5c5.4,3.1,10.7,6.2,16,9.3c-1,1.6-1.9,3.3-2.9,5C360.4,116,355.1,112.9,349.7,109.8z"/>
		<path fill="#FFFFFF" d="M254.9,75c-1.2-0.3-2.5-0.5-3.8-0.8c0.3-1.3,0.6-2.5,0.9-3.7c0.3-1,1.1-1.3,2.1-1.1
			c0.8,0.2,1.3,0.8,1.3,1.7c0,1-0.1,1.9-0.4,2.9C255.1,74.3,255,74.6,254.9,75z"/>
		<path fill="#FFFFFF" d="M264.3,116.8c-1.1,0.7-2.1,1.3-3.2,2c-0.1-0.1-0.1-0.2-0.2-0.2c-0.4-0.7-0.9-1.4-1.3-2.1
			c-0.2-0.4-0.4-0.8-0.5-1.2c-0.3-0.8,0-1.5,0.8-1.9c0.7-0.4,1.5-0.4,2,0.2c0.5,0.5,0.9,1,1.3,1.6
			C263.6,115.6,263.9,116.2,264.3,116.8z"/>
		<path fill="#FFFFFF" d="M279.8,45.2c-2.1-2.8-4-5.5-6-8.3c1-0.7,2-1.6,3.2-1.8c0.7-0.1,1.4,0,2,0.3c1,0.6,1.7,1.4,2.3,2.3
			c0.5,0.7,0.9,1.4,1.3,2.2c0.2,0.4,0.3,0.8,0.3,1.2c0.1,0.8-0.1,1.5-0.7,2C281.5,43.8,280.6,44.5,279.8,45.2z"/>
		<path fill="#FFFFFF" d="M324.8,28.7c-0.1,1.4-0.3,2.7-0.9,4.1c-0.6,1.4-1.5,2.3-3.1,2.3c-1.5,0-2.8-0.4-3.6-1.8
			c-0.3-0.6-0.4-1.2-0.5-1.8c0-1.7,0.2-3.4,1-5c1.5-2.9,5.3-2.1,6.4-0.2C324.7,27,324.8,27.8,324.8,28.7z"/>
		<path fill="#FFFFFF" d="M317.1,145c-1,0-1.9,0.1-2.8,0c-1-0.1-1.5-0.8-1.7-1.8c-0.1-0.8,0.3-1.6,1.2-2c0.3-0.1,0.7-0.2,1.1-0.3
			c0.1,0,0.2,0,0.3,0c0.5,0,1.1-0.1,1.7-0.1C316.9,142.1,317,143.5,317.1,145z"/>
		<path fill="#FFFFFF" d="M352.1,123.7c1,0.9,2,1.9,3,2.8c-0.8,0.7-1.4,1.5-2.3,2c-0.8,0.4-1.6,0.2-2.3-0.4
			c-0.6-0.6-0.8-1.4-0.4-2.2c0.1-0.3,0.3-0.6,0.5-0.8C351.1,124.6,351.7,124.1,352.1,123.7z"/>
		<path fill="#FFFFFF" d="M297,139.2c-0.4,1.3-0.8,2.6-1.1,3.9c0,0-0.1,0-0.1,0c-0.8-0.3-1.7-0.5-2.5-0.8c-1-0.5-1.4-1.5-1-2.6
			c0.3-0.8,1-1.2,1.9-1.2C295.1,138.5,296,138.9,297,139.2z"/>
	</g>
</g>
</svg>
