<?xml version="1.0" encoding="utf-8"?>
<!-- Generator: Adobe Illustrator 18.1.0, SVG Export Plug-In . SVG Version: 6.00 Build 0)  -->
<svg version="1.1" id="Layer_1" xmlns="http://www.w3.org/2000/svg" xmlns:xlink="http://www.w3.org/1999/xlink" x="0px" y="0px"
	 viewBox="276.8 17.1 71.7 132.9" enable-background="new 276.8 17.1 71.7 132.9" xml:space="preserve">
<g id="dftDQI_1_">
	<g>
		<path d="M310.7,92.1c0,17,0,33.8,0,50.7c0,1.3,0.2,2.9-0.2,4.2c-0.5,2.5-2,3.9-4.7,2.5c-9.1-4.5-18-8.9-26.9-13.6
			c-1-0.5-1.7-2.9-1.7-4.4c-0.2-1.7,0.7-3.5,0.7-5.2c0-22.3,0-44.7,0-67c0-1,0.3-2.2-0.2-3c-2.5-5,0.7-6.7,4.4-8.7
			c7.4-3.9,14.6-8.1,22-12.3c5-2.7,6.7-1.7,6.7,4C310.8,57,310.7,74.6,310.7,92.1z M293.5,61.2c-0.5,0-1,0.2-1.7,0.2
			c-0.3,20.3-0.3,40.7,0.8,61.2c1.2-1,2-2.2,2-3.4c0-18.1,0-36.5,0-54.6C294.7,63.5,294,62.3,293.5,61.2z"/>
		<path d="M329.8,41.8c7.1,1.2,8.9,3,8.9,9.1c0,21.5,0,42.8,0,64.3c0,1.5,0,2.9,0,4.4c0.5,0,1.2,0,1.7,0c0.5-7.9,0.2-15.8,0.2-23.7
			c0-8.1,0-16,0-24s0-16.3,0-24.4c6.4,0.2,8.6,2.7,7.9,8.6c-0.2,1.3-0.2,2.5-0.2,3.9c0,21.7,0,43.3,0,65c0,1.2,0,2.4,0,3.5
			c0.5,6.2,0.5,6.2-5,9.1c-7.4,3.7-14.8,7.6-22.2,11.3c-4.2,2-5.9,0.8-6-3.7c0-0.8,0-1.5,0-2.4c0-34.4,0-68.9,0-103.5
			c0-1.7,0.2-3.2,0.3-5.9c4,2,7.6,3.5,10.8,5.7c1,0.7,1.2,3,1.2,4.5c0,24.9,0,49.6,0,74.4c0,1.7,0.3,3.4,0.5,5c0.5,0,1,0,1.3,0.2
			c0.2-1.7,0.7-3.2,0.7-4.9c0-23.9,0-47.7,0-71.7C329.8,45.2,329.8,43.7,329.8,41.8z"/>
		<path d="M319.2,31.1c-4.2-1.8-8.1-2.5-12.6,1.2c0.7-5.4-1.8-9.6,1.7-12.9c2.9-2.7,6-3,9.2-0.3C321.7,22.5,318.9,26.9,319.2,31.1z"
			/>
	</g>
</g>
</svg>
