<?xml version="1.0" encoding="utf-8"?>
<!-- Generator: Adobe Illustrator 18.1.0, SVG Export Plug-In . SVG Version: 6.00 Build 0)  -->
<svg version="1.1" id="Layer_1" xmlns="http://www.w3.org/2000/svg" xmlns:xlink="http://www.w3.org/1999/xlink" x="0px" y="0px"
	 viewBox="262.1 34.1 99.8 99.8" enable-background="new 262.1 34.1 99.8 99.8" xml:space="preserve">
<g>
	<g>
		<path d="M312,43.3c22.5,0,40.7,18.3,40.7,40.7s-18.1,40.7-40.7,40.7s-40.7-18.1-40.7-40.7S289.7,43.3,312,43.3 M312,38.3
			c-25.2,0-45.7,20.5-45.7,45.7s20.5,45.7,45.7,45.7s45.7-20.5,45.7-45.7S337.4,38.3,312,38.3L312,38.3z"/>
	</g>
	<g>
		<path d="M312,56.1c15.5,0,27.9,12.6,27.9,27.9s-12.4,27.9-27.9,27.9S284.1,99.3,284.1,84S296.7,56.1,312,56.1 M312,54.4
			c-16.3,0-29.6,13.3-29.6,29.6s13.3,29.6,29.6,29.6s29.6-13.3,29.6-29.6S328.5,54.4,312,54.4L312,54.4z"/>
	</g>
	<g>
		<path d="M312,70.4c7.6,0,13.6,6,13.6,13.6c0,7.6-6,13.6-13.6,13.6s-13.6-6-13.6-13.6C298.4,76.4,304.6,70.4,312,70.4 M312,68.7
			c-8.4,0-15.3,6.9-15.3,15.3s6.9,15.3,15.3,15.3s15.3-6.9,15.3-15.3S320.4,68.7,312,68.7L312,68.7z"/>
	</g>
	<line fill="none" stroke="#000000" stroke-miterlimit="10" x1="312" y1="34.1" x2="312" y2="133.9"/>
	<line fill="none" stroke="#000000" stroke-miterlimit="10" x1="361.9" y1="84" x2="262.3" y2="84"/>
	<path d="M360.2,85.7h-15c-0.8,0-1.7-0.7-1.7-1.7l0,0c0-0.8,0.7-1.7,1.7-1.7h15c0.8,0,1.7,0.7,1.7,1.7l0,0
		C361.9,84.8,361.2,85.7,360.2,85.7z"/>
	<path d="M278.7,85.7h-15c-0.8,0-1.7-0.7-1.7-1.7l0,0c0-0.8,0.7-1.7,1.7-1.7h15c0.8,0,1.7,0.7,1.7,1.7l0,0
		C280.2,84.8,279.6,85.7,278.7,85.7z"/>
	<path d="M310.5,50.7v-15c0-0.8,0.7-1.7,1.7-1.7l0,0c0.8,0,1.7,0.7,1.7,1.7v15c0,0.8-0.7,1.7-1.7,1.7l0,0
		C311.2,52.2,310.5,51.6,310.5,50.7z"/>
	<path d="M310.5,132.2v-15c0-0.8,0.7-1.7,1.7-1.7l0,0c0.8,0,1.7,0.7,1.7,1.7v15c0,0.8-0.7,1.7-1.7,1.7l0,0
		C311.2,133.9,310.5,133.1,310.5,132.2z"/>
	<line fill="none" stroke="#000000" stroke-linecap="round" stroke-miterlimit="10" x1="332.2" y1="82.3" x2="332.2" y2="85.8"/>
	<line fill="none" stroke="#000000" stroke-linecap="round" stroke-miterlimit="10" x1="330" y1="82.3" x2="330" y2="85.8"/>
	<line fill="none" stroke="#000000" stroke-linecap="round" stroke-miterlimit="10" x1="294.2" y1="82.3" x2="294.2" y2="85.8"/>
	<line fill="none" stroke="#000000" stroke-linecap="round" stroke-miterlimit="10" x1="292" y1="82.3" x2="292" y2="85.8"/>
	<line fill="none" stroke="#000000" stroke-linecap="round" stroke-miterlimit="10" x1="310.3" y1="64" x2="313.7" y2="64"/>
	<line fill="none" stroke="#000000" stroke-linecap="round" stroke-miterlimit="10" x1="310.3" y1="66.2" x2="313.7" y2="66.2"/>
	<line fill="none" stroke="#000000" stroke-linecap="round" stroke-miterlimit="10" x1="310.3" y1="102" x2="313.7" y2="102"/>
	<line fill="none" stroke="#000000" stroke-linecap="round" stroke-miterlimit="10" x1="310.3" y1="104.2" x2="313.7" y2="104.2"/>
</g>
</svg>
