<?xml version="1.0" encoding="utf-8"?>
<!-- Generator: Adobe Illustrator 18.1.0, SVG Export Plug-In . SVG Version: 6.00 Build 0)  -->
<svg version="1.1" id="Layer_1" xmlns="http://www.w3.org/2000/svg" xmlns:xlink="http://www.w3.org/1999/xlink" x="0px" y="0px"
	 viewBox="249.6 4.6 124.7 158.7" enable-background="new 249.6 4.6 124.7 158.7" xml:space="preserve">
<g display="none">
	<path display="inline" fill="#CC0000" d="M328.3,4.7h37.6V112c0,9.9-2.3,18.8-6.9,26.6c-4.6,7.8-11.1,13.8-19.4,18.1
		c-8.3,4.3-17.5,6.5-27.7,6.5c-17,0-30.3-4.3-39.7-12.9s-14.2-20.8-14.2-36.5h37.8c0,7.2,1.2,12.4,3.7,15.6s6.6,4.8,12.4,4.8
		c5.2,0,9.2-1.9,12.1-5.8c2.8-3.9,4.2-9.4,4.2-16.4L328.3,4.7L328.3,4.7z"/>
</g>
<g>
	<path fill="#3365F0" d="M249.6,163.4V4.6h51.1c14,0,26.6,3.2,37.8,9.5c11.2,6.4,19.9,15.3,26.2,26.9c6.3,11.6,9.5,24.6,9.5,39v7.3
		c0,14.5-3.1,27.6-9.2,39.1c-6.1,11.5-14.8,20.5-25.9,27c-11.2,6.5-23.6,9.8-37.3,9.9L249.6,163.4L249.6,163.4z M287.9,34.2v99.7
		h13.3c11,0,19.4-3.9,25.3-11.7c5.9-7.8,8.8-19.4,8.8-34.8v-6.9c0-15.3-3-26.9-8.8-34.7c-5.9-7.8-14.4-11.7-25.7-11.7L287.9,34.2
		L287.9,34.2z"/>
</g>
<g display="none">
	<path display="inline" fill="#4CD8D8" d="M299.4,104.3l-15.7,17.2v41.9h-38.3V4.6h38.3v70L297,54.5l34.2-49.8h47.3l-53.7,70.2
		l53.6,88.5h-45.4L299.4,104.3z"/>
</g>
<g display="none">
	<path display="inline" fill="#4BB767" d="M307,107.2h-20.7v56.1H248V4.6h62.5c18.8,0,33.5,4.2,44.2,12.5s15.9,20.2,15.9,35.4
		c0,11-2.3,20.2-6.7,27.5c-4.5,7.3-11.5,13.1-21,17.6l33.1,64.1v1.6h-41L307,107.2z M286.3,77.8h24.2c7.3,0,12.7-1.9,16.4-5.7
		c3.7-3.8,5.5-9.2,5.5-16s-1.8-12.2-5.5-16.1c-3.7-3.9-9.2-5.8-16.4-5.8h-24.2C286.3,34,286.3,77.8,286.3,77.8z"/>
</g>
</svg>
