<?xml version="1.0" encoding="utf-8"?>
<!-- Generator: Adobe Illustrator 18.1.0, SVG Export Plug-In . SVG Version: 6.00 Build 0)  -->
<svg version="1.1" id="Layer_1" xmlns="http://www.w3.org/2000/svg" xmlns:xlink="http://www.w3.org/1999/xlink" x="0px" y="0px"
	 viewBox="258.1 4.7 107.9 158.6" enable-background="new 258.1 4.7 107.9 158.6" xml:space="preserve">
<g>
	<path fill="#DC1678" d="M328.3,4.7h37.6V112c0,9.9-2.3,18.8-6.9,26.6c-4.6,7.8-11.1,13.8-19.4,18.1c-8.3,4.3-17.5,6.5-27.7,6.5
		c-17,0-30.3-4.3-39.7-12.9s-14.2-20.8-14.2-36.5h37.8c0,7.2,1.2,12.4,3.7,15.6s6.6,4.8,12.4,4.8c5.2,0,9.2-1.9,12.1-5.8
		c2.8-3.9,4.2-9.4,4.2-16.4L328.3,4.7L328.3,4.7z"/>
</g>
</svg>
