<?xml version="1.0" encoding="utf-8"?>
<!-- Generator: Adobe Illustrator 18.1.0, SVG Export Plug-In . SVG Version: 6.00 Build 0)  -->
<svg version="1.1" id="Layer_1" xmlns="http://www.w3.org/2000/svg" xmlns:xlink="http://www.w3.org/1999/xlink" x="0px" y="0px"
	 viewBox="0 0 500 500" enable-background="new 0 0 500 500" xml:space="preserve">
<g display="none">
	<path display="inline" fill="#CC0000" d="M298.6,14h111.9v319.4c0,29.6-6.9,56.1-20.6,79.3s-32.9,41.2-57.6,54
		c-24.6,12.9-52,19.3-82.3,19.3c-50.7,0-90.2-12.8-118.3-38.4s-42.2-61.8-42.2-108.7H202c0,21.3,3.7,36.8,11,46.4
		s19.7,14.4,36.9,14.4c15.6,0,27.5-5.8,36-17.4c8.4-11.6,12.6-27.9,12.6-48.8V14H298.6z"/>
</g>
<g display="none">
	<path display="inline" fill="#F15D2E" d="M64.4,486.2V13.8h152.2c41.7,0,79.3,9.5,112.6,28.4s59.3,45.6,78,80.1s28.2,73.2,28.4,116
		V260c0,43.3-9.1,82-27.4,116.3s-44,61.1-77.2,80.5s-70.2,29.1-111.1,29.4L64.4,486.2L64.4,486.2z M178.3,101.7v296.8h39.6
		c32.7,0,57.7-11.6,75.3-34.9c17.5-23.2,26.3-57.8,26.3-103.6v-20.4c0-45.6-8.8-80-26.3-103.2c-17.5-23.1-43-34.7-76.6-34.7
		L178.3,101.7L178.3,101.7z"/>
</g>
<g display="none">
	<path display="inline" fill="#4CD8D8" d="M212.5,310.3l-46.7,51.3v124.6H51.9V13.8h113.9v208.3l39.6-60L307.3,13.8h140.8
		L288.4,222.7l159.6,263.5h-135L212.5,310.3z"/>
</g>
<g display="none">
	<path display="inline" fill="#4BB767" d="M235.1,319.1h-61.6v167.1H59.5V13.8h185.9c56,0,99.8,12.4,131.4,37.3
		c31.6,24.9,47.4,60,47.4,105.3c0,32.8-6.7,60.1-20,81.7c-13.3,21.6-34.1,39.1-62.5,52.5l98.6,190.7v4.9h-122L235.1,319.1z
		 M173.4,231.5h72c21.6,0,37.9-5.7,48.8-17.1c10.9-11.4,16.4-27.3,16.4-47.7c0-20.4-5.5-36.4-16.5-48s-27.3-17.4-48.7-17.4h-72
		V231.5z"/>
</g>
<g>
	<path fill="#96268F" d="M433.2,14.3v304.4c0,34.5-7.3,64.4-22,89.6c-14.7,25.2-35.8,44.5-63.2,57.7c-27.5,13.2-59.9,19.8-97.4,19.8
		c-56.6,0-101.3-14.7-133.8-44.1S67.5,372,66.8,320.9V14.3h112.8v308.9c1.3,50.9,24.9,76.3,70.9,76.3c23.2,0,40.8-6.4,52.7-19.2
		c11.9-12.8,17.9-33.5,17.9-62.3V14.3H433.2z"/>
</g>
</svg>
