<?xml version="1.0" encoding="utf-8"?>
<!-- Generator: Adobe Illustrator 18.1.0, SVG Export Plug-In . SVG Version: 6.00 Build 0)  -->
<svg version="1.1" id="Layer_1" xmlns="http://www.w3.org/2000/svg" xmlns:xlink="http://www.w3.org/1999/xlink" x="0px" y="0px"
	 viewBox="0 0 494.3 360" enable-background="new 0 0 494.3 360" xml:space="preserve">
<g>
	<g>
		<path fill="#58595B" d="M219.4,16.7v192.1h-29V16.7H219.4z"/>
		<path fill="#58595B" d="M346.2,44h-66.9v46.1h64.6v27.2h-64.6v91.4h-29V16.7h95.9V44z"/>
	</g>
	<path fill="#D71920" d="M94.4,200.7c0,0,0.7,5.2-1.3,7.2c-3.2,3.2-10.8,3.3-10.8,3.3H21.7l0-22.2l0.1-44.7l0.1-0.1
		c0,0-0.2-26.6-0.2-44.2c0-17.7,25-18.5,25,0c0,18.5-4.4,33.8,5.8,44c10.2,10.2,69.8,2.8,97.8,2.8c19.7,0,17.4,22.6-0.1,22.6
		c-25.9,0-34.2,0-34.2,0s2.9,7.9-0.4,13.8c-3.3,5.9-10.1,5.9-10.1,5.9s0.6,5.2-3,8.8C99,201.3,94.4,200.7,94.4,200.7z"/>
	<path fill="#D71920" d="M92.8,25.6c0,0-0.7-5.2,1.3-7.2c3.2-3.2,10.8-3.3,10.8-3.3h60.5l0,22.2l-0.1,44.7l-0.1,0.1
		c0,0,0.2,26.6,0.2,44.2c0,17.7-25,18.5-25,0c0-18.5,4.4-33.8-5.8-44c-10.2-10.2-69.8-2.8-97.8-2.8c-19.7,0-17.4-22.6,0.1-22.6
		c25.9,0,34.2,0,34.2,0s-2.9-7.9,0.4-13.8c3.3-5.9,10.1-5.9,10.1-5.9s-0.6-5.2,3-8.8C88.3,24.9,92.8,25.6,92.8,25.6z"/>
	<g>
		<path d="M20.2,226.2h2.1V273h-2.1V226.2z"/>
		<path d="M33.3,226.2h2.2l29.3,43v-43H67V273h-2.1l-29.4-43v43h-2.1V226.2z"/>
		<path d="M87.9,228.2H73.4v-2h31.3v2H90.1V273h-2.2V228.2z"/>
		<path d="M110.8,226.2h28.5v2.1H113v19.3h20.9v2H113v21.3h27v2.1h-29.2V226.2z"/>
		<path d="M149.8,250.9V273h-2.2v-46.7h15.5c5.2,0,8.9,0.7,11.4,2.2c3.1,1.9,4.6,5.2,4.6,10c0,5.9-2.8,9.8-8.5,11.5
			c3.9,0.8,6.1,3.5,6.6,8.1c0,0.2,0.1,2.2,0.1,6l0.1,8.9h-2.5v-10.5c0-1.3,0-2.3,0-3c0-0.8-0.1-1.3-0.1-1.7
			c-0.5-2.9-1.7-4.8-3.6-5.8c-1.5-0.8-3.9-1.2-7.2-1.2H149.8z M164.3,248.9c8.5,0,12.7-3.4,12.7-10.3c0-5.8-2.6-9.1-7.9-10.1
			c-0.6-0.1-1.4-0.2-2.4-0.2c-1-0.1-2.2-0.1-3.5-0.1h-13.3v20.7H164.3z"/>
		<path d="M188.1,226.2h2.2l29.3,43v-43h2.1V273h-2.1l-29.4-43v43h-2.1V226.2z"/>
		<path d="M246.1,226.2h2.5l17.8,46.7h-2.1l-6-15.9h-21.8l-6.1,15.9H228L246.1,226.2z M257.3,255.1l-10-26.3l-10.2,26.3H257.3z"/>
		<path d="M279,228.2h-14.6v-2h31.3v2h-14.6V273H279V228.2z"/>
		<path d="M303.4,226.2h2.1V273h-2.1V226.2z"/>
		<path d="M319.5,232.5c3.6-4.9,8.9-7.3,15.8-7.3c6.9,0,12.2,2.4,15.9,7.2c3.3,4.4,4.9,10.1,4.9,17.2c0,7.2-1.6,12.9-4.9,17.2
			c-3.6,4.8-8.9,7.2-15.9,7.2c-6.9,0-12.2-2.4-15.8-7.2c-3.3-4.3-4.9-10-4.9-17.2C314.6,242.6,316.2,236.8,319.5,232.5z
			 M321.1,265.3c3.2,4.5,7.9,6.8,14.2,6.8c6.3,0,11-2.3,14.2-6.8c2.8-3.9,4.2-9.2,4.2-15.7c0-6.5-1.4-11.7-4.3-15.7
			c-3.2-4.6-8-6.8-14.2-6.8c-6.2,0-10.9,2.3-14.2,6.8c-2.8,4-4.2,9.2-4.2,15.7C316.9,256.1,318.3,261.3,321.1,265.3z"/>
		<path d="M364.7,226.2h2.2l29.3,43v-43h2.1V273h-2.1l-29.4-43v43h-2.1V226.2z"/>
		<path d="M422.7,226.2h2.5l17.8,46.7h-2.1l-6-15.9H413l-6.1,15.9h-2.1L422.7,226.2z M434,255.1l-10-26.3l-10.2,26.3H434z"/>
		<path d="M447.7,226.2h2.2v44.7h24.8v2.1h-27V226.2z"/>
		<path d="M21.3,286h36.4v2.6H24.2v24.5h26.6v2.6H24.2v29.6h-2.9V286z"/>
		<path d="M67,286h2.9v59.2H67V286z"/>
		<path d="M82.9,286h2.9v56.6h33v2.6h-36V286z"/>
		<path d="M126.9,286h4.2l22.7,41.7l21.8-41.7h4.1v59.2h-2.6v-55.8l-22.5,41.6h-1.7l-23.3-41.6v55.8h-2.6V286z"/>
		<path d="M216.1,327.2c0.3,5.2,2.1,9.3,5.3,12.3c3.2,3,7.6,4.6,13.1,4.6c4.9,0,8.9-1.2,12.1-3.5c3.7-2.5,5.5-6,5.5-10.4
			c0-4.6-1.9-8-5.8-10.3c-1.9-1.2-6.1-2.6-12.5-4.3c-0.1-0.1-0.4-0.2-1.1-0.3c-7.2-1.9-11.7-3.7-13.6-5.4c-2.9-2.5-4.4-5.8-4.4-9.8
			c0-5.1,1.9-8.9,5.5-11.6c3.4-2.6,7.8-3.9,13.2-3.9c5.8,0,10.5,1.5,14,4.5c3.6,3,5.6,7.3,5.9,12.8h-2.8c-0.1-4.8-1.8-8.5-5.1-11.2
			c-3.2-2.6-7.3-3.9-12.2-3.9c-4.6,0-8.4,1.1-11.2,3.3c-3.1,2.3-4.6,5.6-4.6,9.9c0,3.1,1.3,5.7,3.8,8c1.9,1.6,6,3.2,12.3,4.8
			c0.1,0.1,0.3,0.1,0.5,0.1c0.2,0,0.4,0.1,0.7,0.2c6.6,1.7,11.2,3.3,13.7,4.8c4.4,2.7,6.6,6.5,6.6,11.4c0,5.5-2.1,9.8-6.2,12.8
			c-3.8,2.7-8.6,4.1-14.6,4.1c-6.3,0-11.3-1.7-15-5.2c-3.8-3.3-5.8-8-6.2-14.1H216.1z"/>
		<path d="M264.4,286h38.1v2.6h-35.1v24.5h27.8v2.6h-27.8v26.9h36v2.6h-38.9V286z"/>
		<path d="M316.5,317.2v28h-2.9V286h20.7c6.9,0,11.9,0.9,15.2,2.8c4.1,2.4,6.2,6.6,6.2,12.7c0,7.5-3.8,12.4-11.3,14.6
			c5.3,1,8.2,4.4,8.8,10.2c0.1,0.3,0.1,2.8,0.1,7.7l0.1,11.3h-3.4V332c0-1.6,0-2.9,0-3.8c0-1-0.1-1.7-0.1-2.1
			c-0.6-3.6-2.3-6.1-4.9-7.3c-2-1-5.2-1.5-9.5-1.5H316.5z M335.8,314.7c11.3,0,16.9-4.3,16.9-13c0-7.3-3.5-11.6-10.5-12.8
			c-0.8-0.1-1.9-0.2-3.2-0.3c-1.3-0.1-2.9-0.1-4.7-0.1h-17.8v26.2H335.8z"/>
		<path d="M367.9,286h2.9v59.2h-2.9V286z"/>
		<path d="M383.7,286h38.1v2.6h-35.1v24.5h27.8v2.6h-27.8v26.9h36v2.6h-38.9V286z"/>
		<path d="M432.5,327.2c0.3,5.2,2.1,9.3,5.3,12.3c3.2,3,7.6,4.6,13.1,4.6c4.9,0,8.9-1.2,12.1-3.5c3.7-2.5,5.5-6,5.5-10.4
			c0-4.6-1.9-8-5.8-10.3c-1.9-1.2-6.1-2.6-12.5-4.3c-0.1-0.1-0.4-0.2-1.1-0.3c-7.2-1.9-11.7-3.7-13.6-5.4c-2.9-2.5-4.4-5.8-4.4-9.8
			c0-5.1,1.8-8.9,5.5-11.6c3.4-2.6,7.8-3.9,13.2-3.9c5.8,0,10.5,1.5,14,4.5c3.6,3,5.6,7.3,5.9,12.8h-2.8c-0.1-4.8-1.8-8.5-5.1-11.2
			c-3.2-2.6-7.3-3.9-12.2-3.9c-4.6,0-8.4,1.1-11.2,3.3c-3.1,2.3-4.6,5.6-4.6,9.9c0,3.1,1.3,5.7,3.8,8c1.9,1.6,6,3.2,12.3,4.8
			c0.1,0.1,0.3,0.1,0.5,0.1c0.2,0,0.4,0.1,0.7,0.2c6.6,1.7,11.2,3.3,13.7,4.8c4.4,2.7,6.6,6.5,6.6,11.4c0,5.5-2.1,9.8-6.2,12.8
			c-3.8,2.7-8.6,4.1-14.6,4.1c-6.3,0-11.3-1.7-15-5.2c-3.8-3.3-5.8-8-6.2-14.1H432.5z"/>
	</g>
	<path fill="#58595B" d="M467.3,117.6c-7.2-9.1-18.6-16.8-34.2-23.1l-19.2-7.8C400,81,393,73.4,393,64c0-6.8,3.2-12.9,8.2-17.7
		c5.4-5.3,11.7-7.5,19.7-7.5c6.6,0,13.8,1,17.9,3.7c4,2.3,9.3,7.7,10.7,16.6v0h0c0,0,0,0,0,0l0.1,0h23.4c0,0,0.6-46.1-51.9-46.1
		c-16.4,0-30.1,4.9-41.2,14.7c-11,9.7-16.5,21.8-16.5,36.2c0,21.4,13.1,37.6,39.4,48.7l18.5,7.7c4.8,2.1,9,4.2,12.4,6.5
		c3.5,2.3,6.3,4.7,8.5,7.3c2.2,2.6,3.8,5.5,4.9,8.6c1,3.1,1.6,6.5,1.6,10.3c0,9.3-3,16.9-9,23c-6,6-13.5,9.1-22.5,9.1
		c-11.4,0-20.2-4.1-26.1-12.4c-3.3-4.3-5.6-12.1-7-23.4l0,0v-0.1h-29.3c0,0,0,2.7,0,6.6c0.9,16.4,9.3,31.8,20,41.7
		c10.9,9.9,24.6,14.9,41.3,14.9c17.6,0,32.3-5.8,44.2-17.4c11.8-11.5,17.7-26.1,17.7-43.8C478.1,137.8,474.5,126.7,467.3,117.6z"/>
</g>
</svg>
