<?xml version="1.0" encoding="utf-8"?>
<!-- Generator: Adobe Illustrator 18.1.0, SVG Export Plug-In . SVG Version: 6.00 Build 0)  -->
<svg version="1.1" xmlns="http://www.w3.org/2000/svg" xmlns:xlink="http://www.w3.org/1999/xlink" x="0px" y="0px"
	 viewBox="0 0 288.7 320" enable-background="new 0 0 288.7 320" xml:space="preserve">
<g id="Layer_1">
	<g>
		<g>
			<circle fill="#899FB4" cx="139.2" cy="159.1" r="139.2"/>
			<g>
				<defs>
					<circle id="SVGID_1_" cx="139.2" cy="159.1" r="139.2"/>
				</defs>
				<clipPath id="SVGID_2_">
					<use xlink:href="#SVGID_1_"  overflow="visible"/>
				</clipPath>
				<g clip-path="url(#SVGID_2_)">
					<g>
						<path fill="#FFFFFF" d="M263.2,168.5c-24.8,0-45.1,19.6-46.2,44.1c-3.9-2.4-8.5-3.7-13.4-3.7c-14.4,0-26,11.6-26,26
							c0,2.1,0.3,4.2,0.7,6.2c-2.2-2.4-5.3-3.9-8.7-3.9c-6.5,0-11.8,5.3-11.8,11.8c0,0.3,0,0.6,0,0.9h23.6h1h42.4h8.5H293
							c10-8.5,16.4-21.1,16.4-35.3C309.4,189.2,288.7,168.5,263.2,168.5z"/>
						<path fill="#FFFFFF" d="M194.9,164.9c-0.8,0-1.7,0.1-2.5,0.2c0-0.1,0-0.2,0-0.2c0-13.9-11.2-25.1-25.1-25.1
							c-13.9,0-25.1,11.2-25.1,25.1c0,0.4,0,0.9,0,1.3c-1.6-0.7-3.3-1.1-5.2-1.1c-3.6,0-6.9,1.6-9.2,4.1c0.5-2.1,0.8-4.3,0.8-6.5
							c0-15.1-12.3-27.4-27.4-27.4c-5.2,0-10,1.4-14.1,3.9C86,113.3,64.7,92.7,38.5,92.7c-26.9,0-48.7,21.8-48.7,48.7
							c0,15.1,6.8,28.5,17.6,37.4h62.2h9.6h44.2h1.3h82.7c0-0.4,0.1-0.9,0.1-1.3C207.4,170.5,201.8,164.9,194.9,164.9z"/>
						<path fill="#FFFFFF" d="M257,116.8c-1,0-2,0.2-2.9,0.6c0-0.4,0.1-0.7,0.1-1.1c0-8-6.5-14.4-14.4-14.4c-1,0-1.9,0.1-2.8,0.3
							c0-0.1,0-0.2,0-0.3C237,85.9,224,73,208.1,73c-15.9,0-28.9,12.9-28.9,28.9c0,0.5,0,1,0,1.5c-1.8-0.8-3.8-1.3-5.9-1.3
							c-7.9,0-14.3,6.4-14.3,14.3c0,0.2,0,0.3,0,0.5c-0.4-0.1-0.8-0.1-1.2-0.1c-3.9,0-7,3.1-7,7h34.8h3.7h37.6h0.5H264
							C264,119.9,260.9,116.8,257,116.8z"/>
					</g>
				</g>
			</g>
		</g>
		<polyline fill="#BBBDC0" points="283.4,320 235.4,281.8 219.4,300.9 139.7,186.3 86.9,274.2 69.7,262.7 4.4,320 		"/>
		<polygon fill="#E6E7E8" points="102.9,247.6 112,262.7 119,257.5 124.7,247.6 135.4,237.7 147.4,246.4 161.3,251.6 171.4,243.6 
			179.5,243.6 139.7,186.3 		"/>
		<polygon fill="#E6E7E8" points="223.5,295.9 230.7,300.9 237.7,298.4 245.7,306.5 259.7,308.5 267.4,307.3 235.4,281.8 		"/>
		<polygon fill="#E6E7E8" points="16.2,309.7 43.4,297.3 63.7,295.1 81.7,302.4 91.4,295.1 102.9,291.8 109.3,288.3 69.7,262.7 		
			"/>
		<polygon fill="#CC0000" points="241.5,62 139.9,62 139.9,6.7 241.5,6.7 210.6,34.3 		"/>
		<line fill="none" stroke="#30241C" stroke-width="4" stroke-miterlimit="10" x1="139.7" y1="0" x2="139.7" y2="189.7"/>
		<polygon fill="#CC0000" points="122.9,201.2 69.7,201.2 69.7,168.2 122.9,168.2 106.7,184.7 		"/>
		<line fill="none" stroke="#30241C" stroke-width="4" stroke-miterlimit="10" x1="69.6" y1="164.7" x2="69.6" y2="264"/>
		<polygon fill="#CC0000" points="288.7,236.5 235.5,236.5 235.5,203.5 288.7,203.5 272.5,220 		"/>
		<line fill="none" stroke="#30241C" stroke-width="4" stroke-miterlimit="10" x1="235.4" y1="199" x2="235.4" y2="284.2"/>
	</g>
</g>
<g id="Layer_2" display="none">
	<g display="inline">
		<circle fill="#899FB4" cx="143.5" cy="160.1" r="139.2"/>
		<g>
			<rect x="121.4" y="297.1" fill="#899FB4" width="45.7" height="22.9"/>
			<path fill="#CCCCCC" d="M98.6,160c0,58.2,8.9,109.1,22.2,137.1h47.1c13.3-28,22.2-78.9,22.2-137.1c0-34-6.8-65.5-15.1-91.4h-61.2
				C105.3,94.5,98.6,126,98.6,160z"/>
			<path fill="#CC0000" d="M113.7,68.6h61.2C161.6,27.1,144.3,0,144.3,0S127,27.1,113.7,68.6z"/>
			<path fill="#BBBDC0" d="M112.3,274.3c0,0-36.6,0-36.6,45.7H30v-68.6c0,0,69,0,69-68.6C99,182.9,100.1,228.6,112.3,274.3z"/>
			<path fill="#CCCCCC" d="M0.2,256.7c0,26.9,4.1,50.4,10.2,63.3h21.7c6.1-12.9,10.2-36.4,10.2-63.3c0-15.7-3.1-30.2-7-42.2H7.1
				C3.3,226.5,0.2,241,0.2,256.7z"/>
			<path fill="#CC0000" d="M7.1,214.5h28.3c-6.1-19.1-14.1-31.6-14.1-31.6S13.3,195.4,7.1,214.5z"/>
			<path fill="#BBBDC0" d="M176.4,274.3c0,0,36.6,0,36.6,45.7h45.7v-68.6c0,0-69,0-69-68.6C189.6,182.9,188.5,228.6,176.4,274.3z"/>
			<path fill="#CCCCCC" d="M288.5,256.7c0,26.9-4.1,50.4-10.2,63.3h-21.7c-6.1-12.9-10.2-36.4-10.2-63.3c0-15.7,3.1-30.2,7-42.2
				h28.3C285.4,226.5,288.5,241,288.5,256.7z"/>
			<path fill="#CC0000" d="M281.5,214.5h-28.3c6.1-19.1,14.1-31.6,14.1-31.6S275.4,195.4,281.5,214.5z"/>
			<circle fill="#899FB4" cx="144.3" cy="114.3" r="13.1"/>
			<path fill="#003A66" d="M153.5,105.1c5.1,5.1,5.1,13.4,0,18.5c-5.1,5.1-13.4,5.1-18.5,0"/>
			<circle fill="none" stroke="#30241C" stroke-width="4" stroke-miterlimit="10" cx="144.3" cy="114.3" r="21.1"/>
			<line fill="none" stroke="#30241C" stroke-width="4" stroke-miterlimit="10" x1="101.9" y1="223.8" x2="186.5" y2="223.8"/>
			<line fill="none" stroke="#30241C" stroke-width="4" stroke-miterlimit="10" x1="113.5" y1="68.6" x2="174.9" y2="68.6"/>
			<line fill="none" stroke="#30241C" stroke-width="4" stroke-miterlimit="10" x1="4.6" y1="223.8" x2="38.1" y2="223.8"/>
			<line fill="none" stroke="#30241C" stroke-width="4" stroke-miterlimit="10" x1="1.3" y1="240" x2="41.3" y2="240"/>
			<line fill="none" stroke="#30241C" stroke-width="4" stroke-miterlimit="10" x1="250.7" y1="223.8" x2="284.2" y2="223.8"/>
			<line fill="none" stroke="#30241C" stroke-width="4" stroke-miterlimit="10" x1="247.4" y1="240" x2="287.4" y2="240"/>
			<line fill="none" stroke="#30241C" stroke-width="4" stroke-miterlimit="10" x1="105.1" y1="240" x2="183.5" y2="240"/>
		</g>
		<path fill="#FFFFFF" d="M228.6,99.1c5.4,9.5,16.5,13.9,26.6,11.2c-1.4,1.4-3.1,2.7-4.9,3.7c-11.4,6.5-25.8,2.5-32.3-8.8
			c-6.5-11.4-2.5-25.8,8.8-32.3c1.8-1,3.7-1.8,5.7-2.3C225.1,77.8,223.1,89.5,228.6,99.1z"/>
		<g>
			<g>
				<path fill="#FFFFFF" d="M78.9,71.4c1.9,0,1.9-3,0-3C76.9,68.4,76.9,71.4,78.9,71.4L78.9,71.4z"/>
			</g>
		</g>
		<g>
			<g>
				<path fill="#FFFFFF" d="M51.2,114.4c1.9,0,1.9-3,0-3C49.3,111.4,49.3,114.4,51.2,114.4L51.2,114.4z"/>
			</g>
		</g>
		<g>
			<g>
				<path fill="#FFFFFF" d="M70.8,124.6c1.9,0,1.9-3,0-3C68.8,121.6,68.8,124.6,70.8,124.6L70.8,124.6z"/>
			</g>
		</g>
		<g>
			<g>
				<path fill="#FFFFFF" d="M105.7,63.8c1.9,0,1.9-3,0-3C103.7,60.8,103.7,63.8,105.7,63.8L105.7,63.8z"/>
			</g>
		</g>
		<g>
			<g>
				<path fill="#FFFFFF" d="M55,171.8c1.9,0,1.9-3,0-3C53.1,168.8,53.1,171.8,55,171.8L55,171.8z"/>
			</g>
		</g>
		<g>
			<g>
				<path fill="#FFFFFF" d="M211.6,159.9c1.9,0,1.9-3,0-3C209.7,156.9,209.7,159.9,211.6,159.9L211.6,159.9z"/>
			</g>
		</g>
		<g>
			<g>
				<path fill="#FFFFFF" d="M262.3,149.7c1.9,0,1.9-3,0-3C260.3,146.7,260.3,149.7,262.3,149.7L262.3,149.7z"/>
			</g>
		</g>
		<g>
			<g>
				<path fill="#FFFFFF" d="M192,61.6c1.9,0,1.9-3,0-3C190.1,58.6,190.1,61.6,192,61.6L192,61.6z"/>
			</g>
		</g>
		<g>
			<g>
				<path fill="#FFFFFF" d="M221.4,194c1.9,0,1.9-3,0-3C219.5,191,219.5,194,221.4,194L221.4,194z"/>
			</g>
		</g>
		<g>
			<g>
				<path fill="#FFFFFF" d="M80.1,204.2c1.9,0,1.9-3,0-3C78.2,201.2,78.2,204.2,80.1,204.2L80.1,204.2z"/>
			</g>
		</g>
		<g>
			<g>
				<path fill="#FFFFFF" d="M22.3,159.9c1.9,0,1.9-3,0-3C20.3,156.9,20.3,159.9,22.3,159.9L22.3,159.9z"/>
			</g>
		</g>
		<g>
			<g>
				<path fill="#FFFFFF" d="M203.1,135.2c1.9,0,1.9-3,0-3C201.2,132.2,201.2,135.2,203.1,135.2L203.1,135.2z"/>
			</g>
		</g>
		<g>
			<g>
				<path fill="#FFFFFF" d="M195.4,41.6c1.9,0,1.9-3,0-3C193.5,38.6,193.5,41.6,195.4,41.6L195.4,41.6z"/>
			</g>
		</g>
		<g>
			<g>
				<path fill="#FFFFFF" d="M88.6,42.1c1.9,0,1.9-3,0-3C86.7,39.1,86.7,42.1,88.6,42.1L88.6,42.1z"/>
			</g>
		</g>
		<g>
			<g>
				<path fill="#FFFFFF" d="M92.9,123.8c1.9,0,1.9-3,0-3C91,120.8,91,123.8,92.9,123.8L92.9,123.8z"/>
			</g>
		</g>
		<g>
			<g>
				<path fill="#FFFFFF" d="M249.9,85.9c1.9,0,1.9-3,0-3C248,82.9,248,85.9,249.9,85.9L249.9,85.9z"/>
			</g>
		</g>
	</g>
</g>
</svg>
