<?xml version="1.0" encoding="utf-8"?>
<!-- Generator: Adobe Illustrator 18.1.0, SVG Export Plug-In . SVG Version: 6.00 Build 0)  -->
<svg version="1.1" id="Layer_1" xmlns="http://www.w3.org/2000/svg" xmlns:xlink="http://www.w3.org/1999/xlink" x="0px" y="0px"
	 viewBox="0 0 401.6 537.9" enable-background="new 0 0 401.6 537.9" xml:space="preserve">
<path fill="#92FF5F" d="M203.5,537.9c-31.3-0.4-56.6-1.6-80.5-11c-7-2.8-14-6.5-20.1-10.9c-18.9-13.8-24.8-33.4-21.4-55.6
	c1-6.6,5.4-13.3,9.8-18.7c7.8-9.5,15.9-19,25.4-26.8c19-15.8,29.8-35.5,34.4-59.5c2.2-11.4,5.6-22.6,9.9-33.4
	c9.2-23.5,33.3-32.8,56.3-22.5c18.5,8.4,29.5,23.2,35.6,42.1c3,9.3,5.9,18.7,9.1,28c5.6,16.3,15.2,29.8,28.3,41
	c7.8,6.7,15.3,13.9,22.7,21c24.3,23.3,20.1,69.3-13.3,86.9c-17.7,9.3-36.6,14.1-56.2,16.4C228.3,536.7,213,537.3,203.5,537.9z"/>
<path fill="#92FF5F" d="M107.7,268.1c-1.2,35.6-6.8,64.7-17.7,92.7c-3.9,10.1-10.3,18.4-21.9,19.4c-5.4,0.4-11.3-0.9-16.4-3
	c-11.8-5-21.8-13-27.9-24.1C-0.1,309.9-7.8,264.5,9,216.8c4.8-13.6,11.7-26.2,22.6-36.1c12.6-11.5,26.9-12.7,41.8-4.2
	c17.4,9.9,25.6,25.7,28.5,44.6C104.4,238.6,106.2,256.1,107.7,268.1z"/>
<path fill="#92FF5F" d="M295.7,274.2c0.2-20.6,1.4-40.4,7.3-59.5c2.2-7.1,5.2-14.1,9.2-20.4c11.6-18.3,33.9-23.6,52.4-12.1
	c7,4.4,13.4,10.6,18.4,17.2c13,17.3,18.9,37.3,18.7,58.9c-0.4,32.8-7.8,64-23,93.1c-3.5,6.7-7.9,13.2-13.1,18.7
	c-10.4,11.1-22.6,12-34.9,3.1c-12.4-8.9-20.8-20.9-25.7-35.4C297.8,317,295.9,295.4,295.7,274.2z"/>
<path fill="#92FF5F" d="M208.4,152.3c0.4-19.7-0.7-39.4,4.7-58.6c2.1-7.6,5-15.3,9.1-22c13.9-22.3,43.8-22.9,58.9-1.3
	c9.1,12.9,15,27.4,16.8,43.3c2.7,23.1,3.2,46.3-0.3,69.3c-3.3,21.3-9.9,41.7-21,60.5c-0.6,1-1.3,2-1.9,2.9
	c-13.2,18.5-32,19.3-46.8,1.8c-8.1-9.6-11.6-21.2-14-33.2c-1.2-6-2.3-12.1-2.8-18.2C210,181.9,209.3,167.1,208.4,152.3z"/>
<path fill="#92FF5F" d="M193.7,150c-0.7,31.7-2.7,58.9-12.9,84.7c-2.6,6.6-6,13.1-10.1,18.8c-8.3,11.5-18.2,12.6-28.9,3.2
	c-12.5-10.9-21.9-24.6-27.7-39.8c-13.2-34-17.5-69.3-11-105.4c2.7-14.7,8.6-28.3,17.9-40.2c2.9-3.6,6.1-7.1,9.8-9.9
	c14-11.1,29.5-9.4,41,4.4c8.6,10.4,13,22.7,16.1,35.6c1.6,6.6,3.1,13.3,3.8,20.1C192.8,132.3,193.3,143.3,193.7,150z"/>
<path fill="#92FF5F" d="M70.4,150.4c-11.1,0-21.6,0-32.5,0c1.6-12.3,2.8-25.4,9.4-37.1c3.5-6.2,8.1-6.1,11.6,0.1
	C65.4,125.1,67.8,138,70.4,150.4z"/>
<path fill="#92FF5F" d="M354.1,154.7c-11,0-21.4,0-32.3,0c1.3-12.5,2.7-25.9,9.7-37.8c3.2-5.5,8.2-5.6,10.6,0.1
	c4.3,10,7.3,20.5,10.7,30.9C353.6,150.3,353.7,152.8,354.1,154.7z"/>
<path fill="#92FF5F" d="M264.3,37.4c-10,0-19.3,0-29.1,0c1.4-11.2,2.6-22.7,8.3-33.1c3.2-5.7,7.2-5.7,10.5-0.1
	C260,14.5,261.9,26,264.3,37.4z"/>
<path fill="#92FF5F" d="M164.2,38c-6.5-0.5-11.2-1.2-15.8-1.2c-4.4,0-8.9,0.7-13.8,1.1c1.1-11.5,2.5-22.8,7.9-33.1
	c3.3-6.3,8-6.5,10.7,0.1C157.3,15.4,160.4,26.4,164.2,38z"/>
</svg>
