<?xml version="1.0" encoding="utf-8"?>
<!-- Generator: Adobe Illustrator 18.1.0, SVG Export Plug-In . SVG Version: 6.00 Build 0)  -->
<svg version="1.1" id="Layer_1" xmlns="http://www.w3.org/2000/svg" xmlns:xlink="http://www.w3.org/1999/xlink" x="0px" y="0px"
	 viewBox="0 0 540.3 540" enable-background="new 0 0 540.3 540" xml:space="preserve">
<path fill="#EF5D9D" d="M294.4,232.9c25.8,0.2,50.5,3.1,74,12.9c39.3,16.5,59.2,47.6,58,90.1c-0.5,19.7-4.6,38.7-11.3,57.1
	c-11.3,31.3-22.7,62.6-39.3,91.6c-7.9,13.8-17.3,26.5-29.9,36.6c-19.7,15.8-42.5,20.4-67.2,18.2c-32.3-2.8-60.7-15.6-87.1-33.6
	c-35.8-24.4-65.2-54.8-85-93.8C95,388.7,88.2,364,93,337.4c3.6-20.4,14-36.9,29.3-50.4c19.4-17.1,42.6-27,66.6-35.3
	C223.2,239.7,258.6,233.3,294.4,232.9z"/>
<path fill="#EF5D9D" d="M432,102.4c0.1,17.3-4.8,32.7-16.9,45.7c-17.8,19-37.8,34.7-63.2,42.2c-5,1.5-10.5,2.2-15.7,2.2
	c-13.7-0.1-23.2-7-29.1-19.2c-4.8-10-6.6-20.7-6.8-31.5c-0.7-30.7,3.1-60.9,13.9-89.8c3-8,7.4-15.7,12.5-22.6
	c13.8-18.7,34.8-23.4,55.4-12.6c23,12,37,31.6,44.8,55.8c3.1,9.6,4.2,19.7,6.2,29.7C432.8,102.3,432.4,102.3,432,102.4z"/>
<path fill="#EF5D9D" d="M269.7,61.7c-1.5,32.6-5.5,61.1-16.6,88c-3.3,8-8,15.8-13.4,22.6c-9.6,12-23.2,15.3-37.2,8.9
	c-8.2-3.8-16-9-22.7-15c-16.3-14.7-27.8-32.9-36.6-53c-8.7-19.9-5.9-39.2,3.1-57.8C159.1,28.5,179.4,9.7,208.6,2
	c27.9-7.4,50.8,6.6,57.3,34.7C268.1,46,268.8,55.7,269.7,61.7z"/>
<path fill="#EF5D9D" d="M122.6,157c-1.6,30.5-5.3,56.9-15.6,82c-2.8,6.8-6.7,13.5-11.2,19.3c-9.8,12.5-23,15.5-37.4,8.8
	c-5.4-2.5-10.6-5.8-15.1-9.6c-18.6-15.7-31.6-35.4-40.1-58.2c-6.3-17-2.6-33.3,5-48.8C20.6,125,40.1,107.1,68.4,101
	c25.1-5.5,44.6,7.2,50.6,32.4C121.1,142.2,121.8,151.4,122.6,157z"/>
<path fill="#EF5D9D" d="M438.9,216.2c1.3-23.5,3.4-44.5,12.3-64.1c2.8-6.1,6.6-12,11-17.1c9.9-11.3,23.6-13.8,37.2-7.2
	c4.4,2.2,8.7,5,12.4,8.2c12,10.5,20.3,23.8,25.8,38.6c3.7,10,3.5,20.4,0.4,30.5c-8.2,26.2-24.9,45-50.2,55.5
	c-23.3,9.7-41.5-0.6-46.5-25.3C439.9,228.3,439.5,221.1,438.9,216.2z"/>
<path fill="#56CBF5" d="M-190.6,150.3c-0.8,27.4-6,50.4-20.9,70.2c-9.4,12.6-21.2,22.1-37,25.6c-13,2.8-25.2,0.5-36.3-6.7
	c-19.1-12.3-29.9-30.4-35.2-52c-7.4-30.2-5-59.5,9.3-87.4c6.4-12.5,15.4-22.9,27.6-30.3c18.7-11.2,37.4-11,55.4,1.4
	c20.6,14.2,30.5,35.1,34.8,59C-191.6,137.8-191.2,145.6-190.6,150.3z"/>
</svg>
