<?xml version="1.0" encoding="utf-8"?>
<!-- Generator: Adobe Illustrator 18.1.0, SVG Export Plug-In . SVG Version: 6.00 Build 0)  -->
<svg version="1.1" id="Layer_1" xmlns="http://www.w3.org/2000/svg" xmlns:xlink="http://www.w3.org/1999/xlink" x="0px" y="0px"
	 viewBox="0 0 544 514.9" enable-background="new 0 0 544 514.9" xml:space="preserve">
<path fill="#FFFB66" d="M389.4,514.9c-3.9-0.8-9.6-1.6-15.2-3.1c-21.4-5.7-42.5-12.3-64.1-17.2c-32.7-7.5-65.1-4.5-97.1,5.1
	c-14.7,4.4-29.4,8.4-44.2,12.4c-24.1,6.6-49.4-3.5-62.2-24.7c-12.7-21.1-9.9-48.1,7.2-66.1c42.3-44.4,84.6-88.7,127.1-132.9
	c17.4-18.1,44.6-18.2,61.9-0.1c42.9,44.5,85.7,89,128.2,134c16.3,17.2,19.9,37.9,10.4,59.7C432,503.3,414.5,513.6,389.4,514.9z"/>
<path fill="#FFFB66" d="M423.4,89.8c-1.1,31.7-6.7,59.9-24.2,84.7c-6.2,8.8-14.1,16-23.4,21.4c-15.3,8.9-33,7.3-46.5-4.2
	c-17-14.5-25-33.8-28.7-55.1c-4.9-28.3-2.3-56.1,7.7-83.1c7.1-19.1,17.9-35.7,35.7-46.8C360.5-3.5,378.6-2,393.2,11
	c16.9,15.1,24.5,34.9,27.9,56.6C422.5,75.5,422.8,83.7,423.4,89.8z"/>
<path fill="#FFFB66" d="M245.6,110.1c0,20.1-3.1,39.4-12.1,57.6c-4.7,9.4-10.9,17.5-18.9,24.2c-13.4,11.3-30.9,12.9-46,4.2
	c-11.4-6.6-20.6-15.4-27-26.8c-23.3-41.2-27.1-84.3-11.1-128.8c4.4-12.3,12-22.6,22.1-30.9C166-1.7,183.4-3.1,198.5,5.9
	c19.2,11.4,30.4,29,37.8,49.3C242.7,72.9,245.8,91.2,245.6,110.1z"/>
<path fill="#FFFB66" d="M544,272.5c-0.7,30.5-6.3,54.5-23.5,74.4c-12.1,14-26.9,22.9-46.2,21.4c-18-1.5-31.4-11.4-42-25.1
	c-17.4-22.4-22.8-48.5-21.5-76.2c0.9-19.1,5.2-37.5,16.4-53.2c5.6-7.9,12.5-15.3,20.2-21.1c17.3-13,38.3-12.9,56.5-0.9
	c19.9,13.1,30.7,32.4,36,55C542.4,256.8,543.2,267.1,544,272.5z"/>
<path fill="#FFFB66" d="M133.5,271.7c-0.8,27.4-6,50.4-20.9,70.2c-9.4,12.6-21.2,22.1-37,25.6c-13,2.8-25.2,0.5-36.3-6.7
	c-19.1-12.3-29.9-30.4-35.2-52c-7.4-30.2-5-59.5,9.3-87.4c6.4-12.5,15.4-22.9,27.6-30.3c18.7-11.2,37.4-11,55.4,1.4
	c20.6,14.2,30.5,35.1,34.8,59C132.6,259.1,133,267,133.5,271.7z"/>
</svg>
