<?xml version="1.0" encoding="utf-8"?>
<!-- Generator: Adobe Illustrator 20.1.0, SVG Export Plug-In . SVG Version: 6.00 Build 0)  -->
<svg version="1.1" xmlns="http://www.w3.org/2000/svg" xmlns:xlink="http://www.w3.org/1999/xlink" x="0px" y="0px"
	 viewBox="0 0 157.3 188.9" style="enable-background:new 0 0 157.3 188.9;" xml:space="preserve">
<style type="text/css">
	.st0{fill:#414141;}
	.st1{clip-path:url(#SVGID_2_);}
</style>
<g id="Layer_2">
</g>
<g id="Layer_3">
	<g>
		<g>
			<path class="st0" d="M148.2,0H9.1C5.9,0,3.3,5.7,3.3,12.6v176.3H154V12.6C154,5.7,151.4,0,148.2,0z M148.2,176.3H9.1V12.6h139.1
				V176.3z"/>
		</g>
	</g>
	<g>
		<g>
			<defs>
				<circle id="SVGID_1_" cx="78.7" cy="94.4" r="55.3"/>
			</defs>
			<clipPath id="SVGID_2_">
				<use xlink:href="#SVGID_1_"  style="overflow:visible;"/>
			</clipPath>
			<g class="st1">
				<g>
					<g>
						<path class="st0" d="M114.1,83.8c0.6-2.6,0.9-5.3,0.9-8c0-20.3-16.5-36.7-36.7-36.7c-20.3,0-36.7,16.5-36.7,36.7
							c0,1.7,0.1,3.3,0.3,4.9l-9.1,23.2l10.1,0l2.1,23.2h20.3l5.7,22.7h27.5l17.2-11.7l-6.6-26.9L114.1,83.8L114.1,83.8z"/>
					</g>
				</g>
			</g>
		</g>
	</g>
</g>
</svg>
