<?xml version="1.0" encoding="utf-8"?>
<!-- Generator: Adobe Illustrator 19.2.1, SVG Export Plug-In . SVG Version: 6.00 Build 0)  -->
<svg version="1.1" id="Layer_1" xmlns="http://www.w3.org/2000/svg" xmlns:xlink="http://www.w3.org/1999/xlink" x="0px" y="0px"
	 viewBox="0 0 125.7 20.8" style="enable-background:new 0 0 125.7 20.8;" xml:space="preserve">
<g>
	<path d="M14.5,13.2H7.1l-1.6,4.6H8v2.5H0v-2.5h2.5L8,2.3H5.6V0H16v2.3h-2.5l5.7,15.5h2.3v2.5h-8v-2.5H16L14.5,13.2z M13.7,10.8
		L11,2.3h-0.3l-2.8,8.5H13.7z"/>
	<path d="M35.7,6.2v5.4h-2.5c-0.1-1-0.5-1.8-1.3-2.4s-1.5-0.8-2.5-0.8c-1.2,0-2.3,0.4-3,1.3c-0.8,0.9-1.2,2-1.2,3.5
		c0,1.3,0.4,2.5,1.1,3.5s1.8,1.5,3.2,1.5c2,0,3.4-0.9,4.2-2.8l2.3,1.1c-1.3,2.8-3.5,4.2-6.7,4.2c-2.2,0-4-0.8-5.3-2.3
		s-1.9-3.3-1.9-5.3c0-2.1,0.7-3.9,2.1-5.3c1.4-1.4,3-2.1,4.9-2.1c1.6,0,2.9,0.5,4,1.4v-1H35.7z"/>
	<path d="M51.3,6.2v5.4h-2.5c-0.1-1-0.5-1.8-1.3-2.4S46,8.4,45.1,8.4c-1.2,0-2.3,0.4-3,1.3c-0.8,0.9-1.2,2-1.2,3.5
		c0,1.3,0.4,2.5,1.1,3.5s1.8,1.5,3.2,1.5c2,0,3.4-0.9,4.2-2.8l2.3,1.1c-1.3,2.8-3.5,4.2-6.7,4.2c-2.2,0-4-0.8-5.3-2.3
		s-1.9-3.3-1.9-5.3c0-2.1,0.7-3.9,2.1-5.3c1.4-1.4,3-2.1,4.9-2.1c1.6,0,2.9,0.5,4,1.4v-1H51.3z"/>
	<path d="M53.6,13.3c0-2.2,0.7-4,2.2-5.4S59,5.8,61,5.8c2,0,3.8,0.7,5.3,2.1s2.2,3.2,2.2,5.4s-0.7,4-2.2,5.4s-3.2,2.1-5.3,2.1
		c-2.1,0-3.9-0.7-5.3-2.1S53.6,15.5,53.6,13.3z M56.5,13.3c0,1.4,0.4,2.5,1.3,3.4s1.9,1.3,3.2,1.3c1.3,0,2.4-0.5,3.2-1.4
		s1.3-2,1.3-3.4c0-1.4-0.4-2.5-1.3-3.4c-0.9-0.9-1.9-1.3-3.2-1.3c-1.3,0-2.4,0.5-3.2,1.4C57,10.8,56.5,11.9,56.5,13.3z"/>
	<path d="M86.2,17.9v2.5H81v-1.6c-1.6,1.2-3.2,1.9-4.7,1.9c-0.9,0-1.7-0.2-2.4-0.6c-0.6-0.4-1-1-1.2-1.6c-0.2-0.7-0.3-1.7-0.3-3.2
		V8.7h-2V6.2h4.8v8.6c0,1,0,1.7,0.1,2.1s0.2,0.7,0.5,0.9s0.6,0.4,1.1,0.4c1.3,0,2.7-0.6,4.1-1.8V8.7h-2.5V6.2h5.3v11.7H86.2z"/>
	<path d="M92.6,6.2v1.7C94.4,6.6,96,6,97.5,6c0.9,0,1.7,0.2,2.3,0.7c0.6,0.4,1,1,1.2,1.6c0.2,0.6,0.3,1.5,0.3,2.8v6.9h2.4v2.5h-5.2
		v-9.3c0-1.1-0.2-1.8-0.5-2.1c-0.3-0.3-0.7-0.5-1.2-0.5c-1.2,0-2.6,0.6-4.2,1.8v7.6h2.4v2.5h-7.7v-2.5h2.5V8.7h-2.5V6.2H92.6z"/>
	<path d="M104.6,8.7V6.2h1.8V4l2.8-2.5v4.7h2.6v2.5h-2.6v6.9c0,1.1,0.1,1.8,0.2,2s0.4,0.4,0.9,0.4c0.5,0,1-0.1,1.5-0.3v2.5
		c-0.7,0.3-1.4,0.4-2.1,0.4c-0.8,0-1.5-0.2-2.1-0.6c-0.5-0.4-0.9-0.8-1-1.4s-0.2-1.5-0.2-2.9v-7H104.6z"/>
	<path d="M114,20.4v-4.9h2.5V16c0.1,0.7,0.4,1.2,1.1,1.6s1.4,0.6,2.2,0.6c0.9,0,1.6-0.2,2.2-0.5s0.8-0.7,0.8-1.3
		c0-0.5-0.2-0.9-0.7-1.2s-1.3-0.5-2.6-0.7c-2-0.3-3.3-0.9-4.2-1.6c-0.8-0.7-1.3-1.7-1.3-2.9c0-1.2,0.5-2.2,1.4-3
		c0.9-0.8,2.1-1.2,3.6-1.2c1.3,0,2.5,0.3,3.5,0.8V6.2h2.5v4.7h-2.5V10c-0.8-1.2-1.8-1.7-3.3-1.7c-0.7,0-1.3,0.2-1.8,0.5
		c-0.5,0.3-0.7,0.7-0.7,1.3c0,0.5,0.2,0.9,0.7,1.1c0.4,0.2,1.4,0.4,2.8,0.6c1.4,0.2,2.4,0.5,3.1,0.8s1.3,0.8,1.8,1.4
		s0.7,1.4,0.7,2.3c0,1.3-0.5,2.4-1.5,3.1s-2.3,1.2-3.9,1.2c-1.5,0-2.7-0.3-3.7-1v0.8H114z"/>
</g>
</svg>
