<?xml version="1.0" encoding="utf-8"?>
<!-- Generator: Adobe Illustrator 20.1.0, SVG Export Plug-In . SVG Version: 6.00 Build 0)  -->
<svg version="1.1" id="Layer_1" xmlns="http://www.w3.org/2000/svg" xmlns:xlink="http://www.w3.org/1999/xlink" x="0px" y="0px"
	 viewBox="0 0 350.1 536.1" style="enable-background:new 0 0 350.1 536.1;" xml:space="preserve">
<style type="text/css">
	.st0{fill:none;stroke:#000000;stroke-miterlimit:10;}
	.st1{fill:none;stroke:#CB2026;stroke-miterlimit:10;}
</style>
<line class="st0" x1="48.6" y1="240.2" x2="48.6" y2="291.6"/>
<line class="st1" x1="51" y1="240.2" x2="51" y2="291.6"/>
<g>
	<line class="st0" x1="175.7" y1="241.5" x2="175.7" y2="439.8"/>
	<line class="st1" x1="178.1" y1="241.5" x2="178.1" y2="439.8"/>
	<polygon points="182.9,439.1 177,445.1 171,439.1 	"/>
</g>
<polygon points="55.7,289.7 49.8,295.7 43.8,289.7 "/>
<line class="st0" x1="48.6" y1="91" x2="48.6" y2="142.4"/>
<line class="st1" x1="51" y1="91" x2="51" y2="142.4"/>
<polygon points="55.7,140.5 49.8,146.5 43.8,140.5 "/>
<line class="st0" x1="177.3" y1="91" x2="177.3" y2="142.4"/>
<line class="st1" x1="179.7" y1="91" x2="179.7" y2="142.4"/>
<polygon points="184.4,140.5 178.4,146.5 172.5,140.5 "/>
<line class="st0" x1="306.3" y1="91" x2="306.3" y2="142.4"/>
<line class="st1" x1="308.8" y1="91" x2="308.8" y2="142.4"/>
<polygon points="313.4,140.5 307.5,146.5 301.5,140.5 "/>
<line class="st0" x1="275.9" y1="82.3" x2="218.2" y2="157.5"/>
<line class="st1" x1="277.9" y1="83.8" x2="220.2" y2="159"/>
<polygon points="224.4,160.7 216.1,161.7 215.1,153.3 "/>
<line class="st0" x1="146.9" y1="81.6" x2="89.3" y2="156.8"/>
<line class="st1" x1="148.9" y1="83.1" x2="91.3" y2="158.3"/>
<polygon points="95.2,160.7 86.9,161.7 85.9,153.3 "/>
<line class="st0" x1="275.7" y1="235.4" x2="210.6" y2="444.7"/>
<line class="st1" x1="278.4" y1="236.2" x2="213.2" y2="445.5"/>
<polygon points="218.5,446.3 210.3,450.7 205.9,442.4 "/>
<line class="st0" x1="86.3" y1="379.1" x2="143" y2="450.2"/>
<line class="st1" x1="88.4" y1="377.3" x2="145.2" y2="448.5"/>
<polygon points="148.8,444.6 147.8,453.8 138.6,452.8 "/>
</svg>
