<?xml version="1.0" encoding="utf-8"?>
<!-- Generator: Adobe Illustrator 18.1.0, SVG Export Plug-In . SVG Version: 6.00 Build 0)  -->
<svg version="1.1" id="Capa_1" xmlns="http://www.w3.org/2000/svg" xmlns:xlink="http://www.w3.org/1999/xlink" x="0px" y="0px"
	 viewBox="-484 985.4 30.6 30.6" enable-background="new -484 985.4 30.6 30.6" xml:space="preserve">
<g>
	<g>
		<path fill="#FFFFFF" d="M-479.3,995.9l0.1-0.6l-0.7,0.2l-0.3-0.7l-0.6,0.6l-0.4-0.5l-0.2,0.7l-0.7-0.2l0.3,0.6l-0.5,0.1l0.4,0.4
			c0,0.1,0,0.1,0,0.2c0,0.1,0,0.2,0,0.3c0,0.8,0.7,1.5,1.5,1.5c0.8,0,1.5-0.7,1.5-1.5c0-0.2,0-0.3-0.1-0.5l0.3-0.4L-479.3,995.9z"/>
		<path fill="#FFFFFF" d="M-482.4,1002.2v0.2h0.5v3.2h1.1v-3.2h0.6v3.2h1.1v-3.2h0.5v-0.2h-0.3l0-0.5h1.3v4.1h0.4v-4.1h0.5v-0.7
			h-2.2l0,0l0.4-2.2h-1.1c0,0-0.2,0.6-0.8,0.7c-0.6,0-0.8-0.7-0.8-0.7h-0.3h-0.4h-0.2l0.3,1.9l0,0.3h-1.8v0.7h0.4v4.1h0.4v-4.1h1
			l0,0.5C-482,1002.2-482.4,1002.2-482.4,1002.2z M-479.5,1000l-0.2,0.4c0,0,0,0,0,0c-0.1,0-0.2,0.1-0.2,0.3c0,0.1,0,0.1,0,0.2
			l-0.1,0.2h-1.2l0-0.1c0,0,0.1-0.1,0.1-0.2c0-0.2-0.1-0.3-0.2-0.3c0,0,0,0,0,0l-0.1-0.4L-479.5,1000L-479.5,1000z"/>
		<path fill="#FFFFFF" d="M-460.2,996.2l0.1-0.6l-0.7,0.2l-0.3-0.7l-0.6,0.6l-0.4-0.5l-0.2,0.7l-0.7-0.2l0.3,0.6l-0.5,0.1l0.4,0.4
			c0,0.1,0,0.1,0,0.2c0,0.1,0,0.2,0,0.3c0,0.8,0.7,1.5,1.5,1.5s1.5-0.7,1.5-1.5c0-0.2,0-0.3-0.1-0.5l0.3-0.4L-460.2,996.2z"/>
		<path fill="#FFFFFF" d="M-467.6,1005.9v-4.4h0.6v-0.8h-2.4v-0.6l0.2-1c0-0.2,0.1-0.6,0.1-1c0-0.6,0.1-2.7-1.7-2.7
			c-1.9,0-1.8,1.7-1.8,1.7l0.1,2.2l0.2,0.8v0.5h-2.2v0.8h0.4v4.4h0.4v-4.4h1.4l0.2,0.5h-1v0.3h1.2l0,2.9h-0.1v0.3h0.1h0.6h0.1v-0.3
			h0l0.1-2.9h0.4l0.1,2.9h0v0.3h0.1h0h0.6h0h0.1v-0.3h-0.1v-0.1c0,0,0-2.2,0-2.8h1.1v-0.3h-1l0.2-0.6h1.7v4.4L-467.6,1005.9
			L-467.6,1005.9z M-470.5,998.6v0.5h0l0.2,0.1l-0.2,0.3h0.4l-0.1,1.1c0,0,0,0-0.1,0c-0.1,0-0.2,0.1-0.2,0.2h-1
			c0-0.1-0.1-0.2-0.2-0.2c0,0,0,0,0,0l-0.1-1h0.5l-0.2-0.3l0.1,0v-0.6c-0.6-0.2-1-0.7-1-1.4c0-0.1,0-0.1,0-0.1
			c0.4,0,1.8-0.2,1.8-0.6c0.1,0.2,0.8,0.9,1.1,0.9C-469.5,997.9-469.9,998.4-470.5,998.6z"/>
		<path fill="#FFFFFF" d="M-467.6,990.5c0,0,0,0.1,0,0.1c0,0.1,0,0.1,0,0.2c0,0.6,0.5,1.1,1.1,1.1c0.6,0,1.1-0.5,1.1-1.1
			c0-0.1,0-0.2-0.1-0.4l0.2-0.3l-0.4-0.1l0.1-0.4l-0.5,0.1l-0.2-0.5l-0.4,0.4l-0.3-0.4l-0.2,0.5l-0.5-0.2l0.2,0.4l-0.4,0.1
			L-467.6,990.5z"/>
		<path fill="#FFFFFF" d="M-465.4,994.3h0.9v3.1h0.3v-3.1h0.4v-0.5h-1.7v0l0.3-1.6h-0.8c0,0-0.2,0.5-0.6,0.5c-0.4,0-0.6-0.5-0.6-0.5
			h-0.2h-0.3h-0.1l0.2,1.4l0,0.2h-1.3v0.5h0.3v3.1h0.3v-3.1h0.7l0,0.4h-0.3v0.2h0.4v2.4h0.8v-2.4h0.4v2.4h0.8v-2.4h0.4v-0.2h-0.2
			L-465.4,994.3z M-465.9,993.3C-465.9,993.3-465.9,993.3-465.9,993.3c-0.1,0-0.2,0.1-0.2,0.2c0,0,0,0.1,0,0.1l-0.1,0.1h-0.9l0-0.1
			c0,0,0-0.1,0-0.1c0-0.1-0.1-0.2-0.2-0.2c0,0,0,0,0,0l-0.1-0.3h1.5L-465.9,993.3z"/>
		<path fill="#FFFFFF" d="M-457.8,990.5c0,0,0,0.1,0,0.1c0,0.1,0,0.1,0,0.2c0,0.6,0.5,1.1,1.1,1.1c0.6,0,1.1-0.5,1.1-1.1
			c0-0.1,0-0.2-0.1-0.4l0.2-0.3l-0.4-0.1l0.1-0.4l-0.5,0.1l-0.2-0.5l-0.4,0.4l-0.3-0.4l-0.2,0.5l-0.5-0.2l0.2,0.4l-0.4,0.1
			L-457.8,990.5z"/>
		<path fill="#FFFFFF" d="M-456.2,992.1c0,0-0.2,0.5-0.6,0.5c-0.4,0-0.6-0.5-0.6-0.5h-0.2h-0.3h-0.1l0.2,1.4l0,0.2h-1.3v0.5h0.3v3.1
			h0.3v-3.1h0.7l0,0.4h-0.3v0.2h0.4v2.4h0.8v-2.4h0.4v2.4h0.8v-2.4h0.4v-0.2h-0.2l0-0.4h0.9v3.1h0.3v-3.1h0.4v-0.5h-1.7l0,0l0.3-1.6
			C-455.3,992.1-456.2,992.1-456.2,992.1z M-456.1,993.3C-456.1,993.3-456.1,993.3-456.1,993.3c-0.1,0-0.2,0.1-0.2,0.2
			c0,0,0,0.1,0,0.1l-0.1,0.1h-0.9l0-0.1c0,0,0-0.1,0-0.1c0-0.1-0.1-0.2-0.2-0.2c0,0,0,0,0,0l-0.1-0.3h1.5L-456.1,993.3z"/>
		<path fill="#FFFFFF" d="M-478.2,997.1h0.3v-3.3h1l0.1,0.4h-0.7v0.2h0.9l0,2.2h0v0.2h0h0.5h0v-0.2h0l0.1-2.2h0.3l0.1,2.2h0v0.2h0h0
			h0.4h0h0.1v-0.2h-0.1v-0.1c0,0,0-1.6,0-2.1h0.8v-0.2h-0.7l0.2-0.4h1.3v3.3h0.3v-3.3h0.4v-0.6h-1.8v-0.4l0.1-0.7
			c0-0.2,0.1-0.4,0.1-0.7c0-0.5,0.1-2-1.3-2s-1.3,1.3-1.3,1.3l0.1,1.6l0.2,0.6v0.4h-1.6v0.6h0.3
			C-478.2,993.8-478.2,997.1-478.2,997.1z M-476.9,990.5c0.3,0,1.3-0.1,1.3-0.4c0.1,0.2,0.6,0.6,0.8,0.7c0,0.5-0.4,0.8-0.8,0.9v0.4
			h0l0.1,0.1l-0.1,0.2h0.3l0,0.8c0,0,0,0,0,0c-0.1,0-0.1,0.1-0.2,0.1h-0.8c0-0.1-0.1-0.2-0.2-0.2c0,0,0,0,0,0l-0.1-0.7h0.4l-0.1-0.2
			l0.1,0v-0.4c-0.4-0.1-0.8-0.5-0.8-1C-476.9,990.6-476.9,990.6-476.9,990.5z"/>
		<path fill="#FFFFFF" d="M-471.8,986.4c0,0,0,0.1,0,0.1c0,0,0,0.1,0,0.1c0,0.5,0.4,0.9,0.9,0.9s0.9-0.4,0.9-0.9c0-0.1,0-0.2,0-0.3
			l0.2-0.2l-0.3-0.1l0.1-0.3l-0.4,0.1l-0.2-0.4l-0.3,0.4l-0.3-0.3l-0.1,0.4l-0.4-0.1l0.2,0.4l-0.3,0.1L-471.8,986.4z"/>
		<path fill="#FFFFFF" d="M-472.6,991.8h0.2v-2.4h0.6l0,0.3h-0.2v0.1h0.3v1.9h0.6v-1.9h0.4v1.9h0.6v-1.9h0.3v-0.1h-0.2l0-0.3h0.8
			v2.4h0.2v-2.4h0.3v-0.4h-1.3l0,0l0.2-1.3h-0.7c0,0-0.1,0.4-0.5,0.4c-0.3,0-0.5-0.4-0.5-0.4h-0.2h-0.2h-0.1l0.2,1.1l0,0.2h-1.1v0.4
			h0.3L-472.6,991.8L-472.6,991.8z M-470.4,988.4l-0.1,0.2c0,0,0,0,0,0c-0.1,0-0.1,0.1-0.1,0.2c0,0,0,0.1,0,0.1l0,0.1h-0.7l0-0.1
			c0,0,0-0.1,0-0.1c0-0.1-0.1-0.2-0.1-0.2c0,0,0,0,0,0l-0.1-0.2H-470.4z"/>
		<path fill="#FFFFFF" d="M-481.7,986.4c0,0,0,0.1,0,0.1c0,0,0,0.1,0,0.1c0,0.5,0.4,0.9,0.9,0.9c0.5,0,0.9-0.4,0.9-0.9
			c0-0.1,0-0.2,0-0.3l0.2-0.2l-0.3-0.1l0.1-0.3l-0.4,0.1l-0.2-0.4l-0.3,0.4l-0.3-0.3l-0.1,0.4l-0.4-0.1l0.2,0.4l-0.3,0.1
			L-481.7,986.4z"/>
		<path fill="#FFFFFF" d="M-482.5,991.8h0.2v-2.4h0.6l0,0.3h-0.2v0.1h0.3v1.9h0.6v-1.9h0.4v1.9h0.6v-1.9h0.3v-0.1h-0.2l0-0.3h0.8
			v2.4h0.2v-2.4h0.3v-0.4h-1.3l0,0l0.2-1.3h-0.7c0,0-0.1,0.4-0.5,0.4c-0.3,0-0.5-0.4-0.5-0.4h-0.2h-0.2h-0.1l0.2,1.1l0,0.2h-1.1v0.4
			h0.3V991.8z M-480.3,988.4l-0.1,0.2c0,0,0,0,0,0c-0.1,0-0.1,0.1-0.1,0.2c0,0,0,0.1,0,0.1l0,0.1h-0.7l0-0.1c0,0,0-0.1,0-0.1
			c0-0.1-0.1-0.2-0.1-0.2c0,0,0,0,0,0l-0.1-0.2H-480.3z"/>
		<path fill="#FFFFFF" d="M-463.2,992.3h0.2v-2.6h0.8l0.1,0.3h-0.6v0.2h0.7l0,1.7h0v0.2h0h0.4h0v-0.2h0l0.1-1.7h0.2l0.1,1.7h0v0.2h0
			h0h0.3h0h0v-0.2h0v-0.1c0,0,0-1.3,0-1.6h0.6V990h-0.6l0.1-0.3h1v2.6h0.2v-2.6h0.3v-0.5h-1.4v-0.3l0.1-0.6c0-0.1,0-0.4,0.1-0.6
			c0-0.4,0.1-1.6-1-1.6c-1.1,0-1.1,1-1.1,1l0.1,1.3l0.1,0.5v0.3h-1.3v0.5h0.3L-463.2,992.3L-463.2,992.3z M-462.1,987.1
			c0.2,0,1-0.1,1.1-0.4c0.1,0.1,0.5,0.5,0.6,0.5c0,0.4-0.3,0.7-0.6,0.7v0.3h0l0.1,0.1l-0.1,0.2h0.2l0,0.6c0,0,0,0,0,0
			c-0.1,0-0.1,0-0.1,0.1h-0.6c0-0.1-0.1-0.1-0.1-0.1c0,0,0,0,0,0l-0.1-0.6h0.3l-0.1-0.2l0.1,0V988
			C-461.9,987.9-462.2,987.6-462.1,987.1C-462.2,987.1-462.2,987.1-462.1,987.1z"/>
		<circle fill="#FFFFFF" cx="-456.5" cy="1001.8" r="2.2"/>
		<polygon fill="#FFFFFF" points="-454.5,1014.3 -454.7,1014.3 -454.7,1010.4 -454.7,1010 -454.7,1009.5 -454.6,1009.5 
			-454.5,1008.7 -453.8,1008.7 -453.9,1005 -455.7,1004.4 -456.5,1005.4 -457.3,1004.4 -458.8,1004.4 -459,1004.3 -462.4,1003.2 
			-462.7,1004.2 -459.3,1005.3 -458.8,1005.5 -458.5,1009.5 -458.4,1009.5 -458.4,1010 -458.4,1010.4 -458.4,1014.3 -458.6,1014.3 
			-459.4,1014.5 -459.4,1015.3 -458.7,1015.3 -457.8,1015.2 -457.8,1015.3 -456.8,1015.3 -456.8,1014.4 -456.8,1014.3 
			-456.8,1010.4 -456.3,1010.4 -456.3,1014.3 -456.3,1014.4 -456.3,1015.3 -455.3,1015.3 -455.3,1015.2 -454.4,1015.3 
			-453.7,1015.3 -453.7,1014.5 		"/>
		<polygon fill="#FFFFFF" points="-462.8,1006 -461.7,1006 -461.7,1005.2 -462.8,1004.9 		"/>
		<polygon fill="#FFFFFF" points="-461.1,1006 -460,1006 -460,1005.8 -461.1,1005.4 		"/>
		<polygon fill="#FFFFFF" points="-475.1,1006.6 -475.3,1006.6 -475.6,1005.5 -475.7,1005.6 -475.5,1006.6 -475.5,1006.6 
			-475.8,1005.5 -476,1005.6 -475.7,1006.6 -476,1006.6 -476,1005.5 -476.2,1005.5 -476.2,1006.6 -476.4,1006.6 -476.4,1007.3 
			-482,1007.3 -482,1009.2 -480.7,1009.2 -480.7,1016 -467.8,1016 -467.8,1009.2 -466.5,1009.2 -466.5,1007.3 -475.1,1007.3 		"/>
		<path fill="#FFFFFF" d="M-462.2,1002.6l0.7,0.2h0.4v0.1l1.1,0.4v-0.5h0.5v-0.2h-0.3l0-0.5h0.5c0-0.1,0-0.1,0-0.2
			c0-0.2,0-0.3,0.1-0.5h-0.6l0,0l0.4-2.2h-1.1c0,0-0.2,0.6-0.8,0.7c-0.6,0-0.8-0.7-0.8-0.7h-0.3h-0.4h-0.2l0.3,1.9l0,0.3h-1.8v0.7
			h0.4v4.1h0.4v-4.1h1l0,0.5h-0.4v0.2h0.4l0.1-0.4L-462.2,1002.6z M-460.4,1000.4l-0.2,0.4c0,0,0,0,0,0c-0.1,0-0.2,0.1-0.2,0.3
			c0,0.1,0,0.1,0,0.2l-0.1,0.2h-1.2l-0.1-0.1c0,0,0.1-0.1,0.1-0.2c0-0.2-0.1-0.3-0.2-0.3c0,0,0,0,0,0l-0.1-0.4L-460.4,1000.4
			L-460.4,1000.4z"/>
	</g>
</g>
</svg>
