<?xml version="1.0" encoding="utf-8"?>
<!-- Generator: Adobe Illustrator 19.2.1, SVG Export Plug-In . SVG Version: 6.00 Build 0)  -->
<svg version="1.1" id="Layer_1" xmlns="http://www.w3.org/2000/svg" xmlns:xlink="http://www.w3.org/1999/xlink" x="0px" y="0px"
	 viewBox="0 0 128.6 33.2" style="enable-background:new 0 0 128.6 33.2;" xml:space="preserve">
<path d="M0.5,25c-0.1-0.5-0.2-0.9-0.3-1.4c-0.1-0.5-0.1-0.9-0.1-1.4c-0.1-0.9-0.1-1.8,0-2.7c0.1-0.9,0.2-1.8,0.4-2.7
	c0.1-0.4,0.2-0.9,0.3-1.3c0.1-0.4,0.2-0.8,0.4-1.3c0.1-0.4,0.3-0.8,0.4-1.3c0.1-0.4,0.3-0.8,0.5-1.2c0.2-0.4,0.4-0.8,0.6-1.2
	c0.2-0.4,0.4-0.8,0.6-1.2C3.5,9.1,3.8,8.7,4,8.4C4.2,8,4.5,7.6,4.8,7.3c0.5-0.8,1.1-1.4,1.7-2c0.3-0.3,0.6-0.6,1-0.9
	c0.3-0.3,0.7-0.6,1-0.8C8.9,3.3,9.2,3,9.6,2.8c0.4-0.2,0.8-0.4,1.2-0.6C11,2.1,11.2,2,11.4,2c0.2-0.1,0.4-0.2,0.6-0.3
	c0.2-0.1,0.4-0.1,0.6-0.2c0.2-0.1,0.4-0.1,0.6-0.2C13.6,1.2,14,1.1,14.5,1s0.8-0.2,1.3-0.2c0.4-0.1,0.8-0.1,1.3-0.1
	c0.4,0,0.8,0,1.3,0c0.2,0,0.4,0,0.7,0c0.2,0,0.4,0,0.7,0.1c0.2,0,0.4,0.1,0.6,0.1c0.2,0,0.4,0.1,0.6,0.1c0.5,0.1,0.9,0.3,1.3,0.5
	c0.2,0.1,0.4,0.2,0.6,0.3C23,2,23.2,2.1,23.4,2.3c0.4,0.3,0.7,0.7,1.1,1.1c0.2,0.2,0.3,0.4,0.4,0.7c0.1,0.2,0.2,0.5,0.3,0.7
	c0.2,0.5,0.3,1,0.3,1.6c0,0.3,0,0.6,0,0.8c0,0.3-0.1,0.5-0.1,0.8c-0.1,0.6-0.3,1.1-0.5,1.5c-0.2,0.5-0.5,1-0.8,1.3
	c-0.3,0.4-0.6,0.8-0.9,1.1c-0.4,0.4-0.7,0.7-1.1,1c-0.7,0.6-1.6,1.1-2.4,1.5c-0.2,0.1-0.4,0.2-0.6,0.3c-0.2,0.1-0.4,0.2-0.6,0.3
	c-0.1,0-0.2,0.1-0.3,0.1c-0.1,0-0.2,0.1-0.3,0.1c-0.1,0-0.1,0-0.2,0c-0.1,0-0.1,0-0.2,0l-0.2,0l-0.2,0.1c-0.5,0.1-1,0-1.5-0.2
	c-0.4-0.3-0.7-0.7-0.9-1.2c-0.1-0.5-0.1-1,0.2-1.4c0.3-0.4,0.6-0.7,1.1-0.9h0l0.3-0.1l0.3-0.1c0.1,0,0.2-0.1,0.2-0.1
	c0.1,0,0.2,0,0.3-0.1l1-0.4c0.2-0.1,0.3-0.2,0.5-0.2c0.2-0.1,0.3-0.1,0.5-0.2c0.2-0.1,0.3-0.2,0.4-0.2c0.1-0.1,0.3-0.2,0.4-0.3
	c0.3-0.2,0.5-0.4,0.8-0.6c0.2-0.2,0.5-0.4,0.7-0.7c0.4-0.5,0.7-1,0.9-1.5c0.1-0.3,0.2-0.6,0.2-0.8c0-0.3,0-0.6,0-0.8
	c0-0.3-0.1-0.6-0.2-0.9c-0.1-0.3-0.2-0.6-0.4-0.9c-0.2-0.3-0.4-0.6-0.6-0.8c-0.1-0.1-0.3-0.3-0.4-0.4c-0.1-0.1-0.3-0.2-0.4-0.3
	c-0.3-0.2-0.7-0.4-1.1-0.5c-0.4-0.1-0.7-0.2-1.1-0.2c-0.4,0-0.8,0-1.2,0c-0.2,0-0.4,0-0.6,0.1c-0.2,0-0.4,0.1-0.6,0.1
	c-0.8,0.2-1.5,0.4-2.2,0.7c-0.2,0.1-0.4,0.2-0.5,0.3C13,2.9,12.8,3,12.7,3.1c-0.3,0.2-0.7,0.4-0.9,0.7c-0.3,0.3-0.6,0.5-0.9,0.8
	c-0.3,0.3-0.5,0.5-0.8,0.8c-0.5,0.6-1,1.2-1.4,1.8C8.4,7.4,8.2,7.7,8,8.1C7.8,8.4,7.6,8.7,7.4,9c-0.4,0.7-0.8,1.3-1.1,2
	c-0.3,0.7-0.6,1.4-0.8,2.1c-0.1,0.2-0.1,0.4-0.2,0.5s-0.1,0.4-0.1,0.6c-0.1,0.2-0.1,0.4-0.2,0.5C5,15,5,15.2,4.9,15.4
	c-0.1,0.4-0.2,0.8-0.2,1.1s-0.1,0.7-0.2,1.1c-0.1,0.4-0.1,0.7-0.1,1.1c0,0.4-0.1,0.7-0.1,1.1c-0.1,0.7-0.1,1.5,0,2.2
	c0,0.7,0.1,1.4,0.3,2.1c0.1,0.3,0.2,0.7,0.3,1C4.9,25.3,5,25.6,5.1,26c0.2,0.6,0.5,1.2,0.9,1.7c0.3,0.5,0.8,1,1.3,1.4
	c0.1,0.1,0.3,0.2,0.4,0.3c0.1,0.1,0.3,0.1,0.4,0.2c0.2,0.1,0.3,0.1,0.5,0.2c0.2,0.1,0.3,0.1,0.5,0.2c0.2,0,0.3,0.1,0.5,0.1
	c0.2,0,0.4,0.1,0.5,0.1c0,0,0.1,0,0.1,0c0,0,0.1,0,0.1,0l0.1,0h0.2c0.1,0,0.2,0,0.3,0c0.1,0,0.2,0,0.3,0c0.4,0,0.8,0.1,1.2,0
	c0.4,0,0.8,0,1.2-0.1c0.8-0.1,1.5-0.2,2.3-0.5c0.8-0.2,1.5-0.5,2.2-0.9c0.7-0.3,1.4-0.8,2-1.2c0.7-0.5,1.2-1,1.7-1.6
	c0.1-0.2,0.3-0.3,0.4-0.5c0.1-0.1,0.2-0.3,0.3-0.5c0,0,0.1-0.1,0.2-0.2c0.1-0.1,0.2-0.2,0.3-0.3c0.1-0.1,0.2-0.2,0.3-0.3
	c0.1-0.1,0.1-0.2,0.2-0.2c0.1-0.1,0.1-0.1,0.1-0.2c0,0,0,0,0-0.1c0,0,0,0,0-0.1l0-0.1c0,0,0,0,0-0.1c0.1-0.1,0.2-0.2,0.3-0.3
	c0.1,0,0.3,0,0.4,0s0.2,0.2,0.3,0.3c0,0.1,0,0.3,0,0.4c0,0,0,0,0,0c0,0,0,0,0,0l0,0.1c0,0,0,0,0,0.1c0,0,0,0,0,0.1l-0.2,0.3
	c0,0-0.1,0.1-0.2,0.2c-0.1,0.1-0.2,0.2-0.3,0.3c-0.1,0.1-0.2,0.2-0.3,0.3c-0.1,0.1-0.1,0.2-0.1,0.2c-0.2,0.4-0.5,0.7-0.8,1
	c-0.5,0.6-1.1,1.2-1.8,1.8c-1.3,1.1-2.8,1.9-4.4,2.5c-0.4,0.2-0.8,0.3-1.2,0.4c-0.4,0.1-0.8,0.2-1.2,0.3c-0.4,0.1-0.8,0.2-1.2,0.3
	c-0.4,0.1-0.9,0.1-1.3,0.2c-0.1,0-0.2,0-0.3,0c-0.1,0-0.2,0-0.3,0h-0.2h-0.2c-0.1,0-0.2,0-0.3,0c-0.2,0-0.4,0-0.7,0
	c-0.2,0-0.5,0-0.7-0.1c-0.5,0-0.9-0.1-1.4-0.2C7.1,32,6.9,32,6.7,31.9c-0.2-0.1-0.5-0.2-0.7-0.3c-0.2-0.1-0.4-0.2-0.7-0.3
	c-0.2-0.1-0.5-0.2-0.7-0.4c-0.2-0.1-0.4-0.3-0.6-0.4c-0.2-0.2-0.4-0.3-0.6-0.5c-0.2-0.2-0.4-0.3-0.6-0.5c-0.2-0.2-0.3-0.4-0.5-0.6
	c-0.2-0.2-0.3-0.4-0.4-0.6c-0.1-0.2-0.3-0.4-0.4-0.6c-0.2-0.4-0.4-0.9-0.6-1.3C0.7,25.9,0.6,25.5,0.5,25z M39.2,23.4
	c0.3,0.1,0.3,0.3,0.2,0.6v0c-0.2,0.4-0.5,0.9-0.7,1.3c-0.2,0.4-0.5,0.9-0.7,1.3c-0.3,0.4-0.5,0.9-0.8,1.3c-0.3,0.4-0.5,0.8-0.8,1.3
	c0,0.1-0.1,0.1-0.1,0.2c0,0.1-0.1,0.1-0.1,0.1c0,0.1-0.1,0.1-0.1,0.2c0,0.1-0.1,0.1-0.1,0.2c-0.1,0.1-0.2,0.2-0.2,0.3
	c-0.1,0.1-0.2,0.2-0.3,0.3c-0.1,0.1-0.2,0.2-0.3,0.3c-0.1,0.1-0.2,0.2-0.3,0.3c-0.2,0.2-0.4,0.4-0.6,0.5c-0.2,0.2-0.5,0.4-0.8,0.5
	c-0.2,0.1-0.4,0.1-0.5,0.1c-0.2,0-0.4,0-0.6,0c-0.2,0-0.4-0.1-0.6-0.2c-0.2-0.1-0.4-0.2-0.5-0.3c-0.1-0.1-0.3-0.3-0.4-0.4
	c0-0.1-0.1-0.2-0.1-0.2c-0.1-0.1-0.1-0.1-0.1-0.2c-0.1-0.2-0.3-0.5-0.4-0.8c0-0.1-0.1-0.3-0.1-0.4c0-0.1-0.1-0.3-0.1-0.4
	c0-0.1-0.1-0.3-0.1-0.4c0-0.1,0-0.3,0-0.4l-0.1-0.8c-0.1-1.1,0-2.1,0.1-3.2c0.1-0.6,0.2-1.2,0.4-1.9c-0.4,0.1-0.8,0.1-1.3,0.1
	c-0.6,0-1.3,0-2-0.1c-0.5-0.1-1-0.2-1.5-0.4c0,0,0,0,0,0.1c0,0,0,0,0,0.1c-0.1,0.3-0.3,0.6-0.4,0.8c-0.1,0.1-0.1,0.3-0.2,0.4
	c-0.1,0.1-0.1,0.2-0.2,0.4c-0.1,0.1-0.1,0.2-0.2,0.4c-0.1,0.1-0.1,0.2-0.2,0.4c0,0.1-0.1,0.1-0.1,0.2c0,0.1-0.1,0.1-0.1,0.2
	c0,0.1-0.1,0.2-0.2,0.4c0,0.1-0.1,0.1-0.2,0.1c-0.1,0-0.2,0-0.3,0c-0.1-0.1-0.2-0.3-0.1-0.5c0.1-0.1,0.1-0.2,0.2-0.4
	s0.1-0.2,0.2-0.4s0.1-0.2,0.2-0.4c0.1-0.1,0.1-0.2,0.2-0.4c0.1-0.1,0.1-0.3,0.2-0.4c0.1-0.1,0.1-0.2,0.2-0.4
	c0.1-0.3,0.2-0.5,0.3-0.8c0,0,0,0,0-0.1c-0.3-0.1-0.5-0.3-0.8-0.5c-0.3-0.2-0.5-0.3-0.8-0.6c-0.3-0.2-0.6-0.5-0.8-0.9
	c-0.3-0.4-0.4-0.8-0.5-1.1c-0.1-0.4-0.1-0.8-0.1-1.3c0-0.5,0.2-0.9,0.4-1.3c0.1-0.1,0.1-0.2,0.2-0.3c0,0,0.1-0.1,0.1-0.1
	c0,0,0.1-0.1,0.1-0.1c0.1-0.1,0.2-0.2,0.2-0.2c0.1-0.1,0.2-0.1,0.3-0.2c0.2-0.1,0.4-0.2,0.5-0.2c0.2,0,0.4-0.1,0.5-0.1h0.3h0.1h0h0
	h0.1c0.1,0,0.2,0,0.2,0c0.1,0,0.2,0,0.3,0c0.1,0,0.2,0,0.2,0c0.1,0,0.2,0,0.3,0.1c0.1,0,0.2,0.1,0.3,0.1c0.1,0,0.2,0.1,0.3,0.2
	c0.1,0.1,0.1,0.1,0.2,0.2c0.1,0.1,0.1,0.1,0.2,0.2c0.1,0.1,0.1,0.2,0.1,0.2c0,0.1,0.1,0.2,0.1,0.3c0,0.1,0.1,0.2,0.1,0.2
	c0,0.1,0,0.2,0,0.2c0,0.1,0,0.2,0,0.3c0,0.1,0,0.1,0,0.2c0,0.1,0,0.2,0,0.3c0,0.1,0,0.1,0,0.2c0,0.1,0,0.2,0,0.2c0,0.1,0,0.1,0,0.2
	c0,0.1-0.1,0.2-0.1,0.4h0.6c0.9,0,1.8-0.1,2.7-0.4c0.2,0,0.5-0.1,0.7-0.2c0.2-0.1,0.5-0.1,0.7-0.2c0.2-0.1,0.5-0.2,0.7-0.2
	c0.2-0.1,0.5-0.2,0.7-0.2l0.7-0.1c0.5-0.1,1,0,1.5,0.3c0.5,0.3,0.8,0.7,0.9,1.3c0.1,0.4,0.1,0.7-0.1,1.1c-0.1,0.4-0.3,0.6-0.6,0.9
	c-0.3,0.2-0.6,0.5-0.8,0.8c-0.1,0.2-0.2,0.3-0.4,0.5c-0.1,0.2-0.2,0.3-0.3,0.5c-0.4,0.7-0.8,1.5-1.1,2.4c-0.1,0.2-0.1,0.4-0.2,0.6
	s-0.1,0.4-0.2,0.6c0,0.1,0,0.2-0.1,0.3c0,0.1,0,0.2-0.1,0.3c0,0.1,0,0.2,0,0.3c0,0.1,0,0.2,0,0.3c0,0.2-0.1,0.4-0.1,0.7
	c0,0.2,0,0.4,0,0.7c0,0.1,0,0.2,0,0.3c0,0.1,0,0.2,0,0.3c0,0.2,0.1,0.4,0.1,0.5c0.1,0.2,0.1,0.3,0.2,0.4c0,0,0,0.1,0.1,0.1
	c0,0,0,0,0,0c0,0,0,0,0,0c0,0,0,0,0.1,0c0,0,0,0,0.1,0c0,0,0.1,0,0.1,0c0,0,0.1,0,0.1,0c0.1,0,0.2,0,0.2-0.1c0.1,0,0.2-0.1,0.3-0.1
	c0.2-0.1,0.4-0.2,0.5-0.4c0.2-0.1,0.3-0.3,0.5-0.4L35,29c0,0,0.1-0.1,0.1-0.1c0,0,0.1-0.1,0.1-0.1c0-0.1,0.1-0.1,0.2-0.3
	c0.6-0.8,1.2-1.5,1.7-2.3c0.1-0.2,0.3-0.4,0.4-0.6c0.1-0.2,0.2-0.4,0.4-0.6c0.1-0.2,0.2-0.4,0.4-0.6c0.1-0.2,0.2-0.4,0.3-0.6
	c0-0.1,0.1-0.2,0.2-0.2C39,23.4,39.1,23.4,39.2,23.4z M23.8,16.6c0,0,0,0.1,0,0.2c0,0.1,0.1,0.3,0.2,0.4c0.1,0.1,0.2,0.2,0.3,0.3
	l0.4,0.3c0.1,0,0.1,0.1,0.2,0.1c0.1,0,0.1,0.1,0.2,0.1c0.1,0.1,0.2,0.1,0.4,0.2c0.1,0.1,0.3,0.1,0.4,0.1c0-0.2,0.1-0.3,0.1-0.4
	c0-0.1,0-0.2,0-0.2c0-0.1,0-0.1,0-0.2c0-0.1,0-0.1,0-0.2c0-0.1,0-0.1,0-0.2c0-0.3,0-0.5-0.1-0.7c0-0.1-0.1-0.2-0.1-0.2
	c-0.1-0.1-0.1-0.1-0.2-0.2C25.4,16,25.2,16,25,16c0,0-0.1,0-0.2,0c-0.1,0-0.1,0-0.2,0v0h0h0h0c0,0,0,0-0.1,0c0,0-0.1,0-0.1,0
	c0,0,0,0-0.1,0c-0.2,0.1-0.4,0.2-0.4,0.3C23.9,16.5,23.8,16.6,23.8,16.6L23.8,16.6z M55.2,25.9c-0.2,0.2-0.4,0.4-0.5,0.7
	c-0.2,0.2-0.4,0.4-0.5,0.7c-0.4,0.4-0.8,0.8-1.2,1.2c-0.4,0.4-0.8,0.8-1.3,1.2c-0.2,0.2-0.4,0.4-0.7,0.6c-0.2,0.2-0.5,0.4-0.7,0.5
	c-0.5,0.4-1,0.7-1.5,1c-0.6,0.4-1.2,0.6-1.7,0.9c-0.2,0.1-0.3,0.1-0.5,0.2c-0.2,0.1-0.3,0.1-0.5,0.1c-0.2,0-0.3,0.1-0.5,0.1
	c-0.2,0-0.3,0.1-0.5,0.1c-0.2,0-0.3,0.1-0.5,0.1c-0.2,0-0.4,0-0.5,0c-0.4,0-0.8,0-1.1-0.1c-0.4-0.1-0.8-0.2-1.1-0.4
	c-0.2-0.1-0.4-0.2-0.6-0.3c-0.2-0.1-0.4-0.2-0.5-0.3c-0.3-0.2-0.7-0.5-0.9-0.8c-0.1-0.2-0.3-0.3-0.4-0.5s-0.2-0.3-0.3-0.5
	c-0.1-0.2-0.2-0.3-0.3-0.5c-0.1-0.2-0.1-0.4-0.2-0.5c-0.1-0.4-0.2-0.7-0.3-1.1c-0.1-0.3-0.1-0.7-0.1-1c0-0.3,0-0.7,0-1
	c0-0.3,0.1-0.7,0.1-1c0.1-0.3,0.1-0.6,0.2-0.9c0.3-1.2,0.8-2.3,1.4-3.4c0.1-0.3,0.3-0.5,0.5-0.8c0.2-0.2,0.3-0.5,0.5-0.7
	c0.2-0.2,0.4-0.5,0.5-0.7c0.2-0.2,0.4-0.5,0.6-0.7c0.1-0.1,0.2-0.2,0.3-0.3c0.1-0.1,0.2-0.2,0.3-0.3c0.1-0.1,0.2-0.2,0.4-0.3
	c0.1-0.1,0.2-0.2,0.4-0.3c0.3-0.2,0.5-0.4,0.8-0.6c0.3-0.2,0.6-0.3,0.9-0.5c0.3-0.1,0.6-0.2,0.9-0.4c0.2,0,0.3-0.1,0.5-0.1
	c0.2,0,0.3-0.1,0.5-0.1c0.2,0,0.4-0.1,0.6-0.1c0.2,0,0.4,0,0.6,0c0.2,0,0.4,0.1,0.6,0.1c0.2,0,0.4,0.1,0.6,0.2
	c0.5,0.2,0.8,0.5,1.2,0.8c0.3,0.3,0.6,0.7,0.8,1.1c0.2,0.4,0.3,0.8,0.4,1.2c0.1,0.4,0.1,0.8,0.1,1.2c0,0.4,0,0.8-0.1,1.1
	c0,0.2-0.1,0.4-0.1,0.5c-0.1,0.2-0.1,0.3-0.1,0.5c-0.1,0.3-0.3,0.7-0.4,1c-0.1,0.3-0.3,0.6-0.6,0.9c-0.2,0.3-0.4,0.6-0.7,0.9
	c-0.3,0.3-0.6,0.6-0.9,0.8c-0.2,0.1-0.3,0.2-0.5,0.4c0,0-0.1,0-0.1,0.1l-0.1,0c0,0,0,0-0.1,0c0,0-0.1,0.1-0.2,0.1
	c-0.3,0.1-0.6,0.2-1,0.3c-0.7,0.2-1.4,0.2-2.1,0.2l-0.5-0.1c-0.1,0-0.2,0-0.3-0.1c-0.1,0-0.2,0-0.3-0.1c-0.4-0.1-0.7-0.3-1-0.5
	c-0.1,0-0.2-0.1-0.2-0.1c-0.1,0-0.1-0.1-0.2-0.2c0,0-0.1-0.1-0.2-0.2c-0.1,0-0.1-0.1-0.2-0.2c-0.1-0.1-0.2-0.2-0.3-0.4
	c-0.1-0.1-0.2-0.2-0.3-0.4c0,0,0,0,0-0.1c0,0,0,0,0-0.1v0.5c0,0.3,0,0.5,0,0.7c0,0.2,0.1,0.5,0.1,0.7c0,0.2,0.1,0.4,0.2,0.6
	c0.1,0.2,0.1,0.4,0.2,0.6c0.1,0.4,0.3,0.7,0.5,0.9c0.1,0.1,0.2,0.3,0.3,0.3c0.1,0.1,0.2,0.2,0.3,0.2c0.1,0.1,0.2,0.1,0.3,0.2
	c0.1,0.1,0.3,0.1,0.4,0.1c0.2,0.1,0.3,0.1,0.5,0.1c0.2,0,0.4,0.1,0.6,0.1c0.1,0,0.2,0,0.3,0c0.1,0,0.2,0,0.3,0c0.2,0,0.4,0,0.7,0
	c0.5,0,1-0.1,1.4-0.2c0.2-0.1,0.5-0.1,0.7-0.2c0.2-0.1,0.5-0.2,0.7-0.3c0.2-0.1,0.5-0.2,0.7-0.3c0.2-0.1,0.5-0.2,0.7-0.4
	c0.5-0.3,0.9-0.5,1.4-0.8c0.5-0.3,0.9-0.6,1.3-1c0.1-0.1,0.2-0.2,0.3-0.2c0.1-0.1,0.2-0.2,0.3-0.3c0.1-0.1,0.2-0.2,0.3-0.3
	c0.1-0.1,0.2-0.2,0.3-0.3c0.1-0.1,0.2-0.2,0.5-0.4c0.2-0.2,0.3-0.3,0.4-0.4c0.1-0.1,0.2-0.2,0.3-0.3l0.1-0.2l0.1-0.1
	c0.2-0.2,0.4-0.2,0.6,0c0.2,0.2,0.2,0.4,0.1,0.6l-0.1,0.1l-0.1,0.1l-0.2,0.2c0,0.1-0.1,0.1-0.1,0.2c0,0.1-0.1,0.1-0.1,0.2
	c-0.1,0.1-0.2,0.3-0.4,0.5C55.4,25.6,55.3,25.7,55.2,25.9z M43.1,18.9c-0.4,0.4-0.7,0.8-0.9,1.3l0,0c-0.1,0.2-0.2,0.5-0.3,0.7
	c-0.1,0.2-0.2,0.5-0.3,0.7c-0.1,0.4-0.2,0.9-0.3,1.4l0,0c0.2,0.2,0.5,0.3,0.7,0.4c0.2,0.1,0.4,0.2,0.7,0.3c0,0,0.1,0,0.1,0
	c0,0,0,0,0.1,0c0,0,0.1,0,0.1,0c0,0,0,0,0.1,0c0.1,0,0.1,0,0.2,0c0,0,0.1,0,0.2,0c0.5,0,0.9,0,1.3-0.1c0.2-0.1,0.4-0.1,0.6-0.2
	c0.2-0.1,0.4-0.2,0.6-0.3c0.1-0.1,0.2-0.1,0.3-0.2c0.1-0.1,0.2-0.1,0.3-0.2c0,0,0,0,0.1,0c0,0,0,0,0.1,0l0,0l0,0c0,0,0.1,0,0.1-0.1
	c0,0,0,0,0.1-0.1c0,0,0.1-0.1,0.1-0.2c0-0.1,0.1-0.1,0.1-0.2c0.1-0.1,0.2-0.3,0.3-0.5c0.1-0.2,0.2-0.3,0.2-0.5
	c0.1-0.2,0.1-0.4,0.2-0.6c0-0.1,0-0.2,0.1-0.3c0-0.1,0-0.2,0-0.3c0-0.1,0-0.2,0-0.3c0-0.1,0-0.2,0-0.3c0-0.1,0-0.2,0-0.3
	c0-0.1,0-0.1,0-0.2c0-0.1,0-0.2,0-0.2c0-0.1,0-0.1,0-0.1c0-0.1,0-0.1,0-0.2c0,0,0-0.1,0-0.1c0-0.1,0-0.1-0.1-0.2
	c0,0-0.1-0.1-0.1-0.1c0,0-0.1-0.1-0.2-0.1c-0.1-0.1-0.3-0.2-0.5-0.2c-0.1,0-0.2-0.1-0.3-0.1c-0.1,0-0.2,0-0.3,0c-0.2,0-0.4,0-0.7,0
	c-0.5,0.1-0.9,0.2-1.3,0.5c-0.2,0.1-0.4,0.3-0.6,0.5C43.4,18.6,43.3,18.8,43.1,18.9L43.1,18.9z M70.6,30.2c-0.2,0.4-0.5,0.7-0.9,1.1
	l0,0c-0.2,0.2-0.4,0.4-0.6,0.5c-0.1,0.1-0.2,0.2-0.4,0.3c-0.1,0.1-0.3,0.2-0.4,0.2c-0.2,0.1-0.4,0.1-0.5,0.1c0,0,0,0-0.1,0h-0.1h0h0
	v0h-0.1c0,0-0.1,0-0.1,0c0,0-0.1,0-0.1,0c-0.3,0-0.6,0-0.9,0c-0.2,0-0.3,0-0.5-0.1c-0.2,0-0.3-0.1-0.5-0.2c-0.3-0.1-0.6-0.3-0.9-0.6
	c-0.3-0.3-0.5-0.5-0.7-0.8c-0.2-0.3-0.3-0.6-0.4-0.9c-0.1-0.3-0.2-0.5-0.3-0.8c0-0.1-0.1-0.3-0.1-0.4c0-0.1,0-0.3,0-0.4
	c0-0.1,0-0.2,0-0.4c0-0.1,0-0.2,0-0.4c0,0.1-0.1,0.2-0.1,0.3c0,0.1-0.1,0.2-0.1,0.2c-0.1,0.2-0.2,0.3-0.2,0.5
	c-0.1,0.2-0.2,0.3-0.3,0.5c-0.2,0.3-0.4,0.6-0.6,1c-0.1,0.2-0.2,0.3-0.4,0.5c-0.1,0.2-0.3,0.3-0.4,0.5c-0.1,0.1-0.2,0.1-0.2,0.2
	c-0.1,0.1-0.2,0.1-0.3,0.2c-0.2,0.1-0.4,0.2-0.6,0.4c-0.1,0-0.2,0.1-0.3,0.1c-0.1,0-0.3,0.1-0.4,0.1c0,0,0,0,0,0c0,0,0,0-0.1,0h0
	h-0.1h0h-0.1h-0.1c-0.1,0-0.2,0-0.2,0c-0.1,0-0.1,0-0.2,0c-0.1,0-0.3,0-0.4-0.1c-0.1,0-0.3-0.1-0.4-0.1c-0.3-0.1-0.5-0.3-0.7-0.5
	c-0.2-0.2-0.4-0.4-0.5-0.6c-0.1-0.1-0.1-0.2-0.2-0.3c-0.1-0.1-0.1-0.2-0.1-0.3c-0.1-0.2-0.2-0.4-0.2-0.6c0-0.2-0.1-0.4-0.1-0.6
	c0-0.2-0.1-0.4-0.1-0.6c0-0.2,0-0.4,0-0.6c0-0.2,0-0.4,0-0.6c0-0.2,0-0.4,0-0.6c0-0.4,0.1-0.8,0.1-1.1c0.1-0.4,0.1-0.7,0.2-1.1
	c0.1-0.4,0.1-0.7,0.2-1.1c0.1-0.4,0.2-0.7,0.3-1.1c0.3-0.8,0.5-1.5,0.8-2.1c0.2-0.3,0.3-0.7,0.5-1c0.2-0.3,0.4-0.7,0.6-1
	c0.2-0.3,0.4-0.6,0.7-1c0.1-0.2,0.3-0.3,0.4-0.5c0.1-0.2,0.3-0.3,0.4-0.5c0.3-0.3,0.6-0.6,1.1-0.8c0.4-0.3,0.8-0.5,1.4-0.6
	c0.3-0.1,0.5-0.2,0.8-0.2c0.3,0,0.6,0,0.8,0c0.5,0,1.1,0.2,1.6,0.3c0.4,0.2,0.9,0.4,1.3,0.7c0.1,0.1,0.2,0.2,0.3,0.2
	c0.1,0.1,0.2,0.1,0.3,0.2c0.1,0.1,0.2,0.2,0.3,0.2c0.1,0,0.1,0.1,0.1,0.1l0.1,0.1c0.4,0.4,0.6,0.9,0.7,1.4c0,0.6-0.2,1-0.5,1.5
	c-0.4,0.4-0.9,0.6-1.4,0.6c-0.6,0-1-0.2-1.4-0.6c0,0-0.1,0-0.1-0.1c0,0,0,0-0.1-0.1l0-0.1l0,0L64.7,19c0,0,0-0.1-0.1-0.1
	c0,0,0,0-0.1,0l-0.2-0.2c-0.1-0.1-0.2-0.1-0.3-0.2c-0.1,0-0.1-0.1-0.2-0.1c-0.1,0-0.2-0.1-0.2-0.1c-0.1,0-0.1,0-0.2,0
	c-0.1,0-0.3,0-0.4,0c-0.2,0-0.4,0.1-0.5,0.2c-0.1,0-0.2,0.1-0.3,0.1c-0.1,0.1-0.2,0.1-0.3,0.2c-0.2,0.2-0.4,0.3-0.6,0.6
	c-0.2,0.2-0.4,0.4-0.6,0.6c-0.2,0.2-0.4,0.5-0.5,0.7c-0.2,0.3-0.3,0.5-0.5,0.8c-0.2,0.3-0.3,0.6-0.4,0.9c-0.1,0.3-0.3,0.6-0.4,0.9
	c-0.3,0.6-0.5,1.2-0.6,1.8c-0.1,0.3-0.2,0.6-0.3,0.9c-0.1,0.3-0.1,0.6-0.2,0.9c0,0.2-0.1,0.3-0.1,0.5c0,0.1,0,0.3,0,0.5
	c0,0.2,0,0.3,0,0.5c0,0.1,0,0.3,0,0.5c0,0.1,0,0.3,0,0.4c0,0.1,0,0.2,0.1,0.3c0,0.1,0,0.1,0.1,0.2c0,0.1,0,0.1,0.1,0.1
	c0,0,0,0.1,0.1,0.1c0,0,0,0.1,0.1,0.1c0,0,0.1,0.1,0.2,0.1l0.2,0.1c0,0,0,0,0,0c0,0,0,0,0.1,0h0h0h0h0c0.1,0,0.1,0,0.3-0.1
	c0.2,0,0.4-0.2,0.6-0.3c0.1-0.1,0.2-0.2,0.3-0.3c0.1-0.1,0.2-0.2,0.3-0.3c0.1-0.1,0.2-0.2,0.3-0.4c0.1-0.1,0.2-0.2,0.3-0.4l0.5-0.8
	c0.2-0.3,0.3-0.6,0.5-0.9c0.2-0.3,0.3-0.6,0.5-0.9c0.3-0.6,0.5-1.2,0.8-1.9c0-0.1,0.1-0.2,0.1-0.3c0-0.1,0.1-0.2,0.1-0.3
	c0-0.2,0.1-0.3,0.1-0.5c0-0.1,0-0.2,0.1-0.3c0-0.1,0-0.2,0.1-0.3c0-0.1,0-0.2,0.1-0.3l0.1-0.2c0,0,0-0.1,0-0.1c0,0,0,0,0-0.1v-0.1
	c0.2-0.5,0.6-0.9,1.1-1.2c0.5-0.3,1-0.3,1.6-0.1c0.6,0.2,1,0.5,1.2,1c0.3,0.5,0.3,1,0.1,1.6c0,0.1-0.1,0.1-0.1,0.2l-0.1,0.1
	l-0.1,0.1l-0.1,0.3c0,0.1-0.1,0.2-0.1,0.3c0,0.1-0.1,0.2-0.1,0.3c-0.1,0.2-0.1,0.4-0.2,0.5c-0.1,0.2-0.1,0.4-0.2,0.6
	c0,0.2-0.1,0.4-0.1,0.5s-0.1,0.4-0.2,0.6c0,0.1,0,0.2-0.1,0.3c0,0.1,0,0.2-0.1,0.3l-0.1,0.5c0,0.2-0.1,0.4-0.1,0.5
	c0,0.2,0,0.3,0,0.5c0,0.2,0,0.3,0,0.5c0,0.2,0,0.3,0,0.4c0,0.1,0,0.2,0.1,0.3c0,0.1,0.1,0.1,0.1,0.2c0,0,0.1,0.1,0.1,0.2
	c0,0,0.1,0.1,0.2,0.1c0.1,0,0.2,0.1,0.4,0.1c0,0,0.1,0,0.1,0h0h0h0h0h0.1c0,0,0.1,0,0.2,0c0.1,0,0.1,0,0.2-0.1
	c0.1,0,0.1-0.1,0.2-0.1c0.1,0,0.1-0.1,0.2-0.1c0.1-0.1,0.3-0.2,0.4-0.3c0.1-0.1,0.3-0.3,0.4-0.4c0.3-0.3,0.5-0.6,0.8-0.9
	c0.1-0.2,0.2-0.3,0.4-0.5c0.1-0.2,0.2-0.3,0.3-0.5c0.1-0.1,0.1-0.2,0.2-0.2c0.1-0.1,0.1-0.2,0.2-0.3c0.1-0.2,0.2-0.3,0.3-0.5
	c0.1-0.1,0.1-0.2,0.2-0.3c0.1-0.1,0.1-0.2,0.1-0.3c0.1-0.2,0.2-0.3,0.3-0.5c0.1-0.1,0.1-0.2,0.2-0.3c0-0.1,0.1-0.2,0.2-0.3l0.1-0.3
	l0.1-0.3v0c0.1-0.1,0.2-0.2,0.3-0.2c0.1,0,0.2,0,0.4,0c0.2,0.1,0.3,0.3,0.2,0.6l-0.1,0.1l-0.1,0.2l-0.1,0.3c0,0.1-0.1,0.2-0.1,0.3
	c0,0.1-0.1,0.2-0.1,0.3c0,0.1-0.1,0.2-0.1,0.3c0,0.1-0.1,0.2-0.1,0.3c-0.1,0.2-0.1,0.4-0.2,0.6c0,0.1-0.1,0.2-0.1,0.3
	c0,0.1-0.1,0.2-0.1,0.3c0,0.1-0.1,0.2-0.1,0.3c-0.1,0.1-0.1,0.2-0.1,0.3c-0.1,0.2-0.2,0.4-0.3,0.6c-0.1,0.2-0.2,0.4-0.3,0.6
	C71.1,29.5,70.8,29.9,70.6,30.2L70.6,30.2z M91.2,9.8c0.1,0,0.2,0,0.3,0.1s0.1,0.2,0.1,0.3c0,0.1,0,0.3-0.1,0.3
	c-0.1,0.1-0.2,0.1-0.3,0.2l-10.5,1c0,0,0,0.1-0.1,0.1c-0.1,0.3-0.2,0.7-0.4,1c-0.1,0.3-0.3,0.6-0.4,1c-0.3,0.7-0.6,1.3-0.8,2
	c-0.3,0.7-0.6,1.3-0.9,1.9c-0.2,0.3-0.3,0.7-0.5,1c-0.2,0.3-0.3,0.6-0.5,1c-0.1,0.2-0.2,0.3-0.2,0.5c-0.1,0.2-0.2,0.3-0.3,0.5
	l-0.2,0.5l-0.1,0.2l-0.1,0.2c0,0-0.1,0.1-0.1,0.1c0,0,0,0,0,0c0,0.1,0,0.2,0,0.2c0,0.1,0,0.1,0,0.2c0,0.3,0,0.7,0,1c0,0.3,0,0.6,0,1
	c0,0.7,0,1.3,0.1,1.9c0.1,0.6,0.1,1.2,0.3,1.8c0.2,0.5,0.4,1,0.6,1.4c0.1,0.2,0.3,0.3,0.4,0.4c0.1,0.1,0.3,0.2,0.5,0.2
	c0,0,0.1,0,0.2,0s0.1,0,0.1,0h0.3c0.2,0,0.4-0.1,0.7-0.2c0.1,0,0.2-0.1,0.3-0.2c0.1-0.1,0.2-0.1,0.3-0.2c0.1-0.1,0.2-0.2,0.3-0.3
	c0.1-0.1,0.2-0.2,0.3-0.3c0.1-0.1,0.2-0.2,0.3-0.3c0.1-0.1,0.2-0.2,0.3-0.4c0.1-0.1,0.2-0.2,0.3-0.4c0.1-0.1,0.2-0.3,0.3-0.4
	c0.1-0.1,0.2-0.3,0.3-0.4c0.1-0.1,0.2-0.3,0.2-0.4c0.1-0.2,0.2-0.3,0.3-0.5c0.1-0.1,0.1-0.3,0.2-0.5l0.4-0.9c0-0.1,0.1-0.2,0.1-0.2
	c0-0.1,0.1-0.1,0.1-0.2l0.1-0.2l0-0.1l0.1-0.1v0c0.1-0.2,0.2-0.3,0.3-0.3c0.2-0.1,0.3-0.1,0.5,0c0.1,0.1,0.2,0.2,0.3,0.3
	c0.1,0.1,0.1,0.3,0,0.4l0,0.2l0,0.1c0,0.1,0,0.2-0.1,0.3c0,0.1,0,0.2-0.1,0.3c0,0.1,0,0.2-0.1,0.3c0,0.2-0.1,0.4-0.1,0.5
	c-0.1,0.2-0.1,0.3-0.2,0.5c-0.1,0.2-0.1,0.3-0.2,0.5c-0.1,0.2-0.1,0.3-0.2,0.5l-0.5,1l-0.5,1c-0.1,0.2-0.2,0.3-0.3,0.5
	c-0.1,0.2-0.2,0.3-0.3,0.5c-0.1,0.2-0.2,0.3-0.4,0.5c-0.1,0.1-0.3,0.3-0.4,0.4c-0.2,0.1-0.3,0.3-0.5,0.4c-0.2,0.1-0.3,0.3-0.5,0.4
	c-0.4,0.3-0.8,0.4-1.3,0.5c-0.1,0-0.2,0.1-0.4,0.1c-0.1,0-0.2,0-0.4,0c-0.1,0-0.2,0-0.4,0c-0.1,0-0.3,0-0.4,0c-0.1,0-0.2,0-0.4-0.1
	c-0.1,0-0.2-0.1-0.4-0.1c-0.3-0.1-0.6-0.2-0.7-0.3c-0.2-0.1-0.5-0.3-0.7-0.4c-0.2-0.2-0.4-0.3-0.5-0.5c-0.3-0.3-0.6-0.7-0.8-1.1
	c-0.2-0.3-0.4-0.7-0.5-1.1c0-0.1-0.1-0.2-0.1-0.3s-0.1-0.2-0.1-0.3c-0.1-0.2-0.1-0.3-0.2-0.6c-0.1-0.4-0.2-0.8-0.3-1.1
	c-0.2-0.8-0.3-1.5-0.3-2.2c0-0.7-0.1-1.5,0-2.2c0-0.7,0.1-1.4,0.1-2.2c0-0.7,0.1-1.4,0.2-2.2c0.2-1.4,0.4-2.8,0.7-4.3
	c0.1-0.2,0.1-0.5,0.2-0.7c0.1-0.2,0.1-0.5,0.2-0.8l-11.3,0.4c-0.4,0-0.8-0.1-1.1-0.4c-0.3-0.3-0.5-0.6-0.5-1c0-0.4,0.1-0.8,0.4-1.1
	c0.3-0.3,0.6-0.5,1-0.5h0.1l12,0.4c0-0.1,0-0.1,0.1-0.2c0-0.1,0-0.1,0.1-0.2C74.8,8.7,75,8,75.3,7.3c0.3-0.7,0.6-1.3,0.9-2
	c0.2-0.3,0.3-0.7,0.5-1c0.2-0.3,0.4-0.6,0.6-1c0.1-0.2,0.2-0.3,0.3-0.5c0.1-0.2,0.2-0.3,0.4-0.5c0.1-0.2,0.2-0.3,0.4-0.5
	c0.1-0.1,0.3-0.3,0.4-0.4c0.2-0.1,0.3-0.3,0.5-0.4c0.1-0.1,0.3-0.3,0.5-0.4c0.1-0.1,0.2-0.1,0.3-0.2s0.2-0.1,0.3-0.2
	c0.1,0,0.2-0.1,0.3-0.1c0.1,0,0.2-0.1,0.4-0.1c0.1,0,0.2-0.1,0.4-0.1c0.1,0,0.3,0,0.4,0h0.1h0.1h0c0,0,0,0,0,0h0c0.1,0,0.2,0,0.2,0
	c0.1,0,0.2,0.1,0.5,0.1c0.1,0,0.2,0.1,0.2,0.1C83,0.4,83,0.5,83.1,0.5c0.1,0.1,0.2,0.3,0.3,0.4c0.1,0.2,0.2,0.5,0.2,0.8
	c0,0.1,0,0.2,0,0.3c0,0.1,0,0.2,0,0.3c0,0.1,0,0.2,0,0.3c0,0.1,0,0.2,0,0.3c0,0.2-0.1,0.4-0.1,0.6S83.4,3.8,83.3,4
	c0,0.2-0.1,0.4-0.1,0.5C83.2,4.7,83.1,4.9,83,5c0,0.1,0,0.2-0.1,0.2c0,0.1-0.1,0.2-0.1,0.3c0,0.1-0.1,0.2-0.1,0.3
	c0,0.1,0,0.2-0.1,0.3c-0.1,0.3-0.2,0.7-0.3,1c-0.1,0.3-0.2,0.7-0.4,1l-0.4,1l-0.2,0.5L81.3,10L91.2,9.8z M78.3,13.2
	c0.1-0.2,0.2-0.4,0.4-0.6c0.1-0.2,0.3-0.4,0.4-0.6l-1.3,0c-0.1,0.4-0.2,0.8-0.3,1.2c-0.1,0.4-0.2,0.8-0.3,1.2c0,0.1-0.1,0.3-0.1,0.4
	c0,0.1,0,0.3-0.1,0.4c0.2-0.3,0.4-0.6,0.6-1C77.9,13.8,78.1,13.5,78.3,13.2z M79.3,6.7c-0.2,0.5-0.4,1.1-0.6,1.6
	c-0.2,0.6-0.3,1.1-0.5,1.7l1.7,0c0-0.1,0.1-0.1,0.1-0.2c0-0.1,0-0.1,0.1-0.2c0.6-1.2,1.1-2.5,1.5-3.8c0-0.1,0.1-0.2,0.1-0.2
	c0-0.1,0-0.2,0.1-0.2c0-0.1,0-0.2,0.1-0.2c0-0.1,0-0.2,0.1-0.2c0-0.2,0.1-0.3,0.1-0.5c0-0.2,0.1-0.3,0.1-0.5c0.1-0.3,0.1-0.6,0.1-1
	c0-0.1,0-0.2,0-0.2c0-0.1,0-0.1,0-0.2c0-0.1-0.1-0.2-0.1-0.4c0-0.1-0.1-0.2-0.1-0.2H82v0l0,0h0h0v0h0c-0.1,0-0.1,0.1-0.2,0.1
	c-0.2,0.1-0.3,0.3-0.5,0.5c0,0.1-0.1,0.1-0.1,0.2c0,0.1-0.1,0.1-0.1,0.2c-0.1,0.1-0.1,0.2-0.2,0.4c-0.1,0.2-0.3,0.5-0.4,0.8
	c-0.1,0.1-0.1,0.3-0.2,0.4L80,4.9c-0.1,0.3-0.2,0.6-0.3,0.9C79.6,6.1,79.4,6.4,79.3,6.7z M83.2,29.4c0-0.2-0.1-0.4-0.1-0.5
	c0-0.2,0-0.3,0-0.5v-0.9c0-0.6,0.1-1.2,0.2-1.8c0-0.3,0.1-0.6,0.1-0.9c0-0.3,0.1-0.6,0.1-0.9c0.1-0.3,0.1-0.6,0.2-0.9
	c0.1-0.3,0.1-0.6,0.2-0.9c0.1-0.3,0.1-0.6,0.2-0.8c0.1-0.3,0.1-0.5,0.2-0.8c0.1-0.3,0.2-0.5,0.2-0.8c0.1-0.3,0.2-0.5,0.2-0.8
	l0.5-1.6l0.3-0.8l0.2-0.4c0-0.1,0.1-0.2,0.1-0.2c0-0.1,0-0.1,0.1-0.2c0.2-0.5,0.6-0.9,1.1-1.2c0.5-0.2,1.1-0.2,1.6,0
	c0.5,0.2,0.9,0.6,1.2,1.1c0.2,0.5,0.2,1,0,1.6c0,0,0,0.1,0,0.1h0l-0.1,0.4l-0.1,0.4c-0.1,0.1-0.1,0.2-0.2,0.4
	c-0.1,0.1-0.1,0.2-0.1,0.4c-0.1,0.3-0.2,0.5-0.3,0.8c-0.1,0.2-0.2,0.5-0.3,0.8c-0.1,0.2-0.2,0.5-0.3,0.7c-0.1,0.3-0.2,0.5-0.3,0.8
	c-0.1,0.2-0.2,0.5-0.3,0.7c-0.1,0.3-0.2,0.5-0.3,0.8c-0.1,0.2-0.2,0.5-0.3,0.7c-0.1,0.3-0.2,0.5-0.3,0.8c-0.1,0.2-0.1,0.5-0.2,0.7
	c-0.1,0.3-0.1,0.5-0.2,0.8c-0.1,0.2-0.1,0.5-0.2,0.7c-0.1,0.3-0.1,0.5-0.1,0.7c0,0.1,0,0.2,0,0.4c0,0.1,0,0.2,0,0.3
	c0,0.1,0,0.2,0,0.3c0,0.1,0,0.2,0,0.3c0,0.1,0,0.2,0,0.3s0,0.2,0,0.3c0,0,0,0.1,0,0.1c0,0,0,0,0,0.1c0,0,0,0.1,0,0.1v0v0
	c0,0,0,0,0,0c0,0,0,0,0.1,0h0.1c0,0,0,0,0,0c0,0,0,0,0,0h0c0.1,0,0.1,0,0.1,0c0,0,0.1,0,0.2-0.1c0.1-0.1,0.3-0.2,0.5-0.3
	c0.2-0.1,0.4-0.3,0.6-0.4c0.1-0.1,0.2-0.2,0.3-0.2c0.1-0.1,0.2-0.2,0.3-0.3c0.4-0.3,0.7-0.7,1.1-1.1c0.2-0.2,0.4-0.4,0.5-0.6
	c0.2-0.2,0.4-0.4,0.5-0.6c0.2-0.2,0.4-0.5,0.6-0.8c0.3-0.3,0.5-0.6,0.6-0.8c0.1-0.1,0.2-0.2,0.3-0.3c0.1-0.1,0.2-0.2,0.3-0.3
	l0.2-0.3c0-0.1,0.1-0.1,0.1-0.2c0-0.1,0.1-0.1,0.1-0.1c0.1-0.1,0.2-0.2,0.3-0.2c0.1,0,0.3,0,0.4,0.1c0.2,0.2,0.2,0.4,0.2,0.6
	c0,0.1-0.1,0.1-0.1,0.2c0,0.1-0.1,0.1-0.1,0.2l-0.2,0.4c-0.1,0.3-0.3,0.6-0.4,0.8c-0.1,0.3-0.3,0.6-0.5,1c-0.2,0.4-0.4,0.7-0.5,0.9
	c-0.2,0.2-0.3,0.5-0.5,0.7c-0.1,0.2-0.3,0.5-0.5,0.7c-0.2,0.2-0.3,0.5-0.5,0.7c-0.2,0.2-0.3,0.5-0.5,0.7c-0.1,0.1-0.2,0.2-0.3,0.4
	c-0.1,0.1-0.2,0.2-0.3,0.3c-0.1,0.1-0.2,0.2-0.3,0.3s-0.2,0.2-0.4,0.3c-0.3,0.2-0.6,0.4-0.8,0.6c-0.1,0-0.2,0.1-0.2,0.1
	c-0.1,0-0.2,0.1-0.3,0.1c-0.2,0.1-0.4,0.2-0.7,0.2h-0.1h0l-0.1,0h-0.1c-0.1,0-0.2,0-0.3,0c-0.3,0-0.5,0-0.7-0.1
	c-0.1,0-0.2-0.1-0.4-0.1c-0.1,0-0.3-0.1-0.4-0.2c-0.2-0.2-0.4-0.3-0.6-0.5c-0.2-0.2-0.3-0.4-0.4-0.6c-0.1-0.2-0.2-0.4-0.3-0.6
	c-0.1-0.2-0.1-0.4-0.2-0.6S83.2,29.6,83.2,29.4z M90.9,10.9c-0.7,0-1.4-0.3-1.9-0.8c-0.5-0.5-0.8-1.1-0.8-1.9c0-0.7,0.3-1.4,0.8-1.9
	c0.5-0.5,1.1-0.8,1.9-0.8c0.7,0,1.3,0.3,1.9,0.8c0.5,0.5,0.8,1.1,0.8,1.9c0,0.7-0.3,1.4-0.8,1.9C92.3,10.6,91.7,10.9,90.9,10.9z
	 M111,23.3c0.1-0.1,0.2-0.1,0.3,0c0.1,0,0.2,0.1,0.3,0.2c0.1,0.2,0.1,0.3,0,0.5c-0.1,0.1-0.1,0.2-0.2,0.3c-0.1,0.1-0.1,0.2-0.2,0.2
	c0,0-0.1,0.1-0.1,0.1c0,0-0.1,0.1-0.1,0.1c0,0-0.1,0.1-0.1,0.1c0,0-0.1,0.1-0.1,0.1c-0.3,0.3-0.6,0.6-1,0.8
	c-0.4,0.3-0.8,0.5-1.3,0.6c-0.2,0.1-0.5,0.1-0.7,0.2c-0.2,0-0.5,0.1-0.8,0.1c-0.1,0-0.2,0-0.4,0c-0.1,0-0.2,0-0.4,0
	c-0.1,0-0.3,0-0.4,0c-0.1,0-0.2,0-0.4-0.1c-0.1,0-0.2-0.1-0.3-0.1c-0.1,0-0.2,0-0.3-0.1c-0.1,0.1-0.2,0.2-0.3,0.3
	c-0.1,0.1-0.2,0.2-0.3,0.3c-0.2,0.3-0.5,0.6-0.7,0.9c-0.2,0.3-0.5,0.6-0.8,0.9l-1.5,1.9c-0.1,0.2-0.2,0.3-0.4,0.5
	c-0.1,0.2-0.2,0.3-0.4,0.5l-0.2,0.2l-0.2,0.2l-0.4,0.5c-0.4,0.3-0.8,0.5-1.3,0.5c-0.5,0-0.9-0.3-1.2-0.7c-0.1-0.1-0.2-0.3-0.3-0.4
	s-0.1-0.3-0.1-0.5v0L95.3,20c-0.3,0.8-0.6,1.7-0.9,2.6c-0.3,0.8-0.6,1.4-0.9,1.9c-0.3,0.5-0.4,0.7-0.4,0.8c-0.1,0.2-0.2,0.2-0.4,0.2
	c-0.1,0-0.1,0-0.2-0.1c-0.1-0.1-0.2-0.1-0.2-0.3c0-0.1,0-0.2,0-0.3c0,0,0.1-0.2,0.4-0.7c0.2-0.4,0.5-1,0.8-1.7
	c0.3-0.7,0.6-1.5,0.9-2.3c0.3-0.9,0.4-1.7,0.5-2.6l-0.1-0.8c-0.1-0.5,0-0.9,0.3-1.4c0.3-0.4,0.7-0.6,1.2-0.8c0.5-0.1,1,0,1.4,0.3
	c0.4,0.3,0.6,0.7,0.7,1.2l2,12.1c0.2-0.2,0.4-0.3,0.6-0.5c0.2-0.2,0.4-0.3,0.6-0.5c0.3-0.3,0.7-0.6,1-0.9c0.3-0.3,0.7-0.6,1-0.9
	c-0.6-0.4-1.1-0.9-1.5-1.5c-0.2-0.2-0.3-0.4-0.4-0.6c-0.1-0.2-0.3-0.5-0.3-0.7c0-0.1-0.1-0.2-0.1-0.3c-0.1-0.1-0.1-0.3-0.1-0.4
	c0-0.1-0.1-0.2-0.1-0.4c0-0.1,0-0.3-0.1-0.4c0-0.1,0-0.3,0-0.4c0-0.1,0-0.3,0-0.4c0-0.1,0-0.3,0-0.4c0-0.1,0-0.3,0-0.4
	c0.1-0.5,0.2-1,0.5-1.6c0.3-0.5,0.6-0.9,1-1.3l0.1-0.1l0.1,0v0c0,0,0.1-0.1,0.1-0.1c0,0,0,0,0.1-0.1c0,0,0.1-0.1,0.1-0.1
	c0.1,0,0.1-0.1,0.2-0.1c0.1-0.1,0.2-0.1,0.3-0.2s0.2-0.1,0.4-0.2c0.5-0.2,1-0.4,1.6-0.4c0.3,0,0.6,0,0.9,0c0.3,0,0.6,0.1,0.9,0.2
	c0.3,0.1,0.6,0.3,0.8,0.5c0.2,0.2,0.4,0.4,0.5,0.7c0.1,0.1,0.1,0.2,0.2,0.4c0,0.1,0.1,0.2,0.1,0.4l0.1,0.4c0,0.2,0.1,0.3,0.1,0.3
	c0,0,0,0.1,0,0.2v0v0.1h0v0v0.1v0.4c0,0.1,0,0.3,0,0.4c0,0.1,0,0.2,0,0.3c0,0.2-0.1,0.4-0.2,0.6c-0.1,0.2-0.1,0.4-0.2,0.6
	c-0.2,0.4-0.3,0.8-0.5,1.1c-0.2,0.4-0.4,0.7-0.6,1c-0.1,0.2-0.2,0.3-0.3,0.5c-0.1,0.2-0.2,0.3-0.3,0.5c0.2,0.1,0.4,0.2,0.6,0.2
	c0.6,0.1,1.2,0.1,1.8,0c0.4-0.1,0.7-0.2,1-0.4c0.1,0,0.2-0.1,0.2-0.1c0.1,0,0.2-0.1,0.2-0.1c0.1,0,0.2-0.1,0.3-0.1
	C110.8,23.4,110.9,23.4,111,23.3z M104.1,20.8c0,0.1,0,0.1,0,0.2c0,0.1,0,0.1,0,0.2l0.1,0.4c0,0.1,0.1,0.1,0.1,0.2
	c0,0.1,0,0.1,0.1,0.2l0.2,0.4c0.3,0.4,0.6,0.8,0.9,1c0.1-0.2,0.2-0.3,0.4-0.5c0.1-0.2,0.2-0.3,0.4-0.5c0.2-0.3,0.4-0.6,0.6-1
	c0-0.1,0.1-0.2,0.1-0.2c0-0.1,0.1-0.2,0.1-0.3c0-0.1,0.1-0.2,0.1-0.2c0-0.1,0.1-0.2,0.1-0.2c0.1-0.4,0.2-0.7,0.2-1
	c0-0.2,0-0.3,0-0.5c0,0,0-0.1,0-0.1s0-0.1,0-0.1v0v0l0,0v0c0,0,0,0,0,0c0,0,0,0,0,0c0-0.1-0.1-0.2-0.1-0.2c0-0.1-0.1-0.1-0.1-0.2
	c-0.1-0.1-0.2-0.2-0.2-0.3c-0.1-0.1-0.2-0.1-0.3-0.1c-0.1,0-0.1,0-0.3,0c-0.2,0-0.4,0.1-0.6,0.2c-0.2,0.1-0.4,0.3-0.6,0.4
	c-0.1,0.1-0.2,0.2-0.2,0.3l-0.1,0.1c0,0,0,0.1-0.1,0.1v0h0v0c-0.1,0.2-0.3,0.4-0.4,0.6c0,0.1-0.1,0.2-0.1,0.3c0,0.1-0.1,0.2-0.1,0.3
	v0.2c0,0,0,0.1,0,0.2V20.8z M127.2,25.9c-0.2,0.2-0.4,0.4-0.5,0.7c-0.2,0.2-0.4,0.4-0.5,0.7c-0.4,0.4-0.8,0.8-1.2,1.2
	c-0.4,0.4-0.8,0.8-1.3,1.2c-0.2,0.2-0.4,0.4-0.7,0.6c-0.2,0.2-0.5,0.4-0.7,0.5c-0.5,0.4-1,0.7-1.5,1c-0.6,0.4-1.2,0.6-1.7,0.9
	c-0.2,0.1-0.3,0.1-0.5,0.2c-0.2,0.1-0.3,0.1-0.5,0.1c-0.2,0-0.3,0.1-0.5,0.1c-0.2,0-0.3,0.1-0.5,0.1c-0.2,0-0.3,0.1-0.5,0.1
	s-0.4,0-0.5,0c-0.4,0-0.8,0-1.1-0.1c-0.4-0.1-0.8-0.2-1.1-0.4c-0.2-0.1-0.4-0.2-0.6-0.3c-0.2-0.1-0.4-0.2-0.5-0.3
	c-0.3-0.2-0.7-0.5-0.9-0.8c-0.1-0.2-0.3-0.3-0.4-0.5s-0.2-0.3-0.3-0.5c-0.1-0.2-0.2-0.3-0.3-0.5c-0.1-0.2-0.1-0.4-0.2-0.5
	c-0.1-0.4-0.2-0.7-0.3-1.1c-0.1-0.3-0.1-0.7-0.1-1c0-0.3,0-0.7,0-1c0-0.3,0.1-0.7,0.1-1c0.1-0.3,0.1-0.6,0.2-0.9
	c0.3-1.2,0.8-2.3,1.4-3.4c0.1-0.3,0.3-0.5,0.4-0.8c0.2-0.2,0.3-0.5,0.5-0.7c0.2-0.2,0.4-0.5,0.5-0.7c0.2-0.2,0.4-0.5,0.6-0.7
	c0.1-0.1,0.2-0.2,0.3-0.3c0.1-0.1,0.2-0.2,0.3-0.3c0.1-0.1,0.2-0.2,0.4-0.3s0.2-0.2,0.4-0.3c0.3-0.2,0.5-0.4,0.8-0.6
	c0.3-0.2,0.6-0.3,0.9-0.5c0.3-0.1,0.6-0.2,0.9-0.4c0.2,0,0.3-0.1,0.5-0.1c0.2,0,0.3-0.1,0.5-0.1c0.2,0,0.4-0.1,0.6-0.1
	c0.2,0,0.4,0,0.6,0c0.2,0,0.4,0.1,0.6,0.1c0.2,0,0.4,0.1,0.6,0.2c0.5,0.2,0.8,0.5,1.2,0.8c0.3,0.3,0.6,0.7,0.8,1.1
	c0.2,0.4,0.3,0.8,0.4,1.2c0.1,0.4,0.1,0.8,0.1,1.2c0,0.4,0,0.8-0.1,1.1c0,0.2-0.1,0.4-0.1,0.5c-0.1,0.2-0.1,0.3-0.1,0.5
	c-0.1,0.3-0.3,0.7-0.4,1c-0.1,0.3-0.3,0.6-0.6,0.9c-0.2,0.3-0.4,0.6-0.7,0.9c-0.3,0.3-0.6,0.6-0.9,0.8c-0.2,0.1-0.3,0.2-0.5,0.4
	c0,0-0.1,0-0.1,0.1l-0.1,0c0,0,0,0-0.1,0c0,0-0.1,0.1-0.2,0.1c-0.3,0.1-0.6,0.2-1,0.3c-0.7,0.2-1.4,0.2-2.1,0.2l-0.5-0.1
	c-0.1,0-0.2,0-0.3-0.1c-0.1,0-0.2,0-0.3-0.1c-0.4-0.1-0.7-0.3-1-0.5c-0.1,0-0.2-0.1-0.2-0.1c-0.1,0-0.1-0.1-0.2-0.2
	c0,0-0.1-0.1-0.2-0.2c-0.1,0-0.1-0.1-0.2-0.2c-0.1-0.1-0.2-0.2-0.3-0.4c-0.1-0.1-0.2-0.2-0.3-0.4c0,0,0,0,0-0.1c0,0,0,0,0-0.1v0.5
	c0,0.3,0,0.5,0,0.7c0,0.2,0.1,0.5,0.1,0.7c0,0.2,0.1,0.4,0.2,0.6c0.1,0.2,0.1,0.4,0.2,0.6c0.1,0.4,0.3,0.7,0.5,0.9
	c0.1,0.1,0.2,0.3,0.3,0.3c0.1,0.1,0.2,0.2,0.3,0.2c0.1,0.1,0.2,0.1,0.3,0.2c0.1,0.1,0.3,0.1,0.4,0.1c0.2,0.1,0.3,0.1,0.5,0.1
	c0.2,0,0.4,0.1,0.6,0.1c0.1,0,0.2,0,0.3,0c0.1,0,0.2,0,0.3,0c0.2,0,0.4,0,0.7,0c0.5,0,1-0.1,1.4-0.2c0.2-0.1,0.5-0.1,0.7-0.2
	c0.2-0.1,0.5-0.2,0.7-0.3c0.2-0.1,0.5-0.2,0.7-0.3c0.2-0.1,0.5-0.2,0.7-0.4c0.5-0.3,0.9-0.5,1.4-0.8c0.5-0.3,0.9-0.6,1.3-1
	c0.1-0.1,0.2-0.2,0.3-0.2c0.1-0.1,0.2-0.2,0.3-0.3c0.1-0.1,0.2-0.2,0.3-0.3c0.1-0.1,0.2-0.2,0.3-0.3c0.1-0.1,0.2-0.2,0.5-0.4
	c0.2-0.2,0.3-0.3,0.4-0.4c0.1-0.1,0.2-0.2,0.3-0.3l0.1-0.2l0.1-0.1c0.2-0.2,0.4-0.2,0.6,0c0.2,0.2,0.2,0.4,0.1,0.6l-0.1,0.1
	l-0.1,0.1l-0.1,0.2c0,0.1-0.1,0.1-0.1,0.2c0,0.1-0.1,0.1-0.1,0.2c-0.1,0.1-0.2,0.3-0.4,0.5C127.5,25.6,127.3,25.7,127.2,25.9z
	 M115.1,18.9c-0.4,0.4-0.7,0.8-0.9,1.3l0,0c-0.1,0.2-0.2,0.5-0.3,0.7c-0.1,0.2-0.2,0.5-0.3,0.7c-0.1,0.4-0.2,0.9-0.3,1.4l0,0
	c0.2,0.2,0.5,0.3,0.7,0.4c0.2,0.1,0.4,0.2,0.7,0.3c0,0,0.1,0,0.1,0c0,0,0,0,0.1,0c0,0,0.1,0,0.1,0c0,0,0,0,0.1,0c0.1,0,0.1,0,0.2,0
	c0,0,0.1,0,0.2,0c0.5,0,0.9,0,1.3-0.1c0.2-0.1,0.4-0.1,0.6-0.2c0.2-0.1,0.4-0.2,0.6-0.3c0.1-0.1,0.2-0.1,0.3-0.2
	c0.1-0.1,0.2-0.1,0.3-0.2c0,0,0,0,0.1,0c0,0,0,0,0.1,0l0,0l0,0c0,0,0.1,0,0.1-0.1c0,0,0,0,0.1-0.1c0,0,0.1-0.1,0.1-0.2
	c0-0.1,0.1-0.1,0.1-0.2c0.1-0.1,0.2-0.3,0.3-0.5c0.1-0.2,0.2-0.3,0.2-0.5c0.1-0.2,0.1-0.4,0.1-0.6c0-0.1,0-0.2,0.1-0.3
	c0-0.1,0-0.2,0-0.3c0-0.1,0-0.2,0-0.3c0-0.1,0-0.2,0-0.3c0-0.1,0-0.2,0-0.3c0-0.1,0-0.1,0-0.2c0-0.1,0-0.2,0-0.2c0-0.1,0-0.1,0-0.1
	c0-0.1,0-0.1,0-0.2c0,0,0-0.1,0-0.1c0-0.1,0-0.1-0.1-0.2c0,0-0.1-0.1-0.1-0.1c0,0-0.1-0.1-0.2-0.1c-0.1-0.1-0.3-0.2-0.5-0.2
	c-0.1,0-0.2-0.1-0.3-0.1c-0.1,0-0.2,0-0.3,0c-0.2,0-0.4,0-0.7,0c-0.5,0.1-0.9,0.2-1.3,0.5c-0.2,0.1-0.4,0.3-0.6,0.5
	C115.5,18.6,115.3,18.8,115.1,18.9L115.1,18.9z"/>
</svg>
