<?xml version="1.0" encoding="utf-8"?>
<!-- Generator: Adobe Illustrator 19.2.1, SVG Export Plug-In . SVG Version: 6.00 Build 0)  -->
<svg version="1.1" id="Layer_1" xmlns="http://www.w3.org/2000/svg" xmlns:xlink="http://www.w3.org/1999/xlink" x="0px" y="0px"
	 viewBox="0 0 70 30.3" style="enable-background:new 0 0 70 30.3;" xml:space="preserve">
<g>
	<path d="M8.2,17.8L12,0h4.5v30.3h-4.1l0.4-19.8l-3,14.4H6.7l-3-14.4l0.4,19.8H0V0h4.5L8.2,17.8z"/>
	<path d="M20.3,30.3V0h10.1v3.7h-6v9.2h5.3v3.7h-5.3v10.1h6v3.7H20.3z"/>
	<path d="M33.2,30.3V0h7.1C44.1,0,46,1.9,46,5.8v20.1c0,2.9-1.6,4.4-4.9,4.4H33.2z M37.3,26.6h3c1.1,0,1.6-0.4,1.6-1.4V5.9
		c0-1.5-0.6-2.2-1.8-2.2h-2.8V26.6z"/>
	<path d="M49.6,30.3V0h4.1v30.3H49.6z"/>
	<path d="M61.3,30.3h-4.1V5.2c0-3.5,1.6-5.2,4.9-5.2h3C68.4,0,70,1.7,70,5.2v25.1h-4.1V19.2h-4.6V30.3z M65.9,15.5V5.4
		c0-1.2-0.6-1.8-1.8-1.8h-1.1c-1.2,0-1.8,0.6-1.8,1.8v10.1H65.9z"/>
</g>
</svg>
