<?xml version="1.0" encoding="utf-8"?>
<!-- Generator: Adobe Illustrator 18.1.0, SVG Export Plug-In . SVG Version: 6.00 Build 0)  -->
<svg version="1.1" id="Capa_1" xmlns="http://www.w3.org/2000/svg" xmlns:xlink="http://www.w3.org/1999/xlink" x="0px" y="0px"
	 viewBox="-439 940.8 120.2 120.2" enable-background="new -439 940.8 120.2 120.2" xml:space="preserve">
<g>
	<g>
		<circle fill="#FFFFFF" cx="-419.3" cy="980.5" r="9.3"/>
		<path fill="#FFFFFF" d="M-401.2,1020.4c-0.2-2.1-2.1-3.8-4.2-3.8h0l-7.4,0v-10.2c2.5,2.2,5.3,3.5,8.9,3.5c2.2,0,4.8-0.5,7.8-1.7
			c1.9-0.7,2.8-2.8,2.1-4.7c-0.7-1.9-2.8-2.8-4.7-2.1c-7.3,2.8-8.7,1.2-15.1-7.5c0,0,0,0,0-0.1c-1.2-1.9-3.4-3.2-5.4-3.7
			c0,0-1-0.3-2-0.3c-1,0-2.1,0.3-2.1,0.3l0,0c-3.1,0.8-6.5,3.3-6.5,7.1l0,20.5c0,4.5,4.4,7.2,8.5,7.2c0.2,0,0.5,0,0.7,0l11.4,0
			l2.4,21.1c0.3,2.2,2.1,3.8,4.2,3.8c0.2,0,0.3,0,0.5,0c2.3-0.3,4-2.4,3.7-4.7L-401.2,1020.4z"/>
		<path fill="#FFFFFF" d="M-410.4,1030c0-2-1.6-3.6-3.6-3.6h-17.8v-28.6c0-2-1.6-3.6-3.6-3.6c-2,0-3.6,1.6-3.6,3.6v32.2
			c0,1.3,0.7,2.5,1.8,3.1c-0.7,1.2-1.1,2.6-1.1,4.1v10.1c0,1.7,1.4,3,3,3c1.7,0,3-1.4,3-3v-10.1c0-1.4,1.1-2.5,2.5-2.5h10.1
			c1.4,0,2.5,1.1,2.5,2.5v10.1c0,1.7,1.4,3,3,3c1.7,0,3-1.4,3-3v-10.1c0-1.5-0.4-2.9-1-4.1C-411.1,1032.6-410.4,1031.4-410.4,1030z"
			/>
		<circle fill="#FFFFFF" cx="-338.6" cy="980.5" r="9.3"/>
		<path fill="#FFFFFF" d="M-336.5,1025.2c4.1,0,8.5-2.8,8.5-7.2v-20.5c0-3.8-3.3-6.4-6.5-7.1l0,0c0,0-1.1-0.2-2.1-0.3
			c-1,0-2,0.3-2,0.3c-2.1,0.5-4.2,1.8-5.4,3.7c0,0,0,0,0,0.1c-6.4,8.7-7.8,10.3-15.1,7.5c-1.9-0.7-3.9,0.2-4.7,2.1
			c-0.7,1.9,0.2,3.9,2.1,4.7c3,1.1,5.5,1.7,7.8,1.7c3.7,0,6.5-1.4,8.9-3.5v10.2l-7.4,0c0,0,0,0,0,0c-2.2,0-4,1.6-4.2,3.8l-2.9,24.8
			c-0.3,2.3,1.4,4.5,3.7,4.7c0.2,0,0.3,0,0.5,0c2.1,0,4-1.6,4.2-3.8l2.4-21.1l11.4,0C-336.9,1025.2-336.7,1025.2-336.5,1025.2z"/>
		<path fill="#FFFFFF" d="M-318.8,1030v-32.2c0-2-1.6-3.6-3.6-3.6c-2,0-3.6,1.6-3.6,3.6v28.6h-17.8c-2,0-3.6,1.6-3.6,3.6
			c0,1.4,0.8,2.6,1.9,3.2c-0.7,1.2-1,2.6-1,4.1v10.1c0,1.7,1.4,3,3,3c1.7,0,3-1.4,3-3v-10.1c0-1.4,1.1-2.5,2.5-2.5h10.1
			c1.4,0,2.5,1.1,2.5,2.5v10.1c0,1.7,1.4,3,3,3c1.7,0,3-1.4,3-3v-10.1c0-1.5-0.4-2.9-1.1-4.1C-319.5,1032.5-318.8,1031.3-318.8,1030
			z"/>
		<path fill="#FFFFFF" d="M-356.2,1014.3c0-1.9-1.5-3.5-3.5-3.5h-40.1c-1.9,0-3.5,1.5-3.5,3.5c0,1.9,1.5,3.5,3.5,3.5h4.7v30.7h30.6
			v-30.7h4.7C-357.7,1017.7-356.2,1016.2-356.2,1014.3z"/>
		<path fill="#FFFFFF" d="M-403.5,975.6h0.8l-2.1,5l5.9-5h5.7v-2.4c0-1.4,1.2-2.6,2.6-2.6h23.3v-16.4c0-1.4-1.2-2.6-2.6-2.6h-33.6
			c-1.4,0-2.6,1.2-2.6,2.6V973C-406.1,974.4-404.9,975.6-403.5,975.6z M-378.6,959.9c1.4,0,2.5,1.1,2.5,2.5c0,1.4-1.1,2.5-2.5,2.5
			c-1.4,0-2.5-1.1-2.5-2.5C-381.1,961.1-380,959.9-378.6,959.9z M-386.5,959.9c1.4,0,2.5,1.1,2.5,2.5c0,1.4-1.1,2.5-2.5,2.5
			c-1.4,0-2.5-1.1-2.5-2.5C-389,961.1-387.9,959.9-386.5,959.9z M-394.7,959.9c1.4,0,2.5,1.1,2.5,2.5c0,1.4-1.1,2.5-2.5,2.5
			c-1.4,0-2.5-1.1-2.5-2.5C-397.2,961.1-396,959.9-394.7,959.9z"/>
		<path fill="#FFFFFF" d="M-391.1,975.1V994c0,1.4,1.2,2.6,2.6,2.6h29l5.9,5l-2.1-5h0.8c1.4,0,2.6-1.2,2.6-2.6v-18.9
			c0-1.4-1.2-2.6-2.6-2.6h-33.6C-390,972.5-391.1,973.7-391.1,975.1z M-363.7,981.4c1.4,0,2.5,1.1,2.5,2.5c0,1.4-1.1,2.5-2.5,2.5
			c-1.4,0-2.5-1.1-2.5-2.5C-366.2,982.6-365.1,981.4-363.7,981.4z M-371.6,981.4c1.4,0,2.5,1.1,2.5,2.5c0,1.4-1.1,2.5-2.5,2.5
			c-1.4,0-2.5-1.1-2.5-2.5C-374.1,982.6-372.9,981.4-371.6,981.4z M-379.7,981.4c1.4,0,2.5,1.1,2.5,2.5c0,1.4-1.1,2.5-2.5,2.5
			s-2.5-1.1-2.5-2.5C-382.2,982.6-381.1,981.4-379.7,981.4z"/>
	</g>
</g>
</svg>
