<?xml version="1.0" encoding="utf-8"?>
<!-- Generator: Adobe Illustrator 18.1.0, SVG Export Plug-In . SVG Version: 6.00 Build 0)  -->
<svg version="1.1" id="Capa_1" xmlns="http://www.w3.org/2000/svg" xmlns:xlink="http://www.w3.org/1999/xlink" x="0px" y="0px"
	 viewBox="27.3 500 945.3 1000" enable-background="new 27.3 500 945.3 1000" xml:space="preserve">
<g>
	<g>
		<g>
			<path fill="#FFFFFF" d="M907.8,574.3V500H27.3v925.8H31c8.2,33.9,33,74.2,89,74.2h852.6V574.3H907.8z M852.2,555.6
				c0,14.2,0,81.7,0,172.2H82.8c0-90.5,0-158,0-172.2C133,555.6,802,555.6,852.2,555.6z M82.8,768h769.3c0,230.5,0,568.2,0,602.3
				c-50.2,0-719.2,0-769.3,0C82.8,1336.2,82.8,998.6,82.8,768z M917.2,1444.5c-52,0-797.2,0-797.2,0c-17.1,0-26.3-9.1-31.2-18.7h819
				v-796c4,0,7.4,0,9.4,0C917.2,680.2,917.2,1394.1,917.2,1444.5z"/>
			<rect x="501.2" y="817.5" fill="#FFFFFF" width="279.8" height="55.5"/>
			<rect x="501.2" y="930.4" fill="#FFFFFF" width="279.8" height="55.7"/>
			<rect x="501.2" y="1043.3" fill="#FFFFFF" width="279.8" height="55.8"/>
			<rect x="501.2" y="1150.1" fill="#FFFFFF" width="279.8" height="55.8"/>
			<rect x="501.2" y="1263" fill="#FFFFFF" width="279.8" height="55.7"/>
			<rect x="134.5" y="817.5" fill="#FFFFFF" width="286" height="281.5"/>
			<rect x="310.8" y="591.8" fill="#FFFFFF" width="331" height="99"/>
			<rect x="131.4" y="1156.3" fill="#FFFFFF" width="294.5" height="55.8"/>
			<rect x="131.4" y="1269" fill="#FFFFFF" width="294.5" height="55.7"/>
		</g>
	</g>
</g>
</svg>
