<?xml version="1.0" encoding="utf-8"?>
<!-- Generator: Adobe Illustrator 18.1.0, SVG Export Plug-In . SVG Version: 6.00 Build 0)  -->
<svg version="1.1" id="Capa_1" xmlns="http://www.w3.org/2000/svg" xmlns:xlink="http://www.w3.org/1999/xlink" x="0px" y="0px"
	 viewBox="-483 985.7 31.3 31.3" enable-background="new -483 985.7 31.3 31.3" xml:space="preserve">
<g>
	<g>
		<rect x="-459.3" y="1000.9" fill="#FFFFFF" width="5.1" height="1.9"/>
		<polygon fill="#FFFFFF" points="-480.1,986.2 -480.1,989.1 -478.8,988.7 -478.8,987.4 -453,987.4 -453,1003.9 -473.5,1003.9 
			-473.6,1005.2 -451.7,1005.2 -451.7,986.2 		"/>
		<circle fill="#FFFFFF" cx="-478" cy="993.2" r="3.8"/>
		<polygon fill="#FFFFFF" points="-474.8,1014.8 -474.8,1008 -474.8,1007.3 -474.8,1006.5 -474.5,1006.5 -474.2,999.6 -467.6,996.2 
			-468.1,995.1 -468,995.4 -460.9,991.3 -461.2,990.8 -468.3,994.8 -468.5,994.5 -474.5,997.6 -476.6,997.6 -478.1,999.3 
			-479.5,997.6 -482.6,998.2 -482.8,1005.1 -481.5,1005.1 -481.4,1006.5 -481.2,1006.5 -481.2,1007.3 -481.2,1008 -481.2,1014.8 
			-481.5,1014.8 -483,1015.1 -483,1016.5 -481.7,1016.5 -480.2,1016.3 -480.2,1016.5 -478.5,1016.5 -478.5,1015 -478.5,1014.8 
			-478.5,1008 -477.5,1008 -477.5,1014.8 -477.5,1015 -477.5,1016.5 -475.8,1016.5 -475.8,1016.3 -474.3,1016.5 -473,1016.5 
			-473,1015.1 -474.5,1014.8 		"/>
	</g>
</g>
</svg>
